<svg xmlns="http://www.w3.org/2000/svg" width="482" height="454" fill="none"  xmlns:v="https://vecta.io/nano"><path fill="#123c5a" d="M0 0h482v454H0z"/><path d="M279.78 330.92c1.133 0 1.7.68 1.7 2.04s-.567 2.04-1.7 2.04c-4.533 0-11.56-.227-21.08-.68l-21.42-.68c-5.667 0-12.58.227-20.74.68-7.707.453-13.827.68-18.36.68-.907 0-1.36-.68-1.36-2.04s.453-2.04 1.36-2.04c5.893 0 10.087-.567 12.58-1.7 2.72-1.36 4.08-3.627 4.08-6.8 0-3.853-2.267-10.313-6.8-19.38l-35.36-69.7h-60.52l-24.14 53.38c-2.947 6.573-4.42 12.693-4.42 18.36 0 8.16 2.833 14.507 8.5 19.04 5.893 4.533 13.713 6.8 23.46 6.8 1.133 0 1.7.68 1.7 2.04s-.567 2.04-1.7 2.04c-4.08 0-9.973-.227-17.68-.68-8.613-.453-16.093-.68-22.44-.68-6.12 0-13.487.227-22.1.68-7.707.453-13.94.68-18.7.68-.907 0-1.36-.68-1.36-2.04s.453-2.04 1.36-2.04c6.347 0 11.673-1.247 15.98-3.74 4.307-2.72 8.613-7.367 12.92-13.94 4.307-6.8 9.407-16.773 15.3-29.92l73.78-162.18c.453-.68 1.473-1.02 3.06-1.02 1.813 0 2.833.34 3.06 1.02l85 167.28c7.933 16.093 14.507 27.2 19.72 33.32s10.653 9.18 16.32 9.18zm-163.2-107.1h51.34l-27.2-53.72-24.14 53.72zm327.699 89.08c.68 0 1.247.567 1.7 1.7.68 1.133.68 1.813 0 2.04l-46.92 22.78c-.453.227-1.02.34-1.7.34-2.04 0-3.967-2.04-5.78-6.12-1.587-4.08-2.607-9.633-3.06-16.66-7.48 7.027-14.96 12.58-22.44 16.66-7.48 3.853-15.753 5.78-24.82 5.78-9.293 0-17.907-2.267-25.84-6.8-7.707-4.76-13.827-11.673-18.36-20.74s-6.8-19.947-6.8-32.64c0-16.093 3.74-30.147 11.22-42.16 7.48-12.24 17.34-21.533 29.58-27.88s25.387-9.52 39.44-9.52c12.24 0 23.233 2.947 32.98 8.84 5.213-2.267 9.633-5.213 13.26-8.84.227-.227.567-.34 1.02-.34s.907.227 1.36.68c.68.227 1.02.567 1.02 1.02v96.9c0 6.8.68 11.673 2.04 14.62 1.587 2.72 4.08 4.08 7.48 4.08 2.947 0 7.593-1.247 13.94-3.74h.68zm-85.68 8.5c9.067 0 18.927-3.627 29.58-10.88v-73.44c0-8.84-2.493-16.093-7.48-21.76-4.76-5.667-11.107-8.5-19.04-8.5-11.333 0-20.287 5.667-26.86 17-6.347 11.333-9.52 25.953-9.52 43.86 0 17 2.833 30.26 8.5 39.78 5.893 9.293 14.167 13.94 24.82 13.94z" fill="#efdec6"/></svg>