<svg xmlns="http://www.w3.org/2000/svg" width="482" height="454" fill="none"  xmlns:v="https://vecta.io/nano"><path fill="#123c5a" d="M0 0h482v454H0z"/><path d="M143.528 339.4c-7.467 0-16.334-.35-26.6-1.05l-14-.7c-5.367-.233-11.434-.35-18.2-.35l-25.9.35c-4.667.233-10.967.35-18.9.35-.467 0-.7-.7-.7-2.1s.233-2.1.7-2.1c7.467 0 12.95-.583 16.45-1.75s5.833-3.383 7-6.65c1.4-3.5 2.1-8.75 2.1-15.75V147.6c0-7-.7-12.133-2.1-15.4-1.167-3.267-3.5-5.483-7-6.65-3.267-1.4-8.517-2.1-15.75-2.1-.7 0-1.05-.7-1.05-2.1s.35-2.1 1.05-2.1l18.55.35c10.733.467 19.25.7 25.55.7a422.53 422.53 0 0 0 29.4-1.05l24.5-.7c23.566 0 44.45 4.667 62.65 14 18.433 9.333 32.666 22.05 42.7 38.15s15.05 34.183 15.05 54.25c0 22.633-5.25 42.7-15.75 60.2-10.267 17.267-24.267 30.683-42 40.25-17.5 9.333-36.75 14-57.75 14zm-3.5-8.05c14.933 0 28.116-3.733 39.55-11.2 11.433-7.7 20.3-19.017 26.6-33.95 6.533-14.933 9.8-32.783 9.8-53.55 0-19.833-3.034-37.8-9.1-53.9-6.067-16.333-14.7-29.167-25.9-38.5s-24.15-14-38.85-14c-14.467 0-24.384 1.4-29.75 4.2s-8.05 8.75-8.05 17.85v157.5c0 9.333 2.45 15.983 7.35 19.95 4.9 3.733 14.35 5.6 28.35 5.6zm310.176-16.1c.7 0 1.284.583 1.75 1.75.7 1.167.817 1.867.35 2.1l-48.3 23.45-1.75.35c-2.1 0-4.083-2.217-5.95-6.65-1.633-4.433-2.683-10.5-3.15-18.2-17.266 16.333-34.883 24.5-52.85 24.5-10.266 0-19.6-2.683-28-8.05-8.166-5.367-14.7-13.183-19.6-23.45-4.9-10.5-7.35-22.75-7.35-36.75 0-17.733 4.084-32.2 12.25-43.4 8.4-11.433 18.667-19.717 30.8-24.85 12.367-5.133 24.734-7.7 37.1-7.7 8.634 0 17.734 1.4 27.3 4.2v-70.7c0-8.167-.816-14-2.45-17.5-1.4-3.5-3.966-5.25-7.7-5.25-3.033 0-7.35 1.283-12.95 3.85h-.35c-.933 0-1.75-.583-2.45-1.75-.466-1.4-.466-2.217 0-2.45l51.45-24.15 1.4-.35c1.167 0 2.45.583 3.85 1.75 1.4.933 2.1 1.867 2.1 2.8v208.6c0 7.933.7 13.533 2.1 16.8 1.634 3.267 4.2 4.9 7.7 4.9 3.034 0 7.817-1.283 14.35-3.85h.35zm-90.65 10.5c11.667 0 22.75-4.9 33.25-14.7v-86.8c-4.2-5.833-8.983-10.033-14.35-12.6-5.133-2.8-11.2-4.2-18.2-4.2-12.6 0-22.283 4.433-29.05 13.3-6.533 8.633-9.8 22.75-9.8 42.35s3.5 35 10.5 46.2c7 10.967 16.217 16.45 27.65 16.45z" fill="#efdec6"/></svg>