<svg xmlns="http://www.w3.org/2000/svg" width="482" height="454" fill="none"  xmlns:v="https://vecta.io/nano"><path fill="#123c5a" d="M0 0h482v454H0z"/><path d="M264.26 164.46c0 .507-.76.887-2.28 1.14-1.267.253-2.027 0-2.28-.76-4.053-14.693-10.893-25.587-20.52-32.68s-22.293-10.64-38-10.64h-11.4c-7.6 0-13.173 1.647-16.72 4.94s-5.32 8.36-5.32 15.2v82.08h27.36c14.693 0 25.84-2.533 33.44-7.6 7.853-5.32 11.78-12.54 11.78-21.66 0-.507.76-.76 2.28-.76s2.28.253 2.28.76l-.38 34.58c0 8.107.127 14.187.38 18.24l.38 20.14c0 .76-.76 1.14-2.28 1.14s-2.28-.38-2.28-1.14c0-10.133-4.053-18.113-12.16-23.94-7.853-6.08-19.127-9.12-33.82-9.12h-26.98v81.32c0 7.853 1.013 13.68 3.04 17.48s5.827 6.46 11.4 7.98 14.313 2.28 26.22 2.28c.507 0 .76.76.76 2.28s-.253 2.28-.76 2.28c-10.387 0-18.493-.127-24.32-.38l-38.76-.38-28.5.38c-5.067.253-12.033.38-20.9.38-.76 0-1.14-.76-1.14-2.28s.38-2.28 1.14-2.28c8.867 0 15.327-.633 19.38-1.9s6.713-3.673 7.98-7.22c1.52-3.8 2.28-9.5 2.28-17.1V141.28c0-7.6-.633-13.173-1.9-16.72s-3.8-5.953-7.6-7.22c-3.8-1.52-9.627-2.28-17.48-2.28-.76 0-1.14-.76-1.14-2.28s.38-2.28 1.14-2.28H259.7c2.533 0 3.8 1.14 3.8 3.42l.76 50.54zm138.495-92.34c14.187 0 25.207 2.027 33.06 6.08 7.853 3.8 11.78 9.247 11.78 16.34 0 5.827-2.027 10.387-6.08 13.68-3.8 3.293-8.233 4.94-13.3 4.94-6.08 0-10.513-1.393-13.3-4.18s-5.32-6.84-7.6-12.16-4.687-9.247-7.22-11.78c-2.533-2.787-6.587-4.18-12.16-4.18-11.653 0-20.9 8.107-27.74 24.32-6.587 16.213-9.88 41.547-9.88 76v23.18c7.853-.253 21.787-1.393 41.8-3.42.76 0 1.393 1.013 1.9 3.04.507 1.773.76 3.8.76 6.08 0 2.533-.507 5.067-1.52 7.6-.76 2.28-1.52 3.293-2.28 3.04-12.16-3.04-25.713-4.94-40.66-5.7v102.22c0 7.853.76 13.553 2.28 17.1s4.56 5.953 9.12 7.22c4.813 1.267 12.287 1.9 22.42 1.9 1.013 0 1.52.76 1.52 2.28s-.507 2.28-1.52 2.28l-26.22-.38c-5.827-.253-14.44-.38-25.84-.38l-23.18.38c-4.053.253-9.753.38-17.1.38-1.013 0-1.52-.76-1.52-2.28s.507-2.28 1.52-2.28c6.587 0 11.4-.633 14.44-1.9 3.293-1.267 5.447-3.673 6.46-7.22 1.267-3.8 1.9-9.5 1.9-17.1v-85.5c0-7.853-1.647-12.92-4.94-15.2-3.293-2.533-9.753-3.8-19.38-3.8-.76 0-1.14-1.14-1.14-3.42s.38-3.42 1.14-3.42c8.867 0 14.947-1.14 18.24-3.42 3.293-2.533 5.067-6.967 5.32-13.3 1.267-41.293 9.12-71.06 23.56-89.3 14.44-18.493 36.227-27.74 65.36-27.74z" fill="#efdec6"/></svg>