<svg xmlns="http://www.w3.org/2000/svg" width="482" height="454" fill="none"  xmlns:v="https://vecta.io/nano"><path fill="#123c5a" d="M0 0h482v454H0z"/><path d="M271.76 343.92c.68 0 1.02.68 1.02 2.04s-.34 2.04-1.02 2.04h-38.08l-9.18.34-6.12.34c-3.627 0-6.8-.793-9.52-2.38-2.493-1.813-5.667-4.987-9.52-9.52-3.627-4.533-10.2-13.26-19.72-26.18-1.133-1.587-2.493-3.287-4.08-5.1a205.63 205.63 0 0 0-4.76-6.8l-44.54-59.84-7.48 7.48v74.12c0 7.027.567 12.127 1.7 15.3s3.287 5.327 6.46 6.46c3.4 1.133 8.727 1.7 15.98 1.7.907 0 1.36.68 1.36 2.04s-.453 2.04-1.36 2.04c-7.48 0-13.373-.113-17.68-.34l-25.5-.34-25.16.34c-4.533.227-10.653.34-18.36.34-.453 0-.68-.68-.68-2.04s.227-2.04.68-2.04c7.253 0 12.58-.567 15.98-1.7s5.667-3.287 6.8-6.46c1.36-3.4 2.04-8.5 2.04-15.3V163.04c0-6.8-.68-11.787-2.04-14.96-1.133-3.173-3.4-5.327-6.8-6.46-3.173-1.36-8.273-2.04-15.3-2.04-.68 0-1.02-.68-1.02-2.04s.34-2.04 1.02-2.04l18.02.34c10.427.453 18.7.68 24.82.68 6.8 0 15.413-.227 25.84-.68l17.34-.34c.68 0 1.02.68 1.02 2.04s-.34 2.04-1.02 2.04c-7.027 0-12.24.68-15.64 2.04-3.173 1.36-5.44 3.74-6.8 7.14-1.133 3.173-1.7 8.16-1.7 14.96v72.08l63.92-65.28c6.573-6.573 9.86-12.58 9.86-18.02 0-4.08-1.813-7.253-5.44-9.52s-8.727-3.4-15.3-3.4c-.68 0-1.02-.68-1.02-2.04s.34-2.04 1.02-2.04l15.98.34c9.973.453 19.267.68 27.88.68 9.293 0 18.927-.227 28.9-.68l15.3-.34c.68 0 1.02.68 1.02 2.04s-.34 2.04-1.02 2.04c-10.427 0-21.873 3.06-34.34 9.18-12.467 5.893-23.8 13.827-34 23.8l-38.42 39.1 50.32 68c14.733 21.08 25.727 36.04 32.98 44.88 7.48 8.613 13.487 14.053 18.02 16.32 4.533 2.04 10.313 3.06 17.34 3.06zm166.013 0c.68 0 1.02.68 1.02 2.04s-.34 2.04-1.02 2.04c-5.893 0-10.54-.113-13.94-.34l-20.4-.34-26.18.34c-3.853.227-9.067.34-15.64.34-.68 0-1.02-.68-1.02-2.04s.34-2.04 1.02-2.04c8.16 0 12.24-2.38 12.24-7.14 0-2.493-.907-4.76-2.72-6.8l-38.76-49.64-6.46 5.78v34.34c0 9.067 1.247 15.3 3.74 18.7 2.72 3.173 7.593 4.76 14.62 4.76.907 0 1.36.68 1.36 2.04s-.453 2.04-1.36 2.04c-5.893 0-10.653-.113-14.28-.34l-19.72-.34-20.4.34c-3.4.227-8.047.34-13.94.34-.453 0-.68-.68-.68-2.04s.227-2.04.68-2.04c7.027 0 11.787-1.587 14.28-4.76 2.72-3.4 4.08-9.633 4.08-18.7V147.74c0-7.933-.793-13.6-2.38-17-1.36-3.4-3.853-5.1-7.48-5.1-3.173 0-7.48 1.247-12.92 3.74h-.34c-.68 0-1.36-.567-2.04-1.7-.453-1.36-.453-2.153 0-2.38l49.64-23.46 1.7-.34c1.133 0 2.267.567 3.4 1.7 1.36.907 2.04 1.813 2.04 2.72V278.3l31.62-30.6c5.893-5.44 8.84-10.993 8.84-16.66 0-2.947-1.133-5.327-3.4-7.14-2.267-2.04-5.44-3.06-9.52-3.06-.453 0-.68-.68-.68-2.04s.227-2.04.68-2.04c6.573 0 11.673.113 15.3.34l26.86.34 24.82-.34c3.173-.227 7.593-.34 13.26-.34.68 0 1.02.68 1.02 2.04s-.34 2.04-1.02 2.04c-9.747 0-20.967 2.493-33.66 7.48-12.467 4.76-23.687 11.787-33.66 21.08l-12.24 11.22 46.58 59.84c6.573 8.16 12.807 14.167 18.7 18.02 6.12 3.627 12.24 5.44 18.36 5.44z" fill="#efdec6"/></svg>