<svg xmlns="http://www.w3.org/2000/svg" width="482" height="454" fill="none"  xmlns:v="https://vecta.io/nano"><path fill="#123c5a" d="M0 0h482v454H0z"/><path d="M163.2 320c0 6.933.533 12 1.6 15.2 1.067 2.933 3.067 4.933 6 6 3.2 1.067 8.267 1.6 15.2 1.6h13.6c20.8 0 38.8-5.467 54-16.4 15.2-11.2 25.333-26.267 30.4-45.2 0-.533.533-.8 1.6-.8.533 0 1.067.267 1.6.8.8.267 1.2.533 1.2.8-2.4 26.4-3.6 48.4-3.6 66 0 2.133-.533 3.733-1.6 4.8-.8.8-2.267 1.2-4.4 1.2H90c-.533 0-.8-.8-.8-2.4s.267-2.4.8-2.4c8.533 0 14.667-.667 18.4-2 4-1.333 6.667-3.867 8-7.6 1.6-4 2.4-10 2.4-18V136.4c0-8-.8-13.867-2.4-17.6-1.333-3.733-4-6.267-8-7.6-4-1.6-10.133-2.4-18.4-2.4-.533 0-.8-.8-.8-2.4s.267-2.4.8-2.4l20.4.4c12.267.533 22.4.8 30.4.8s18.133-.267 30.4-.8l20.4-.4c.8 0 1.2.8 1.2 2.4s-.4 2.4-1.2 2.4c-8.267 0-14.4.8-18.4 2.4-4 1.333-6.667 4-8 8-1.333 3.733-2 9.6-2 17.6V320zm146.769 34c-.534 0-.8-.8-.8-2.4s.266-2.4.8-2.4c8.266 0 13.866-1.867 16.8-5.6 3.2-4 4.8-11.333 4.8-22l.4-203.2c0-9.333-.934-16-2.8-20-1.6-4-4.534-6-8.8-6-3.467 0-8.534 1.467-15.2 4.4h-.4c-.8 0-1.6-.667-2.4-2-.534-1.6-.534-2.533 0-2.8l58.8-27.6 1.6-.4c1.333 0 2.8.667 4.4 2 1.6 1.067 2.4 2.133 2.4 3.2v252.4c0 10.667 1.466 18 4.4 22 2.933 3.733 8.533 5.6 16.8 5.6 1.066 0 1.6.8 1.6 2.4s-.534 2.4-1.6 2.4c-6.667 0-12-.133-16-.4l-24.4-.4-24 .4c-4 .267-9.467.4-16.4.4z" fill="#efdec6"/></svg>