<svg xmlns="http://www.w3.org/2000/svg" width="482" height="454" fill="none"  xmlns:v="https://vecta.io/nano"><path fill="#123c5a" d="M0 0h482v454H0z"/><path d="M128.76 272.4c0 7.68.84 13.32 2.52 16.92 1.68 3.36 4.8 5.76 9.36 7.2 4.8 1.44 12.36 2.16 22.68 2.16.72 0 1.08.72 1.08 2.16s-.36 2.16-1.08 2.16c-9.84 0-17.52-.12-23.04-.36l-31.32-.36-26.28.36c-4.8.24-11.28.36-19.44.36-.72 0-1.08-.72-1.08-2.16s.36-2.16 1.08-2.16c7.68 0 13.2-.6 16.56-1.8 3.6-1.2 6-3.48 7.2-6.84 1.2-3.6 1.8-9 1.8-16.2V107.16c0-7.2-.6-12.48-1.8-15.84s-3.6-5.64-7.2-6.84c-3.6-1.44-9.12-2.16-16.56-2.16-.72 0-1.08-.72-1.08-2.16S62.52 78 63.24 78l19.08.36c11.04.48 19.8.72 26.28.72 5.76 0 12.6-.36 20.52-1.08 3.12-.24 7.08-.48 11.88-.72s10.32-.36 16.56-.36c24.48 0 43.8 5.16 57.96 15.48 14.16 10.08 21.24 25.8 21.24 47.16 0 14.88-3.84 27.48-11.52 37.8s-17.64 18.12-29.88 23.4c-12 5.28-24.36 7.92-37.08 7.92-6.48 0-12.12-.6-16.92-1.8-.48 0-.72-.6-.72-1.8 0-.72.12-1.44.36-2.16.48-.72.96-.96 1.44-.72 3.6.96 7.68 1.44 12.24 1.44 11.04 0 20.16-5.16 27.36-15.48 7.44-10.32 11.16-24.96 11.16-43.92s-4.08-33.6-12.24-43.92C173.04 90 161.4 84.84 146.04 84.84c-6.72 0-11.28 1.56-13.68 4.68s-3.6 9.24-3.6 18.36V272.4zm210.966 35.28c-11.76 0-22.08-1.32-30.96-3.96v69.12c0 7.2.72 12.48 2.16 15.84 1.68 3.36 4.68 5.64 9 6.84 4.56 1.44 11.52 2.16 20.88 2.16.72 0 1.08.72 1.08 2.16s-.36 2.16-1.08 2.16c-8.88 0-15.84-.12-20.88-.36l-28.44-.36-21.24.36c-3.6.24-8.64.36-15.12.36-.72 0-1.08-.72-1.08-2.16s.36-2.16 1.08-2.16c5.76 0 9.96-.72 12.6-2.16 2.88-1.2 4.8-3.48 5.76-6.84 1.2-3.36 1.8-8.64 1.8-15.84V206.16c0-7.68-.84-13.2-2.52-16.56s-4.68-5.04-9-5.04c-3.84 0-9.36 1.68-16.56 5.04h-.72c-.72 0-1.32-.6-1.8-1.8-.72-1.2-.84-1.92-.36-2.16l51.12-24.84c.48-.24 1.08-.36 1.8-.36 2.4 0 4.56 2.04 6.48 6.12 2.16 4.08 3.6 9.6 4.32 16.56 17.52-15.84 35.52-23.76 54-23.76 10.08 0 19.44 2.64 28.08 7.92 8.88 5.28 15.96 12.96 21.24 23.04s7.92 21.84 7.92 35.28c0 19.2-3.96 35.04-11.88 47.52-7.92 12.24-18 21.12-30.24 26.64-12 5.28-24.48 7.92-37.44 7.92zm-1.44-128.16c-10.8 0-20.64 3.84-29.52 11.52v89.64c5.28 6 10.8 10.56 16.56 13.68 5.76 2.88 12.84 4.32 21.24 4.32 24.24 0 36.36-20.64 36.36-61.92 0-18.24-4.32-32.28-12.96-42.12-8.4-10.08-18.96-15.12-31.68-15.12z" fill="#efdec6"/></svg>