<svg xmlns="http://www.w3.org/2000/svg" width="482" height="454" fill="none"  xmlns:v="https://vecta.io/nano"><path fill="#123c5a" d="M0 0h482v454H0z"/><path d="M271.58 322.04c.66 0 .99.66.99 1.98s-.33 1.98-.99 1.98l-29.37-.33-23.43.33c-2.64 0-4.4-.33-5.28-.99-.66-.66-.99-2.42-.99-5.28v-22.44c-11.66 11.22-23.32 19.47-34.98 24.75s-24.42 7.92-38.28 7.92c-14.3 0-27.39-2.64-39.27-7.92-11.66-5.5-20.9-13.2-27.72-23.1s-10.23-21.34-10.23-34.32V146.48c0-6.6-.55-11.44-1.65-14.52s-3.3-5.17-6.6-6.27c-3.3-1.32-8.36-1.98-15.18-1.98-.66 0-.99-.66-.99-1.98s.33-1.98.99-1.98l17.49.33c10.12.44 18.15.66 24.09.66 6.6 0 14.96-.22 25.08-.66l17.16-.33c.44 0 .66.66.66 1.98s-.22 1.98-.66 1.98c-6.82 0-11.88.66-15.18 1.98s-5.61 3.63-6.93 6.93c-1.1 3.08-1.65 7.92-1.65 14.52v105.93c0 20.46 4.84 36.19 14.52 47.19 9.9 11 23.1 16.5 39.6 16.5 10.56 0 20.57-2.31 30.03-6.93s19.36-11.88 29.7-21.78V147.14c0-6.6-.55-11.44-1.65-14.52-1.1-3.3-3.3-5.61-6.6-6.93-3.08-1.32-8.14-1.98-15.18-1.98-.44 0-.66-.66-.66-1.98s.22-1.98.66-1.98l17.49.33c9.68.44 17.38.66 23.1.66 6.38 0 14.41-.22 24.09-.66l17.82-.33c.66 0 .99.66.99 1.98s-.33 1.98-.99 1.98c-6.82 0-11.88.66-15.18 1.98-3.3 1.1-5.61 3.19-6.93 6.27-1.1 3.08-1.65 7.92-1.65 14.52v152.79c0 6.6.55 11.55 1.65 14.85 1.32 3.08 3.52 5.17 6.6 6.27 3.3 1.1 8.47 1.65 15.51 1.65zm175.168-17.49c.66 0 1.21.55 1.65 1.65.66 1.1.66 1.76 0 1.98l-45.54 22.11c-.44.22-.99.33-1.65.33-2.2 0-4.18-2.31-5.94-6.93-1.54-4.84-2.42-11.33-2.64-19.47-14.52 17.16-30.25 25.74-47.19 25.74-12.1 0-21.67-3.74-28.71-11.22-6.82-7.7-10.23-17.71-10.23-30.03V240.2c0-14.3-3.41-21.45-10.23-21.45-2.42 0-5.17.77-8.25 2.31h-.33c-.88 0-1.54-.55-1.98-1.65-.44-1.32-.33-2.09.33-2.31l44.22-21.12 1.65-.33c1.1 0 2.2.55 3.3 1.65 1.32.88 1.98 1.76 1.98 2.64v72.93c0 23.76 9.13 35.64 27.39 35.64 4.84 0 9.68-.99 14.52-2.97 5.06-2.2 9.57-5.17 13.53-8.91V240.2c0-14.3-3.41-21.45-10.23-21.45-2.42 0-5.28.77-8.58 2.31h-.33c-.66 0-1.21-.55-1.65-1.65-.44-1.32-.33-2.09.33-2.31l44.22-21.12c.44-.22.99-.33 1.65-.33 1.1 0 2.2.55 3.3 1.65 1.32.88 1.98 1.76 1.98 2.64v87.78c0 7.48.66 12.76 1.98 15.84 1.54 3.08 3.96 4.62 7.26 4.62 3.08 0 7.59-1.21 13.53-3.63h.66z" fill="#efdec6"/></svg>