<svg xmlns="http://www.w3.org/2000/svg" width="482" height="454" fill="none"  xmlns:v="https://vecta.io/nano"><path fill="#123c5a" d="M0 0h482v454H0z"/><path d="M286.4 117c.72 0 1.08.72 1.08 2.16s-.36 2.16-1.08 2.16c-8.64 0-16.92 3.84-24.84 11.52s-14.28 18-19.08 30.96l-66.6 177.84c-.24.96-1.56 1.44-3.96 1.44s-3.72-.48-3.96-1.44l-91.8-194.76c-4.32-8.64-8.64-15-12.96-19.08-4.32-4.32-9.12-6.48-14.4-6.48-.72 0-1.08-.72-1.08-2.16s.36-2.16 1.08-2.16c3.6 0 6.12.12 7.56.36 4.8.48 11.04.72 18.72.72l52.56-.72c3.84-.24 8.64-.36 14.4-.36.72 0 1.08.72 1.08 2.16s-.36 2.16-1.08 2.16c-7.2 0-12.84 1.56-16.92 4.68-3.84 2.88-5.76 7.08-5.76 12.6 0 4.08 1.32 9 3.96 14.76L185.6 286.2l46.8-123.48c2.4-6.72 3.6-12.48 3.6-17.28 0-7.44-2.28-13.32-6.84-17.64-4.32-4.32-10.68-6.48-19.08-6.48-.72 0-1.08-.72-1.08-2.16s.36-2.16 1.08-2.16l17.64.36c10.08.48 19.08.72 27 .72 4.56 0 10.2-.24 16.92-.72l14.76-.36zm153.259 86.04c.48 0 .72.72.72 2.16s-.24 2.16-.72 2.16c-6.96 0-13.2 2.64-18.72 7.92-5.28 5.28-10.32 13.44-15.12 24.48L361.539 342c-.24 1.2-1.56 1.8-3.96 1.8-1.92 0-3.24-.6-3.96-1.8l-55.08-109.08c-5.04-10.56-9.48-17.4-13.32-20.52-3.84-3.36-8.52-5.04-14.04-5.04-.72 0-1.08-.72-1.08-2.16s.36-2.16 1.08-2.16c4.32 0 7.92.12 10.8.36l24.12.36 27.72-.36c4.08-.24 9.72-.36 16.92-.36.72 0 1.08.72 1.08 2.16s-.36 2.16-1.08 2.16c-13.92 0-20.88 2.76-20.88 8.28 0 1.44.6 3.36 1.8 5.76l40.32 75.6 23.76-57.6c1.92-5.04 2.88-9.36 2.88-12.96 0-6-2.04-10.68-6.12-14.04s-9.72-5.04-16.92-5.04c-.48 0-.72-.72-.72-2.16s.24-2.16.72-2.16c6.48 0 11.4.12 14.76.36l21.6.36 14.4-.36c2.88-.24 7.32-.36 13.32-.36z" fill="#efdec6"/></svg>