<svg xmlns="http://www.w3.org/2000/svg" width="482" height="454" fill="none"  xmlns:v="https://vecta.io/nano"><path fill="#123c5a" d="M0 0h482v454H0z"/><path d="M277.8 141c.373 0 .56.56.56 1.68s-.187 1.68-.56 1.68c-7.093 0-13.907 2.987-20.44 8.96-6.533 5.787-11.2 13.813-14 24.08l-38.64 138.32c0 .747-1.027 1.12-3.08 1.12-1.867 0-2.893-.373-3.08-1.12l-54.32-127.68-40.6 127.68c0 .747-1.027 1.12-3.08 1.12s-3.173-.373-3.36-1.12L45.68 164.24c-2.8-8.027-5.693-13.347-8.68-15.96s-7.187-3.92-12.6-3.92c-.56 0-.84-.56-.84-1.68s.28-1.68.84-1.68c2.8 0 4.76.093 5.88.28 3.733.373 8.587.56 14.56.56 13.253 0 25.48-.187 36.68-.56 3.173-.187 6.907-.28 11.2-.28.56 0 .84.56.84 1.68s-.28 1.68-.84 1.68c-10.08 0-15.12 4.107-15.12 12.32 0 3.36.84 7.56 2.52 12.6l31.92 94.92 39.2-123.2c.56-.56 1.68-.84 3.36-.84 1.867 0 2.893.28 3.08.84l53.2 124.32 23.24-85.96c1.68-5.973 2.52-11.107 2.52-15.4 0-13.067-7.28-19.6-21.84-19.6-.373 0-.56-.56-.56-1.68s.187-1.68.56-1.68l15.68.28c9.333.373 16.8.56 22.4.56 3.733 0 8.027-.187 12.88-.56l12.04-.28zm184.761 66.92c.373 0 .56.56.56 1.68s-.187 1.68-.56 1.68c-5.414 0-10.267 2.053-14.56 6.16-4.107 3.92-8.027 10.267-11.76 19.04l-32.76 79.24c-.187.747-1.12 1.12-2.8 1.12-2.054 0-3.174-.373-3.36-1.12l-36.68-70.56-27.72 70.56c-.187.747-1.214 1.12-3.08 1.12s-2.894-.373-3.08-1.12l-39.76-84.56c-3.734-8.027-7.094-13.347-10.08-15.96s-6.72-3.92-11.2-3.92c-.56 0-.84-.56-.84-1.68s.28-1.68.84-1.68c3.36 0 6.16.093 8.4.28l18.76.28 19.88-.28c2.8-.187 6.626-.28 11.48-.28.56 0 .84.56.84 1.68s-.28 1.68-.84 1.68c-9.334 0-14 2.053-14 6.16 0 1.493.466 3.08 1.4 4.76l28.28 56.28 27.72-70.56c.186-.747 1.12-1.12 2.8-1.12 2.053 0 3.173.373 3.36 1.12l37.52 71.96 17.08-43.68c1.493-3.92 2.24-7.28 2.24-10.08 0-4.667-1.587-8.307-4.76-10.92s-7.56-3.92-13.16-3.92c-.374 0-.56-.56-.56-1.68s.186-1.68.56-1.68c5.04 0 8.866.093 11.48.28l16.8.28 11.2-.28c2.24-.187 5.693-.28 10.36-.28z" fill="#efdec6"/></svg>