<svg xmlns="http://www.w3.org/2000/svg" width="482" height="454" fill="none"  xmlns:v="https://vecta.io/nano"><path fill="#123c5a" d="M0 0h482v454H0z"/><path d="M283.5 69.5c.507 0 .76.76.76 2.28s-.253 2.28-.76 2.28c-7.853 0-17.48 4.94-28.88 14.82-11.4 9.627-21.533 21.787-30.4 36.48l-39.52 66.12v84.74c0 7.853.633 13.553 1.9 17.1s3.673 5.953 7.22 7.22c3.8 1.267 9.753 1.9 17.86 1.9.76 0 1.14.76 1.14 2.28s-.38 2.28-1.14 2.28c-8.36 0-14.947-.127-19.76-.38l-28.5-.38-28.12.38c-5.067.253-11.907.38-20.52.38-.507 0-.76-.76-.76-2.28s.253-2.28.76-2.28c8.107 0 14.06-.633 17.86-1.9s6.333-3.673 7.6-7.22c1.52-3.8 2.28-9.5 2.28-17.1v-76.76L87.04 113.2c-9.373-14.693-17.227-24.827-23.56-30.4-6.08-5.827-11.273-8.74-15.58-8.74-.76 0-1.14-.76-1.14-2.28s.38-2.28 1.14-2.28l11.78.38c5.573.507 9.5.76 11.78.76 8.867 0 21.66-.253 38.38-.76l25.08-.38c.507 0 .76.76.76 2.28s-.253 2.28-.76 2.28c-4.307 0-7.727 1.013-10.26 3.04-2.28 2.027-3.42 4.687-3.42 7.98 0 4.053 1.773 8.867 5.32 14.44l52.06 82.08 34.96-59.66c6.84-11.4 10.26-21.153 10.26-29.26 0-6.08-1.9-10.64-5.7-13.68-3.547-3.293-8.74-4.94-15.58-4.94-.76 0-1.14-.76-1.14-2.28s.38-2.28 1.14-2.28l20.14.38c11.653.507 22.04.76 31.16.76 4.307 0 9.5-.253 15.58-.76l14.06-.38zm121.748 87.4c1.267 0 2.534.633 3.8 1.9 1.52 1.013 2.28 2.027 2.28 3.04V333.6c0 24.32-6.84 43.7-20.52 58.14-13.426 14.693-33.693 22.04-60.8 22.04-15.96 0-29.513-2.66-40.66-7.98-11.146-5.067-16.72-12.54-16.72-22.42 0-5.32 1.774-9.627 5.32-12.92s8.36-4.94 14.44-4.94c6.334 0 11.274 1.647 14.82 4.94s7.347 8.107 11.4 14.44c4.307 7.093 8.36 12.287 12.16 15.58 4.054 3.547 9.754 5.32 17.1 5.32 8.867 0 15.707-4.433 20.52-13.3 5.067-8.613 7.6-25.207 7.6-49.78v-61.18c-17.48 20.013-36.48 30.02-57 30.02-13.68 0-24.573-4.307-32.68-12.92-7.853-8.867-11.78-20.393-11.78-34.58V208.2c0-8.36-.886-14.567-2.66-18.62s-4.686-6.08-8.74-6.08c-3.04 0-6.333.887-9.88 2.66h-.38c-1.013 0-1.773-.633-2.28-1.9-.253-1.52-.126-2.407.38-2.66l51.3-24.32 1.52-.38c1.267 0 2.66.633 4.18 1.9 1.52 1.013 2.28 2.027 2.28 3.04v83.98c0 13.68 2.407 23.813 7.22 30.4 5.067 6.587 12.92 9.88 23.56 9.88 5.827 0 11.907-1.14 18.24-3.42 6.334-2.533 11.907-5.827 16.72-9.88v-64.6c0-16.467-3.926-24.7-11.78-24.7-2.786 0-5.953.887-9.5 2.66h-.38c-1.013 0-1.773-.633-2.28-1.9-.506-1.52-.38-2.407.38-2.66l50.92-24.32 1.9-.38z" fill="#efdec6"/></svg>