<svg xmlns="http://www.w3.org/2000/svg" width="482" height="454" fill="none"  xmlns:v="https://vecta.io/nano"><path fill="#123c5a" d="M0 0h482v454H0z"/><path d="M204.18 111c.76-1.267 1.013-2.027.76-2.28 0-.507-.887-.76-2.66-.76-28.88 0-50.92 1.14-66.12 3.42-14.947 2.027-27.233 6.587-36.86 13.68-9.627 6.84-17.987 17.607-25.08 32.3-.253.253-.76.38-1.52.38-2.28 0-3.293-.507-3.04-1.52l15.2-66.12c0-.253.507-.38 1.52-.38 2.533 0 3.547.38 3.04 1.14-.253.76-.38 1.773-.38 3.04 0 3.04 1.393 5.067 4.18 6.08 3.04 1.013 8.993 1.52 17.86 1.52h138.7c1.267 0 2.153.633 2.66 1.9.76 1.267.76 2.28 0 3.04l-131.48 222.3c-1.013 1.267-1.393 2.153-1.14 2.66.253.253 1.14.38 2.66.38h76.76c9.12 0 17.987-2.28 26.6-6.84a72.08 72.08 0 0 0 22.04-19c6.08-7.853 9.88-16.213 11.4-25.08.253-.76 1.013-1.14 2.28-1.14s1.9.38 1.9 1.14l-5.32 55.1c0 .76-.38 1.647-1.14 2.66-.507.76-1.267 1.14-2.28 1.14L72.7 339c-1.013 0-1.773-.507-2.28-1.52-.507-1.267-.38-2.407.38-3.42L204.18 111zm171.178 89.68c1.013-1.773.38-2.66-1.9-2.66-20.773 0-38 3.42-51.68 10.26-13.68 6.587-22.8 16.593-27.36 30.02 0 .253-.507.38-1.52.38-2.027 0-2.913-.507-2.66-1.52l15.96-59.66c0-.253.507-.38 1.52-.38 2.027 0 2.913.507 2.66 1.52-.507 2.027-.76 3.547-.76 4.56 0 3.547 1.52 5.953 4.56 7.22s8.107 1.9 15.2 1.9h87.4c1.013 0 1.9.507 2.66 1.52s.887 2.027.38 3.04l-86.64 132.62c-.76 1.773-.127 2.66 1.9 2.66 24.827 0 43.953-3.547 57.38-10.64s21.787-17.987 25.08-32.68c.253-.76 1.013-1.14 2.28-1.14 1.52 0 2.28.38 2.28 1.14l-.76 45.98c0 1.013-.38 2.027-1.14 3.04-.76.76-1.647 1.14-2.66 1.14h-124.26c-1.013 0-1.9-.507-2.66-1.52-.507-1.013-.507-2.027 0-3.04l84.74-133.76z" fill="#efdec6"/></svg>