<?xml version="1.0" standalone="no"?>
<!DOCTYPE svg PUBLIC "-//W3C//DTD SVG 1.1//EN" "http://www.w3.org/Graphics/SVG/1.1/DTD/svg11.dtd" >
<svg xmlns="http://www.w3.org/2000/svg">
<metadata>Generated by IcoMoon</metadata>
<defs>
<font id="icomoon" horiz-adv-x="1024">
<font-face units-per-em="1024" ascent="960" descent="-64" />
<missing-glyph horiz-adv-x="1024" />
<glyph unicode="&#x20;" horiz-adv-x="512" d="" />
<glyph unicode="&#xe900;" glyph-name="Checkbox-On" d="M811.776 623.895c9.956-10.040 9.889-26.248-0.148-36.204l-387.2-384c-9.981-9.9-26.074-9.9-36.055 0l-175.999 174.543c-10.039 9.956-10.106 26.166-0.15 36.204 9.956 10.040 26.165 10.107 36.204 0.151l157.973-156.667 369.172 366.121c10.040 9.956 26.248 9.889 36.204-0.148z" />
<glyph unicode="&#xe901;" glyph-name="Disable" d="M512 810.667c-212.077 0-384-171.923-384-384 0-212.079 171.923-384 384-384 212.079 0 384 171.921 384 384 0 212.077-171.921 384-384 384zM42.667 426.667c0 259.206 210.128 469.333 469.333 469.333 259.204 0 469.333-210.128 469.333-469.333 0-259.204-210.129-469.333-469.333-469.333-259.206 0-469.333 210.129-469.333 469.333zM180.177 758.49c16.663 16.662 43.677 16.662 60.34 0l603.306-603.307c16.661-16.661 16.661-43.678 0-60.339s-43.678-16.661-60.339 0l-603.307 603.306c-16.662 16.663-16.662 43.677 0 60.34z" />
<glyph unicode="&#xe902;" glyph-name="Edit" d="M853.333 901.177c-35.319 0-69.193-14.031-94.17-39.007l-405.333-405.334c-5.468-5.466-9.347-12.318-11.223-19.819l-42.667-170.667c-3.635-14.541 0.625-29.922 11.223-40.521s25.978-14.857 40.518-11.221l170.668 42.667c7.501 1.873 14.353 5.756 19.819 11.221l405.333 405.334c24.977 24.975 39.006 58.849 39.006 94.17s-14.029 69.194-39.006 94.17c-24.973 24.976-58.85 39.007-94.17 39.007zM819.503 801.831c8.973 8.972 21.141 14.013 33.83 14.013s24.858-5.041 33.83-14.013c8.973-8.972 14.012-21.141 14.012-33.83s-5.039-24.858-14.012-33.83l-396.975-396.976-90.215-22.554 22.553 90.214 396.976 396.975zM170.667 810.667c-33.948 0-66.505-13.486-90.51-37.49s-37.49-56.562-37.49-90.51v-597.333c0-33.95 13.486-66.505 37.49-90.509s56.562-37.491 90.51-37.491h597.333c33.95 0 66.505 13.487 90.509 37.491s37.491 56.559 37.491 90.509v298.667c0 23.565-19.102 42.667-42.667 42.667s-42.667-19.102-42.667-42.667v-298.667c0-11.315-4.497-22.17-12.497-30.17s-18.854-12.497-30.17-12.497h-597.333c-11.316 0-22.168 4.497-30.17 12.497s-12.497 18.854-12.497 30.17v597.333c0 11.316 4.495 22.168 12.497 30.17s18.854 12.497 30.17 12.497h298.667c23.565 0 42.667 19.103 42.667 42.667s-19.102 42.667-42.667 42.667h-298.667z" />
<glyph unicode="&#xe903;" glyph-name="Edit-2" d="M810.667 803.344c-10.244 0-20.386-2.018-29.854-5.938-9.463-3.921-18.065-9.667-25.31-16.911l-567.987-567.989-41.373-151.697 151.7 41.37 567.987 567.989c7.245 7.244 12.992 15.844 16.913 25.309s5.935 19.61 5.935 29.854c0 10.245-2.014 20.39-5.935 29.854s-9.668 18.065-16.913 25.309c-7.245 7.244-15.842 12.99-25.31 16.911-9.463 3.921-19.61 5.938-29.854 5.938zM748.156 876.244c19.819 8.209 41.062 12.434 62.511 12.434 21.453 0 42.692-4.225 62.511-12.434s37.824-20.241 52.992-35.409c15.168-15.168 27.2-33.175 35.409-52.993s12.433-41.059 12.433-62.51c0-21.451-4.224-42.691-12.433-62.51s-20.241-37.825-35.409-52.993l-575.999-576.002c-5.251-5.248-11.78-9.037-18.944-10.991l-234.667-64c-14.772-4.028-30.569 0.166-41.396 10.991-10.827 10.829-15.022 26.624-10.993 41.399l64 234.667c1.954 7.164 5.743 13.692 10.993 18.94l575.999 576.002c15.168 15.168 33.178 27.2 52.992 35.409z" />
<glyph unicode="&#xe904;" glyph-name="Eye" d="M91.338 426.667c4.663 8.060 10.845 18.33 18.503 30.187 19.67 30.455 48.8 70.959 86.619 111.299 76.415 81.51 183.252 157.181 315.54 157.181s239.125-75.672 315.541-157.181c37.815-40.34 66.948-80.843 86.618-111.299 7.659-11.857 13.841-22.127 18.505-30.187-4.663-8.060-10.846-18.33-18.505-30.187-19.669-30.455-48.802-70.959-86.618-111.3-76.416-81.506-183.253-157.18-315.541-157.18s-239.124 75.674-315.54 157.18c-37.818 40.341-66.949 80.845-86.619 111.3-7.658 11.857-13.84 22.127-18.503 30.187zM981.333 426.667c38.161 19.081 38.148 19.11 38.148 19.11l-0.068 0.137-0.149 0.294-0.482 0.947c-0.41 0.789-0.986 1.899-1.728 3.302-1.481 2.803-3.635 6.793-6.451 11.793-5.623 10.001-13.905 24.085-24.759 40.896-21.666 33.544-53.867 78.374-96.051 123.368-83.584 89.157-211.413 184.152-377.792 184.152s-294.209-94.995-377.794-184.152c-42.182-44.994-74.385-89.824-96.048-123.368-10.858-16.811-19.138-30.895-24.762-40.896-2.814-5.001-4.968-8.99-6.452-11.793-0.742-1.404-1.317-2.513-1.724-3.302l-0.484-0.947-0.147-0.294-0.050-0.098c0 0-0.034-0.068 38.128-19.149l-38.162 19.081c-6.006-12.011-6.006-26.15 0-38.161l38.162 19.081c-38.162-19.081-38.162-19.081-38.162-19.081l0.084-0.166 0.147-0.294 0.484-0.947c0.407-0.789 0.982-1.899 1.724-3.302 1.484-2.803 3.638-6.793 6.452-11.793 5.624-10.001 13.904-24.085 24.762-40.896 21.663-33.545 53.866-78.374 96.048-123.366 83.585-89.161 211.415-184.154 377.794-184.154s294.208 94.993 377.792 184.154c42.185 44.992 74.385 89.822 96.051 123.366 10.854 16.811 19.136 30.895 24.759 40.896 2.816 5.001 4.971 8.99 6.451 11.793 0.742 1.404 1.318 2.513 1.728 3.302l0.482 0.947 0.149 0.294 0.047 0.098c0 0 0.034 0.068-38.127 19.149zM981.333 426.667l38.148 19.11c6.003-12.011 6.020-26.18 0.013-38.191l-38.161 19.081zM512 512c-47.13 0-85.333-38.204-85.333-85.333s38.204-85.333 85.333-85.333c47.13 0 85.333 38.204 85.333 85.333s-38.204 85.333-85.333 85.333zM341.333 426.667c0 94.257 76.41 170.667 170.667 170.667 94.255 0 170.667-76.41 170.667-170.667 0-94.255-76.412-170.667-170.667-170.667-94.257 0-170.667 76.412-170.667 170.667z" />
<glyph unicode="&#xe905;" glyph-name="Eye-off" d="M515.123 725.32l370.321-370.657c17.092 23.1 32.841 47.172 47.164 72.098-4.659 8.047-10.82 18.278-18.449 30.093-19.669 30.455-48.802 70.959-86.618 111.299-75.814 80.867-181.572 155.988-312.418 157.167zM981.333 426.667l38.161 19.081c6.191-12.378 5.99-26.991-0.533-39.194-27.298-51.072-59.857-99.153-97.139-143.462-7.701-9.148-18.88-14.647-30.827-15.159s-23.556 4.015-32.004 12.471l-466.775 467.201c-10.943 10.953-15.094 26.975-10.845 41.864s16.23 26.307 31.305 29.836c32.572 7.625 65.92 11.438 99.375 11.363h0.047l-0.098-42.667v42.667h0.051c166.353-0.019 294.165-95.004 377.741-184.152 42.185-44.994 74.385-89.824 96.051-123.368 10.854-16.811 19.136-30.895 24.759-40.896 2.816-5.001 4.971-8.99 6.451-11.793 0.742-1.404 1.318-2.513 1.728-3.302l0.482-0.947 0.149-0.294 0.081-0.166c0 0 0 0-38.161-19.081zM232.666 714.018c16.987 12.972 40.951 11.372 56.064-3.741l162.82-162.819c0.098-0.098 0.196-0.197 0.294-0.297l180.646-180.646c0.102-0.102 0.201-0.201 0.303-0.303l162.816-162.816c8.704-8.704 13.227-20.745 12.403-33.028-0.828-12.284-6.916-23.612-16.708-31.074-80.175-61.116-177.805-94.972-278.609-96.623l-0.695-0.004c-166.379 0-294.209 94.993-377.794 184.154-42.182 44.992-74.385 89.822-96.048 123.366-10.858 16.811-19.138 30.895-24.762 40.896-2.814 5.001-4.968 8.99-6.452 11.793-0.742 1.404-1.317 2.513-1.724 3.302l-0.484 0.947-0.147 0.294-0.050 0.098c0 0-0.034 0.068 38.128 19.149l-38.162-19.081c-6.2 12.399-5.989 27.038 0.566 39.253 55.949 104.268 133.549 195.363 227.595 267.178zM91.416 426.53c4.654-8.034 10.81-18.257 18.425-30.050 19.67-30.455 48.8-70.959 86.619-111.3 76.348-81.438 183.065-157.047 315.19-157.18 65.941 1.139 130.214 19.098 186.863 51.814l-99.059 99.055c-6.771-4.245-13.85-8.017-21.188-11.29-20.932-9.327-43.533-14.34-66.449-14.746s-45.675 3.81-66.927 12.395c-21.251 8.585-40.556 21.359-56.762 37.564-16.206 16.209-28.982 35.511-37.566 56.764s-12.799 44.011-12.395 66.927c0.404 22.916 5.42 45.517 14.748 66.449 3.268 7.339 7.043 14.417 11.289 21.19l-108.755 108.755c-65.57-55.469-121.077-121.894-164.033-196.347zM427.857 450.471c-2.738-8.209-4.217-16.806-4.37-25.493-0.202-11.456 1.905-22.835 6.196-33.463 4.292-10.624 10.679-20.275 18.786-28.378 8.102-8.107 17.754-14.494 28.378-18.786 10.628-4.292 22.007-6.4 33.463-6.195 8.687 0.154 17.284 1.63 25.493 4.369l-107.947 107.947zM12.497 926.17c16.662 16.662 43.677 16.662 60.34 0l938.666-938.667c16.661-16.661 16.661-43.678 0-60.339s-43.678-16.661-60.339 0l-938.667 938.666c-16.662 16.663-16.662 43.678 0 60.34z" />
<glyph unicode="&#xe906;" glyph-name="Log-in" d="M597.333 810.667c0 23.564 19.102 42.667 42.667 42.667h170.667c33.95 0 66.505-13.486 90.509-37.49s37.491-56.562 37.491-90.51v-597.333c0-33.95-13.487-66.505-37.491-90.509s-56.559-37.491-90.509-37.491h-170.667c-23.565 0-42.667 19.102-42.667 42.667s19.102 42.667 42.667 42.667h170.667c11.315 0 22.17 4.497 30.17 12.497s12.497 18.854 12.497 30.17v597.333c0 11.316-4.497 22.168-12.497 30.17s-18.854 12.497-30.17 12.497h-170.667c-23.565 0-42.667 19.103-42.667 42.667zM396.497 670.17c16.663 16.662 43.678 16.662 60.34 0l213.303-213.304c0.102-0.102 0.205-0.205 0.307-0.311 7.531-7.667 12.186-18.172 12.22-29.76v-0.256c-0.017-5.739-1.165-11.209-3.238-16.205-2.035-4.915-5.026-9.532-8.981-13.555-0.102-0.107-0.205-0.209-0.307-0.311l-213.303-213.303c-16.661-16.661-43.677-16.661-60.34 0s-16.662 43.678 0 60.339l140.497 140.497h-408.994c-23.564 0-42.667 19.102-42.667 42.667s19.103 42.667 42.667 42.667h408.994l-140.497 140.497c-16.662 16.663-16.662 43.677 0 60.34z" />
<glyph unicode="&#xe907;" glyph-name="Log-out" d="M213.333 768c-11.316 0-22.168-4.495-30.17-12.497s-12.497-18.854-12.497-30.17v-597.333c0-11.315 4.495-22.17 12.497-30.17s18.854-12.497 30.17-12.497h170.667c23.564 0 42.667-19.102 42.667-42.667s-19.103-42.667-42.667-42.667h-170.667c-33.948 0-66.505 13.487-90.51 37.491s-37.49 56.559-37.49 90.509v597.333c0 33.948 13.486 66.505 37.49 90.51s56.562 37.49 90.51 37.49h170.667c23.564 0 42.667-19.103 42.667-42.667s-19.103-42.667-42.667-42.667h-170.667zM652.497 670.17c16.661 16.662 43.678 16.662 60.339 0l213.333-213.334c16.661-16.661 16.661-43.678 0-60.339l-213.333-213.333c-16.661-16.661-43.678-16.661-60.339 0s-16.661 43.678 0 60.339l183.164 183.164-183.164 183.163c-16.661 16.663-16.661 43.677 0 60.34zM341.333 426.667c0 23.565 19.103 42.667 42.667 42.667h512c23.565 0 42.667-19.102 42.667-42.667s-19.102-42.667-42.667-42.667h-512c-23.564 0-42.667 19.102-42.667 42.667z" />
<glyph unicode="&#xe908;" glyph-name="Mail" d="M170.668 725.334c-23.369 0-42.667-19.297-42.667-42.667v-512c0-23.369 19.298-42.667 42.667-42.667h682.666c23.369 0 42.667 19.298 42.667 42.667v512c0 23.369-19.298 42.667-42.667 42.667h-682.666zM42.668 682.667c0 70.497 57.503 128 128 128h682.666c70.498 0 128-57.503 128-128v-512c0-70.498-57.502-128-128-128h-682.666c-70.497 0-128 57.502-128 128v512zM50.38 707.135c13.513 19.305 40.117 24 59.422 10.486l402.198-281.537 402.202 281.537c19.302 13.513 45.905 8.818 59.422-10.486 13.513-19.305 8.815-45.908-10.487-59.421l-426.667-298.665c-14.69-10.287-34.244-10.287-48.934 0l-426.668 298.665c-19.304 13.513-23.999 40.117-10.486 59.421z" />
<glyph unicode="&#xe909;" glyph-name="Settings" d="M512 512c-47.13 0-85.333-38.204-85.333-85.333s38.204-85.333 85.333-85.333c47.13 0 85.333 38.204 85.333 85.333s-38.204 85.333-85.333 85.333zM341.333 426.667c0 94.257 76.41 170.667 170.667 170.667 94.255 0 170.667-76.41 170.667-170.667 0-94.255-76.412-170.667-170.667-170.667-94.257 0-170.667 76.412-170.667 170.667zM512 853.334c-11.315 0-22.17-4.495-30.17-12.497s-12.497-18.854-12.497-30.17v-7.424c-0.090-22.051-6.622-43.594-18.799-61.978-12.173-18.385-29.459-32.808-49.727-41.495-3.607-1.546-7.403-2.583-11.278-3.090-18.416-6.449-38.241-8.039-57.541-4.539-22.229 4.031-42.741 14.628-58.892 30.426l-0.336 0.329-2.558 2.562c-3.962 3.967-8.685 7.131-13.865 9.278s-10.732 3.252-16.339 3.252c-5.607 0-11.159-1.105-16.339-3.252s-9.885-5.295-13.848-9.261l-0.034-0.034c-3.967-3.962-7.114-8.668-9.261-13.848s-3.252-10.732-3.252-16.339c0-5.607 1.105-11.159 3.252-16.339s5.295-9.885 9.261-13.848l2.91-2.909c15.797-16.15 26.393-36.664 30.423-58.893 3.951-21.787 1.415-44.244-7.275-64.588-7.917-20.759-21.78-38.738-39.868-51.674-18.454-13.197-40.451-20.54-63.133-21.069l-0.998-0.013h-3.84c-11.316 0-22.168-4.497-30.17-12.497s-12.497-18.854-12.497-30.17c0-11.315 4.495-22.17 12.497-30.17s18.854-12.497 30.17-12.497h7.424c22.051-0.090 43.594-6.622 61.978-18.799 18.321-12.13 32.708-29.338 41.404-49.515 9.048-20.617 11.738-43.465 7.721-65.617-4.031-22.229-14.628-42.739-30.426-58.893l-0.329-0.337-2.562-2.556c-3.967-3.964-7.13-8.687-9.278-13.867s-3.252-10.731-3.252-16.337c0-5.606 1.105-11.157 3.252-16.337s5.295-9.886 9.261-13.85l0.034-0.034c3.962-3.968 8.668-7.113 13.848-9.259 5.18-2.15 10.732-3.255 16.339-3.255s11.159 1.105 16.339 3.255c5.18 2.146 9.885 5.291 13.848 9.259l2.909 2.91c16.15 15.799 36.664 26.394 58.893 30.426 21.787 3.947 44.244 1.412 64.588-7.275 20.759-7.919 38.738-21.781 51.675-39.872 13.197-18.453 20.54-40.448 21.069-63.13l0.013-0.998v-3.84c0-11.315 4.497-22.17 12.497-30.17s18.854-12.497 30.17-12.497c11.315 0 22.17 4.497 30.17 12.497s12.497 18.854 12.497 30.17v7.424c0.090 22.050 6.622 43.593 18.799 61.978 12.134 18.321 29.342 32.713 49.519 41.408 20.612 9.045 43.46 11.733 65.613 7.718 22.229-4.032 42.739-14.63 58.893-30.426l2.893-2.893c3.964-3.968 8.687-7.13 13.867-9.276 5.18-2.15 10.731-3.255 16.337-3.255s11.157 1.105 16.337 3.255c5.18 2.146 9.886 5.291 13.85 9.259l0.034 0.034c3.968 3.964 7.113 8.67 9.259 13.85 2.15 5.18 3.255 10.731 3.255 16.337s-1.105 11.157-3.255 16.337c-2.146 5.18-5.291 9.886-9.259 13.85l-2.91 2.91c-15.799 16.149-26.394 36.663-30.426 58.893-4.015 22.153-1.327 45.001 7.718 65.613 8.695 20.177 23.087 37.385 41.408 49.519 18.385 12.177 39.927 18.709 61.978 18.799h4.011c11.315 0 22.17 4.497 30.17 12.497s12.497 18.854 12.497 30.17c0 11.315-4.497 22.17-12.497 30.17s-18.854 12.497-30.17 12.497h-7.424c-22.050 0.090-43.593 6.622-61.978 18.799-18.385 12.173-32.806 29.459-41.493 49.727-1.549 3.607-2.586 7.403-3.093 11.278-6.447 18.416-8.038 38.242-4.54 57.541 4.032 22.229 14.63 42.741 30.426 58.892l0.329 0.336 2.564 2.558c3.968 3.963 7.13 8.685 9.276 13.865 2.15 5.18 3.255 10.732 3.255 16.339s-1.105 11.159-3.255 16.339c-2.146 5.18-5.291 9.885-9.259 13.848l-0.034 0.034c-3.964 3.967-8.67 7.114-13.85 9.261s-10.731 3.252-16.337 3.252c-5.606 0-11.157-1.105-16.337-3.252s-9.886-5.295-13.85-9.261l-2.91-2.91c-16.149-15.797-36.663-26.393-58.893-30.423-22.153-4.017-45.001-1.328-65.617 7.721-20.177 8.696-37.385 23.083-49.515 41.404-12.177 18.385-18.709 39.928-18.799 61.978v4.010c0 11.316-4.497 22.168-12.497 30.17s-18.854 12.497-30.17 12.497zM827.733 298.667l39.036-17.229c-2.24-5.069-2.906-10.692-1.916-16.145 0.977-5.393 3.529-10.372 7.334-14.315l2.338-2.338c11.895-11.883 21.346-26.014 27.785-41.545 6.443-15.539 9.758-32.196 9.758-49.015s-3.315-33.476-9.758-49.015c-6.443-15.539-15.885-29.658-27.785-41.545l-30.153 30.187 30.187-30.153c-11.887-11.9-26.005-21.342-41.545-27.785s-32.196-9.758-49.015-9.758c-16.819 0-33.476 3.315-49.015 9.758-15.531 6.438-29.645 15.872-41.527 27.767l-2.355 2.355c-3.942 3.806-8.922 6.357-14.315 7.334-5.453 0.99-11.076 0.324-16.145-1.916l-0.418-0.183c-4.975-2.129-9.216-5.666-12.198-10.176-2.978-4.493-4.578-9.754-4.612-15.138v-7.147c0-33.95-13.487-66.505-37.491-90.509s-56.559-37.491-90.509-37.491c-33.95 0-66.505 13.487-90.51 37.491s-37.49 56.559-37.49 90.509v3.226c-0.202 5.427-1.994 10.679-5.157 15.104-3.238 4.523-7.761 7.97-12.984 9.894-0.844 0.307-1.677 0.644-2.499 1.007-5.070 2.24-10.694 2.906-16.146 1.916-5.393-0.977-10.374-3.529-14.316-7.334l-2.338-2.338c-11.884-11.895-26.012-21.346-41.544-27.785-15.539-6.443-32.195-9.758-49.016-9.758s-33.478 3.315-49.016 9.758c-15.524 6.434-29.629 15.863-41.51 27.75-11.901 11.887-21.342 26.005-27.784 41.545s-9.757 32.196-9.757 49.015c0 16.819 3.315 33.476 9.757 49.015s15.883 29.658 27.784 41.545l2.339 2.338c3.805 3.942 6.358 8.922 7.336 14.315 0.989 5.453 0.321 11.076-1.916 16.145l-0.185 0.418c-2.131 4.975-5.666 9.216-10.176 12.198-4.492 2.978-9.753 4.578-15.139 4.612h-7.147c-33.948 0-66.505 13.487-90.51 37.491s-37.49 56.563-37.49 90.509c0 33.946 13.486 66.505 37.49 90.51s56.562 37.49 90.51 37.49h3.227c5.427 0.202 10.678 1.994 15.1 5.157 4.527 3.238 7.974 7.761 9.895 12.984 0.311 0.844 0.647 1.677 1.010 2.499 2.237 5.070 2.905 10.694 1.916 16.146-0.978 5.393-3.532 10.374-7.337 14.315l-2.339 2.339c-11.901 11.888-21.342 26.004-27.784 41.544s-9.757 32.195-9.757 49.016c0 16.821 3.315 33.478 9.757 49.016 6.438 15.532 15.874 29.643 27.767 41.527 11.884 11.893 25.996 21.328 41.527 27.767 15.539 6.442 32.195 9.757 49.016 9.757s33.478-3.315 49.016-9.757c15.539-6.441 29.656-15.883 41.544-27.784l2.339-2.339c3.941-3.805 8.922-6.359 14.315-7.337 5.452-0.989 11.076-0.321 16.146 1.916 2.732 1.206 5.576 2.118 8.483 2.727 2.975 2.019 5.543 4.608 7.547 7.633 2.975 4.492 4.576 9.753 4.61 15.139v7.147c0 33.948 13.486 66.505 37.49 90.51s56.564 37.49 90.51 37.49c33.946 0 66.505-13.486 90.509-37.49s37.491-56.562 37.491-90.51v-3.733c0.034-5.386 1.634-10.647 4.612-15.139 2.982-4.509 7.223-8.047 12.194-10.178l0.422-0.18c5.069-2.237 10.692-2.907 16.145-1.919 5.393 0.978 10.372 3.532 14.315 7.336l2.338 2.339c11.887 11.901 26.005 21.342 41.545 27.784s32.196 9.757 49.015 9.757c16.819 0 33.476-3.315 49.015-9.757s29.658-15.883 41.545-27.784c11.887-11.881 21.316-25.986 27.75-41.51 6.443-15.539 9.758-32.195 9.758-49.016s-3.315-33.478-9.758-49.016c-6.438-15.532-15.872-29.643-27.767-41.527l-2.355-2.356c-3.806-3.941-6.357-8.922-7.334-14.315-0.99-5.452-0.324-11.076 1.916-16.146 1.203-2.732 2.116-5.576 2.726-8.483 2.018-2.975 4.608-5.543 7.633-7.547 4.493-2.975 9.754-4.576 15.138-4.61h7.147c33.95 0 66.505-13.486 90.509-37.49s37.491-56.56 37.491-90.51c0-33.95-13.487-66.505-37.491-90.509s-56.559-37.491-90.509-37.491h-3.733c-5.385-0.034-10.645-1.634-15.138-4.612-4.51-2.982-8.047-7.223-10.18-12.194l-39.215 16.806z" />
<glyph unicode="&#xe90a;" glyph-name="Shopping-cart" d="M298.667 42.667c0 47.13 38.205 85.333 85.333 85.333 47.13 0 85.333-38.204 85.333-85.333s-38.204-85.333-85.333-85.333c-47.128 0-85.333 38.204-85.333 85.333zM768 42.667c0 47.13 38.204 85.333 85.333 85.333s85.333-38.204 85.333-85.333c0-47.13-38.204-85.333-85.333-85.333s-85.333 38.204-85.333 85.333zM0 896c0 23.564 19.103 42.667 42.667 42.667h170.667c20.336 0 37.846-14.352 41.837-34.293l35.835-179.040h690.328c12.715 0 24.768-5.672 32.875-15.469s11.418-22.7 9.037-35.19l-68.326-358.292c-5.854-29.466-21.884-55.936-45.286-74.773-23.283-18.743-52.39-28.745-82.266-28.275h-413.984c-29.878-0.469-58.984 9.532-82.268 28.275-23.391 18.833-39.417 45.286-45.276 74.735l-71.276 356.117c-0.289 1.178-0.529 2.375-0.719 3.589l-35.483 177.283h-135.694c-23.564 0-42.667 19.103-42.667 42.667zM308.084 640l61.445-306.995c1.951-9.822 7.294-18.645 15.094-24.922 7.8-6.281 17.561-9.617 27.572-9.425l0.817 0.009 415.539-0.009c10.010-0.192 19.772 3.145 27.571 9.425 7.765 6.251 13.094 15.019 15.066 24.785l58.573 307.132h-621.678z" />
<glyph unicode="&#xe90b;" glyph-name="User" d="M190.484 278.848c40.008 40.009 94.27 62.485 150.849 62.485h341.333c56.58 0 110.844-22.477 150.848-62.485 40.009-40.004 62.485-94.268 62.485-150.848v-85.333c0-23.565-19.102-42.667-42.667-42.667s-42.667 19.102-42.667 42.667v85.333c0 33.946-13.487 66.505-37.491 90.509s-56.563 37.491-90.509 37.491h-341.333c-33.948 0-66.505-13.487-90.51-37.491s-37.49-56.559-37.49-90.509v-85.333c0-23.565-19.103-42.667-42.667-42.667s-42.667 19.102-42.667 42.667v85.333c0 56.58 22.476 110.844 62.484 150.848zM512 768c-70.694 0-128-57.308-128-128s57.306-128 128-128c70.694 0 128 57.308 128 128s-57.306 128-128 128zM298.667 640c0 117.821 95.513 213.333 213.333 213.333s213.333-95.513 213.333-213.333c0-117.821-95.514-213.333-213.333-213.333s-213.333 95.513-213.333 213.333z" />
<glyph unicode="&#xe90c;" glyph-name="Check-circle" d="M668.288 777.668c-75.639 33.702-160.145 42.052-240.913 23.802-80.772-18.249-153.48-62.118-207.281-125.066s-85.813-141.6-91.261-224.227c-5.449-82.628 15.959-164.8 61.029-234.27 45.070-69.466 111.387-122.505 189.062-151.198 77.674-28.698 162.546-31.518 241.953-8.038 79.411 23.479 149.103 71.996 198.682 138.317 49.583 66.325 76.395 146.897 76.442 229.705v39.228c0 23.565 19.102 42.667 42.667 42.667s42.667-19.102 42.667-42.667v-39.253c-0.060-101.21-32.828-199.71-93.427-280.772-60.599-81.058-145.779-140.361-242.833-169.054-97.054-28.698-200.785-25.25-295.722 9.822s-175.991 99.895-231.077 184.802c-55.086 84.902-81.25 185.34-74.591 286.327s45.785 197.119 111.542 274.055c65.757 76.936 154.622 130.554 253.342 152.858 98.722 22.304 202.005 12.1 294.451-29.092 21.525-9.591 31.198-34.814 21.606-56.338-9.587-21.524-34.812-31.198-56.337-21.608zM968.823 798.186c16.67-16.654 16.683-43.669 0.030-60.34l-426.667-427.092c-8-8.009-18.854-12.51-30.174-12.514s-22.178 4.493-30.182 12.497l-128 128c-16.662 16.661-16.662 43.678 0 60.339 16.662 16.663 43.677 16.663 60.34 0l97.817-97.813 396.493 396.893c16.657 16.671 43.669 16.684 60.343 0.030z" />
<glyph unicode="&#xe90d;" glyph-name="Close" d="M798.17 712.837c16.661-16.663 16.661-43.677 0-60.34l-512-512c-16.663-16.661-43.677-16.661-60.34 0s-16.662 43.678 0 60.339l512 512c16.661 16.662 43.678 16.662 60.339 0zM225.83 712.837c16.663 16.662 43.677 16.662 60.34 0l512-512c16.661-16.661 16.661-43.678 0-60.339s-43.678-16.661-60.339 0l-512 512c-16.662 16.663-16.662 43.677 0 60.34z" />
<glyph unicode="&#xe90e;" glyph-name="Credit-card" d="M128 725.334c-23.564 0-42.667-19.103-42.667-42.667v-512c0-23.565 19.103-42.667 42.667-42.667h768c23.565 0 42.667 19.102 42.667 42.667v512c0 23.564-19.102 42.667-42.667 42.667h-768zM0 682.667c0 70.692 57.308 128 128 128h768c70.694 0 128-57.308 128-128v-512c0-70.694-57.306-128-128-128h-768c-70.692 0-128 57.306-128 128v512zM0 512c0 23.564 19.103 42.667 42.667 42.667h938.667c23.565 0 42.667-19.103 42.667-42.667s-19.102-42.667-42.667-42.667h-938.667c-23.564 0-42.667 19.102-42.667 42.667z" />
<glyph unicode="&#xe90f;" glyph-name="Book-restrict" d="M85.333 853.334c23.564 0 42.667-19.103 42.667-42.667v-597.333h256c45.265 0 88.674-17.98 120.678-49.988 32.009-32.004 49.988-75.413 49.988-120.678 0-23.565-19.102-42.667-42.667-42.667s-42.667 19.102-42.667 42.667c0 22.63-8.99 44.335-24.994 60.339s-37.708 24.994-60.339 24.994h-298.667c-23.564 0-42.667 19.102-42.667 42.667v640c0 23.564 19.103 42.667 42.667 42.667zM298.667 810.667c0 23.564 19.103 42.667 42.667 42.667 56.579 0 110.844-22.476 150.848-62.484 40.009-40.008 62.485-94.27 62.485-150.849 0-23.564-19.102-42.667-42.667-42.667s-42.667 19.103-42.667 42.667c0 33.948-13.487 66.505-37.491 90.51s-56.561 37.49-90.509 37.49c-23.564 0-42.667 19.103-42.667 42.667zM531.819 790.85c40.004 40.008 94.268 62.484 150.848 62.484h256c23.565 0 42.667-19.103 42.667-42.667v-597.333c0-23.565-19.102-42.667-42.667-42.667s-42.667 19.102-42.667 42.667v554.667h-213.333c-33.946 0-66.505-13.486-90.509-37.49s-37.491-56.562-37.491-90.51c0-23.564-19.102-42.667-42.667-42.667s-42.667 19.103-42.667 42.667c0 56.579 22.477 110.842 62.485 150.849zM640 128c-22.63 0-44.335-8.99-60.339-24.994s-24.994-37.709-24.994-60.339c0-23.565-19.102-42.667-42.667-42.667s-42.667 19.102-42.667 42.667c0 45.265 17.98 88.674 49.988 120.678 32.004 32.009 75.413 49.988 120.678 49.988h128c23.565 0 42.667-19.102 42.667-42.667s-19.102-42.667-42.667-42.667h-128zM12.497 926.17c16.662 16.662 43.677 16.662 60.34 0l896-896c16.661-16.661 16.661-43.678 0-60.339s-43.678-16.661-60.339 0l-896 896c-16.662 16.663-16.662 43.678 0 60.34z" />
<glyph unicode="&#xe910;" glyph-name="Book-open" d="M42.667 810.667c0 23.564 19.103 42.667 42.667 42.667h256c56.579 0 110.844-22.476 150.848-62.484 40.009-40.008 62.485-94.27 62.485-150.849v-597.333c0-23.565-19.102-42.667-42.667-42.667s-42.667 19.102-42.667 42.667c0 22.63-8.99 44.335-24.994 60.339s-37.708 24.994-60.339 24.994h-298.667c-23.564 0-42.667 19.102-42.667 42.667v640zM469.333 190.469v449.532c0 33.948-13.487 66.505-37.491 90.51s-56.561 37.49-90.509 37.49h-213.333v-554.667h256c30.218 0 59.61-8.013 85.333-22.865zM531.819 790.85c40.004 40.008 94.268 62.484 150.848 62.484h256c23.565 0 42.667-19.103 42.667-42.667v-640c0-23.565-19.102-42.667-42.667-42.667h-298.667c-22.63 0-44.335-8.99-60.339-24.994s-24.994-37.709-24.994-60.339c0-23.565-19.102-42.667-42.667-42.667s-42.667 19.102-42.667 42.667v597.333c0 56.579 22.477 110.842 62.485 150.849zM554.667 190.469c25.724 14.852 55.117 22.865 85.333 22.865h256v554.667h-213.333c-33.946 0-66.505-13.486-90.509-37.49s-37.491-56.562-37.491-90.51v-449.532z" />
<glyph unicode="&#xe911;" glyph-name="Alert-circle" d="M512 810.667c-212.077 0-384-171.923-384-384 0-212.079 171.923-384 384-384 212.079 0 384 171.921 384 384 0 212.077-171.921 384-384 384zM42.667 426.667c0 259.206 210.128 469.333 469.333 469.333 259.204 0 469.333-210.128 469.333-469.333 0-259.204-210.129-469.333-469.333-469.333-259.206 0-469.333 210.129-469.333 469.333zM512 640c23.565 0 42.667-19.103 42.667-42.667v-170.667c0-23.565-19.102-42.667-42.667-42.667s-42.667 19.102-42.667 42.667v170.667c0 23.564 19.102 42.667 42.667 42.667zM469.333 256c0 23.565 19.102 42.667 42.667 42.667h0.427c23.565 0 42.667-19.102 42.667-42.667s-19.102-42.667-42.667-42.667h-0.427c-23.565 0-42.667 19.102-42.667 42.667z" />
<glyph unicode="&#xe912;" horiz-adv-x="1365" d="M7.667 926.037l12.259-52.704 0.037-0.185 0.148-0.667 0.519-2.259 0.074-0.333c0.455-2.004 1.095-4.813 1.926-8.556 1.726-7.777 4.21-19.14 7.185-33.333 5.951-28.394 13.881-68.119 21.815-113.333 15.921-90.737 31.519-202.684 31.519-288s-15.597-197.263-31.519-288c-7.934-45.214-15.864-84.94-21.815-113.333-2.975-14.193-5.46-25.56-7.185-33.333-0.831-3.744-1.471-6.553-1.926-8.556-0.018-0.078-0.057-0.258-0.074-0.333l-0.519-2.259-0.111-0.481-0.074-0.259v-0.038l-4.889-18.259 0.63-0.148-8-34.37 58.074 7.11c2.811 0.339 6.967 0.848 12.371 1.483 10.8 1.268 26.537 3.082 46.185 5.259 39.299 4.357 94.262 10.191 156.852 16 125.344 11.634 280.81 23.148 401.519 23.148s276.174-11.514 401.519-23.148c62.59-5.809 117.552-11.643 156.852-16 19.647-2.178 35.385-3.991 46.185-5.259 5.403-0.635 9.56-1.144 12.37-1.482v0.038l3.185-0.408 0.63-0.074h0.038l0.112-0.038 1.037-0.148h0.296l52.778-6.481-7.963 34.37 1.778 0.407-6.259 18.778v0.074l-0.593 2.519c-0.458 2.010-1.097 4.813-1.928 8.556-1.725 7.771-4.209 19.138-7.185 33.333-5.951 28.394-13.881 68.119-21.815 113.333-15.921 90.737-31.519 202.684-31.519 288s15.598 197.263 31.519 288c7.934 45.214 15.864 84.939 21.815 113.333 2.976 14.195 5.46 25.559 7.185 33.333 0.831 3.742 1.47 6.545 1.926 8.556 0.016 0.070 0.059 0.229 0.074 0.296v0.037l0.222 0.926 0.296 1.333 0.074 0.259 0.074 0.296v0.074l0.074 0.296 4.889 18.111-0.63 0.148 7.963 34.37-58.074-7.111c-2.809-0.338-6.97-0.848-12.37-1.481-10.801-1.268-26.539-3.081-46.185-5.259-39.301-4.357-94.262-10.191-156.852-16-125.344-11.633-280.81-23.148-401.518-23.148s-276.174 11.515-401.519 23.148c-62.59 5.809-117.552 11.643-156.852 16-19.648 2.178-35.385 3.992-46.185 5.259-5.4 0.634-9.561 1.144-12.37 1.481v-0.037l-3.185 0.407-0.815 0.111h-0.185l-0.333 0.037zM75.704 879.556c10.81-1.266 25.52-2.98 44.407-5.074 39.478-4.377 94.683-10.202 157.556-16.037 125.911-11.686 281.886-23.333 405-23.333s279.089 11.648 405 23.333c62.873 5.835 118.076 11.66 157.556 16.037 18.87 2.092 33.561 3.808 44.37 5.074l1.63-13.259 13.112-3.037c-1.649-7.503-3.478-15.805-5.926-27.481-6.019-28.716-14.013-68.824-22.038-114.556-16.104-91.778-32.111-204.681-32.111-294.556s16.007-202.777 32.111-294.556c8.025-45.732 16.019-85.84 22.037-114.556 2.448-11.676 4.277-19.979 5.926-27.481l-0.186-0.038-12.926-3-1.593-13.185c-0.005-0.042 0.005-0.032 0-0.074-10.811 1.267-25.522 2.981-44.407 5.074-39.479 4.378-94.682 10.203-157.555 16.038-125.911 11.687-281.886 23.333-405 23.333s-279.089-11.647-405-23.333c-62.873-5.835-118.077-11.66-157.556-16.037-18.872-2.092-33.561-3.808-44.37-5.074l-1.63 13.259-13.111 3.038c1.649 7.502 3.478 15.804 5.926 27.481 6.019 28.716 14.013 68.824 22.037 114.556 16.104 91.777 32.111 204.68 32.111 294.555s-16.007 202.778-32.111 294.556c-8.024 45.732-16.018 85.839-22.037 114.556-2.448 11.678-4.277 19.98-5.926 27.481l0.111 0.037h0.074l12.926 3 1.593 13.185zM57.741-28.296h0.259l-0.852-0.112zM1307.63-28.296l0.556-0.112-0.556 0.074z" />
<glyph unicode="&#xe913;" horiz-adv-x="1365" d="M708.054 468.808c0 0 47.049 2.638 110.799 18.728 63.75 16.092 148.258 63.678 148.258 63.678s-22.475-94.752-22.475-141.065c0-46.313 22.475-141.065 22.475-141.065s-84.508 47.588-148.258 63.678c-63.75 16.092-110.799 18.73-110.799 18.73l14.983-185.416c0 0-89.063 90.36-170.134 148.258-81.069 57.898-192.607 95.816-192.607 95.816s111.538 37.918 192.607 95.818c81.070 57.898 170.134 148.256 170.134 148.256l-14.983-185.414z" />
<glyph unicode="&#xe914;" horiz-adv-x="1365" d="M1357.333 926.037l-12.259-52.704-0.037-0.185-0.148-0.667-0.519-2.259-0.074-0.333c-0.455-2.004-1.095-4.813-1.926-8.556-1.726-7.777-4.21-19.14-7.185-33.333-5.951-28.394-13.881-68.119-21.815-113.333-15.921-90.737-31.519-202.684-31.519-288s15.597-197.263 31.519-288c7.934-45.214 15.864-84.94 21.815-113.333 2.975-14.193 5.46-25.56 7.185-33.333 0.831-3.744 1.471-6.553 1.926-8.556 0.018-0.078 0.057-0.258 0.074-0.333l0.519-2.259 0.111-0.481 0.074-0.259v-0.038l4.889-18.259-0.63-0.148 8-34.37-58.074 7.11c-2.811 0.339-6.967 0.848-12.371 1.483-10.8 1.268-26.537 3.082-46.185 5.259-39.299 4.357-94.262 10.191-156.852 16-125.344 11.634-280.81 23.148-401.519 23.148s-276.174-11.514-401.519-23.148c-62.59-5.809-117.552-11.643-156.852-16-19.647-2.178-35.385-3.991-46.185-5.259-5.403-0.635-9.56-1.144-12.37-1.482v0.038l-3.185-0.408-0.63-0.074h-0.038l-0.112-0.038-1.037-0.148h-0.296l-52.778-6.481 7.963 34.37-1.778 0.407 6.259 18.778v0.074l0.593 2.519c0.458 2.010 1.097 4.813 1.928 8.556 1.725 7.771 4.209 19.138 7.185 33.333 5.951 28.394 13.881 68.119 21.815 113.333 15.921 90.737 31.519 202.684 31.519 288s-15.598 197.263-31.519 288c-7.934 45.214-15.864 84.939-21.815 113.333-2.976 14.195-5.46 25.559-7.185 33.333-0.831 3.742-1.47 6.545-1.926 8.556-0.016 0.070-0.059 0.229-0.074 0.296v0.037l-0.222 0.926-0.296 1.333-0.074 0.259-0.074 0.296v0.074l-0.074 0.296-4.889 18.111 0.63 0.148-7.963 34.37 58.074-7.111c2.809-0.338 6.97-0.848 12.37-1.481 10.801-1.268 26.539-3.081 46.185-5.259 39.301-4.357 94.262-10.191 156.852-16 125.344-11.633 280.81-23.148 401.518-23.148s276.174 11.515 401.519 23.148c62.59 5.809 117.552 11.643 156.852 16 19.648 2.178 35.385 3.992 46.185 5.259 5.4 0.634 9.561 1.144 12.37 1.481v-0.037l3.185 0.407 0.815 0.111h0.185l0.333 0.037zM1289.296 879.556c-10.81-1.266-25.52-2.98-44.407-5.074-39.478-4.377-94.683-10.202-157.556-16.037-125.911-11.686-281.886-23.333-405-23.333s-279.089 11.648-405 23.333c-62.873 5.835-118.076 11.66-157.556 16.037-18.87 2.092-33.561 3.808-44.37 5.074l-1.63-13.259-13.112-3.037c1.649-7.503 3.478-15.805 5.926-27.481 6.019-28.716 14.013-68.824 22.038-114.556 16.104-91.778 32.111-204.681 32.111-294.556s-16.007-202.777-32.111-294.556c-8.025-45.732-16.019-85.84-22.037-114.556-2.448-11.676-4.277-19.979-5.926-27.481l0.186-0.038 12.926-3 1.593-13.185c0.005-0.042-0.005-0.032 0-0.074 10.811 1.267 25.522 2.981 44.407 5.074 39.479 4.378 94.682 10.203 157.555 16.038 125.911 11.687 281.886 23.333 405 23.333s279.089-11.647 405-23.333c62.873-5.835 118.077-11.66 157.556-16.037 18.872-2.092 33.561-3.808 44.37-5.074l1.63 13.259 13.111 3.038c-1.649 7.502-3.478 15.804-5.926 27.481-6.019 28.716-14.013 68.824-22.037 114.556-16.104 91.777-32.111 204.68-32.111 294.555s16.007 202.778 32.111 294.556c8.024 45.732 16.018 85.839 22.037 114.556 2.448 11.678 4.277 19.98 5.926 27.481l-0.111 0.037h-0.074l-12.926 3-1.593 13.185zM1307.259-28.296h-0.259l0.852-0.112zM57.37-28.296l-0.556-0.112 0.556 0.074z" />
<glyph unicode="&#xe915;" horiz-adv-x="1365" d="M656.946 468.808c0 0-47.049 2.638-110.799 18.728-63.75 16.092-148.258 63.678-148.258 63.678s22.475-94.752 22.475-141.065c0-46.313-22.475-141.065-22.475-141.065s84.508 47.588 148.258 63.678c63.75 16.092 110.799 18.73 110.799 18.73l-14.983-185.416c0 0 89.063 90.36 170.134 148.258 81.069 57.898 192.607 95.816 192.607 95.816s-111.538 37.918-192.607 95.818c-81.070 57.898-170.134 148.256-170.134 148.256l14.983-185.414z" />
<glyph unicode="&#xe916;" glyph-name="Menu" d="M85.333 938.667c-30.487 0-52.864-18.535-65.671-37.745-13.005-19.508-19.663-44-19.663-68.922v-256c0-24.922 6.657-49.414 19.663-68.924 12.807-19.209 35.184-37.743 65.671-37.743h298.667c30.487 0 52.864 18.534 65.673 37.743 13.005 19.51 19.661 44.002 19.661 68.924v256c0 24.922-6.656 49.414-19.661 68.922-12.809 19.21-35.186 37.745-65.673 37.745h-298.667zM85.333 832c0 10.188 2.764 17.591 5.165 21.333h288.337c2.4-3.743 5.165-11.145 5.165-21.333v-256c0-10.188-2.764-17.591-5.165-21.333h-288.337c-2.4 3.743-5.165 11.145-5.165 21.333v256zM377.393 552.775l-0.052-0.055c0.001-0.005 0.052 0.038 0.152 0.143l-0.101-0.088zM640 938.667c-30.485 0-52.864-18.535-65.673-37.745-13.005-19.508-19.661-44-19.661-68.922v-256c0-24.922 6.656-49.414 19.661-68.924 12.809-19.209 35.187-37.743 65.673-37.743h298.667c30.485 0 52.864 18.534 65.673 37.743 13.005 19.51 19.661 44.002 19.661 68.924v256c0 24.922-6.656 49.414-19.661 68.922-12.809 19.21-35.187 37.745-65.673 37.745h-298.667zM640 832c0 10.188 2.765 17.591 5.163 21.333h288.341c2.398-3.743 5.163-11.145 5.163-21.333v-256c0-10.188-2.765-17.591-5.163-21.333h-288.341c-2.398 3.743-5.163 11.145-5.163 21.333v256zM646.507 552.863c0.098-0.106 0.154-0.148 0.154-0.143l-0.043 0.044-0.111 0.099zM574.327 346.257c12.809 19.209 35.187 37.743 65.673 37.743h298.667c30.485 0 52.864-18.534 65.673-37.743 13.005-19.511 19.661-44.002 19.661-68.924v-256c0-24.922-6.656-49.412-19.661-68.924-12.809-19.209-35.187-37.743-65.673-37.743h-298.667c-30.485 0-52.864 18.534-65.673 37.743-13.005 19.511-19.661 44.002-19.661 68.924v256c0 24.922 6.656 49.412 19.661 68.924zM645.163 298.667c-2.398-3.742-5.163-11.145-5.163-21.333v-256c0-10.189 2.765-17.591 5.163-21.333h288.341c2.398 3.742 5.163 11.145 5.163 21.333v256c0 10.189-2.765 17.591-5.163 21.333h-288.341zM932.16 300.472c-0.098 0.107-0.154 0.149-0.154 0.141l0.154-0.141zM85.333 384c-30.487 0-52.864-18.534-65.671-37.743-13.005-19.511-19.663-44.002-19.663-68.924v-256c0-24.922 6.657-49.412 19.663-68.924 12.807-19.209 35.184-37.743 65.671-37.743h298.667c30.487 0 52.864 18.534 65.673 37.743 13.005 19.511 19.661 44.002 19.661 68.924v256c0 24.922-6.656 49.412-19.661 68.924-12.809 19.209-35.186 37.743-65.673 37.743h-298.667zM85.333 277.334c0 10.189 2.764 17.591 5.165 21.333h288.337c2.4-3.742 5.165-11.145 5.165-21.333v-256c0-10.189-2.764-17.591-5.165-21.333h-288.337c-2.4 3.742-5.165 11.145-5.165 21.333v256z" />
<glyph unicode="&#xe917;" glyph-name="Lock" d="M256 512v128c0 67.895 26.971 133.010 74.981 181.019s113.124 74.981 181.019 74.981c67.895 0 133.009-26.971 181.018-74.981 48.013-48.009 74.982-113.124 74.982-181.019v-128h42.667c70.694 0 128-57.306 128-128v-298.667c0-70.694-57.306-128-128-128h-597.333c-70.692 0-128 57.306-128 128v298.667c0 70.694 57.308 128 128 128h42.667zM391.32 760.68c-32.006-32.006-49.987-75.416-49.987-120.68v-128h341.333v128c0 45.264-17.98 88.673-49.988 120.68-32.004 32.006-75.413 49.987-120.678 49.987s-88.673-17.981-120.68-49.987zM213.333 426.667c-23.564 0-42.667-19.102-42.667-42.667v-298.667c0-23.565 19.103-42.667 42.667-42.667h597.333c23.565 0 42.667 19.102 42.667 42.667v298.667c0 23.565-19.102 42.667-42.667 42.667h-597.333z" />
<glyph unicode="&#xe918;" glyph-name="History" d="M42.667 810.667c23.564 0 42.667-19.103 42.667-42.667v-213.333h213.333c23.564 0 42.667-19.103 42.667-42.666 0-23.565-19.102-42.667-42.667-42.667h-256c-23.564 0-42.667 19.102-42.667 42.667v256c0 23.564 19.103 42.667 42.667 42.667zM452.497 848.773c91.601 12.888 184.909-4.343 265.865-49.097 80.96-44.754 145.178-114.607 182.985-199.032s47.151-178.849 26.624-269.051c-20.527-90.197-69.811-171.281-140.425-231.031-70.618-59.755-158.737-94.942-251.089-100.254-92.352-5.316-183.929 19.524-260.934 70.784-77.005 51.255-135.266 126.148-166.004 213.397-7.83 22.225 3.839 46.588 26.064 54.421 22.225 7.829 46.59-3.84 54.42-26.065 24.591-69.798 71.2-129.715 132.803-170.718 61.604-41.007 134.867-60.881 208.748-56.627 73.877 4.25 144.375 32.397 200.87 80.201 56.491 47.804 95.919 112.67 112.341 184.828 16.418 72.158 8.943 147.699-21.299 215.241-30.246 67.54-81.621 123.422-146.389 159.226-64.764 35.803-139.413 49.588-212.693 39.278-73.281-10.31-141.227-44.157-193.6-96.442-0.305-0.304-0.614-0.603-0.927-0.898l-197.973-186.028c-17.172-16.137-44.174-15.296-60.311 1.877s-15.296 44.175 1.876 60.311l197.515 185.596c65.402 65.089 150.147 107.227 241.532 120.084zM509.397 674.344c23.565 0 42.667-19.103 42.667-42.667v-229.629l147.081-73.545c21.077-10.534 29.619-36.164 19.081-57.242s-36.169-29.619-57.242-19.081l-170.667 85.333c-14.455 7.228-23.586 21.999-23.586 38.161v256.001c0 23.564 19.102 42.667 42.667 42.667z" />
<glyph unicode="&#xe919;" glyph-name="Clock" d="M554.666 682.667c0 23.564-19.103 42.666-42.667 42.666s-42.667-19.103-42.667-42.666v-256c0-16.161 9.131-30.935 23.586-38.163l170.666-85.333c21.075-10.54 46.707-1.996 57.242 19.081 10.541 21.076 1.997 46.705-19.078 57.244l-147.081 73.54v229.631zM511.999 896c-259.206 0-469.333-210.128-469.333-469.333s210.128-469.331 469.333-469.331c259.207 0 469.332 210.125 469.332 469.331s-210.125 469.333-469.332 469.333zM127.999 426.667c0 212.077 171.923 383.999 384 383.999s384.001-171.923 384.001-383.999c0-212.077-171.923-384-384.001-384s-384 171.923-384 384z" />
<glyph unicode="&#xe91a;" glyph-name="file-text" d="M750.336 640h-110.336v110.336zM883.499 627.499l-256 256c-3.925 3.925-8.619 7.083-13.824 9.259s-10.795 3.243-16.341 3.243h-341.333c-35.328 0-67.413-14.379-90.496-37.504s-37.504-55.168-37.504-90.496v-682.667c0-35.328 14.379-67.413 37.504-90.496s55.168-37.504 90.496-37.504h512c35.328 0 67.413 14.379 90.496 37.504s37.504 55.168 37.504 90.496v512c0 11.776-4.779 22.443-12.501 30.165zM554.667 810.667v-213.333c0-23.552 19.115-42.667 42.667-42.667h213.333v-469.333c0-11.776-4.736-22.4-12.501-30.165s-18.389-12.501-30.165-12.501h-512c-11.776 0-22.4 4.736-30.165 12.501s-12.501 18.389-12.501 30.165v682.667c0 11.776 4.736 22.4 12.501 30.165s18.389 12.501 30.165 12.501zM682.667 426.667h-341.333c-23.552 0-42.667-19.115-42.667-42.667s19.115-42.667 42.667-42.667h341.333c23.552 0 42.667 19.115 42.667 42.667s-19.115 42.667-42.667 42.667zM682.667 256h-341.333c-23.552 0-42.667-19.115-42.667-42.667s19.115-42.667 42.667-42.667h341.333c23.552 0 42.667 19.115 42.667 42.667s-19.115 42.667-42.667 42.667zM426.667 597.334h-85.333c-23.552 0-42.667-19.115-42.667-42.667s19.115-42.667 42.667-42.667h85.333c23.552 0 42.667 19.115 42.667 42.667s-19.115 42.667-42.667 42.667z" />
<glyph unicode="&#xe91b;" glyph-name="plus-circle" d="M981.333 426.667c0 129.579-52.565 246.997-137.472 331.861s-202.283 137.472-331.861 137.472-246.997-52.565-331.861-137.472-137.472-202.283-137.472-331.861 52.565-246.997 137.472-331.861 202.283-137.472 331.861-137.472 246.997 52.565 331.861 137.472 137.472 202.283 137.472 331.861zM896 426.667c0-106.069-42.923-201.984-112.469-271.531s-165.461-112.469-271.531-112.469-201.984 42.923-271.531 112.469-112.469 165.461-112.469 271.531 42.923 201.984 112.469 271.531 165.461 112.469 271.531 112.469 201.984-42.923 271.531-112.469 112.469-165.461 112.469-271.531zM341.333 384h128v-128c0-23.552 19.115-42.667 42.667-42.667s42.667 19.115 42.667 42.667v128h128c23.552 0 42.667 19.115 42.667 42.667s-19.115 42.667-42.667 42.667h-128v128c0 23.552-19.115 42.667-42.667 42.667s-42.667-19.115-42.667-42.667v-128h-128c-23.552 0-42.667-19.115-42.667-42.667s19.115-42.667 42.667-42.667z" />
<glyph unicode="&#xe91c;" glyph-name="file" d="M750.336 597.334h-153.003v153.003zM883.499 584.832l-298.667 298.667c-3.925 3.925-8.619 7.083-13.824 9.259s-10.795 3.243-16.341 3.243h-298.667c-35.328 0-67.413-14.379-90.496-37.504s-37.504-55.168-37.504-90.496v-682.667c0-35.328 14.379-67.413 37.504-90.496s55.168-37.504 90.496-37.504h512c35.328 0 67.413 14.379 90.496 37.504s37.504 55.168 37.504 90.496v469.333c0 11.776-4.779 22.443-12.501 30.165zM512 810.667v-256c0-23.552 19.115-42.667 42.667-42.667h256v-426.667c0-11.776-4.736-22.4-12.501-30.165s-18.389-12.501-30.165-12.501h-512c-11.776 0-22.4 4.736-30.165 12.501s-12.501 18.389-12.501 30.165v682.667c0 11.776 4.736 22.4 12.501 30.165s18.389 12.501 30.165 12.501z" />
<glyph unicode="&#xe91d;" glyph-name="enable" d="M753.195 625.195c66.645-66.688 99.968-153.941 99.925-241.365s-33.365-174.677-100.011-241.323c-66.645-66.603-153.856-99.925-241.237-99.925-87.552 0-174.848 33.365-241.451 100.011-66.645 66.645-99.925 153.941-99.925 241.323s33.323 174.677 99.925 241.323c16.64 16.683 16.64 43.691 0 60.331s-43.691 16.64-60.331 0c-83.285-83.285-124.928-192.555-124.928-301.653s41.643-218.368 124.928-301.653c83.285-83.328 192.555-125.013 301.696-125.013s218.411 41.643 301.739 124.928c83.328 83.285 125.013 192.555 125.013 301.653-0.043 109.269-41.685 218.453-124.928 301.739-16.64 16.683-43.691 16.683-60.331 0s-16.683-43.691 0-60.331zM469.333 853.334v-426.667c0-23.552 19.115-42.667 42.667-42.667s42.667 19.115 42.667 42.667v426.667c0 23.552-19.115 42.667-42.667 42.667s-42.667-19.115-42.667-42.667z" />
<glyph unicode="&#xe91e;" glyph-name="chevron-down" d="M225.835 524.502l256-256c16.683-16.683 43.691-16.683 60.331 0l256 256c16.683 16.683 16.683 43.691 0 60.331s-43.691 16.683-60.331 0l-225.835-225.835-225.835 225.835c-16.683 16.683-43.691 16.683-60.331 0s-16.683-43.691 0-60.331z" />
<glyph unicode="&#xe91f;" glyph-name="chevron-right" horiz-adv-x="341" d="M72.843 140.502l256 256c16.683 16.683 16.683 43.691 0 60.331l-256 256c-16.683 16.683-43.691 16.683-60.331 0s-16.683-43.691 0-60.331l225.835-225.835-225.835-225.835c-16.683-16.683-16.683-43.691 0-60.331s43.691-16.683 60.331 0z" />
<glyph unicode="&#xe920;" glyph-name="chevron-left" horiz-adv-x="341" d="M328.834 200.84l-225.835 225.835 225.835 225.835c16.683 16.683 16.683 43.691 0 60.331s-43.691 16.683-60.331 0l-256-256c-16.683-16.683-16.683-43.691 0-60.331l256-256c16.683-16.683 43.691-16.683 60.331 0s16.683 43.691 0 60.331z" />
<glyph unicode="&#xe921;" glyph-name="chevron-up" d="M798.165 328.832l-256 256c-16.683 16.683-43.691 16.683-60.331 0l-256-256c-16.683-16.683-16.683-43.691 0-60.331s43.691-16.683 60.331 0l225.835 225.835 225.835-225.835c16.683-16.683 43.691-16.683 60.331 0s16.683 43.691 0 60.331z" />
<glyph unicode="&#xe922;" glyph-name="check" d="M823.168 712.832l-439.168-439.168-183.168 183.168c-16.683 16.683-43.691 16.683-60.331 0s-16.683-43.691 0-60.331l213.333-213.333c16.683-16.683 43.691-16.683 60.331 0l469.333 469.333c16.683 16.683 16.683 43.691 0 60.331s-43.691 16.683-60.331 0z" />
<glyph unicode="&#xe923;" glyph-name="help-circle" d="M981.333 426.667c0 129.579-52.565 246.997-137.472 331.861s-202.283 137.472-331.861 137.472-246.997-52.565-331.861-137.472-137.472-202.283-137.472-331.861 52.565-246.997 137.472-331.861 202.283-137.472 331.861-137.472 246.997 52.565 331.861 137.472 137.472 202.283 137.472 331.861zM896 426.667c0-106.069-42.923-201.984-112.469-271.531s-165.461-112.469-271.531-112.469-201.984 42.923-271.531 112.469-112.469 165.461-112.469 271.531 42.923 201.984 112.469 271.531 165.461 112.469 271.531 112.469 201.984-42.923 271.531-112.469 112.469-165.461 112.469-271.531zM428.075 540.502c7.808 22.229 23.851 39.168 43.605 48.64s42.965 11.392 65.195 3.541c19.541-6.869 34.944-20.053 44.8-36.651 7.808-13.099 12.117-28.373 12.203-44.245 0-6.613-1.664-13.184-4.992-19.797-3.413-6.827-8.661-13.867-15.701-20.907-30.251-30.251-78.123-46.592-78.123-46.592-22.357-7.467-34.432-31.616-26.965-53.973s31.616-34.432 53.973-26.965c0 0 65.877 21.589 111.488 67.2 11.904 11.904 23.253 26.197 31.701 43.093 8.533 17.067 13.995 36.608 13.995 58.411-0.171 31.189-8.704 61.312-24.192 87.424-19.755 33.195-50.773 59.819-89.813 73.557-44.459 15.616-91.093 11.733-130.432-7.125s-71.595-52.821-87.211-97.28c-7.851-22.229 3.84-46.592 26.069-54.4s46.592 3.883 54.4 26.069zM512 170.667c23.552 0 42.667 19.115 42.667 42.667s-19.115 42.667-42.667 42.667-42.667-19.115-42.667-42.667 19.115-42.667 42.667-42.667z" />
<glyph unicode="&#xe924;" glyph-name="list" d="M341.333 640h554.667c23.552 0 42.667 19.115 42.667 42.667s-19.115 42.667-42.667 42.667h-554.667c-23.552 0-42.667-19.115-42.667-42.667s19.115-42.667 42.667-42.667zM341.333 384h554.667c23.552 0 42.667 19.115 42.667 42.667s-19.115 42.667-42.667 42.667h-554.667c-23.552 0-42.667-19.115-42.667-42.667s19.115-42.667 42.667-42.667zM341.333 128h554.667c23.552 0 42.667 19.115 42.667 42.667s-19.115 42.667-42.667 42.667h-554.667c-23.552 0-42.667-19.115-42.667-42.667s19.115-42.667 42.667-42.667zM128 640c23.552 0 42.667 19.115 42.667 42.667s-19.115 42.667-42.667 42.667-42.667-19.115-42.667-42.667 19.115-42.667 42.667-42.667zM128 384c23.552 0 42.667 19.115 42.667 42.667s-19.115 42.667-42.667 42.667-42.667-19.115-42.667-42.667 19.115-42.667 42.667-42.667zM128 128c23.552 0 42.667 19.115 42.667 42.667s-19.115 42.667-42.667 42.667-42.667-19.115-42.667-42.667 19.115-42.667 42.667-42.667z" />
<glyph unicode="&#xe925;" glyph-name="play" d="M236.416 846.55c-6.528 4.267-14.507 6.784-23.083 6.784-23.552 0-42.667-19.115-42.667-42.667v-768c-0.043-7.765 2.133-15.872 6.784-23.083 12.757-19.84 39.125-25.557 58.965-12.8l597.333 384c4.864 3.072 9.344 7.424 12.8 12.8 12.757 19.84 6.997 46.208-12.8 58.965zM256 732.502l475.776-305.835-475.776-305.835z" />
<glyph unicode="&#xe926;" glyph-name="antenna" d="M113.778 910.222c-62.838 0-113.778-50.94-113.778-113.778v0c0-62.838 50.94-113.778 113.778-113.778v0c1.052 0.036 1.903 0.076 2.751 0.125l-0.306-0.014 128.111-456.889c-145.791-72.893-244.333-198.113-244.333-282.778h967.111c0 74.883-77.252 181.434-195.889 255.556l159 200.111c2.479-0.305 5.407-0.505 8.372-0.555l0.072-0.001c47.128 0 85.333 38.205 85.333 85.333v0c0 47.128-38.205 85.333-85.333 85.333v0c-47.128 0-85.333-38.205-85.333-85.333v0c0.033-23.192 9.312-44.21 24.348-59.571l-0.015 0.015-156.556-197.222c-70.217 34.822-151.125 57.667-237.556 57.667-66.171 0-129.225-13.277-186.667-35.111l-126 448.778c34.104 20.056 56.639 56.56 56.667 98.329v0.004c0 62.838-50.94 113.778-113.778 113.778v0z" />
<glyph unicode="&#xe927;" glyph-name="pendent" d="M0 950.857v-1024h1024c0 341.333 0 682.667 0 1024l-512-293.021z" />
<glyph unicode="&#xe928;" glyph-name="minimize" d="M298.667 810.667v-128c0-11.776-4.736-22.4-12.501-30.165s-18.389-12.501-30.165-12.501h-128c-23.552 0-42.667-19.115-42.667-42.667s19.115-42.667 42.667-42.667h128c35.328 0 67.413 14.379 90.496 37.504s37.504 55.168 37.504 90.496v128c0 23.552-19.115 42.667-42.667 42.667s-42.667-19.115-42.667-42.667zM896 640h-128c-11.776 0-22.4 4.736-30.165 12.501s-12.501 18.389-12.501 30.165v128c0 23.552-19.115 42.667-42.667 42.667s-42.667-19.115-42.667-42.667v-128c0-35.328 14.379-67.413 37.504-90.496s55.168-37.504 90.496-37.504h128c23.552 0 42.667 19.115 42.667 42.667s-19.115 42.667-42.667 42.667zM725.333 42.667v128c0 11.776 4.736 22.4 12.501 30.165s18.389 12.501 30.165 12.501h128c23.552 0 42.667 19.115 42.667 42.667s-19.115 42.667-42.667 42.667h-128c-35.328 0-67.413-14.379-90.496-37.504s-37.504-55.168-37.504-90.496v-128c0-23.552 19.115-42.667 42.667-42.667s42.667 19.115 42.667 42.667zM128 213.334h128c11.776 0 22.4-4.736 30.165-12.501s12.501-18.389 12.501-30.165v-128c0-23.552 19.115-42.667 42.667-42.667s42.667 19.115 42.667 42.667v128c0 35.328-14.379 67.413-37.504 90.496s-55.168 37.504-90.496 37.504h-128c-23.552 0-42.667-19.115-42.667-42.667s19.115-42.667 42.667-42.667z" />
<glyph unicode="&#xe929;" glyph-name="maximize" d="M341.333 853.334h-128c-35.328 0-67.413-14.379-90.496-37.504s-37.504-55.168-37.504-90.496v-128c0-23.552 19.115-42.667 42.667-42.667s42.667 19.115 42.667 42.667v128c0 11.776 4.736 22.4 12.501 30.165s18.389 12.501 30.165 12.501h128c23.552 0 42.667 19.115 42.667 42.667s-19.115 42.667-42.667 42.667zM938.667 597.334v128c0 35.328-14.379 67.413-37.504 90.496s-55.168 37.504-90.496 37.504h-128c-23.552 0-42.667-19.115-42.667-42.667s19.115-42.667 42.667-42.667h128c11.776 0 22.4-4.736 30.165-12.501s12.501-18.389 12.501-30.165v-128c0-23.552 19.115-42.667 42.667-42.667s42.667 19.115 42.667 42.667zM682.667-0h128c35.328 0 67.413 14.379 90.496 37.504s37.504 55.168 37.504 90.496v128c0 23.552-19.115 42.667-42.667 42.667s-42.667-19.115-42.667-42.667v-128c0-11.776-4.736-22.4-12.501-30.165s-18.389-12.501-30.165-12.501h-128c-23.552 0-42.667-19.115-42.667-42.667s19.115-42.667 42.667-42.667zM85.333 256v-128c0-35.328 14.379-67.413 37.504-90.496s55.168-37.504 90.496-37.504h128c23.552 0 42.667 19.115 42.667 42.667s-19.115 42.667-42.667 42.667h-128c-11.776 0-22.4 4.736-30.165 12.501s-12.501 18.389-12.501 30.165v128c0 23.552-19.115 42.667-42.667 42.667s-42.667-19.115-42.667-42.667z" />
<glyph unicode="&#xe92a;" glyph-name="pause-filled" d="M256.017 810.667c-23.564 0-42.667-19.103-42.667-42.666v-682.669c0-23.562 19.103-42.665 42.667-42.665h170.666c23.564 0 42.666 19.103 42.666 42.665v682.669c0 23.564-19.102 42.666-42.666 42.666h-170.666zM597.35 810.667c-23.562 0-42.665-19.103-42.665-42.666v-682.669c0-23.562 19.103-42.665 42.665-42.665h170.665c23.567 0 42.67 19.103 42.67 42.665v682.669c0 23.564-19.103 42.666-42.67 42.666h-170.665z" />
<glyph unicode="&#xe92b;" glyph-name="fast-back-filled" d="M912.448 94.328c12.864-10.003 30.304-11.808 44.941-4.653 14.643 7.162 23.923 22.035 23.923 38.33v597.334c0 16.296-9.28 31.169-23.923 38.328-14.637 7.16-32.077 5.356-44.941-4.649l-383.997-298.667c-10.393-8.083-16.472-20.513-16.472-33.679l0.001 298.666c0 16.296-9.283 31.169-23.921 38.328s-32.077 5.356-44.941-4.649l-384-298.667c-10.393-8.083-16.472-20.513-16.472-33.679s6.079-25.596 16.472-33.679l384-298.666c12.863-10.003 30.302-11.808 44.941-4.653 14.639 7.162 23.921 22.035 23.921 38.33v298.668c0-13.167 6.079-25.596 16.472-33.679l383.997-298.666z" />
<glyph unicode="&#xe92c;" glyph-name="fast-forward-filled" d="M111.549 759.007c-12.863 10.005-30.301 11.809-44.94 4.65s-23.921-22.033-23.921-38.328v-597.336c0-16.294 9.282-31.168 23.921-38.323 14.639-7.162 32.077-5.357 44.94 4.646l384 298.668c10.393 8.083 16.472 20.513 16.472 33.679v-298.669c0-16.294 9.282-31.168 23.921-38.323 14.639-7.162 32.077-5.357 44.941 4.646l384.001 298.668c10.394 8.083 16.474 20.513 16.474 33.679s-6.080 25.596-16.474 33.679l-384.001 298.666c-12.863 10.005-30.302 11.809-44.941 4.65s-23.921-22.033-23.921-38.328v-298.667c0 13.167-6.079 25.596-16.472 33.679l-384 298.666z" />
<glyph unicode="&#xe92d;" glyph-name="play-filled" d="M279.089 846.553c-13.129 8.44-29.819 9.038-43.518 1.559s-22.221-21.841-22.221-37.449v-768.001c0-15.606 8.522-29.967 22.221-37.448s30.389-6.881 43.518 1.556l597.332 384c12.211 7.854 19.594 21.376 19.594 35.891 0 14.519-7.383 28.040-19.594 35.891l-597.332 384z" />
</font>
</defs>
</svg>
