<svg fill="#debd8d" viewBox="0 0 130 130" xmlns="http://www.w3.org/2000/svg">
<path d="m65 0c-0.1726 0-0.34528 6.0749e-4 -0.51758 0.0019531-2.3587 0.018418-4.3226 1.6678-4.832 3.8691-0.8804-2.0822-3.1002-3.3691-5.4277-2.9805-0.3398 0.056741-0.67958 0.11573-1.0176 0.17773-2.3212 0.42571-3.9718 2.3908-4.0918 4.6484-1.2307-1.8967-3.6412-2.776-5.8652-1.9863-0.3243 0.11514-0.6488 0.2334-0.9707 0.35352-2.2119 0.82535-3.4927 3.0501-3.2148 5.2949-1.5427-1.6537-4.0705-2.0995-6.123-0.93359-0.2991 0.16988-0.59648 0.34118-0.89258 0.51562-2.0327 1.1978-2.907 3.6106-2.2441 5.7715-1.8058-1.3589-4.3711-1.3585-6.1895 0.14453-0.265 0.2191-0.52962 0.44096-0.79102 0.66406-1.7943 1.5315-2.2373 4.0571-1.2109 6.0703-2.0132-1.0264-4.5388-0.58336-6.0703 1.2109-0.2231 0.2614-0.44496 0.52602-0.66406 0.79102-1.503 1.8184-1.5034 4.3837-0.14453 6.1895-2.1609-0.6629-4.5737 0.21144-5.7715 2.2441-0.17445 0.2961-0.34574 0.59348-0.51562 0.89258-1.1659 2.0525-0.72009 4.5803 0.93359 6.123-2.2448-0.2779-4.4696 1.0029-5.2949 3.2148-0.12012 0.3219-0.23838 0.6464-0.35352 0.9707-0.78964 2.224 0.089618 4.6344 1.9863 5.8652-2.2577 0.12-4.2227 1.7706-4.6484 4.0918-0.06199 0.338-0.12099 0.67768-0.17773 1.0176-0.38865 2.3275 0.89823 4.5473 2.9805 5.4277-2.2014 0.5094-3.8507 2.4733-3.8691 4.832-0.0013456 0.1723-0.0019531 0.34498-0.0019531 0.51758s6.0749e-4 0.34528 0.0019531 0.51758c0.018418 2.3587 1.6678 4.3226 3.8691 4.832-2.0822 0.8804-3.3691 3.1002-2.9805 5.4277 0.056741 0.3398 0.11573 0.67958 0.17773 1.0176 0.42571 2.3212 2.3908 3.9718 4.6484 4.0918-1.8967 1.2307-2.776 3.6412-1.9863 5.8652 0.11514 0.3243 0.2334 0.6488 0.35352 0.9707 0.82535 2.2119 3.0501 3.4927 5.2949 3.2148-1.6537 1.5427-2.0995 4.0705-0.93359 6.123 0.16988 0.2991 0.34118 0.59648 0.51562 0.89258 1.1978 2.0327 3.6106 2.9071 5.7715 2.2441-1.3589 1.806-1.3585 4.3714 0.14453 6.1894 0.2191 0.265 0.44096 0.53001 0.66406 0.79101 1.5315 1.794 4.0571 2.2379 6.0703 1.2109-1.0264 2.014-0.58336 4.5393 1.2109 6.0703 0.2614 0.224 0.52602 0.44507 0.79102 0.66407 1.8184 1.503 4.3837 1.5025 6.1895 0.14453-0.6629 2.16 0.21144 4.5715 2.2441 5.7695 0.2961 0.175 0.59348 0.34758 0.89258 0.51758 2.0525 1.166 4.5803 0.7194 6.123-0.9336-0.2779 2.244 1.0029 4.4709 3.2148 5.2969 0.3219 0.12 0.6464 0.23656 0.9707 0.35156 2.224 0.79 4.6344-0.08933 5.8652-1.9863 0.12 2.258 1.7706 4.2224 4.0918 4.6484 0.338 0.062 0.67768 0.12073 1.0176 0.17774 2.3275 0.38799 4.5473-0.89747 5.4277-2.9805 0.5094 2.202 2.4733 3.8511 4.832 3.8691 0.1723 1e-3 0.34498 0.00195 0.51758 0.00195s0.34528-9.5e-4 0.51758-0.00195c2.3587-0.018 4.3226-1.6671 4.832-3.8691 0.8804 2.083 3.1002 3.3685 5.4277 2.9805 0.3398-0.05701 0.67958-0.11574 1.0176-0.17774 2.3212-0.426 3.9718-2.3904 4.0918-4.6484 1.2307 1.897 3.6412 2.7763 5.8652 1.9863 0.3243-0.115 0.6488-0.23156 0.9707-0.35156 2.2119-0.826 3.4927-3.0529 3.2148-5.2969 1.5427 1.653 4.0705 2.0996 6.123 0.9336 0.2991-0.17 0.59648-0.34258 0.89258-0.51758 2.0327-1.198 2.9071-3.6095 2.2441-5.7695 1.806 1.358 4.3714 1.3585 6.1894-0.14453 0.265-0.219 0.53001-0.44007 0.79101-0.66407 1.794-1.531 2.2379-4.0563 1.2109-6.0703 2.014 1.027 4.5393 0.58306 6.0703-1.2109 0.224-0.261 0.44507-0.52601 0.66407-0.79101 1.503-1.818 1.5025-4.3834 0.14453-6.1894 2.16 0.663 4.5715-0.21144 5.7695-2.2441 0.175-0.2961 0.34758-0.59348 0.51758-0.89258 1.166-2.0525 0.7194-4.5803-0.9336-6.123 2.244 0.2779 4.4709-1.0029 5.2969-3.2148 0.12-0.3219 0.23656-0.6464 0.35156-0.9707 0.79-2.224-0.08933-4.6344-1.9863-5.8652 2.258-0.12 4.2224-1.7706 4.6484-4.0918 0.062-0.338 0.12073-0.67768 0.17774-1.0176 0.38799-2.3275-0.89747-4.5473-2.9805-5.4277 2.202-0.5094 3.8511-2.4733 3.8691-4.832 1e-3 -0.1723 0.00195-0.34498 0.00195-0.51758s-9.5e-4 -0.34528-0.00195-0.51758c-0.018-2.3587-1.6671-4.3226-3.8691-4.832 2.083-0.8804 3.3685-3.1002 2.9805-5.4277-0.05701-0.3398-0.11574-0.67958-0.17774-1.0176-0.426-2.3212-2.3904-3.9718-4.6484-4.0918 1.897-1.2307 2.7763-3.6412 1.9863-5.8652-0.115-0.3243-0.23156-0.6488-0.35156-0.9707-0.826-2.2119-3.0529-3.4927-5.2969-3.2148 1.653-1.5427 2.0996-4.0705 0.9336-6.123-0.17-0.2991-0.34258-0.59648-0.51758-0.89258-1.198-2.0327-3.6095-2.907-5.7695-2.2441 1.358-1.8058 1.3585-4.3711-0.14453-6.1895-0.219-0.265-0.44007-0.52962-0.66407-0.79102-1.531-1.7943-4.0563-2.2373-6.0703-1.2109 1.027-2.0132 0.58306-4.5388-1.2109-6.0703-0.261-0.2231-0.52601-0.44496-0.79101-0.66406-1.818-1.503-4.3834-1.5034-6.1894-0.14453 0.663-2.1609-0.21144-4.5737-2.2441-5.7715-0.2961-0.17445-0.59348-0.34574-0.89258-0.51562-2.0525-1.1659-4.5803-0.72009-6.123 0.93359 0.2779-2.2448-1.0029-4.4696-3.2148-5.2949-0.3219-0.12012-0.6464-0.23838-0.9707-0.35352-2.224-0.78964-4.6344 0.089628-5.8652 1.9863-0.12-2.2576-1.7706-4.2227-4.0918-4.6484-0.338-0.06199-0.67768-0.12099-1.0176-0.17773-2.3275-0.38865-4.5473 0.89823-5.4277 2.9805-0.5094-2.2014-2.4733-3.8507-4.832-3.8691-0.1723-0.0013456-0.34498-0.0019531-0.51758-0.0019531z"/>
</svg>
