<svg xmlns="http://www.w3.org/2000/svg" xmlns:xlink="http://www.w3.org/1999/xlink" width="200" height="122" fill="none" xmlns:v="https://vecta.io/nano"><path d="M28.16 12.153c32.249-27.39 173.576 19.744 171.824 59.824-2.217 50.698-177.366 61.851-191.777 26.363S-2.879 38.516 28.16 12.153z" fill="#f5ead4"/><path d="M167.078 22.034l-8.59 4.967L82.47 4.753 89.825 0l77.253 22.034z" fill="#d2d1ce"/><path d="M156.836 26.518l1.653.482 8.59-4.966-1.087-.31-9.156 4.794z" fill="#efefef"/><path d="M167.079 22.034l.921 38.8-75.477 60.813.74-10.475 55.301-50.619L158.488 27l8.591-4.966z" fill="#ccc"/><path d="M167.079 22.034l.921 38.8-75.477 60.813.74-10.475 55.301-50.619L158.488 27l8.591-4.966z" fill="#d2d1ce"/><path d="M8 83.715l1.965 8.907 82.559 29.025.74-10.475L8 83.715z" fill="#ccc"/><path d="M52.128 107.446l-2.705-.952 2.707.952z" fill="#d7d4d0"/><path d="M92.407 111.111l-1.168 10.084 1.284.452.74-10.475-.856-.061z" fill="#e3e3e3"/><use xlink:href="#B" fill="#ccc"/><use xlink:href="#B" fill="#b0aeaa"/><path d="M71.546 21.117L82.47 4.753 71.546 21.117z" fill="#fdfbf8"/><path d="M137.473 20.851l-.96-.279.96.279z" fill="#e8e8e8"/><path d="M63.444 33.251L8 83.716l85.235 27.834 55.329-50.997-85.12-27.302z" fill="#d2d1ce"/><path d="M159.296 26.533l-.808.467-9.924 33.552-55.859 49.358L8 83.715l85.194 28.425 56.202-51.507 9.9-34.1z" fill="#e3e3e3"/><path d="M85.842 12.079L74.63 28.272l66.777 22.368 7.171-19.443-62.736-19.117z" fill="#f0f1f1"/><path d="M79.028 27.944l5.547 2.227.539-1.017-3.934-1.91.801-1.054 2.264.93.712-1.03-2.054-1.181.683-.926 3.447 1.423.823-1.205-4.984-1.965-3.844 5.709zM138.5 47l1.5 2 5.801-15.369-2.691 1.238L138.5 47zm.118-14.075L138.001 30l-7.234 16.537L133.5 45.5l5.118-12.575zm4.259 1.638l2.951-1.301-7.391-2.849.458 2.471 3.982 1.679zm-8.866 10.999l-2.598 1.144L140 49.5l-2-2.5-3.989-1.438zm-64.643-3.511c-3.185-.989-6.475-1.644-7.575-1.061l-.063 1.399c-.092 1.29 2.497 2.989 6.348 4.185s7.259 1.262 7.604.146c.118-.38.114-1.84.114-1.84-1.037-.969-3.884-2.039-6.427-2.829zm18.993 7.27c-3.183-.991-6.473-1.646-7.573-1.061l-.063 1.397c-.347 1.116 2.495 2.989 6.349 4.185s7.257 1.264 7.604.148c.118-.38.065-1.399.065-1.399-1.037-.967-3.836-2.482-6.381-3.27zm18.968 7.206c-3.186-.989-6.476-1.644-7.576-1.059l-.063 1.397c-.347 1.115 2.497 2.989 6.348 4.185s7.259 1.262 7.604.148c.118-.38.066-1.399.066-1.399-1.037-.967-3.836-2.482-6.379-3.273zm19.024 7.335c-3.183-.987-6.473-1.642-7.574-1.059 0 0-.264 1.116-.05 1.84.332 1.131 2.958 2.694 6.336 3.744 3.853 1.196 7.258 1.262 7.603.146.118-.38.066-1.399.066-1.399-1.035-.965-3.836-2.482-6.381-3.272z" fill="#757370"/><g fill="#8e8b87"><use xlink:href="#C"/><path d="M88.393 48.406c-3.853-1.196-7.259-1.262-7.604-.146s2.495 2.989 6.348 4.185 7.257 1.262 7.604.146-2.498-2.989-6.349-4.185zm18.996 7.268c-3.853-1.196-7.256-1.26-7.603-.146s2.496 2.991 6.349 4.185 7.259 1.264 7.604.148-2.496-2.989-6.349-4.187z"/><use xlink:href="#C" x="56.988" y="21.808"/></g><path d="M61.782 41.025v-.002.002zm.002-.011zm.004-.011z" fill="#d6d6d6"/><path d="M125.203 67.004c-.007 0-.016-.004-.022-.007.006.002.015.007.022.007zm-.125-.037z" fill="#656666"/><path d="M116.221 77.096c-2.203-.417-4.279-.919-4.967.041l-.08 1.428c-.097 1.364 1.054 2.539 3.239 3.159 2.384.677 5.002.275 5.685-1.03.173-.328.273-2.24.273-2.24-.705-.434-2.024-.956-4.15-1.358zm-10.755 10.296c-2.342-.445-4.934-.144-4.934-.144l-.113 1.613c-.116 1.236 1.054 2.539 3.24 3.159 2.384.677 5.001.275 5.684-1.03.199-.378.276-2.194.276-2.194-.389-1.057-2.125-1.022-4.153-1.404zM94.712 97.688c-1.984-.378-4.1-.919-4.934-.144l-.116 1.613c-.332 1.17 1.055 2.539 3.242 3.159 2.382.677 5.002.275 5.685-1.031.183-.349.26-2.073.26-2.073-.338-1.085-2.056-1.131-4.137-1.524zM70.734 55.545l.148-2.113-23.612.867-.144 2.065 15.93 6.514 7.678-7.333zm12.577 15.792l7.597-7.178.157-2.229-15.354-3.628-7.606 4.526-.157 2.231 15.363 6.279zm12.387-4.512l-7.527 4.626-.14 1.993 14.826 6.058 7.512-7.034.142-1.991-14.813-3.652zm-36.631-.222l.144-2.065-15.985-3.842-7.658 4.783-.146 2.063 16.028 6.335 7.617-7.274zm-2.692 9.398l15.459 6.106 7.534-7.121.151-2.131-15.437-3.561-7.556 4.576-.151 2.131zm20.21 8.155l14.919 5.894 7.453-6.977.159-2.251-14.919-3.235-7.455 4.32-.157 2.249zM31.562 71.833l-7.602 4.733-.144 2.063 16.12 6.159 7.556-7.215.146-2.065-16.076-3.674zm20.984 8.366l-7.499 4.495-.153 2.161 15.553 5.938 7.475-7.067.153-2.159-15.528-3.368zm12.681 14.589l15.013 5.729 7.396-6.923.148-2.111-14.998-3.216-7.409 4.408-.151 2.113z" fill="#757370"/><path d="M70.881 53.48L55.132 47.4l-7.861 6.899 15.93 6.514 7.68-7.333zm12.576 15.795l7.595-7.18-15.194-5.855-7.763 6.755 15.363 6.281zm12.385-4.513l-7.667 6.617 14.828 6.058 7.512-7.032-14.673-5.643zm-36.631-.224L43.373 58.63l-7.805 6.848 16.026 6.335 7.617-7.276zm-2.688 9.397l15.459 6.108 7.534-7.124-15.286-5.691-7.706 6.707zm20.205 8.158l14.922 5.892 7.453-6.977-14.762-5.484-7.613 6.569zM31.709 69.77l-7.748 6.796 16.122 6.159 7.556-7.217-15.93-5.737zm20.985 8.364l-7.652 6.656 15.55 5.94 7.477-7.069-15.376-5.528zm12.678 14.592l15.013 5.728 7.394-6.923-14.849-5.329-7.558 6.523zm50.965-17.243c-2.52-.478-4.698.227-5.05 1.469-.332 1.17 1.055 2.539 3.24 3.159 2.384.677 5.004.275 5.687-1.03.731-1.399-1.103-3.072-3.877-3.598zM105.58 85.779c-2.517-.478-4.696.227-5.048 1.469-.332 1.17 1.055 2.539 3.24 3.159 2.384.677 5.002.275 5.685-1.03.733-1.399-1.1-3.074-3.877-3.598zM94.826 96.074c-2.517-.478-4.696.227-5.047 1.469-.334 1.17 1.055 2.539 3.24 3.159 2.384.676 5.002.275 5.685-1.031.731-1.399-1.103-3.074-3.877-3.598z" fill="#8e8b87"/><path d="M63.878 50.777L55.13 47.4l8.748 3.377z" fill="#d6d6d6"/><path d="M68.669 62.494l3.096-2.694-3.096 2.694zm21.259-.832l-4.683-1.805 4.683 1.805z" fill="#c4c4c4"/><path d="M69.518 63.577l-1.423-.583 1.423.583zm-1.423-.583l.574-.5-.574.5zm22.958-.899l-1.124-.432 1.124.432z" fill="#656666"/><path d="M110.454 70.464l.061-.059-.061.059zm.061-.059l-.727-.279.727.279z" fill="#c4c4c4"/><path d="M106.497 74.164l3.956-3.7-3.956 3.7zm-15.133-1.482l-1.367-.559 1.367.559zm-28.58 3.729l-6.261-2.476 6.261 2.476z" fill="#656666"/><path d="M79.045 72.746h-.002l-.897-.334.9.334z" fill="#c4c4c4"/><path d="M79.514 72.92l-.471-.175h.002l.469.175zm7.663 13.3l-2.445-.965 2.445.965zm6.643-.266l2.751-2.574-2.751 2.574zm-48.683-8.059l1.183-1.126-1.183 1.126zM60.593 90.73h-.002l2.39-2.262-2.388 2.262zm-3.871-1.478l-2.008-.769 2.008.769z" fill="#656666"/><path d="M69.692 88.997l2.155-1.858-2.155 1.858zm9.667-.487l-4.753-1.705 4.753 1.705z" fill="#d6d6d6"/><defs ><path id="B" d="M63.816 41.525l4.82 3.382c4.77.744 9.558 1.925 14.749 3.2 12.577 3.087 28.261 2.305 39.883 8.106 5.166 2.578 9.969 5.569 14.918 8.523 1.091.651 2.351 1.319 3.626 2.039l6.75-6.222 9.924-33.552L82.468 4.752 63.443 33.251l-4.785 4.355c1.666 1.375 3.327 2.766 5.159 3.919z"/><path id="C" d="M69.395 41.136c-3.853-1.196-7.257-1.262-7.604-.146s2.498 2.989 6.351 4.185 7.257 1.262 7.604.146-2.498-2.989-6.351-4.185z"/></defs></svg>