<svg width="45" height="45" viewBox="0 0 45 45" fill="none" xmlns="http://www.w3.org/2000/svg">
<path d="M3 2.99988L3.16649 2.01384L1.77982 1.77969L2.01396 3.16637L3 2.99988ZM3 2.99988L3.16653 2.01384L3.16683 2.01389L3.16824 2.01413L3.17428 2.01515L3.19903 2.01929L3.29797 2.03573C3.3854 2.05018 3.51513 2.07146 3.68325 2.09859C4.01949 2.15286 4.50919 2.23053 5.12106 2.3238C6.34505 2.51037 8.05664 2.75917 10.0059 3.00792C13.9163 3.50694 18.7391 3.99988 22.5 3.99988C26.2609 3.99988 31.0837 3.50694 34.9941 3.00792C36.9434 2.75917 38.6549 2.51037 39.8789 2.3238C40.4908 2.23053 40.9805 2.15286 41.3168 2.09859C41.4849 2.07146 41.6146 2.05018 41.702 2.03573L41.801 2.01929L41.8257 2.01515L41.8318 2.01413L41.8332 2.01389L41.8335 2.01384L42 2.99988L41.8335 2.01384L43.2202 1.77969L42.986 3.16637L42.986 3.16671L42.9857 3.16812L42.9847 3.17416L42.9806 3.19891L42.9642 3.29785C42.9497 3.38528 42.9284 3.51501 42.9013 3.68312C42.847 4.01937 42.7693 4.50906 42.6761 5.12093C42.4895 6.34493 42.2407 8.05652 41.992 10.0058C41.4929 13.9162 41 18.739 41 22.4999C41 26.2608 41.4929 31.0835 41.992 34.994C42.2407 36.9432 42.4895 38.6548 42.6761 39.8788C42.7693 40.4907 42.847 40.9804 42.9013 41.3166C42.9284 41.4847 42.9497 41.6145 42.9642 41.7019L42.9806 41.8008L42.9847 41.8256L42.9857 41.8316L42.986 41.833L42.986 41.8334L43.2202 43.2201L41.8335 42.9859L41.8332 42.9859L41.8318 42.9856L41.8257 42.9846L41.801 42.9805L41.702 42.964C41.6146 42.9496 41.4849 42.9283 41.3168 42.9012C40.9805 42.8469 40.4908 42.7692 39.8789 42.676C38.6549 42.4894 36.9434 42.2406 34.9941 41.9918C31.0837 41.4928 26.2609 40.9999 22.5 40.9999C18.7391 40.9999 13.9163 41.4928 10.0059 41.9918C8.05664 42.2406 6.34505 42.4894 5.12106 42.676C4.50919 42.7692 4.01949 42.8469 3.68325 42.9012C3.51513 42.9283 3.3854 42.9496 3.29797 42.964L3.19903 42.9805L3.17428 42.9846L3.16824 42.9856L3.16683 42.9859L3.16649 42.9859L1.77982 43.2201L2.01396 41.8334L3 41.9999L2.01396 41.8334L2.01401 41.833L2.01425 41.8316L2.01527 41.8256L2.01941 41.8008L2.03585 41.7019C2.0503 41.6145 2.07158 41.4847 2.09871 41.3166C2.15298 40.9804 2.23065 40.4907 2.32392 39.8788C2.51049 38.6548 2.75929 36.9432 3.00804 34.994C3.50707 31.0835 4 26.2608 4 22.4999C4 18.739 3.50707 13.9162 3.00804 10.0058C2.75929 8.05652 2.51049 6.34493 2.32392 5.12093C2.23065 4.50906 2.15298 4.01937 2.09871 3.68312C2.07158 3.51501 2.0503 3.38528 2.03585 3.29785L2.01941 3.19891L2.01527 3.17416L2.01425 3.16812L2.01401 3.16671L2.01396 3.1664L3 2.99988Z" stroke="#EECE9F" stroke-width="2"/>
</svg>
