<svg width="131" height="106" viewBox="0 0 131 106" fill="none" xmlns="http://www.w3.org/2000/svg">
<path d="M14.254 10.2797C35.8212 -7.26585 129.068 -4.6339 130.971 47.1242C132.874 98.8829 41.5301 113.797 15.5226 86.6012C-8.47279 61.5101 -1.22993 22.8759 14.254 10.2797Z" fill="#F5EAD4"/>
<path d="M17.5952 52.3666H43.5017C43.5017 52.3666 44.5261 68.329 31.7028 68.526C15.0302 68.7832 17.8517 55.7011 17.5952 52.3666Z" fill="#96AA20"/>
<path d="M28.881 16.457C28.1221 16.3294 26.6366 11.4873 31.9271 10.3333C31.9271 10.3333 32.7928 4.36961 37.506 6.19712C37.506 6.19712 40.584 1.48392 43.2452 5.42778C43.2452 5.42778 48.1753 0.144337 49.8179 5.33128C51.6455 11.1026 44.0147 9.53158 44.0147 9.53158C44.0147 9.53158 41.4494 14.1483 37.3457 11.3267C37.3457 11.3267 36.5441 14.6618 33.0812 13.219C33.0812 13.219 33.6582 17.2587 28.881 16.457Z" fill="white"/>
<path d="M29.88 71.0205C26.1103 71.0212 22.2222 70.3855 19.3021 68.423C16.739 66.6974 14.8897 63.9642 14.4727 59.6465L14.6406 58.3305H17.6856C18.2097 63.0538 20.6903 68.5303 31.2231 68.5303C31.3804 68.5303 31.5421 68.5289 31.7029 68.5262C39.2133 68.4108 41.9736 62.8878 42.9713 58.3305H45.5706L45.8271 60.0224C45.1683 63.1814 43.6808 65.5542 41.7168 67.2798C39.0303 69.637 35.4301 70.7789 31.8178 70.9692C31.183 71.0023 30.5393 71.0205 29.8916 71.0205C29.8878 71.0205 29.8837 71.0205 29.88 71.0205Z" fill="#9CDCBB"/>
<path d="M31.2227 68.5298C20.69 68.5298 18.2093 63.0533 17.6853 58.33H42.971C41.9732 62.8873 39.2129 68.4103 31.7025 68.5257C31.5417 68.5284 31.3801 68.5298 31.2227 68.5298Z" fill="#AADE8C"/>
<path d="M46.1779 57.1763H43.1925C43.6372 54.4789 43.5017 52.3666 43.5017 52.3666H17.5951C17.6697 53.3357 17.4836 55.1274 17.5922 57.1763H14.3904C14.5543 49.931 17.6834 46.1437 20.8097 44.1131C22.4154 43.0738 24.0252 42.5056 25.2321 42.1978C25.8352 42.044 26.3374 41.9556 26.6872 41.9056C26.8623 41.8807 26.9991 41.8651 27.0914 41.8564C27.1839 41.8469 27.2284 41.8449 27.2287 41.8449L27.4794 41.8301L25.9399 15.2758L28.1619 15.0909C28.3008 15.8589 28.6306 16.415 28.881 16.4568C29.3123 16.529 29.6996 16.5621 30.048 16.5621C31.9424 16.5621 32.6755 15.5883 32.9491 14.6921L34.6455 14.5504L33.4938 41.4238L33.717 41.4575C33.7173 41.4575 33.7614 41.4643 33.8515 41.4811C34.5274 41.6053 37.6334 42.2782 40.5487 44.4228C43.4632 46.5716 46.1959 50.1591 46.2001 56.2146C46.1998 56.5412 46.1924 56.8618 46.1779 57.1763Z" fill="#9CDCBB"/>
<path d="M43.1924 57.1763H17.5921C17.4835 55.1274 17.6696 53.3357 17.595 52.3666H43.5016C43.5016 52.3666 43.637 54.4789 43.1924 57.1763Z" fill="#AADE8C"/>
<path d="M30.048 16.5623C29.6995 16.5623 29.3123 16.5292 28.881 16.457C28.6306 16.4151 28.3008 15.8591 28.1619 15.0911L32.9491 14.6922C32.6755 15.5884 31.9423 16.5623 30.048 16.5623Z" fill="white"/>
<path d="M29.8913 71.5232C26.065 71.5218 22.0788 70.8895 19.0219 68.8406C16.7132 67.2959 14.9585 64.9319 14.2386 61.48L14.4724 59.6464C14.8895 63.9641 16.7387 66.6973 19.3019 68.4229C22.2219 70.3854 26.11 71.0211 29.8797 71.0204C29.8834 71.0204 29.8876 71.0204 29.8913 71.0204C30.5391 71.0204 31.1828 71.0022 31.8176 70.9691C35.4299 70.7788 39.0301 69.637 41.7166 67.2797C43.6805 65.5541 45.1681 63.1813 45.8269 60.0223L46.023 61.314C45.243 63.9945 43.8371 66.0899 42.048 67.6576C39.2518 70.1094 35.5416 71.2755 31.8439 71.4706C31.2012 71.5043 30.5485 71.5232 29.8913 71.5232ZM46.6485 57.7426L46.5626 57.1764H46.1778C46.1923 56.8619 46.1996 56.5414 46.1999 56.2148C46.1957 50.1593 43.463 46.5717 40.5485 44.423C37.6332 42.2783 34.5273 41.6055 33.8514 41.4813C33.7612 41.4644 33.7172 41.4577 33.7169 41.4577L33.4936 41.4239L34.6454 14.5505L32.949 14.6922C33.0028 14.5154 33.0389 14.3413 33.0626 14.1787L35.1718 14.0025L34.0148 41.0008C34.7962 41.152 37.5122 41.7769 40.2422 43.5949C43.467 45.7369 46.7074 49.585 46.7023 56.2148C46.7026 56.7384 46.6844 57.248 46.6485 57.7426ZM14.3902 57.1764H13.8867C14.0415 49.78 17.2876 45.7862 20.5364 43.6915C23.3342 41.8828 26.1163 41.4577 26.9488 41.3666L25.4239 15.0607L25.4099 14.8164L28.1024 14.5917C28.1124 14.7658 28.133 14.9325 28.1617 15.0911L25.9397 15.276L27.4793 41.8302L27.2286 41.8451C27.2283 41.8451 27.1837 41.8471 27.0912 41.8565C26.9989 41.8653 26.8621 41.8808 26.687 41.9058C26.3373 41.9557 25.835 42.0441 25.2319 42.198C24.0251 42.5057 22.4152 43.074 20.8095 44.1132C17.6833 46.1439 14.5542 49.9312 14.3902 57.1764Z" fill="#6BCDBF"/>
<path d="M28.1619 15.0911C28.1331 14.9325 28.1125 14.7658 28.1025 14.5917L33.0627 14.1787C33.039 14.3413 33.0029 14.5154 32.9491 14.6922L28.1619 15.0911Z" fill="white"/>
<path d="M9.95935 95.0187L14.6404 58.3302H45.5704L51.1388 95.0322L52.28 94.8595L46.5627 57.1762H13.6242L8.81445 94.873L9.95935 95.0187Z" fill="#4D584D"/>
<path d="M32.6004 97.6709C32.6004 97.6709 27.791 93.92 27.791 88.7257C27.791 85.4499 32.7928 80.838 32.7928 78.53C32.7928 78.53 37.2174 84.0125 37.4098 88.6292C37.6023 93.2465 35.8708 95.5552 32.6004 97.6709Z" fill="#EAD50E"/>
<path d="M32.5041 96.0358C33.8032 96.3901 35.185 94.2508 35.1012 92.5731C35.005 90.6498 33.1774 87.8599 32.9849 86.7059C32.9849 86.7059 30.7635 90.529 30.6765 92.092C30.5805 93.8236 31.4459 95.7477 32.5041 96.0358Z" fill="#F25727"/>
<path d="M83.6931 104.823L79.3936 104.786C80.6333 104.515 81.875 104.222 83.1019 103.907L83.6931 104.823Z" fill="#AFE3C8"/>
<path d="M79.3934 104.786L39.2131 104.445L50.0089 87.5847L51.1389 95.0324L52.28 94.8597L50.9527 86.1108L56.1302 78.0241L55.556 44.1537H65.6325L66.0158 77.4511L83.1018 103.907C81.8749 104.222 80.6332 104.516 79.3934 104.786Z" fill="#9CDCBB"/>
<path d="M51.1389 95.0322L50.009 87.5845L50.9528 86.1106L52.2801 94.8595L51.1389 95.0322Z" fill="#96C2AE"/>
<path d="M84.621 105.333L77.0525 105.269C77.836 105.116 78.6141 104.956 79.3936 104.786L83.6931 104.823L83.1019 103.907C83.2753 103.862 83.4407 103.82 83.6141 103.775L84.621 105.333Z" fill="#9FDDBD"/>
<path d="M77.0525 105.269L38.2996 104.94L49.8947 86.8308L50.0091 87.5846L39.2132 104.445L79.3936 104.786C78.6141 104.956 77.836 105.116 77.0525 105.269ZM83.1019 103.907L66.0159 77.451L65.6326 44.1536H55.5561L56.1303 78.0239L50.9528 86.1107L50.8384 85.3569L55.6251 77.8809L55.0494 43.9066L55.3007 43.9025L55.0494 43.9066L55.0452 43.6515H66.1293L66.5166 77.3005L83.6141 103.774C83.4407 103.82 83.2753 103.862 83.1019 103.907Z" fill="#6BCDBF"/>
<path d="M50.0089 87.5847L49.8945 86.8309L50.8383 85.357L50.9527 86.1108L50.0089 87.5847Z" fill="#68A4AF"/>
<path d="M52.6072 88.726H70.6905L78.3853 102L45.1047 101.807L52.6072 88.726Z" fill="#312C18"/>
</svg>
