<svg width="150" height="129" viewBox="0 0 150 129" fill="none" xmlns="http://www.w3.org/2000/svg">
<path d="M0.272897 58.2745C2.95923 24.9983 96.7005 -11.9893 131.934 25.8451C167.167 63.6795 149.55 124.034 90.2102 128.538C30.87 133.042 -3.43585 104.216 0.272897 58.2745Z" fill="#F5EAD4"/>
<path d="M39.2344 18.8083C39.2052 18.8412 36.364 21.9981 33.517 27.2445C30.6727 32.4909 27.8139 39.8367 27.8119 48.2457C27.8119 51.2274 28.1729 54.3415 29.0222 57.5329C30.5334 63.2155 33.2679 67.857 36.6205 71.6089C41.6515 77.2397 48.0575 80.8772 53.8774 83.1683C59.7034 85.4578 64.9342 86.4026 67.7191 86.6132C68.1627 86.6461 68.5503 86.3137 68.5832 85.8693C68.6169 85.4257 68.2836 85.0389 67.84 85.0052C64.3811 84.75 56.4286 83.1971 48.7056 78.9876C44.8396 76.885 41.0253 74.1206 37.8229 70.535C34.62 66.9476 32.0248 62.5431 30.5804 57.1181C29.7687 54.0682 29.4244 51.0973 29.4241 48.2457C29.4222 40.2078 32.1711 33.1048 34.9341 28.014C36.3148 25.4685 37.6962 23.4284 38.7294 22.0293C39.246 21.329 39.6754 20.79 39.9738 20.427C40.123 20.246 40.2393 20.1085 40.3178 20.018L40.4055 19.9176L40.4322 19.8872C40.7302 19.5563 40.7036 19.0469 40.3727 18.749C40.0419 18.4511 39.5321 18.4774 39.2344 18.8083Z" fill="#267E41"/>
<path d="M38.0419 22.752C38.0419 22.752 40.5499 18.2734 45.0284 21.139C45.0284 21.139 43.0581 25.0802 38.0419 22.752Z" fill="#267E41"/>
<path d="M36.2505 26.5138C36.2505 26.5138 40.1914 22.5726 45.0282 25.0802C45.0282 25.0802 41.2664 29.2008 36.2505 26.5138Z" fill="#267E41"/>
<path d="M33.7424 32.067C33.7424 32.067 37.3252 27.1407 41.804 29.9174C41.804 29.9174 37.9971 34.7984 33.7424 32.067Z" fill="#267E41"/>
<path d="M31.951 37.6203C31.951 37.6203 35.1758 32.6488 38.7585 35.2913C38.7585 35.2913 36.5195 40.9788 31.951 37.6203Z" fill="#267E41"/>
<path d="M30.5183 43.8906C30.5183 43.8906 31.772 38.6952 36.7882 39.77C36.7882 39.77 34.9967 45.1439 30.5183 43.8906Z" fill="#267E41"/>
<path d="M29.9806 50.6973C29.9806 50.6973 30.07 44.6066 35.1756 45.144C35.1756 45.144 35.1756 51.996 29.9806 50.6973Z" fill="#267E41"/>
<path d="M29.8016 57.3253C29.8016 57.3253 29.5329 51.056 34.6381 51.056C34.6381 51.056 35.4444 57.6389 29.8016 57.3253Z" fill="#267E41"/>
<path d="M32.6302 63.9702C32.6302 63.9702 30.837 58.7189 35.8394 55.7422C35.8394 55.7422 37.7435 61.5202 32.6302 63.9702Z" fill="#267E41"/>
<path d="M36.0554 69.0503C36.0554 69.0503 33.5496 63.5891 38.0572 59.5245C38.0572 59.5245 40.8656 66.7106 36.0554 69.0503Z" fill="#267E41"/>
<path d="M39.6416 73.0613C39.6416 73.0613 36.5008 66.9771 41.1875 63.0203C41.1875 63.0203 44.2508 70.7644 39.6416 73.0613Z" fill="#267E41"/>
<path d="M43.8252 76.0618C43.8252 76.0618 40.5031 70.4738 44.2653 65.7722C44.2653 65.7722 48.23 71.7659 43.8252 76.0618Z" fill="#267E41"/>
<path d="M48.8228 79.1555C48.8228 79.1555 44.7156 73.8968 48.2219 69.3663C48.2219 69.3663 52.2484 73.6779 48.8228 79.1555Z" fill="#267E41"/>
<path d="M54.3642 81.6145C54.3642 81.6145 49.952 78.3078 52.5782 72.38C52.5782 72.38 57.3728 76.2998 54.3642 81.6145Z" fill="#267E41"/>
<path d="M59.2937 84.0818C59.2937 84.0818 54.3825 80.3562 57.2009 75.2267C57.2009 75.2267 62.272 79.0864 59.2937 84.0818Z" fill="#267E41"/>
<path d="M63.1121 85.1624C63.1121 85.1624 58.8139 81.4524 61.7089 76.2702C61.7089 76.2702 67.1249 80.6476 63.1121 85.1624Z" fill="#267E41"/>
<path d="M37.0147 22.2375C37.0147 22.2375 38.8446 17.4413 33.774 15.8415C33.774 15.8415 32.012 19.8798 37.0147 22.2375Z" fill="#267E41"/>
<path d="M34.6852 25.9111C34.6852 25.9111 35.7466 20.4392 30.9618 17.8337C30.9618 17.8337 29.6516 23.2571 34.6852 25.9111Z" fill="#267E41"/>
<path d="M32.5771 31.6357C32.5771 31.6357 33.7717 25.6627 28.695 24.2513C28.695 24.2513 27.685 30.3585 32.5771 31.6357Z" fill="#267E41"/>
<path d="M30.5016 37.2617C30.5016 37.2617 31.2908 31.389 26.8509 31.0615C26.8509 31.0615 24.8476 36.8371 30.5016 37.2617Z" fill="#267E41"/>
<path d="M28.7538 43.6553C28.7538 43.6553 29.9867 38.455 25.0273 37.1431C25.0273 37.1431 24.1928 42.7467 28.7538 43.6553Z" fill="#267E41"/>
<path d="M28.5829 50.16C28.5829 50.16 28.4932 44.0692 23.3876 44.6066C23.3876 44.6066 23.3876 51.4586 28.5829 50.16Z" fill="#267E41"/>
<path d="M29.913 57.0357C29.913 57.0357 28.3783 50.9507 23.4858 52.4107C23.4858 52.4107 24.5952 58.9491 29.913 57.0357Z" fill="#267E41"/>
<path d="M31.2784 64.1496C31.2784 64.1496 29.5891 58.8637 23.7981 59.4546C23.7981 59.4546 25.7121 65.2285 31.2784 64.1496Z" fill="#267E41"/>
<path d="M34.835 69.6889C34.835 69.6889 31.818 64.4927 25.8975 65.8316C25.8975 65.8316 30.1499 72.2705 34.835 69.6889Z" fill="#267E41"/>
<path d="M38.7111 73.4639C38.7111 73.4639 32.7231 70.144 28.6292 74.7115C28.6292 74.7115 36.2789 78.0034 38.7111 73.4639Z" fill="#267E41"/>
<path d="M43.2997 77.0421C43.2997 77.0421 37.1387 74.9691 33.3325 79.6353C33.3325 79.6353 40.0259 82.2515 43.2997 77.0421Z" fill="#267E41"/>
<path d="M47.8905 79.8296C47.8905 79.8296 41.4485 78.0932 38.6398 83.0861C38.6398 83.0861 44.1787 85.1172 47.8905 79.8296Z" fill="#267E41"/>
<path d="M53.1951 82.6235C53.1951 82.6235 48.2399 80.2057 44.1624 85.2471C44.1624 85.2471 49.8383 87.7259 53.1951 82.6235Z" fill="#267E41"/>
<path d="M59.0323 84.2596C59.0323 84.2596 53.2683 82.0739 50.4159 87.1853C50.4159 87.1853 56.3789 89.4343 59.0323 84.2596Z" fill="#267E41"/>
<path d="M63.1314 85.6972C63.1314 85.6972 57.5027 84.9549 55.5581 90.5635C55.5581 90.5635 62.4286 91.6966 63.1314 85.6972Z" fill="#267E41"/>
<path d="M94.9831 19.887L95.0095 19.9175C95.309 20.2565 98.0676 23.4439 100.74 28.4969C103.414 33.5499 105.993 40.4587 105.991 48.2456C105.991 51.0972 105.646 54.0681 104.835 57.118C103.39 62.543 100.795 66.9475 97.5919 70.5348C92.7899 75.9137 86.6045 79.4426 80.9475 81.6679C75.2961 83.8932 70.165 84.8133 67.5751 85.005C67.1315 85.0388 66.7982 85.4256 66.8319 85.8692C66.8649 86.3136 67.2517 86.6469 67.6961 86.6131C71.4027 86.3308 79.4842 84.7491 87.4802 80.4038C91.474 78.2304 95.4415 75.3623 98.7943 71.6088C102.147 67.8569 104.882 63.2154 106.393 57.5328C107.242 54.3413 107.603 51.2272 107.603 48.2456C107.602 39.8366 104.743 32.4908 101.898 27.2444C99.0511 21.9979 96.2102 18.841 96.1806 18.8081C95.8826 18.4773 95.3732 18.451 95.0424 18.7489C94.7116 19.0468 94.6852 19.5562 94.9831 19.887Z" fill="#267E41"/>
<path d="M97.3728 22.752C97.3728 22.752 94.8652 18.2734 90.3866 21.139C90.3866 21.139 92.3568 25.0802 97.3728 22.752Z" fill="#267E41"/>
<path d="M99.1644 26.5138C99.1644 26.5138 95.2232 22.5726 90.3866 25.0802C90.3866 25.0802 94.1484 29.2008 99.1644 26.5138Z" fill="#267E41"/>
<path d="M101.672 32.067C101.672 32.067 98.0899 27.1407 93.6113 29.9174C93.6113 29.9174 97.4184 34.7984 101.672 32.067Z" fill="#267E41"/>
<path d="M103.463 37.6203C103.463 37.6203 100.239 32.6488 96.6559 35.2913C96.6559 35.2913 98.8952 40.9788 103.463 37.6203Z" fill="#267E41"/>
<path d="M104.897 43.8906C104.897 43.8906 103.643 38.6952 98.627 39.77C98.627 39.77 100.419 45.1439 104.897 43.8906Z" fill="#267E41"/>
<path d="M105.435 50.6973C105.435 50.6973 105.345 44.6066 100.239 45.144C100.239 45.144 100.239 51.996 105.435 50.6973Z" fill="#267E41"/>
<path d="M105.614 57.3253C105.614 57.3253 105.883 51.056 100.777 51.056C100.777 51.056 99.9713 57.6389 105.614 57.3253Z" fill="#267E41"/>
<path d="M102.785 63.9702C102.785 63.9702 104.578 58.7189 99.5752 55.7422C99.5752 55.7422 97.6717 61.5202 102.785 63.9702Z" fill="#267E41"/>
<path d="M99.3598 69.0503C99.3598 69.0503 101.866 63.5891 97.3583 59.5245C97.3583 59.5245 94.5496 66.7106 99.3598 69.0503Z" fill="#267E41"/>
<path d="M95.773 73.0613C95.773 73.0613 98.9142 66.9771 94.2274 63.0203C94.2274 63.0203 91.1644 70.7644 95.773 73.0613Z" fill="#267E41"/>
<path d="M91.5892 76.0618C91.5892 76.0618 94.9124 70.4738 91.1498 65.7722C91.1498 65.7722 87.1847 71.7659 91.5892 76.0618Z" fill="#267E41"/>
<path d="M86.5918 79.1555C86.5918 79.1555 90.6993 73.8968 87.1926 69.3663C87.1926 69.3663 83.1658 73.6779 86.5918 79.1555Z" fill="#267E41"/>
<path d="M81.0503 81.6145C81.0503 81.6145 85.463 78.3078 82.837 72.38C82.837 72.38 78.0415 76.2998 81.0503 81.6145Z" fill="#267E41"/>
<path d="M76.1218 84.0818C76.1218 84.0818 81.0333 80.3562 78.2146 75.2267C78.2146 75.2267 73.1435 79.0864 76.1218 84.0818Z" fill="#267E41"/>
<path d="M72.3029 85.1624C72.3029 85.1624 76.6012 81.4524 73.7052 76.2702C73.7052 76.2702 68.2901 80.6476 72.3029 85.1624Z" fill="#267E41"/>
<path d="M98.3998 22.2375C98.3998 22.2375 96.5703 17.4413 101.641 15.8415C101.641 15.8415 103.403 19.8798 98.3998 22.2375Z" fill="#267E41"/>
<path d="M100.73 25.9111C100.73 25.9111 99.6679 20.4392 104.453 17.8337C104.453 17.8337 105.763 23.2571 100.73 25.9111Z" fill="#267E41"/>
<path d="M102.838 31.6357C102.838 31.6357 101.644 25.6627 106.72 24.2513C106.72 24.2513 107.73 30.3585 102.838 31.6357Z" fill="#267E41"/>
<path d="M104.913 37.2617C104.913 37.2617 104.125 31.389 108.564 31.0615C108.564 31.0615 110.568 36.8371 104.913 37.2617Z" fill="#267E41"/>
<path d="M106.661 43.6553C106.661 43.6553 105.428 38.455 110.387 37.1431C110.387 37.1431 111.222 42.7467 106.661 43.6553Z" fill="#267E41"/>
<path d="M106.832 50.16C106.832 50.16 106.922 44.0692 112.028 44.6066C112.028 44.6066 112.028 51.4586 106.832 50.16Z" fill="#267E41"/>
<path d="M105.502 57.0357C105.502 57.0357 107.037 50.9507 111.929 52.4107C111.929 52.4107 110.819 58.9491 105.502 57.0357Z" fill="#267E41"/>
<path d="M104.137 64.1496C104.137 64.1496 105.825 58.8637 111.617 59.4546C111.617 59.4546 109.702 65.2285 104.137 64.1496Z" fill="#267E41"/>
<path d="M100.58 69.6889C100.58 69.6889 103.597 64.4927 109.517 65.8316C109.517 65.8316 105.265 72.2705 100.58 69.6889Z" fill="#267E41"/>
<path d="M96.7041 73.4639C96.7041 73.4639 102.692 70.144 106.785 74.7115C106.785 74.7115 99.136 78.0034 96.7041 73.4639Z" fill="#267E41"/>
<path d="M92.1154 77.0421C92.1154 77.0421 98.2761 74.9691 102.083 79.6353C102.083 79.6353 95.3891 82.2515 92.1154 77.0421Z" fill="#267E41"/>
<path d="M87.5248 79.8296C87.5248 79.8296 93.967 78.0932 96.7757 83.0861C96.7757 83.0861 91.2364 85.1172 87.5248 79.8296Z" fill="#267E41"/>
<path d="M82.2198 82.6235C82.2198 82.6235 87.1749 80.2057 91.2527 85.2471C91.2527 85.2471 85.5767 87.7259 82.2198 82.6235Z" fill="#267E41"/>
<path d="M76.3821 84.2596C76.3821 84.2596 82.1461 82.0739 84.9985 87.1853C84.9985 87.1853 79.0353 89.4343 76.3821 84.2596Z" fill="#267E41"/>
<path d="M72.2839 85.6972C72.2839 85.6972 77.913 84.9549 79.8577 90.5635C79.8577 90.5635 72.9867 91.6966 72.2839 85.6972Z" fill="#267E41"/>
<path d="M62.0581 94.946H39.4861V15.0483H62.0581V94.946Z" fill="#B4DBD5"/>
<path d="M41.1877 21.2285V88.9446C41.1877 89.3898 41.5488 89.7505 41.994 89.7505C42.4392 89.7505 42.7999 89.3898 42.7999 88.9446V21.2285C42.7999 20.7833 42.4392 20.4228 41.994 20.4228C41.5488 20.4228 41.1877 20.7833 41.1877 21.2285Z" fill="#98B9B5"/>
<path d="M45.3081 21.2285V88.9446C45.3081 89.3898 45.6691 89.7505 46.1144 89.7505C46.5596 89.7505 46.9203 89.3898 46.9203 88.9446V21.2285C46.9203 20.7833 46.5596 20.4228 46.1144 20.4228C45.6691 20.4228 45.3081 20.7833 45.3081 21.2285Z" fill="#98B9B5"/>
<path d="M49.428 21.2285V88.9446C49.428 89.3898 49.789 89.7505 50.2339 89.7505C50.6791 89.7505 51.0402 89.3898 51.0402 88.9446V21.2285C51.0402 20.7833 50.6791 20.4228 50.2339 20.4228C49.789 20.4228 49.428 20.7833 49.428 21.2285Z" fill="#98B9B5"/>
<path d="M53.5485 21.2285V88.9446C53.5485 89.3898 53.9091 89.7505 54.3544 89.7505C54.7996 89.7505 55.1606 89.3898 55.1606 88.9446V21.2285C55.1606 20.7833 54.7996 20.4228 54.3544 20.4228C53.9091 20.4228 53.5485 20.7833 53.5485 21.2285Z" fill="#98B9B5"/>
<path d="M57.6689 21.2285V88.9446C57.6689 89.3898 58.0296 89.7505 58.4749 89.7505C58.9201 89.7505 59.2811 89.3898 59.2811 88.9446V21.2285C59.2811 20.7833 58.9201 20.4228 58.4749 20.4228C58.0296 20.4228 57.6689 20.7833 57.6689 21.2285Z" fill="#98B9B5"/>
<path d="M39.3065 18.5415H62.1474L66.1775 9.67404L35.5447 9.40493L39.3065 18.5415Z" fill="#AACDC8"/>
<path d="M32.8575 9.94309L68.8653 10.7488L69.4027 1.14441e-05H33.6635L32.8575 9.94309Z" fill="#B4DBD5"/>
<path d="M62.6851 91.3628H39.8444L35.8135 100.23L66.4469 100.499L62.6851 91.3628Z" fill="#AACDC8"/>
<path d="M69.1335 99.9617L33.1262 99.1551L32.5887 109.904H68.3278L69.1335 99.9617Z" fill="#B4DBD5"/>
</svg>
