<svg width="139" height="119" viewBox="0 0 139 119" fill="none" xmlns="http://www.w3.org/2000/svg">
<path d="M66.1739 0.0325623C101.18 -1.94826 174.921 87.2102 118.301 99.7926C64.8473 111.671 13.1483 115.071 2.36341 81.8178C-8.42146 48.5645 18.5407 2.72878 66.1739 0.0325623Z" fill="#F5EAD4"/>
<path d="M137.579 98.3491C137.058 97.7407 132.27 94.1475 127.871 89.4246C118.216 78.1014 102.958 61.9142 92.7718 52.2384C85.6753 44.7654 80.5759 39.4134 80.5759 39.4134L17.1906 48.8043C17.1906 48.8043 16.0168 54.3792 16.6037 57.0206C16.0168 61.7156 64.9253 116.494 71.1859 118.45C76.874 120.228 135.031 104.741 136.87 102.261C137.433 101.504 138.166 99.033 137.579 98.3491Z" fill="#6B8A72"/>
<path d="M17.1903 48.8044C17.7727 44.1453 77.0544 33.5447 83.511 35.8922C89.9666 38.2397 138.753 95.1146 137.579 98.6359C136.405 102.157 76.9718 117.196 71.2836 115.418C65.023 113.461 16.6035 53.4994 17.1903 48.8044Z" fill="#8BB290"/>
<path d="M25.1138 50.5651L81.7496 40.5873L92.6082 52.3257L35.9714 63.1833L25.1138 50.5651Z" fill="#2F331C"/>
<path d="M24.3793 52.3255L81.31 41.6143L92.608 53.7922L94.3686 53.4992L81.4565 39.1194L22.0319 50.271L24.3793 52.3255Z" fill="#181912"/>
<path d="M30.6886 51.7388L32.8411 51.1519L40.4705 60.3469L37.927 61.3247L30.6886 51.7388Z" fill="#D8EA6C"/>
<path d="M35.3845 51.1519L43.4048 49.5863L46.2422 54.2327L42.2805 55.9933L43.3078 58.0479L48.1493 56.5802L49.6655 58.3903L42.0361 60.7378L38.123 54.6731L43.4543 53.059L41.6442 51.5428L37.5361 52.9125L35.3845 51.1519Z" fill="#D8EA6C"/>
<path d="M45.6553 49.0974L46.6825 50.565L52.8443 49.2439L54.4584 51.5914L48.2958 53.059L49.4695 54.8197L55.6322 53.4994L57.3928 55.2601L50.3503 57.1672L51.9644 59.0752L60.1807 56.7268L54.312 47.1903L45.6553 49.0974Z" fill="#D8EA6C"/>
<path d="M68.6907 50.565L67.517 48.8044L64.0317 49.7337L61.7947 46.8963L59.5452 47.2388L61.7597 50.3394L58.7139 51.1519L59.7411 52.8145L62.8687 51.8924L65.1695 55.1135L67.8109 54.5266L65.2971 51.3388L68.6907 50.565Z" fill="#D8EA6C"/>
<path d="M67.6648 45.4298L70.8922 49.9783L74.8538 49.0975L77.6417 53.353L79.1093 53.0591L73.5335 44.6955L72.0659 44.9894L73.3871 47.6299L71.479 48.2167L69.278 45.2823L67.6648 45.4298Z" fill="#D8EA6C"/>
<path d="M81.1626 42.7882L76.4677 44.255L79.598 48.8044L82.7768 48.2166L83.9505 49.6843L80.4293 50.7115L81.7495 52.6187L86.8849 50.858L83.2171 46.3095L79.5485 46.7499L78.5222 45.1358L81.7495 43.962L81.1626 42.7882Z" fill="#D8EA6C"/>
<path d="M41.0574 67.7805C41.0574 67.7805 40.6664 69.5411 40.7644 70.2259C40.7644 70.2259 69.8126 111.024 73.3374 112.875C77.2505 114.929 127.529 99.6695 128.116 98.5937V97.517L41.0574 67.7805Z" fill="#556E5C"/>
<path d="M41.0572 67.7804C40.6447 66.0575 93.0969 55.651 94.6616 56.6297C96.2272 57.6075 129.094 96.3432 128.115 97.5169C127.138 98.6907 75.0008 112.484 73.6311 111.701C72.2614 110.918 41.7663 70.7399 41.0572 67.7804Z" fill="#637F6A"/>
<path d="M54.0192 64.6501C54.0192 64.6501 54.5683 65.3161 55.5309 66.4799C56.4826 67.6537 57.8784 69.3002 59.4871 71.3295C61.0977 73.3571 63.0057 75.7001 64.9802 78.2651C66.9691 80.8193 69.0784 83.5533 71.1572 86.3106C73.2414 89.0643 75.2734 91.8567 77.1671 94.4837C78.1126 95.7977 79.0491 97.0514 79.866 98.2926C80.6983 99.5221 81.4846 100.684 82.2108 101.757C82.9289 102.836 83.6254 103.798 84.1386 104.721C84.6751 105.627 85.1434 106.417 85.529 107.068C86.2992 108.367 86.7387 109.109 86.7387 109.109C86.7387 109.109 86.2677 108.385 85.4445 107.118C85.0329 106.485 84.5331 105.717 83.9606 104.836C83.4106 103.942 82.6728 103.007 81.9376 101.943C81.1881 100.89 80.3756 99.7476 79.5173 98.5397C78.6734 97.3219 77.7018 96.0943 76.7555 94.783C74.8438 92.1731 72.7911 89.4004 70.689 86.6629C68.6327 83.8921 66.5458 81.1437 64.5775 78.5751C62.6201 75.9984 60.7939 73.5934 59.2283 71.5317C56.1024 67.4029 54.0192 64.6501 54.0192 64.6501Z" fill="#556E5C"/>
<path d="M68.5442 61.4225C68.5442 61.4225 69.1149 62.0696 70.1125 63.202C71.102 64.3425 72.5373 65.953 74.2018 67.9347C75.8698 69.9146 77.8192 72.2208 79.8548 74.7355C81.8932 77.2483 84.0394 79.9518 86.1667 82.6704C88.2643 85.4125 90.3323 88.177 92.226 90.8031C93.1606 92.1252 94.0765 93.3942 94.8943 94.6336C95.7059 95.8765 96.5175 97.0215 97.187 98.1323C97.8602 99.2396 98.5189 100.228 99.006 101.165C99.5021 102.094 99.965 102.887 100.293 103.567C100.911 104.946 101.265 105.734 101.265 105.734C101.265 105.734 100.879 104.963 100.206 103.613C99.85 102.949 99.3556 102.176 98.8227 101.273C98.2987 100.364 97.5986 99.4032 96.9093 98.3121C96.2172 97.2219 95.3796 96.0967 94.542 94.8771C93.6981 93.6611 92.7481 92.42 91.8143 91.1024C89.9045 88.4961 87.8167 85.7522 85.7029 83.029C83.599 80.2978 81.4762 77.58 79.4594 75.0536C77.4426 72.5264 75.5615 70.1663 73.9483 68.1441C70.7056 64.1115 68.5442 61.4225 68.5442 61.4225Z" fill="#556E5C"/>
<path d="M81.7495 58.7812C81.7495 58.7812 82.3534 59.3888 83.4095 60.4511C84.4592 61.5197 85.9673 63.0386 87.7279 64.9089C89.4859 66.78 91.5395 68.9631 93.6803 71.3564C95.8157 73.7542 98.0832 76.3219 100.294 78.9391C102.5 81.5589 104.649 84.229 106.619 86.7671C107.625 88.019 108.522 89.2898 109.398 90.4726C110.286 91.6481 111.048 92.8156 111.788 93.8662C112.539 94.9088 113.141 95.9261 113.699 96.8078C114.262 97.6868 114.732 98.466 115.084 99.1292C115.814 100.438 116.23 101.186 116.23 101.186C116.23 101.186 115.783 100.456 114.999 99.1796C114.621 98.5343 114.12 97.7766 113.521 96.9228C112.925 96.0681 112.285 95.0831 111.518 94.0549C110.754 93.025 109.968 91.88 109.055 90.7278C108.153 89.5685 107.224 88.3291 106.219 87.0807C104.234 84.5634 102.067 81.9175 99.8456 79.3165C97.659 76.6868 95.4148 74.1057 93.3001 71.6943C91.1791 69.2884 89.2072 67.0353 87.4861 65.1317C85.7695 63.2228 84.3396 61.632 83.3385 60.5185C82.3274 59.4131 81.7495 58.7812 81.7495 58.7812Z" fill="#556E5C"/>
<path d="M47.4161 76.5352C47.4161 76.5352 48.2394 76.3006 49.6809 75.8899C51.1225 75.4827 53.1752 74.8734 55.6629 74.2308C58.1489 73.5792 61.0482 72.8189 64.1542 72.0046C67.2612 71.1877 70.6099 70.4597 73.9397 69.6553C77.2803 68.8959 80.621 68.1365 83.7531 67.4238C86.913 66.8414 89.8626 66.2985 92.3899 65.8321C97.4507 64.9468 100.825 64.3572 100.825 64.3572C100.825 64.3572 97.4759 65.0771 92.4519 66.1565C89.9372 66.6733 87.0038 67.2764 83.8609 67.9217C80.7369 68.6577 77.4052 69.4423 74.0727 70.2269C70.7393 71.0043 67.387 71.7062 64.2764 72.498C61.1551 73.2485 58.2423 73.9495 55.7456 74.5499C50.7477 75.7416 47.4161 76.5352 47.4161 76.5352Z" fill="#556E5C"/>
<path d="M56.5126 88.8604C56.5126 88.8604 57.3178 88.5808 58.7262 88.0919C60.1381 87.612 62.1486 86.9029 64.586 86.1309C67.0179 85.34 69.8651 84.4493 72.9262 83.529C75.9855 82.6033 79.2758 81.7046 82.5517 80.7591C84.2027 80.3331 85.8537 79.9071 87.4795 79.4883C89.1071 79.0776 90.7015 78.648 92.2572 78.2777C95.3786 77.5857 98.2922 76.9395 100.789 76.3859C105.828 75.5069 109.188 74.9218 109.188 74.9218C109.188 74.9218 105.856 75.6363 100.859 76.7085C98.3767 77.3124 95.481 78.0171 92.3786 78.772C90.8292 79.154 89.2393 79.5952 87.6171 80.0185C85.9966 80.449 84.351 80.8867 82.7054 81.3244C79.4259 82.2438 76.133 83.1156 73.0692 84.017C70.0045 84.9149 67.1276 85.7004 64.683 86.4454C59.7804 87.8942 56.5126 88.8604 56.5126 88.8604Z" fill="#556E5C"/>
<path d="M67.2244 102.213C67.2244 102.213 68.0332 101.915 69.4478 101.395C70.8669 100.886 72.8864 100.132 75.3382 99.3145C76.564 98.9055 77.8834 98.4355 79.2944 97.9861C80.7045 97.5332 82.192 97.055 83.7297 96.5607C86.8079 95.5757 90.1269 94.641 93.4271 93.6443C95.0871 93.177 96.7587 92.7555 98.398 92.316C100.04 91.8864 101.655 91.4631 103.219 91.0533C106.373 90.3442 109.317 89.6836 111.84 89.1165C116.94 88.2582 120.339 87.6866 120.339 87.6866C120.339 87.6866 116.967 88.3876 111.909 89.4391C109.402 90.0566 106.477 90.7755 103.343 91.5467C101.785 91.9682 100.176 92.4032 98.54 92.8453C96.9061 93.2947 95.2471 93.7513 93.5871 94.2078C90.2842 95.1776 86.9616 96.0862 83.8798 97.0469C82.3339 97.5134 80.8402 97.9646 79.4238 98.3924C78.0029 98.8085 76.6746 99.2471 75.4398 99.6272C72.9736 100.397 70.9182 101.039 69.4802 101.489C68.044 101.95 67.2244 102.213 67.2244 102.213Z" fill="#556E5C"/>
<path d="M64.729 94.8766L66.3431 91.0615L68.5442 90.1807L71.7724 96.6373L69.7179 97.2241L67.3704 93.116L66.637 95.317L64.729 94.8766Z" fill="#28332B"/>
<path d="M77.9353 90.3277L76.1747 88.7136C76.1747 88.7136 77.0545 86.8056 80.2828 86.0722C83.5111 85.3388 82.9233 93.1156 82.9233 93.1156L87.3254 91.7945L87.7657 93.5551L81.6031 95.7561L80.4293 93.5551C80.4293 93.5551 81.897 88.5671 80.4293 88.7136C78.9617 88.8601 77.9353 90.3277 77.9353 90.3277Z" fill="#28332B"/>
<path d="M90.994 84.1654L89.6729 82.8452L95.7375 80.8886L97.1567 83.2847L95.5425 85.9261C95.5425 85.9261 98.3304 84.7523 100.091 87.5402C101.852 90.3281 95.5425 90.7676 95.5425 90.7676L94.9557 89.1543C94.9557 89.1543 98.379 89.1049 97.4011 87.5402C96.9086 86.7529 93.6345 87.3937 93.6345 87.3937L92.9011 85.8775L94.7597 83.0402L90.994 84.1654Z" fill="#28332B"/>
<path d="M55.7942 76.4378L55.0348 84.3071L60.0282 82.6247L61.5479 85.3389L63.1765 84.4707L61.2217 81.9192L62.4709 81.4312L61.3853 80.3455L60.2996 80.7796L58.5084 78.1741L57.6941 78.4455L58.9425 81.1049L56.7172 82.001L56.9886 77.4147L55.7942 76.4378Z" fill="#28332B"/>
<path d="M72.8483 72.8671L73.3372 74.2368L70.4028 75.4106L71.2835 76.3884C71.2835 76.3884 73.8261 74.5298 75.6847 76.7794C77.5433 79.0298 74.2179 81.5732 72.1634 81.5732L71.4786 80.4966C71.4786 80.4966 75.0978 79.6167 73.8261 77.856C73.0163 76.7344 70.1098 78.247 70.1098 78.247L68.2512 74.6278L72.8483 72.8671Z" fill="#28332B"/>
<path d="M89.0862 76.7551C87.7597 77.253 86.8817 75.0583 88.4266 74.4076C89.8205 73.8207 90.8469 76.0954 89.0862 76.7551ZM88.6468 73.2338C87.1791 73.3803 86.8367 74.8237 86.8367 74.8237C86.8367 74.8237 84.3912 72.6712 87.9125 70.4217L87.2276 69.4439C87.2276 69.4439 82.9236 71.1065 84.5872 74.9217C86.2498 78.7359 88.139 78.1445 90.0407 77.342C92.2408 76.4127 91.0149 72.9975 88.6468 73.2338Z" fill="#28332B"/>
<path d="M53.0644 70.8125L52.9917 69.7853L51.6992 70.2248L51.3775 67.2913L45.9482 68.7589L46.9018 69.9327L50.3503 69.0519L50.5156 70.6265L49.1028 71.1064L49.6169 72.3539L50.6496 71.8919L50.9371 74.6277L52.1109 73.9671L51.8251 71.3671L53.0644 70.8125Z" fill="#28332B"/>
<path d="M65.8061 69.5906C63.8495 70.2709 63.0075 68.1939 64.8274 67.634C66.7354 67.0471 68.0556 68.8078 65.8061 69.5906ZM63.4092 65.0906C64.2711 64.7464 65.3163 65.8976 64.2162 66.2643C63.1162 66.631 62.3091 65.531 63.4092 65.0906ZM65.204 66.7326C66.8361 65.6388 64.689 63.5906 63.0739 64.1433C60.4182 65.0519 61.4985 67.3842 63.7058 67.2224C61.3259 68.5426 62.5922 71.7071 66.0578 70.5019C69.4289 69.329 68.4197 66.2436 65.204 66.7326Z" fill="#28332B"/>
<path d="M77.8858 63.2813C76.0272 64.3077 75.0494 62.2541 76.6141 61.3733C78.044 60.5689 79.7444 62.254 77.8858 63.2813ZM79.207 60.3469C77.2962 59.2586 73.2259 61.6016 74.8049 63.4763C77.1524 66.2642 79.8424 62.9389 79.8424 62.9389C81.1626 64.6501 78.8645 66.7531 78.8645 66.7531L79.4999 67.9763C82.3363 67.0956 82.7282 62.352 79.207 60.3469Z" fill="#28332B"/>
<path d="M91.0427 104.462C88.2063 106.125 85.2386 100.38 87.5214 99.3756C89.9669 98.2998 93.8791 102.8 91.0427 104.462ZM87.1305 97.7129C83.2173 99.2776 86.0538 107.984 91.6295 105.636C97.2053 103.289 91.0732 96.1357 87.1305 97.7129Z" fill="#28332B"/>
<path d="M104.542 98.104C105.741 97.571 107.28 100.158 105.912 100.549C104.542 100.941 102.781 98.8868 104.542 98.104Z" fill="#28332B"/>
<path d="M95.4448 61.5207L94.1731 59.9551L92.2525 60.3254L90.9448 58.4884C90.9448 58.4884 89.3801 58.7814 89.0862 58.8793L90.419 60.6795L88.5973 61.0309L89.478 62.4986L91.5173 62.1642L92.7054 63.7703L94.564 63.5743L93.3471 61.864L95.4448 61.5207Z" fill="#28332B"/>
<path d="M96.0316 71.4974L101.411 69.7368L102.292 71.3994L97.4013 73.063L96.0316 71.4974Z" fill="#28332B"/>
<path d="M113.541 82.8449L109.192 80.8254L109.237 77.5621L107.378 78.149L107.139 79.8719L105.324 79.0297L103.368 79.7146L106.928 81.3916L106.4 85.1924L109.139 84.7026L109.17 82.4485L111.878 83.7247L113.541 82.8449Z" fill="#28332B"/>
<path d="M116.769 99.2776L118.333 98.8866L120.584 89.6916L118.822 90.2785L116.769 99.2776Z" fill="#28332B"/>
<path d="M114.813 91.7463C115.971 91.3113 117.062 93.311 115.399 93.8979C113.737 94.4847 113.248 92.3332 114.813 91.7463Z" fill="#28332B"/>
<path d="M121.366 94.2894C123.077 93.7187 123.713 96.05 122.148 96.6369C120.584 97.2238 120.192 94.6803 121.366 94.2894Z" fill="#28332B"/>
</svg>
