<svg width="153" height="112" viewBox="0 0 153 112" fill="none" xmlns="http://www.w3.org/2000/svg">
<path d="M21.4071 22.8411C45.922 0.0773468 153.357 39.2501 152.025 72.5602C150.34 114.695 17.1936 123.965 6.23859 94.4703C-4.71647 64.9759 -2.18838 44.7512 21.4071 22.8411Z" fill="#F5EAD4"/>
<path d="M117.819 78.818C109.564 83.7716 107.363 73.5909 113.692 70.0137C119.799 66.562 126.074 73.8657 117.819 78.818ZM150.012 34.5185C148.912 21.8612 137.905 -17.7607 79.0217 9.20473C20.1392 36.1693 36.6484 91.7511 88.3774 95.0528C140.106 98.3544 136.805 80.222 136.805 74.6915C136.805 60.3834 122.496 66.9867 120.295 62.0342C117.604 55.9786 151.113 47.1758 150.012 34.5185Z" fill="#E6C93E"/>
<path d="M63.451 25.5633C73.4867 22.5085 82.5212 33.4788 69.5673 38.1566C56.6142 42.8344 55.1749 28.0821 63.451 25.5633Z" fill="#F14659"/>
<path d="M85.6256 14.7075C91.7486 12.9067 96.0817 20.2103 87.2764 25.4384C78.4711 30.6665 71.5921 18.835 85.6256 14.7075Z" fill="#4B8F50"/>
<path d="M109.839 10.03C118.974 13.7513 117.544 27.9154 105.162 24.8884C92.7792 21.8614 102.41 7.00299 109.839 10.03Z" fill="#1F3B21"/>
<path d="M51.231 43.3238C59.7431 38.3409 70.7672 48.0016 59.7607 57.3564C48.7551 66.712 39.9498 49.9272 51.231 43.3238Z" fill="#5D7763"/>
<path d="M66.3649 60.9334C73.8194 58.0346 83.9747 71.1141 71.0418 77.7174C58.1098 84.3217 56.459 64.7854 66.3649 60.9334Z" fill="#2C627F"/>
<path d="M93.4214 71.1143C93.4214 71.1143 110.848 39.0126 119.653 28.1898C128.458 17.3671 141.666 2.87609 143.867 3.97665C146.068 5.07721 132.348 27.6648 128.091 34.6104C121.121 45.9834 100.576 72.9488 98.3748 75.3337L93.4214 71.1143Z" fill="#872834"/>
<path d="M74.8946 104.683C74.8946 104.683 74.3443 87.6236 88.1022 82.6712L91.4039 84.5966C91.4039 84.5966 94.9803 96.7037 74.8946 104.683Z" fill="#E1D896"/>
<path d="M75.0322 104.133C75.0322 104.133 75.1435 102.907 75.5918 101.117C75.8227 100.225 76.1067 99.1853 76.5061 98.1016C76.6982 97.5571 76.9367 97.0093 77.1575 96.4448C77.4137 95.8955 77.6479 95.3239 77.9294 94.7756C78.2269 94.2344 78.4974 93.6791 78.8286 93.1685C79.1454 92.6501 79.4496 92.1362 79.7951 91.6701C80.1221 91.1921 80.4516 90.7405 80.8072 90.3445C81.1569 89.9452 81.4586 89.5449 81.7982 89.228C82.1227 88.8984 82.4277 88.6044 82.6974 88.3447C82.9881 88.108 83.2409 87.9016 83.4499 87.7315C83.8713 87.4 84.1123 87.2107 84.1123 87.2107C84.1123 87.2107 83.8974 87.4286 83.5207 87.8115C83.3328 87.9994 83.1036 88.2285 82.8415 88.4906C82.6013 88.7753 82.3317 89.0956 82.0291 89.4353C81.7148 89.7648 81.4418 90.1802 81.1241 90.5924C80.7996 91.0002 80.5089 91.468 80.1904 91.9381C79.8609 92.4009 79.5718 92.9131 79.2718 93.4279C78.9567 93.9345 78.7039 94.4882 78.4199 95.0231C78.1325 95.5567 77.8907 96.1143 77.6269 96.6506C77.3985 97.2022 77.1516 97.7375 76.9519 98.2711C76.5381 99.3317 76.1614 100.33 75.8884 101.202C75.3162 102.939 75.0322 104.133 75.0322 104.133Z" fill="#B58963"/>
<path d="M74.8947 104.683C74.8947 104.683 75.3354 103.509 76.1258 101.804C76.5219 100.952 76.9829 99.9567 77.5331 98.9185C78.0615 97.8691 78.691 96.7837 79.2986 95.6872C79.923 94.5996 80.641 93.5653 81.2646 92.5686C81.5697 92.0656 81.9472 91.6324 82.2657 91.1976C82.5935 90.7687 82.9037 90.3631 83.1893 89.9892C83.4565 89.6014 83.7978 89.3183 84.0531 89.0351C84.3202 88.7603 84.552 88.521 84.7441 88.3238C85.1301 87.937 85.35 87.7155 85.35 87.7155C85.35 87.7155 85.1579 87.9634 84.8216 88.3972C84.6522 88.6112 84.4458 88.8709 84.209 89.1682C83.9848 89.476 83.6831 89.7792 83.4345 90.1778C83.1742 90.5656 82.8919 90.9859 82.5927 91.4299C82.3028 91.8799 81.964 92.3299 81.6632 92.8316C81.0632 93.8343 80.3747 94.8715 79.773 95.9647C79.1469 97.0425 78.4997 98.1093 77.9528 99.1442C77.3865 100.168 76.8371 101.113 76.4014 101.943C75.4972 103.587 74.8947 104.683 74.8947 104.683Z" fill="#B58963"/>
<path d="M75.8118 104.499C75.8118 104.499 76.5188 103.441 77.6084 101.877C78.1604 101.102 78.7856 100.182 79.4901 99.224C80.2005 98.2691 80.9295 97.2308 81.6609 96.1945C82.4143 95.1731 83.1668 94.1516 83.8722 93.1934C84.5783 92.2371 85.2036 91.3237 85.7581 90.5501C86.8646 89.003 87.6432 87.9898 87.6432 87.9898C87.6432 87.9898 87.0171 89.0939 86.0168 90.7193C85.4994 91.5199 84.955 92.4992 84.2623 93.4693C83.5738 94.4417 82.8399 95.4799 82.1067 96.5172C81.3525 97.5409 80.6025 98.5666 79.8719 99.5077C79.1497 100.456 78.4427 101.316 77.8536 102.064C76.6578 103.549 75.8118 104.499 75.8118 104.499Z" fill="#B58963"/>
<path d="M77.0962 103.766C77.0962 103.766 77.8395 103.064 78.9552 102.013C79.5257 101.503 80.1451 100.859 80.8453 100.21C81.5431 99.5595 82.2484 98.8245 82.974 98.1118C83.3279 97.7467 83.6819 97.382 84.0299 97.0229C84.3729 96.6588 84.731 96.3174 85.0411 95.9577C85.658 95.2331 86.279 94.5926 86.7754 94.0119C87.7099 92.8121 88.3774 92.0257 88.3774 92.0257C88.3774 92.0257 87.8616 92.9055 87.0206 94.2025C86.7965 94.5152 86.5319 94.8368 86.263 95.1867C85.9917 95.5347 85.7077 95.9047 85.3984 96.2737C85.0934 96.6463 84.742 96.9985 84.4041 97.3744C84.0611 97.7451 83.713 98.1217 83.365 98.4986C82.6158 99.1998 81.8869 99.922 81.1689 100.56C80.4501 101.198 79.7591 101.769 79.1566 102.246C77.9566 103.206 77.0962 103.766 77.0962 103.766Z" fill="#B58963"/>
<path d="M87.1846 83.221C87.1846 83.221 91.2202 74.4159 93.4214 71.1142C93.4214 71.1142 98.0073 72.2148 99.2916 74.233C99.2916 74.233 94.7056 82.1206 91.2202 85.606L87.1846 83.221Z" fill="#5D7763"/>
</svg>
