<svg width="176" height="97" viewBox="0 0 176 97" fill="none" xmlns="http://www.w3.org/2000/svg">
<path d="M19.2591 9.44242C48.0959 -7.5204 172.773 -4.97598 175.317 45.0643C177.862 95.1047 55.7291 109.523 20.9553 83.2307C-11.1282 58.973 -1.44382 21.6209 19.2591 9.44242Z" fill="#F5EAD4"/>
<path d="M129.545 81.7692L129.549 81.7667C129.549 81.7667 121.559 74.7526 121.144 74.7526C120.728 74.7526 65.1107 85.5537 65.1107 85.5537L73.7996 87.9564C73.0812 88.037 72.6433 88.0837 72.6433 88.0837L71.7574 91.0403C83.8806 90.1862 113.79 85.0753 125.69 83.753C129.428 83.3375 129.913 83.4765 129.913 82.4376C129.913 82.111 129.775 81.9033 129.545 81.7692Z" fill="#EAAB2A"/>
<path d="M65.6648 69.2144L127.328 63.676C127.328 63.676 122.713 67.1839 123.452 72.9072C124.19 78.6304 126.752 81.6176 126.752 81.6176L70.8341 89.1533C70.8341 89.1533 63.6342 84.7226 63.6342 78.4455C63.6342 72.1684 65.6648 69.2144 65.6648 69.2144Z" fill="#D3DFBC"/>
<path d="M72.7266 73.4146C72.7266 73.4146 75.9223 73.0185 80.7151 72.4239C83.1145 72.1483 85.9134 71.8268 88.9116 71.4825C91.9123 71.1568 95.1132 70.8099 98.314 70.4622C101.517 70.1399 104.721 69.8176 107.723 69.5156C110.728 69.2332 113.533 68.9686 115.938 68.7421C120.751 68.3333 123.959 68.0611 123.959 68.0611C123.959 68.0611 120.763 68.4572 115.97 69.0526C113.571 69.3282 110.772 69.6488 107.773 69.994C104.773 70.3188 101.572 70.6657 98.3717 71.0126C95.1683 71.3349 91.9649 71.6572 88.9616 71.9591C85.9566 72.2424 83.1518 72.5062 80.7473 72.7326C75.935 73.1423 72.7266 73.4146 72.7266 73.4146Z" fill="#B7C2A5"/>
<path d="M72.7266 74.8916C72.7266 74.8916 75.8963 74.5006 80.651 73.9145C83.03 73.6431 85.8068 73.3268 88.7813 72.9875C91.7574 72.6678 94.932 72.3268 98.1066 71.985C101.285 71.6687 104.462 71.3523 107.44 71.0555C110.421 70.7781 113.203 70.5186 115.588 70.2964C120.361 69.8961 123.544 69.6298 123.544 69.6298C123.544 69.6298 120.375 70.0207 115.62 70.6068C113.24 70.8782 110.464 71.1946 107.49 71.533C104.513 71.8536 101.339 72.1945 98.1634 72.5355C94.9863 72.8518 91.8092 73.1682 88.8305 73.465C85.8493 73.7424 83.0674 74.0019 80.6832 74.2233C75.909 74.6244 72.7266 74.8916 72.7266 74.8916Z" fill="#B7C2A5"/>
<path d="M72.7266 76.3687C72.7266 76.3687 75.8833 75.9726 80.6176 75.378C82.9873 75.1024 85.7522 74.7809 88.7139 74.4357C91.6782 74.1109 94.8401 73.764 98.0019 73.4163C101.166 73.094 104.331 72.7717 107.298 72.4697C110.266 72.1865 113.037 71.9227 115.412 71.6962C120.166 71.2874 123.336 71.0143 123.336 71.0143C123.336 71.0143 120.179 71.4113 115.445 72.0058C113.075 72.2814 110.31 72.6029 107.348 72.9472C104.383 73.2729 101.222 73.6198 98.0605 73.9667C94.896 74.289 91.7316 74.6113 88.7648 74.9132C85.7963 75.1965 83.0255 75.4603 80.6507 75.6867C75.896 76.0955 72.7266 76.3687 72.7266 76.3687Z" fill="#B7C2A5"/>
<path d="M72.7266 77.3835C72.7266 77.3835 75.8697 76.9875 80.5853 76.3929C82.9449 76.1173 85.6988 75.7958 88.6486 75.4515C91.6002 75.1258 94.7493 74.7789 97.8985 74.432C101.049 74.1097 104.201 73.7874 107.155 73.4846C110.112 73.2022 112.872 72.9376 115.236 72.7111C119.971 72.3023 123.128 72.0301 123.128 72.0301C123.128 72.0301 119.985 72.4262 115.269 73.0216C112.909 73.2972 110.156 73.6186 107.206 73.963C104.254 74.2878 101.105 74.6347 97.9561 74.9816C94.8053 75.3039 91.6536 75.6262 88.6995 75.9281C85.7429 76.2114 82.983 76.4752 80.6176 76.7016C75.8833 77.1104 72.7266 77.3835 72.7266 77.3835Z" fill="#B7C2A5"/>
<path d="M73.7416 72.03C73.7416 72.03 76.9374 71.6331 81.7302 71.0386C84.1296 70.7629 86.9285 70.4415 89.9267 70.0971C92.9274 69.7714 96.1283 69.4246 99.3291 69.0777C102.533 68.7554 105.736 68.4331 108.739 68.1311C111.744 67.8478 114.549 67.5841 116.953 67.3568C121.766 66.948 124.974 66.6757 124.974 66.6757C124.974 66.6757 121.779 67.0726 116.986 67.6672C114.586 67.9428 111.787 68.2643 108.788 68.6086C105.789 68.9335 102.588 69.2812 99.3868 69.6281C96.1834 69.9504 92.98 70.2718 89.9767 70.5746C86.9717 70.8571 84.1669 71.1217 81.7633 71.3473C76.9501 71.7569 73.7416 72.03 73.7416 72.03Z" fill="#B7C2A5"/>
<path d="M72.7266 78.9536C72.7266 78.9536 75.8917 78.5643 80.6396 77.9799C83.0161 77.7102 85.7887 77.3947 88.7589 77.0572C91.7308 76.7383 94.9011 76.3982 98.0715 76.0589C101.245 75.7434 104.418 75.4287 107.393 75.1327C110.37 74.8571 113.147 74.5993 115.529 74.3779C120.296 73.9801 123.474 73.7146 123.474 73.7146C123.474 73.7146 120.309 74.1039 115.561 74.6883C113.185 74.958 110.412 75.2735 107.442 75.6111C104.47 75.9291 101.3 76.2692 98.1283 76.6093C94.9554 76.924 91.7825 77.2387 88.8081 77.5338C85.8311 77.8103 83.0534 78.0681 80.6719 78.2895C75.9045 78.6873 72.7266 78.9536 72.7266 78.9536Z" fill="#B7C2A5"/>
<path d="M73.3733 79.7839C73.3733 79.7839 76.5106 79.3946 81.2177 78.8111C83.5739 78.5406 86.3219 78.2259 89.2666 77.8875C92.2131 77.5694 95.3563 77.2293 98.4995 76.8892C101.644 76.5746 104.79 76.2591 107.739 75.9639C110.691 75.6874 113.445 75.4296 115.806 75.209C120.532 74.8104 123.682 74.5458 123.682 74.5458C123.682 74.5458 120.544 74.9351 115.838 75.5186C113.482 75.7892 110.734 76.1038 107.789 76.4422C104.843 76.7603 101.7 77.1004 98.5563 77.4397C95.4105 77.7552 92.2648 78.0698 89.3158 78.365C86.3651 78.6415 83.6112 78.8993 81.25 79.1198C76.5241 79.5185 73.3733 79.7839 73.3733 79.7839Z" fill="#B7C2A5"/>
<path d="M73.7416 80.5225C73.7416 80.5225 76.8653 80.1349 81.5504 79.553C83.8955 79.2842 86.6308 78.9695 89.562 78.6336C92.4948 78.3164 95.6236 77.978 98.7524 77.6396C101.884 77.3258 105.015 77.012 107.951 76.7177C110.888 76.4429 113.63 76.1868 115.98 75.9662C120.684 75.571 123.82 75.3064 123.82 75.3064C123.82 75.3064 120.697 75.6948 116.012 76.2767C113.667 76.5455 110.931 76.8593 108 77.1961C105.067 77.5133 101.938 77.8517 98.8092 78.1892C95.6788 78.503 92.5474 78.8168 89.612 79.1103C86.674 79.3851 83.9328 79.6421 81.5826 79.8618C76.878 80.2578 73.7416 80.5225 73.7416 80.5225Z" fill="#B7C2A5"/>
<path d="M73.8342 81.9067C73.8342 81.9067 76.9698 81.5234 81.6719 80.9483C84.0255 80.6829 86.7718 80.3725 89.7131 80.04C92.657 79.727 95.7977 79.3928 98.9375 79.0587C102.081 78.7491 105.223 78.4404 108.17 78.1503C111.118 77.8789 113.869 77.6262 116.228 77.4099C120.949 77.0206 124.098 76.7611 124.098 76.7611C124.098 76.7611 120.962 77.1444 116.26 77.7195C113.906 77.9858 111.16 78.2953 108.218 78.6278C105.274 78.9408 102.134 79.2749 98.9943 79.6091C95.8511 79.9178 92.7088 80.2274 89.7623 80.5175C86.8142 80.788 84.062 81.0408 81.7033 81.257C76.9817 81.6472 73.8342 81.9067 73.8342 81.9067Z" fill="#B7C2A5"/>
<path d="M73.9268 82.8303C73.9268 82.8303 77.0818 82.441 81.8145 81.8575C84.1833 81.5869 86.9466 81.2714 89.9074 80.9339C92.8708 80.615 96.031 80.2757 99.1912 79.9356C102.354 79.6209 105.517 79.3054 108.483 79.0103C111.449 78.7338 114.219 78.476 116.592 78.2546C121.345 77.8568 124.513 77.5914 124.513 77.5914C124.513 77.5914 121.357 77.9806 116.625 78.565C114.256 78.8347 111.493 79.1502 108.532 79.4878C105.569 79.8067 102.409 80.146 99.248 80.4861C96.0853 80.8007 92.9226 81.1154 89.9575 81.4114C86.9898 81.687 84.2207 81.9449 81.8467 82.1662C77.0946 82.5648 73.9268 82.8303 73.9268 82.8303Z" fill="#B7C2A5"/>
<path d="M74.1106 84.1221C74.1106 84.1221 77.2801 83.7217 82.0348 83.1204C84.4138 82.8422 87.1898 82.5165 90.1642 82.1679C93.1403 81.8389 96.3158 81.4869 99.4904 81.1358C102.668 80.8092 105.845 80.4827 108.824 80.1765C111.805 79.889 114.586 79.621 116.971 79.392C121.746 78.9764 124.928 78.6991 124.928 78.6991C124.928 78.6991 121.758 79.1002 117.004 79.7016C114.625 79.9806 111.849 80.3054 108.875 80.654C105.898 80.9831 102.723 81.3351 99.5489 81.6862C96.3718 82.0127 93.1938 82.3393 90.2151 82.6455C87.2347 82.9321 84.452 83.2001 82.0679 83.4291C77.2937 83.8456 74.1106 84.1221 74.1106 84.1221Z" fill="#B7C2A5"/>
<path d="M74.5728 84.8608C74.5728 84.8608 77.7304 84.4665 82.4673 83.8736C84.8387 83.5988 87.6044 83.2791 90.5679 82.9356C93.533 82.6116 96.6965 82.2664 99.8601 81.9203C103.025 81.5997 106.191 81.2783 109.159 80.978C112.129 80.6965 114.901 80.4336 117.278 80.2079C122.034 79.8017 125.205 79.5303 125.205 79.5303C125.205 79.5303 122.047 79.9255 117.31 80.5184C114.939 80.7923 112.173 81.1129 109.21 81.4556C106.244 81.7796 103.08 82.1247 99.9178 82.4708C96.7516 82.7914 93.5864 83.112 90.6179 83.4131C87.6477 83.6946 84.876 83.9576 82.5003 84.1823C77.7431 84.5894 74.5728 84.8608 74.5728 84.8608Z" fill="#B7C2A5"/>
<path d="M74.9418 86.1533C74.9418 86.1533 78.1376 85.7572 82.9304 85.1627C85.3298 84.8871 88.1287 84.5656 91.1268 84.2204C94.1276 83.8956 97.3285 83.5487 100.529 83.2009C103.733 82.8786 106.936 82.5564 109.939 82.2544C112.944 81.9711 115.749 81.7074 118.153 81.4809C122.966 81.0721 126.175 80.799 126.175 80.799C126.175 80.799 122.979 81.1959 118.185 81.7905C115.787 82.0661 112.988 82.3876 109.989 82.7319C106.988 83.0576 103.788 83.4045 100.587 83.7514C97.3836 84.0737 94.1802 84.396 91.1769 84.6979C88.1719 84.9812 85.3671 85.245 82.9626 85.4714C78.1503 85.8802 74.9418 86.1533 74.9418 86.1533Z" fill="#B7C2A5"/>
<path d="M130.467 63.8602C127.742 61.5897 75.2653 36.3515 74.1576 35.7977C73.1941 35.316 40.8746 42.621 32.4767 44.531C32.3259 44.5607 32.1679 44.5972 32.0069 44.6379C31.0421 44.8576 30.4945 44.9831 30.4945 44.9831L30.6568 45.0679C26.7828 46.536 21.472 50.4578 20.5248 56.6136C19.4172 63.8144 26.1561 70.507 26.1561 70.507C30.0329 70.876 63.8188 89.7073 66.3924 90.6309C68.9662 91.5537 74.7115 90.6309 74.7115 90.6309C74.7115 90.6309 76.965 90.6309 76.965 89.5224C76.965 88.3273 74.3883 88.5996 74.3883 88.5996C74.3883 88.5996 66.0803 88.7387 66.4037 79.7382C66.6687 72.3484 74.8964 70.507 74.8964 70.507C74.8964 70.507 119.759 66.0755 124.005 65.5217C128.252 64.9678 131.16 64.4378 130.467 63.8602Z" fill="#EAAB2A"/>
<path d="M73.5572 68.937C76.7649 69.0337 127.325 64.3774 126.305 62.81C125.967 62.291 76.0041 37.0901 73.05 37.275C70.0958 37.4591 37.9333 43.6056 35.6178 45.3519C32.9869 47.3365 70.3505 68.8412 73.5572 68.937Z" fill="#FBC958"/>
<path d="M26.977 68.8456C22.8174 66.0773 20.1554 59.4295 21.6323 57.5831C23.1093 55.7376 27.5349 58.7849 30.6733 60.8154C33.8121 62.8467 64.0987 76.2456 64.7415 78.2608C65.1108 79.4185 65.1238 83.1054 65.8029 85.4149C66.4954 87.7693 70.0032 90.1687 68.1568 89.9847C66.3109 89.7998 30.3768 71.1076 26.977 68.8456Z" fill="#FBC958"/>
<path d="M29.4785 46.5062L71.7571 70.5069C71.7571 70.5069 71.7571 71.4297 70.0956 71.4297L27.6326 47.429C27.6326 47.429 28.371 47.6139 29.4785 46.5062Z" fill="#DF9F1E"/>
<path d="M133.2 61.4717C133.2 61.4717 131.145 66.5334 129.089 71.5943C128.075 74.131 127.063 76.6678 126.303 78.5702C125.936 79.5252 125.619 80.3199 125.416 80.8797C125.223 81.4454 125.113 81.7686 125.113 81.7686C125.113 81.7686 125.207 81.4403 125.371 80.8661C125.546 80.2928 125.822 79.4862 126.14 78.5109C126.802 76.572 127.686 73.986 128.57 71.4009C130.367 66.2399 132.164 61.079 132.164 61.079L133.2 61.4717Z" fill="#BC9F67"/>
<path d="M131.944 63.4912C131.944 62.9374 135.637 31.5519 140.437 30.2593C140.437 30.2593 144.683 18.259 148.191 20.2895C148.191 20.2895 150.222 9.39677 153.914 12.9047C153.914 12.9047 161.484 -0.20335 166.1 2.56583C166.1 2.56583 165.546 18.0741 157.052 23.7974C157.052 23.7974 160.745 26.7514 152.437 34.69C152.437 34.69 155.022 38.3828 148.191 45.7676C141.36 53.1524 131.944 63.4912 131.944 63.4912Z" fill="#E8E3BF"/>
<path d="M133.975 58.6904C133.975 58.6904 134.343 57.8126 135.019 56.2902C135.709 54.7746 136.655 52.5898 137.884 50.0131C139.109 47.4348 140.525 44.4179 142.12 41.2255C143.702 38.0255 145.457 34.6473 147.234 31.2794C148.144 29.6068 149.055 27.9343 149.951 26.2872C150.859 24.6469 151.79 23.0524 152.673 21.5011C154.477 18.4164 156.26 15.5955 157.829 13.2038C158.638 12.0223 159.365 10.9325 160.068 10.0046C160.78 9.08521 161.402 8.28456 161.913 7.62471C163.05 6.40253 163.699 5.7045 163.699 5.7045C163.699 5.7045 163.112 6.45089 162.084 7.75787C161.619 8.44571 161.054 9.28111 160.406 10.2395C159.774 11.2064 159.122 12.3412 158.356 13.5388C157.612 14.7516 156.856 16.0985 156.03 17.5039C155.232 18.9279 154.392 20.4299 153.522 21.9829C151.813 25.1083 149.988 28.4398 148.211 31.8001C144.658 38.5233 141.105 45.2466 138.44 50.2896C135.761 55.3301 133.975 58.6904 133.975 58.6904Z" fill="#BC9F67"/>
<path d="M139.45 76.4143H120.007C115.169 80.6914 109.289 85.7218 109.868 88.8327C110.848 94.1107 129.729 93.8597 129.729 93.8597C129.729 93.8597 148.609 94.1107 149.59 88.8327C150.168 85.7218 144.289 80.6914 139.45 76.4143Z" fill="#040606"/>
<path d="M130.259 94.9714C130.234 94.9714 130.208 94.9714 130.185 94.9714C129.892 94.9714 129.736 94.9689 129.735 94.9689H129.728H129.722C129.721 94.9689 129.565 94.9714 129.272 94.9714C129.268 94.9714 129.264 94.9714 129.259 94.9714C127.71 94.9714 122.5 94.9104 117.581 94.1979C115.441 93.8884 113.357 93.4524 111.671 92.8596C112.677 92.6704 113.675 92.4745 114.671 92.2701C119.827 93.7679 127.491 93.8612 129.325 93.8612C129.586 93.8612 129.728 93.8595 129.728 93.8595C129.728 93.8595 129.872 93.8612 130.132 93.8612C132.876 93.8612 148.694 93.6526 149.589 88.8326C149.912 87.0931 148.215 84.7513 145.81 82.2782C146.022 82.1781 146.24 82.0738 146.45 81.9728C146.749 82.2629 147.041 82.5521 147.324 82.8405C148.597 84.1305 149.699 85.3866 150.467 86.5316C151.241 87.6749 151.658 88.7062 151.652 89.4857C151.652 89.6239 151.64 89.7554 151.616 89.8809C151.518 90.3932 151.216 90.8681 150.689 91.3287C149.771 92.1344 148.181 92.8138 146.282 93.3218C140.648 94.8459 132.395 94.9714 130.259 94.9714Z" fill="#F36763"/>
<path d="M111.671 92.8599C111.415 92.7691 111.169 92.6758 110.933 92.5783C110.036 92.2102 109.293 91.787 108.768 91.329C108.241 90.8684 107.939 90.3935 107.841 89.8812C107.817 89.7557 107.805 89.6242 107.805 89.486C107.802 88.8914 108.039 88.1527 108.5 87.3274C108.734 86.9051 109.025 86.4623 109.361 86.0035C109.83 85.9348 110.293 85.8661 110.754 85.7982C110.056 86.9229 109.704 87.9542 109.868 88.8329C110.164 90.4333 112.108 91.5257 114.671 92.2704C113.675 92.4748 112.677 92.6707 111.671 92.8599ZM145.81 82.2785C143.915 80.3294 141.582 78.299 139.45 76.4144H127.164C127.757 74.9285 128.423 73.261 129.089 71.5944C130.548 68.0025 132.007 64.4107 132.731 62.6279C133.275 62.0308 134.079 61.1504 135.06 60.0758H136.638C136.39 60.6619 136.03 61.5355 135.649 62.5456C134.951 64.3996 134.18 66.6998 133.889 68.5759C133.877 68.6565 133.871 68.737 133.871 68.8176C133.883 69.5012 134.232 70.1339 134.741 70.8447C135.643 72.0787 137.147 73.5316 138.911 75.1363C141.26 77.2702 144.067 79.6551 146.451 81.9731C146.24 82.074 146.022 82.1784 145.81 82.2785Z" fill="#D24841"/>
<path d="M109.361 86.0034C109.902 85.2689 110.564 84.4937 111.306 83.699L112.474 83.5421C111.788 84.3216 111.201 85.079 110.754 85.7982C110.293 85.866 109.83 85.9347 109.361 86.0034Z" fill="#C0A429"/>
<path d="M111.306 83.699C111.685 83.2944 112.085 82.8839 112.5 82.4709C112.51 82.4607 112.521 82.4505 112.531 82.4403C112.895 82.3988 113.254 82.3572 113.61 82.3165C113.208 82.7295 112.828 83.1392 112.474 83.5421L111.306 83.699Z" fill="#ABD6AD"/>
<path d="M126.857 76.4143H124.196C123.887 75.3914 123.621 74.221 123.452 72.9072C123.429 72.7325 123.412 72.5612 123.399 72.3916C123.681 72.0939 123.941 71.8055 124.177 71.5265C124.591 71.0354 124.931 70.5749 125.177 70.1338C125.42 69.6919 125.583 69.267 125.586 68.8175C125.586 68.7378 125.58 68.6563 125.568 68.5766C125.456 67.8472 125.27 67.0551 125.044 66.2493C125.277 65.8931 125.514 65.5708 125.745 65.285C129.013 64.8151 131.06 64.3546 130.467 63.8601C129.918 63.4021 127.345 62.0103 123.578 60.0757H129.729H132.349C132.302 60.4421 132.258 60.7839 132.218 61.0994L132.164 61.0791C132.164 61.0791 130.367 66.24 128.57 71.4009C127.976 73.1371 127.383 74.8741 126.857 76.4143Z" fill="#D24841"/>
<path d="M113.015 81.9653C113.384 81.6057 113.764 81.2453 114.15 80.884C114.5 80.8432 114.844 80.8034 115.183 80.7644C114.794 81.1333 114.416 81.5014 114.051 81.8669C113.71 81.8992 113.364 81.9323 113.015 81.9653ZM114.604 80.4616C114.803 80.2784 115.002 80.096 115.203 79.9128C115.549 79.8721 115.889 79.8322 116.223 79.7932C116.014 79.9849 115.808 80.1757 115.604 80.3666C115.277 80.398 114.944 80.4294 114.604 80.4616ZM115.636 79.5201C115.993 79.197 116.352 78.8747 116.712 78.5541C117.061 78.5117 117.401 78.4693 117.731 78.4286C117.361 78.7594 116.991 79.0918 116.625 79.4252C116.301 79.4565 115.972 79.4879 115.636 79.5201ZM117.095 78.2132C117.356 77.9816 117.615 77.7518 117.873 77.5228C118.226 77.4795 118.566 77.4379 118.893 77.3972C118.619 77.6407 118.342 77.8858 118.065 78.1317C117.75 78.158 117.427 78.1852 117.095 78.2132ZM118.182 77.2488C118.734 76.7594 119.278 76.2777 119.803 75.8061C122.305 75.4949 123.82 75.3066 123.82 75.3066C123.82 75.3066 122.386 75.4279 120.001 75.628C120.273 75.3838 120.54 75.1412 120.802 74.9029C122.619 74.6773 123.682 74.5458 123.682 74.5458C123.682 74.5458 122.673 74.6306 120.94 74.7765C121.26 74.483 121.569 74.1947 121.868 73.9122C122.897 73.7859 123.474 73.7146 123.474 73.7146C123.474 73.7146 122.925 73.7604 121.941 73.8427C122.47 73.3389 122.96 72.8546 123.399 72.3915C123.411 72.5611 123.429 72.7325 123.451 72.9072C123.621 74.221 123.887 75.3914 124.196 76.4143H120.007C119.725 76.6636 119.44 76.9146 119.153 77.1682C118.842 77.1945 118.518 77.2208 118.182 77.2488ZM125.044 66.2493C124.967 65.9719 124.885 65.6937 124.799 65.4164C125.124 65.3723 125.439 65.3282 125.745 65.2849C125.514 65.5707 125.276 65.8931 125.044 66.2493Z" fill="#ABD6AD"/>
<path d="M121.868 73.9124C121.893 73.8895 121.917 73.8657 121.941 73.8428C122.926 73.7605 123.475 73.7147 123.475 73.7147C123.475 73.7147 122.898 73.786 121.868 73.9124Z" fill="#94BD9A"/>
<path d="M120.802 74.9028C120.841 74.8672 120.881 74.8307 120.92 74.7951C120.926 74.7892 120.933 74.7824 120.94 74.7765C122.673 74.6306 123.682 74.5458 123.682 74.5458C123.682 74.5458 122.619 74.6772 120.802 74.9028Z" fill="#94BD9A"/>
<path d="M119.803 75.8062C119.869 75.7468 119.936 75.6874 120.001 75.6281C122.386 75.4279 123.82 75.3066 123.82 75.3066C123.82 75.3066 122.305 75.4949 119.803 75.8062Z" fill="#94BD9A"/>
<path d="M117.873 77.5227C117.977 77.4311 118.079 77.3395 118.182 77.2488C118.518 77.2208 118.842 77.1945 119.153 77.1682C119.067 77.2445 118.98 77.3208 118.894 77.3972C118.566 77.4379 118.226 77.4794 117.873 77.5227Z" fill="#94BD9A"/>
<path d="M116.712 78.554C116.84 78.4403 116.968 78.3267 117.096 78.213C117.427 78.185 117.75 78.1579 118.065 78.1316C117.954 78.23 117.843 78.3292 117.732 78.4284C117.401 78.4691 117.061 78.5115 116.712 78.554Z" fill="#94BD9A"/>
<path d="M115.203 79.9128C115.347 79.7822 115.491 79.6508 115.636 79.5201C115.972 79.4879 116.302 79.4565 116.625 79.4252C116.491 79.5473 116.356 79.6703 116.223 79.7932C115.89 79.8323 115.549 79.8721 115.203 79.9128Z" fill="#94BD9A"/>
<path d="M114.15 80.884C114.301 80.7432 114.453 80.6025 114.605 80.4617C114.944 80.4294 115.277 80.398 115.604 80.3667C115.463 80.4998 115.322 80.6321 115.183 80.7644C114.845 80.8034 114.5 80.8433 114.15 80.884Z" fill="#94BD9A"/>
<path d="M112.531 82.4402C112.69 82.2824 112.852 82.1238 113.015 81.9652C113.365 81.9322 113.711 81.8991 114.052 81.8668C113.902 82.017 113.754 82.1671 113.61 82.3164C113.254 82.3571 112.895 82.3986 112.531 82.4402Z" fill="#94BD9A"/>
<path d="M124.799 65.4163C124.608 64.7954 124.4 64.1771 124.188 63.5843C125.657 63.284 126.441 63.0194 126.305 62.8099C126.255 62.7336 125.139 62.1272 123.262 61.1484C123.094 60.732 122.943 60.3681 122.819 60.0755H123.578C127.345 62.0101 129.918 63.4019 130.467 63.8599C131.06 64.3544 129.013 64.8149 125.745 65.2848C125.439 65.328 125.124 65.3722 124.799 65.4163Z" fill="#C0A429"/>
<path d="M124.188 63.5842C124.062 63.2272 123.934 62.8786 123.808 62.5453C123.617 62.0389 123.431 61.5674 123.262 61.1484C125.139 62.1271 126.255 62.7335 126.304 62.8099C126.441 63.0194 125.657 63.284 124.188 63.5842Z" fill="#D0C452"/>
<path d="M127.163 76.4143H126.856C127.383 74.8741 127.976 73.1371 128.57 71.4009C130.367 66.24 132.164 61.0791 132.164 61.0791L132.218 61.0994C132.039 62.5217 131.944 63.4021 131.944 63.4912C131.944 63.4912 132.227 63.1799 132.731 62.6278C132.006 64.4106 130.548 68.0024 129.089 71.5943C128.423 73.2609 127.757 74.9284 127.163 76.4143Z" fill="#989960"/>
<path d="M131.944 63.4912C131.944 63.4022 132.039 62.5218 132.218 61.0995C132.258 60.7839 132.302 60.4421 132.35 60.0757H135.06C134.079 61.1503 133.276 62.0307 132.731 62.6278C132.227 63.1799 131.944 63.4912 131.944 63.4912Z" fill="#BADAB0"/>
<path d="M130.133 93.8616C129.872 93.8616 129.729 93.8599 129.729 93.8599C129.729 93.8599 129.586 93.8616 129.325 93.8616C127.491 93.8616 119.828 93.7683 114.672 92.2705C112.109 91.5258 110.165 90.4334 109.868 88.8329C109.704 87.9543 110.056 86.9229 110.754 85.7983C111.201 85.0791 111.789 84.3217 112.474 83.5422C112.829 83.1394 113.209 82.7297 113.61 82.3167C113.754 82.1674 113.902 82.0173 114.052 81.8671C114.417 81.5016 114.795 81.1335 115.183 80.7646C115.322 80.6323 115.463 80.4999 115.605 80.3668C115.808 80.176 116.014 79.9851 116.223 79.7934C116.356 79.6705 116.491 79.5475 116.625 79.4254C116.991 79.092 117.361 78.7596 117.732 78.4288C117.843 78.3296 117.954 78.2303 118.065 78.1319C118.343 77.886 118.619 77.6409 118.894 77.3974C118.98 77.3211 119.068 77.2448 119.153 77.1685C119.441 76.9149 119.726 76.6638 120.007 76.4145H124.196H126.857H127.164H139.45C141.582 78.299 143.916 80.3295 145.81 82.2785C148.216 84.7517 149.913 87.0934 149.59 88.8329C148.694 93.6529 132.876 93.8616 130.133 93.8616Z" fill="#040606"/>
<path d="M130.185 96.0791C129.921 96.0791 129.763 96.0774 129.728 96.0766C129.694 96.0774 129.536 96.0791 129.272 96.0791C127.215 96.0757 118.814 95.9858 112.886 94.3913C111.697 94.0682 110.605 93.689 109.672 93.2226C110.343 93.1047 111.004 92.9842 111.671 92.8596C113.357 93.4524 115.442 93.8884 117.581 94.1979C122.5 94.9104 127.71 94.9714 129.259 94.9714C129.264 94.9714 129.268 94.9714 129.272 94.9714C129.565 94.9714 129.721 94.9689 129.722 94.9689H129.728H129.735C129.736 94.9689 129.892 94.9714 130.185 94.9714C130.209 94.9714 130.234 94.9714 130.259 94.9714C132.395 94.9714 140.648 94.8459 146.282 93.3218C148.181 92.8138 149.771 92.1344 150.689 91.3287C151.216 90.8681 151.518 90.3932 151.616 89.8809C151.64 89.7554 151.652 89.6239 151.652 89.4857C151.658 88.7062 151.241 87.6749 150.467 86.5316C149.699 85.3866 148.597 84.1305 147.324 82.8405C147.041 82.5521 146.749 82.2629 146.45 81.9728C146.806 81.8015 147.155 81.6302 147.506 81.4563C147.584 81.5326 147.661 81.609 147.738 81.6853C149.509 83.4503 151.025 85.1745 151.926 86.7886C152.437 87.7122 152.757 88.6087 152.76 89.4857C152.76 89.6884 152.742 89.8902 152.704 90.0878C152.549 90.9029 152.071 91.5967 151.416 92.1649C150.758 92.7357 149.916 93.2022 148.946 93.6017C147.008 94.3989 144.551 94.9282 142.035 95.2937C137.006 96.0214 131.75 96.0783 130.185 96.0791Z" fill="#BC5B62"/>
<path d="M109.672 93.2227C109.051 92.9122 108.501 92.5628 108.041 92.165C107.386 91.5968 106.908 90.903 106.753 90.0879C106.715 89.8903 106.697 89.6884 106.697 89.4857C106.703 88.4307 107.156 87.351 107.868 86.2255C108.368 86.1509 108.868 86.0771 109.361 86.0033C109.025 86.4621 108.734 86.9049 108.5 87.3272C108.039 88.1525 107.803 88.8912 107.805 89.4857C107.805 89.624 107.817 89.7554 107.842 89.881C107.939 90.3932 108.241 90.8682 108.768 91.3288C109.294 91.7867 110.037 92.21 110.933 92.5781C111.169 92.6756 111.416 92.7689 111.671 92.8596C111.004 92.9843 110.343 93.1048 109.672 93.2227ZM146.451 81.9729C144.067 79.6549 141.26 77.27 138.911 75.136C137.147 73.5314 135.644 72.0785 134.741 70.8444C134.232 70.1337 133.883 69.501 133.871 68.8174C133.871 68.7368 133.877 68.6562 133.889 68.5757C134.18 66.6996 134.951 64.3994 135.65 62.5454C136.03 61.5353 136.39 60.6617 136.638 60.0756H135.06C135.379 59.7253 135.717 59.3555 136.071 58.9679H138.339L137.988 59.7491C137.988 59.7491 137.951 59.8322 137.882 59.9882C137.814 60.1451 137.716 60.3733 137.595 60.6583C137.355 61.2291 137.029 62.0272 136.685 62.9364C135.999 64.7522 135.248 67.021 134.984 68.7444L134.437 68.6605L134.984 68.7453L134.979 68.8174C134.975 68.9701 135.052 69.2474 135.248 69.5943C135.441 69.942 135.741 70.3559 136.127 70.8114C136.898 71.7248 138.007 72.8062 139.286 73.9783C141.771 76.2581 144.895 78.8865 147.506 81.4564C147.155 81.6303 146.806 81.8016 146.451 81.9729Z" fill="#9F3C3E"/>
<path d="M107.868 86.2253C107.933 86.1219 108.001 86.0176 108.07 85.9132C108.505 85.2661 109.026 84.602 109.61 83.9277L111.306 83.6987C110.564 84.4934 109.902 85.2686 109.361 86.0031C108.868 86.0769 108.368 86.1507 107.868 86.2253Z" fill="#8B902B"/>
<path d="M109.609 83.928C109.977 83.5031 110.37 83.0739 110.782 82.6414C111.374 82.5735 111.957 82.5065 112.53 82.4403C112.52 82.4505 112.51 82.4607 112.5 82.4709C112.084 82.8839 111.685 83.2944 111.306 83.699L109.609 83.928Z" fill="#7FBDAF"/>
<path d="M123.399 72.3914C123.354 71.8036 123.366 71.2396 123.422 70.7027C123.569 70.5255 123.703 70.355 123.821 70.1913C124.284 69.5696 124.491 69.0514 124.479 68.8173L124.474 68.7444C124.421 68.4034 124.35 68.0395 124.263 67.663C124.419 67.3229 124.589 67.0014 124.765 66.702C124.903 66.6842 124.975 66.6757 124.975 66.6757C124.975 66.6757 124.905 66.6817 124.77 66.6927C124.86 66.5392 124.952 66.3916 125.044 66.2491C125.27 67.0549 125.456 67.847 125.569 68.5764C125.581 68.6561 125.586 68.7376 125.586 68.8173C125.583 69.2668 125.42 69.6917 125.177 70.1336C124.931 70.5746 124.592 71.0352 124.177 71.5263C123.941 71.8053 123.681 72.0937 123.399 72.3914Z" fill="#9F3C3E"/>
<path d="M111.279 82.1284C111.3 82.1064 111.322 82.0852 111.343 82.0631C111.66 81.7417 111.986 81.4194 112.32 81.0962C112.944 81.0241 113.555 80.9529 114.15 80.8842C113.764 81.2455 113.384 81.606 113.015 81.9656C112.447 82.019 111.867 82.0733 111.279 82.1284ZM112.802 80.6332C112.978 80.4661 113.154 80.299 113.333 80.1319C113.974 80.0573 114.598 79.9835 115.203 79.9131C115.002 80.0963 114.803 80.2786 114.604 80.4618C114.019 80.517 113.418 80.5746 112.802 80.6332ZM113.799 79.6977C114.134 79.3881 114.472 79.0793 114.811 78.7723C115.438 78.7011 116.044 78.6315 116.625 78.5654C116.654 78.562 116.683 78.5586 116.712 78.5544C116.352 78.875 115.993 79.1972 115.636 79.5204C115.043 79.5781 114.43 79.6366 113.799 79.6977ZM115.245 78.3805C115.478 78.1718 115.71 77.9632 115.943 77.7562C116.049 77.7435 116.155 77.7317 116.26 77.7198C116.82 77.6519 117.359 77.5858 117.873 77.523C117.615 77.752 117.356 77.9819 117.095 78.2134C116.93 78.227 116.762 78.2414 116.592 78.255C116.156 78.2957 115.707 78.3381 115.245 78.3805ZM116.342 77.4009C116.856 76.9437 117.367 76.4908 117.869 76.0464C118.564 75.9599 119.211 75.8793 119.803 75.8064C119.278 76.2779 118.734 76.7597 118.182 77.2491C117.602 77.2966 116.987 77.3474 116.342 77.4009ZM118.166 75.7835C118.408 75.5672 118.649 75.3526 118.887 75.1406C119.592 75.0532 120.234 74.9735 120.802 74.9031C120.54 75.1414 120.273 75.384 120.001 75.6283C119.44 75.6758 118.825 75.7275 118.166 75.7835ZM119.121 74.9294C119.352 74.7233 119.579 74.5189 119.801 74.317C119.864 74.2585 119.928 74.2009 119.992 74.1432C120.72 74.0533 121.351 73.9761 121.868 73.9125C121.569 74.1949 121.26 74.4833 120.94 74.7767C120.401 74.8217 119.792 74.8734 119.121 74.9294ZM120.157 73.9922C120.856 73.351 121.506 72.737 122.076 72.1628C122.756 72.0771 123.128 72.0304 123.128 72.0304C123.128 72.0304 122.773 72.061 122.121 72.117C122.496 71.7395 122.836 71.3791 123.134 71.0398C123.266 71.0237 123.336 71.0144 123.336 71.0144C123.336 71.0144 123.27 71.0203 123.142 71.0313C123.239 70.9194 123.332 70.8108 123.422 70.7031C123.366 71.24 123.354 71.804 123.399 72.3918C122.96 72.8548 122.47 73.3391 121.941 73.8429C121.45 73.8836 120.85 73.9337 120.157 73.9922ZM124.263 67.6634C124.198 67.3792 124.125 67.0875 124.044 66.7915C124.365 66.7516 124.607 66.7219 124.764 66.7024C124.589 67.0018 124.419 67.3233 124.263 67.6634ZM124.035 66.7559C123.928 66.3632 123.81 65.962 123.684 65.5617C123.808 65.5473 123.916 65.5337 124.005 65.5218C124.276 65.487 124.54 65.4514 124.799 65.4166C124.885 65.694 124.967 65.9722 125.044 66.2495C124.952 66.392 124.859 66.5396 124.769 66.6931C124.611 66.7067 124.363 66.7279 124.035 66.7559Z" fill="#7FBDAF"/>
<path d="M123.134 71.0396C123.137 71.037 123.139 71.0345 123.142 71.0311C123.27 71.02 123.336 71.0141 123.336 71.0141C123.336 71.0141 123.267 71.0234 123.134 71.0396Z" fill="#6FA49A"/>
<path d="M122.076 72.1624C122.092 72.1471 122.107 72.1318 122.121 72.1166C122.773 72.0606 123.128 72.03 123.128 72.03C123.128 72.03 122.756 72.0767 122.076 72.1624Z" fill="#6FA49A"/>
<path d="M124.044 66.7913C124.042 66.7794 124.038 66.7675 124.035 66.7556C124.363 66.7277 124.611 66.7065 124.77 66.6929C124.904 66.6819 124.975 66.6759 124.975 66.6759C124.975 66.6759 124.903 66.6844 124.764 66.7022C124.608 66.7217 124.365 66.7514 124.044 66.7913Z" fill="#6FA49A"/>
<path d="M119.992 74.1428C120.047 74.0919 120.102 74.0419 120.157 73.9919C120.85 73.9333 121.45 73.8833 121.941 73.8426C121.916 73.8655 121.892 73.8892 121.868 73.9121C121.351 73.9757 120.72 74.0529 119.992 74.1428Z" fill="#6FA49A"/>
<path d="M118.886 75.1404C118.965 75.07 119.043 74.9996 119.121 74.9292C119.792 74.8732 120.401 74.8215 120.94 74.7765C120.933 74.7825 120.926 74.7892 120.919 74.7952C120.88 74.8308 120.841 74.8673 120.802 74.9029C120.234 74.9733 119.592 75.053 118.886 75.1404Z" fill="#6FA49A"/>
<path d="M117.869 76.0461C117.968 75.9579 118.067 75.8706 118.166 75.7832C118.826 75.7272 119.44 75.6755 120.001 75.628C119.936 75.6874 119.87 75.7467 119.804 75.8061C119.212 75.8791 118.564 75.9596 117.869 76.0461Z" fill="#6FA49A"/>
<path d="M115.943 77.7561C116.076 77.6374 116.209 77.5186 116.342 77.4007C116.987 77.3473 117.602 77.2964 118.182 77.2489C118.079 77.3397 117.976 77.4313 117.873 77.5229C117.359 77.5856 116.82 77.6518 116.26 77.7196C116.155 77.7315 116.049 77.7434 115.943 77.7561Z" fill="#6FA49A"/>
<path d="M114.811 78.772C114.956 78.6414 115.101 78.5108 115.246 78.3801C115.707 78.3377 116.157 78.2953 116.592 78.2546C116.762 78.241 116.93 78.2266 117.095 78.2131C116.968 78.3267 116.84 78.4404 116.712 78.554C116.683 78.5583 116.654 78.5616 116.625 78.565C116.044 78.6312 115.438 78.7007 114.811 78.772Z" fill="#6FA49A"/>
<path d="M113.333 80.1318C113.487 79.9868 113.643 79.8426 113.799 79.6976C114.43 79.6365 115.043 79.578 115.636 79.5203C115.491 79.6509 115.346 79.7824 115.203 79.913C114.598 79.9834 113.974 80.0572 113.333 80.1318Z" fill="#6FA49A"/>
<path d="M112.32 81.0959C112.479 80.9416 112.64 80.7872 112.802 80.6329C113.418 80.5743 114.019 80.5167 114.604 80.4615C114.453 80.6023 114.301 80.7431 114.15 80.8839C113.555 80.9526 112.944 81.0239 112.32 81.0959Z" fill="#6FA49A"/>
<path d="M132.349 60.0754H123.578C122.893 59.7235 122.168 59.3537 121.409 58.9678H129.729H132.497C132.444 59.3571 132.395 59.7269 132.349 60.0754Z" fill="#9F3C3E"/>
<path d="M110.783 82.6414C110.945 82.4709 111.111 82.2996 111.279 82.1282C111.868 82.0731 112.447 82.0188 113.015 81.9654C112.852 82.124 112.69 82.2826 112.531 82.4403C111.958 82.5065 111.375 82.5735 110.783 82.6414Z" fill="#6FA49A"/>
<path d="M123.685 65.5613C123.496 64.9633 123.293 64.3654 123.087 63.7946C123.488 63.7225 123.856 63.653 124.188 63.5843C124.4 64.1771 124.608 64.7954 124.799 65.4163C124.54 65.451 124.276 65.4866 124.005 65.5214C123.916 65.5333 123.808 65.5469 123.685 65.5613ZM123.262 61.1484C122.798 60.9067 122.287 60.6421 121.734 60.3562C121.671 60.2087 121.617 60.0848 121.575 59.9881C121.506 59.8321 121.469 59.749 121.469 59.749L121.117 58.9678H121.409C122.168 59.3537 122.893 59.7235 123.578 60.0755H122.819C122.942 60.3681 123.094 60.732 123.262 61.1484Z" fill="#8B902B"/>
<path d="M123.088 63.7947C123.069 63.7421 123.05 63.6895 123.031 63.6369C122.53 62.2578 122.029 61.0467 121.734 60.3563C122.287 60.6421 122.798 60.9068 123.262 61.1485C123.431 61.5675 123.617 62.039 123.808 62.5454C123.934 62.8787 124.062 63.2273 124.189 63.5843C123.856 63.653 123.488 63.7226 123.088 63.7947Z" fill="#98AC57"/>
<path d="M135.06 60.0754H132.349C132.395 59.7269 132.444 59.3571 132.497 58.9678H136.071C135.716 59.3554 135.379 59.7252 135.06 60.0754Z" fill="#8AC0B0"/>
</svg>
