<svg width="171" height="126" viewBox="0 0 171 126" fill="none" xmlns="http://www.w3.org/2000/svg">
<path d="M24.6738 36.4231C49.6994 13.1851 169.212 53.105 167.852 87.109C166.132 130.121 16.5023 134.918 5.31907 104.809C-5.86418 74.7008 0.58683 58.7896 24.6738 36.4231Z" fill="#F5EAD4"/>
<path d="M112.838 31.4684C112.751 31.4916 107.663 32.6839 102.181 35.8264C99.4411 37.4006 96.5954 39.467 94.2478 42.1647C91.9027 44.8573 90.0583 48.2097 89.4235 52.2443C89.2041 53.6353 89.1129 55.2603 89.1121 57.0995C89.1138 61.9961 89.7753 68.4195 90.7577 75.3557C93.7075 96.1426 99.5805 121.46 99.5848 121.482L102.625 120.778C102.624 120.778 102.584 120.605 102.509 120.273C101.938 117.779 99.3628 106.376 96.9335 93.3875C95.7188 86.8925 94.5411 80.0019 93.668 73.6378C92.7948 67.278 92.2305 61.4334 92.2322 57.0995C92.2313 55.3687 92.3234 53.8805 92.5058 52.7312C93.0408 49.3547 94.56 46.564 96.6023 44.2113C99.6587 40.6877 103.915 38.2196 107.41 36.6755C109.157 35.9012 110.709 35.3541 111.816 35.0031C112.369 34.8276 112.811 34.7012 113.111 34.6195C113.261 34.579 113.375 34.5498 113.45 34.5309L113.533 34.5102L113.553 34.505L112.838 31.4684Z" fill="#66A42F"/>
<path d="M115.535 27.5265C115.535 27.5265 106.955 5.68565 117.486 6.46503C128.016 7.24528 119.826 25.5763 119.826 25.5763C119.826 25.5763 132.09 9.88969 135.426 17.7756C139.716 27.9162 124.116 31.8166 124.116 31.8166C124.116 31.8166 138.936 34.547 137.766 41.5667C136.596 48.5872 124.896 40.007 124.896 40.007C124.896 40.007 133.867 58.3372 125.286 61.4574C116.705 64.5775 118.265 42.7366 118.265 42.7366C118.265 42.7366 110.075 61.8479 105.005 54.8274C99.9348 47.8069 112.805 36.8869 112.805 36.8869C112.805 36.8869 96.8147 44.6868 97.595 35.3264C98.3744 25.966 112.025 31.0364 112.025 31.0364C112.025 31.0364 92.5247 20.8957 98.3744 14.6555C104.225 8.41522 115.535 27.5265 115.535 27.5265Z" fill="#FCFCFC"/>
<path d="M115.145 25.5763C124.116 22.0656 131.321 41.3059 122.946 44.297C112.025 48.1974 103.747 30.0367 115.145 25.5763Z" fill="#FBC60E"/>
<path d="M105.395 125.469C105.395 125.469 74.7142 105.968 75.2338 85.687C75.2338 85.687 109.036 99.2077 105.395 125.469Z" fill="#66A42F"/>
<path d="M105.395 125.469C105.395 125.469 85.6345 88.8071 100.195 58.6459C100.195 58.6459 118.916 76.8471 105.395 125.469Z" fill="#66B430"/>
<path d="M104.876 125.469C104.876 125.469 105.916 97.9079 127.757 86.4673C127.757 86.4673 126.717 119.228 104.876 125.469Z" fill="#66A42F"/>
<path d="M100.195 125.42C100.195 125.42 129.837 126.98 139.197 112.419C139.197 112.419 119.956 106.7 100.195 125.42Z" fill="#96AA20"/>
<path d="M105.395 125.231C105.395 125.231 76.5336 128.351 67.1732 111.971C67.1732 111.971 89.0141 104.17 105.395 125.231Z" fill="#96AA20"/>
<path d="M153.952 17.3857C153.952 17.3857 144.273 1.1382 152.587 0.030201C158.437 -0.750046 157.462 13.8759 157.462 13.8759C157.462 13.8759 160.777 -1.72471 165.847 1.39542C170.917 4.51554 161.557 16.2158 161.557 16.2158L153.952 17.3857Z" fill="#FCFCFC"/>
<path d="M145.176 23.6261C144.842 14.2632 169.747 12.3156 170.917 20.8957C172.087 29.4767 145.567 34.547 145.176 23.6261Z" fill="#FBC60E"/>
<path d="M149.864 14.9789L151.814 32.7241L154.14 32.4686L152.19 14.7225" fill="#040606"/>
<path d="M154.934 14.9789L156.884 32.7241L159.21 32.4686L157.26 14.7225" fill="#040606"/>
<path d="M159.614 13.4185L161.564 31.1646L163.89 30.9091L161.94 13.163" fill="#040606"/>
<path d="M163.514 12.4435L165.464 30.1887L167.79 29.9332L165.84 12.1871" fill="#040606"/>
</svg>
