<svg width="162" height="100" viewBox="0 0 162 100" fill="none" xmlns="http://www.w3.org/2000/svg">
<path d="M0.975376 33.6962C8.52871 -13.8897 156.574 33.6962 161.106 66.9309C165.638 100.166 -14.7809 132.958 0.975376 33.6962Z" fill="#F5EAD4"/>
<path d="M83.9634 32.9944C83.9634 15.3777 69.6823 1.09664 52.0664 1.09664C34.4498 1.09664 20.1687 15.3777 20.1687 32.9944C20.1687 50.611 34.4498 64.8921 52.0664 64.8921C69.6823 64.8921 83.9634 50.611 83.9634 32.9944Z" fill="#71C5DA"/>
<mask id="mask0" mask-type="alpha" maskUnits="userSpaceOnUse" x="20" y="1" width="64" height="64">
<path d="M83.9634 32.9944C83.9634 15.3777 69.6823 1.09664 52.0664 1.09664C34.4498 1.09664 20.1687 15.3777 20.1687 32.9944C20.1687 50.611 34.4498 64.8921 52.0664 64.8921C69.6823 64.8921 83.9634 50.611 83.9634 32.9944Z" fill="#71C5DA"/>
</mask>
<g mask="url(#mask0)">
<path d="M49.7646 0.110407C47.7562 2.67627 46.4774 4.97853 46.099 8.2816C41.0239 7.9636 42.8133 11.5242 39.9083 13.9405C37.8462 15.6567 32.8905 17.6009 30.3473 18.5647C28.616 14.9844 25.0395 15.5328 22.2335 17.8169C17.1561 12.8 27.0608 6.2067 30.6773 3.81078C32.2499 2.76993 47.3823 -5.21621 46.4766 -0.21817" fill="white"/>
<path d="M60.6166 -0.876154C62.014 0.475138 61.1794 1.4533 61.3637 3.04026C61.3455 2.88315 61.2692 6.65603 61.3523 6.37883C60.7005 8.5421 58.581 9.38504 57.6165 11.9743C58.0561 13.0597 58.328 13.1292 58.0281 14.5953C62.5269 15.791 56.5537 22.7454 58.5123 26.522C61.6613 32.5934 62.3441 24.287 63.8608 21.9138C65.8896 18.7406 64.9477 21.1108 68.1345 19.9846C68.92 19.7074 73.1355 17.7262 73.5691 17.3349C75.0488 16.0018 75.039 13.9518 76.2558 12.2357C77.5316 10.4357 79.8459 10.404 79.6888 7.38116C79.5037 3.79861 70.9028 0.203215 67.5219 -0.21826" fill="#6AC974"/>
<path d="M84.6217 16.8816C77.8396 17.8643 75.6627 21.6968 70.7953 25.7786C66.8925 29.0515 60.4639 30.9293 60.9715 37.2567C61.5342 44.2669 69.6268 42.4035 73.2781 46.5548C77.4823 51.3346 78.9272 58.8464 82.6601 48.0632C85.9201 38.6457 90.0337 27.7304 84.6217 18.5252" fill="#6AC974"/>
<path d="M17.5383 23.4585C22.5825 24.9548 29.7929 22.7024 28.4937 29.3569C27.5813 34.0332 23.5485 37.266 23.5077 42.1523C25.8787 42.1372 29.9447 43.814 32.1465 44.6917C35.6981 46.108 35.0409 47.5854 36.5931 50.8356C39.3214 56.5482 44.0566 61.5115 48.1596 66.2074C43.7998 69.9946 30.4153 64.6756 26.3833 61.9903C19.2628 57.2491 18.0739 45.9841 15.761 38.5992C14.3909 34.2235 18.2197 29.7376 16.5519 25.76" fill="#6AC974"/>
</g>
<path d="M52.0665 67.1113C33.2542 67.1113 17.9489 51.8067 17.9489 32.9944C17.9489 21.1145 24.0565 10.638 33.2927 4.5274L30.3069 -6.10352e-05C19.6023 7.0827 12.5233 19.2247 12.5233 32.9944C12.5233 54.7986 30.2623 72.5376 52.0665 72.5376C60.101 72.5376 67.5795 70.122 73.8254 65.9889L70.8403 61.4614C65.451 65.0281 58.9982 67.1113 52.0665 67.1113Z" fill="#B8BAB8"/>
<path d="M53.9574 76.7086V69.1666H51.4912V76.7086L30.363 84.7869H75.0856L53.9574 76.7086Z" fill="#B8BAB8"/>
<path d="M36.2825 84.7869L51.2441 77.717L42.8591 84.7869H36.2825Z" fill="white"/>
</svg>
