<svg width="60" height="60" viewBox="0 0 60 60" fill="none" xmlns="http://www.w3.org/2000/svg">
<path d="M60 30C60 13.4301 46.5699 0 30 0C13.4301 0 0 13.4301 0 30C0 44.9753 10.9644 57.3863 25.3151 59.6384V38.6795H17.7041V30H25.3151V23.3918C25.3151 15.8795 29.7863 11.7205 36.6411 11.7205C39.9288 11.7205 43.3644 12.3123 43.3644 12.3123V19.6932H39.5836C35.8521 19.6932 34.7014 22.011 34.7014 24.3781V30H43.0192L41.6877 38.6795H34.7014V59.6384C49.0356 57.3863 60 44.9753 60 30Z" fill="#1877F2"/>
<path d="M41.6713 38.6795L43.0028 30H34.685V24.3781C34.685 22.011 35.8521 19.6932 39.5672 19.6932H43.348V12.3124C43.348 12.3124 39.9124 11.7206 36.6247 11.7206C29.7699 11.7206 25.2987 15.8795 25.2987 23.3918V30H17.6877V38.6795H25.2987V59.6384C26.8275 59.885 28.3891 60 29.9836 60C31.5782 60 33.1398 59.8685 34.6686 59.6384V38.6795H41.6713Z" fill="white"/>
</svg>
