<svg fill="#58534d" viewBox="0 0 294 354" xmlns="http://www.w3.org/2000/svg">
<path d="m146.44 6.002c-3.292 0.0157-6.2046 1.6217-8.0156 4.0859-2.164-2.161-5.2889-3.3057-8.5469-2.8203-0.365 0.05448-0.7317 0.11006-1.0957 0.16797-3.25 0.5159-5.8819 2.5445-7.2969 5.252-2.464-1.8032-5.7203-2.4595-8.8613-1.4902-0.352 0.1086-0.70369 0.21818-1.0547 0.33008-3.126 0.9965-5.422 3.3859-6.418 6.2656-2.694-1.4147-5.9984-1.5855-8.957-0.17578-0.3312 0.1578-0.66043 0.31782-0.99023 0.47852-2.9379 1.4318-4.8614 4.1109-5.4395 7.0898-2.8534-1.0186-6.1323-0.73341-8.8594 1.0586-0.3057 0.2009-0.61182 0.40392-0.91602 0.60742-2.7018 1.8074-4.2395 4.7026-4.4219 7.7148-2.946-0.631-6.1426 0.070341-8.6074 2.1816-0.2752 0.2357-0.54866 0.47294-0.82226 0.71094-2.4419 2.1241-3.604 5.1733-3.418 8.1719-2.988-0.2684-6.0631 0.80564-8.2539 3.1816-0.2452 0.2659-0.49088 0.53288-0.73438 0.80078-2.1687 2.3857-2.9682 5.5339-2.4453 8.4805-2.9881 0.069-5.9131 1.4709-7.8242 4.0625-0.2124 0.288-0.42407 0.57749-0.63477 0.86719-1.8882 2.596-2.3447 5.7954-1.5195 8.6582-2.9514 0.3836-5.7027 2.0758-7.332 4.8379-0.1817 0.3079-0.36102 0.61638-0.54102 0.92578-1.6093 2.7674-1.7417 5.9873-0.63867 8.7461-2.8915 0.6722-5.4556 2.6182-6.8066 5.5176-0.1509 0.3239-0.30197 0.64951-0.45117 0.97461-1.3318 2.9031-1.1562 6.1118 0.19922 8.748-2.8091 0.94-5.1749 3.1131-6.25 6.1191-0.1203 0.336-0.23892 0.67277-0.35742 1.0098-1.0567 3.008-0.59096 6.1797 0.99414 8.6777-2.7077 1.188-4.8658 3.5605-5.668 6.6445-0.0899 0.345-0.17752 0.69011-0.26562 1.0371-0.7845 3.084-0.042047 6.1989 1.752 8.5449-2.5894 1.417-4.5295 3.9636-5.0625 7.0996-0.0596 0.351-0.11798 0.70174-0.17578 1.0527-0.516 3.137 0.48816 6.1725 2.4727 8.3555-2.4573 1.63-4.1734 4.3281-4.4414 7.4941-0.02988 0.353-0.059801 0.70559-0.087891 1.0586-0.2515 3.166 0.99985 6.1062 3.1562 8.1152-2.312 1.826-3.7986 4.6512-3.8066 7.8262-4.5e-4 0.179 0 0.35715 0 0.53515s-4.501e-4 0.35421 0 0.53321c0.0079999 3.175 1.4945 6.0002 3.8066 7.8262-2.1563 2.009-3.4077 4.9492-3.1562 8.1152 0.0281 0.353 0.058011 0.7056 0.087891 1.0586 0.2681 3.166 1.9841 5.8641 4.4414 7.4941-1.9845 2.183-2.9887 5.2185-2.4727 8.3555 0.0578 0.351 0.11618 0.70173 0.17578 1.0527 0.533 3.136 2.4731 5.6826 5.0625 7.0996-1.794 2.346-2.5365 5.4609-1.752 8.5449 0.0881 0.347 0.17572 0.69211 0.26562 1.0371 0.8022 3.084 2.9603 5.4565 5.668 6.6445-1.5851 2.498-2.0508 5.6697-0.99414 8.6777 0.1185 0.337 0.23712 0.67376 0.35742 1.0098 1.0751 3.006 3.4409 5.1791 6.25 6.1191-1.3554 2.636-1.531 5.845-0.19922 8.748 0.1492 0.325 0.30027 0.65161 0.45117 0.97461 1.351 2.9 3.9151 4.8456 6.8066 5.5176-1.103 2.759-0.97063 5.9791 0.63867 8.7461 0.18 0.31 0.35942 0.61778 0.54102 0.92578 1.6293 2.762 4.3806 4.4539 7.332 4.8379-0.8252 2.862-0.36867 6.0622 1.5195 8.6582 0.2107 0.29 0.42247 0.57918 0.63477 0.86718 1.9112 2.592 4.8361 3.9935 7.8242 4.0625-0.5229 2.946 0.27661 6.0964 2.4453 8.4824 0.2435 0.267 0.48918 0.53283 0.73438 0.79883 2.1908 2.376 5.266 3.4506 8.2539 3.1816-0.186 2.999 0.97607 6.0479 3.418 8.1719 0.2736 0.238 0.54706 0.47594 0.82226 0.71094 2.4648 2.112 5.6614 2.8126 8.6074 2.1816 0.1824 3.012 1.7201 5.9078 4.4219 7.7148 0.3042 0.204 0.61032 0.40642 0.91602 0.60742 2.7271 1.792 6.006 2.0766 8.8594 1.0586 0.5781 2.979 2.5016 5.6578 5.4395 7.0898 0.3298 0.161 0.65903 0.32052 0.99023 0.47852 2.9585 1.41 6.263 1.2373 8.957-0.17774 0.996 2.88 3.292 5.2706 6.418 6.2676 0.351 0.112 0.70269 0.22208 1.0547 0.33008 3.141 0.97 6.3973 0.31376 8.8613-1.4902 1.415 2.708 4.0469 4.736 7.2969 5.252 0.364 0.058 0.7307 0.11396 1.0957 0.16797 3.258 0.48599 6.3829-0.65932 8.5469-2.8203 1.81 2.464 4.7236 4.0699 8.0156 4.0859 0.186 1e-3 0.37064 0.00195 0.55664 0.00195s0.37064-9.5e-4 0.55664-0.00195c3.292-0.016 6.2046-1.6219 8.0156-4.0859 2.164 2.161 5.2889 3.3063 8.5469 2.8203 0.365-0.05402 0.73171-0.10997 1.0957-0.16797 3.25-0.516 5.8819-2.544 7.2969-5.252 2.464 1.804 5.7203 2.4602 8.8613 1.4902 0.352-0.108 0.70369-0.21808 1.0547-0.33008 3.126-0.997 5.422-3.3876 6.418-6.2676 2.694 1.415 5.999 1.5877 8.957 0.17774 0.331-0.158 0.66023-0.31752 0.99023-0.47852 2.938-1.432 4.8605-4.1108 5.4395-7.0898 2.853 1.018 6.1324 0.7334 8.8594-1.0586 0.306-0.201 0.61202-0.40342 0.91602-0.60742 2.702-1.807 4.2389-4.7028 4.4219-7.7148 2.946 0.631 6.1424-0.06964 8.6074-2.1816 0.275-0.235 0.54827-0.47294 0.82227-0.71094 2.442-2.124 3.604-5.1729 3.418-8.1719 2.988 0.269 6.0629-0.80564 8.2539-3.1816 0.245-0.266 0.49038-0.53278 0.73438-0.80078 2.169-2.385 2.9683-5.5345 2.4453-8.4805 2.988-0.069 5.9132-1.4705 7.8242-4.0625 0.212-0.288 0.42377-0.57718 0.63477-0.86718 1.888-2.596 2.3445-5.7962 1.5195-8.6582 2.951-0.384 5.703-2.0759 7.332-4.8379 0.181-0.308 0.36101-0.61578 0.54101-0.92578 1.61-2.767 1.7417-5.9871 0.63868-8.7461 2.891-0.672 5.4566-2.6176 6.8066-5.5176 0.151-0.323 0.30117-0.64961 0.45117-0.97461 1.331-2.903 1.1558-6.112-0.19922-8.748 2.809-0.94 5.175-3.1131 6.25-6.1191 0.12-0.336 0.23842-0.67276 0.35742-1.0098 1.057-3.008 0.59186-6.1797-0.99414-8.6777 2.708-1.188 4.864-3.5605 5.666-6.6445 0.09-0.345 0.17957-0.69011 0.26757-1.0371 0.785-3.084 0.04305-6.1989-1.752-8.5449 2.59-1.417 4.5295-3.9636 5.0625-7.0996 0.032-0.184 0.0618-0.36678 0.0918-0.55078 0.028-0.167 0.05698-0.33495 0.08398-0.50195 0.516-3.137-0.48865-6.1725-2.4726-8.3555 2.457-1.63 4.1734-4.3281 4.4414-7.4941 0.03-0.353 0.05989-0.7056 0.08789-1.0586 0.252-3.166-1.0012-6.1062-3.1582-8.1152 2.312-1.826 3.7986-4.6512 3.8066-7.8262 1e-3 -0.179 0.00195-0.35521 0.00195-0.53321s-9.5e-4 -0.35615-0.00195-0.53515c-8e-3 -3.175-1.4946-6.0002-3.8066-7.8262 2.157-2.009 3.4102-4.9492 3.1582-8.1152-0.028-0.353-0.05789-0.70559-0.08789-1.0586-0.268-3.166-1.9844-5.8641-4.4414-7.4941 1.984-2.183 2.9886-5.2185 2.4726-8.3555-0.057-0.351-0.11578-0.70174-0.17578-1.0527-0.533-3.136-2.4725-5.6826-5.0625-7.0996 1.795-2.346 2.537-5.4609 1.752-8.5449-0.088-0.347-0.17757-0.69211-0.26757-1.0371-0.802-3.084-2.958-5.4565-5.666-6.6445 1.586-2.498 2.0511-5.6697 0.99414-8.6777-0.119-0.337-0.23742-0.67377-0.35742-1.0098-1.075-3.006-3.441-5.1791-6.25-6.1191 1.355-2.6362 1.5302-5.845 0.19922-8.748-0.15-0.3252-0.30017-0.65071-0.45117-0.97461-1.35-2.8994-3.9156-4.8454-6.8066-5.5176 1.103-2.7588 0.97132-5.9787-0.63868-8.7461-0.18-0.3094-0.36001-0.61788-0.54101-0.92578-1.629-2.7621-4.381-4.4543-7.332-4.8379 0.825-2.8628 0.36847-6.0622-1.5195-8.6582-0.211-0.2897-0.42277-0.57919-0.63477-0.86719-1.911-2.5917-4.8362-3.9935-7.8242-4.0625 0.523-2.9466-0.27631-6.0948-2.4453-8.4805-0.244-0.268-0.48938-0.53488-0.73438-0.80078-2.191-2.376-5.2659-3.45-8.2539-3.1816 0.186-2.9986-0.97597-6.0478-3.418-8.1719-0.274-0.238-0.54727-0.47524-0.82227-0.71094-2.465-2.1113-5.6614-2.8127-8.6074-2.1816-0.183-3.0122-1.7199-5.9074-4.4219-7.7148-0.304-0.2035-0.61002-0.40652-0.91602-0.60742-2.727-1.792-6.0064-2.0772-8.8594-1.0586-0.579-2.9789-2.5015-5.658-5.4395-7.0898-0.33-0.1607-0.65923-0.32072-0.99023-0.47852-2.958-1.4097-6.263-1.2389-8.957 0.17578-0.996-2.8797-3.292-5.2691-6.418-6.2656-0.351-0.1119-0.70269-0.22148-1.0547-0.33008-3.141-0.9693-6.3973-0.31297-8.8613 1.4902-1.415-2.7075-4.0469-4.736-7.2969-5.252-0.364-0.05792-0.73071-0.11349-1.0957-0.16797-3.258-0.4854-6.3829 0.65931-8.5469 2.8203-1.81-2.4642-4.7236-4.0703-8.0156-4.0859-0.186-8.8e-4 -0.37064 0-0.55664 0s-0.37064-8.8e-4 -0.55664 0z"/>
</svg>