<svg width="60" height="60" viewBox="0 0 60 60" fill="none" xmlns="http://www.w3.org/2000/svg">
<circle cx="30" cy="30" r="30" fill="url(#paint0_radial)"/>
<circle cx="30" cy="30" r="30" fill="url(#paint1_radial)"/>
<path d="M30.0015 10C24.5697 10 23.8881 10.0238 21.7547 10.1208C19.6255 10.2183 18.1722 10.5554 16.9005 11.05C15.5851 11.5608 14.4692 12.2442 13.3575 13.3563C12.245 14.468 11.5617 15.5838 11.0492 16.8988C10.5533 18.1709 10.2158 19.6247 10.12 21.753C10.025 23.8864 10 24.5685 10 30.0002C10 35.4319 10.0242 36.1115 10.1208 38.2449C10.2188 40.3741 10.5558 41.8274 11.05 43.0991C11.5613 44.4145 12.2446 45.5304 13.3567 46.642C14.468 47.7546 15.5838 48.4396 16.8984 48.9504C18.1709 49.445 19.6247 49.7821 21.7535 49.8796C23.8868 49.9767 24.5681 50.0004 29.9994 50.0004C35.4315 50.0004 36.1111 49.9767 38.2445 49.8796C40.3737 49.7821 41.8287 49.445 43.1012 48.9504C44.4162 48.4396 45.5304 47.7546 46.6416 46.642C47.7541 45.5304 48.4375 44.4145 48.95 43.0995C49.4417 41.8274 49.7792 40.3736 49.8792 38.2453C49.975 36.1119 50 35.4319 50 30.0002C50 24.5685 49.975 23.8868 49.8792 21.7535C49.7792 19.6243 49.4417 18.1709 48.95 16.8992C48.4375 15.5838 47.7541 14.468 46.6416 13.3563C45.5291 12.2438 44.4166 11.5604 43.0999 11.05C41.8249 10.5554 40.3707 10.2183 38.2415 10.1208C36.1082 10.0238 35.429 10 29.9956 10H30.0015ZM28.2073 13.6042C28.7398 13.6034 29.334 13.6042 30.0015 13.6042C35.3415 13.6042 35.9744 13.6234 38.0832 13.7192C40.0332 13.8084 41.0916 14.1342 41.7966 14.408C42.7299 14.7705 43.3953 15.2038 44.0949 15.9038C44.7949 16.6038 45.2283 17.2705 45.5916 18.2038C45.8654 18.908 46.1916 19.9664 46.2804 21.9164C46.3762 24.0247 46.397 24.6581 46.397 29.9956C46.397 35.3332 46.3762 35.9665 46.2804 38.0749C46.1912 40.0249 45.8654 41.0832 45.5916 41.7874C45.2291 42.7208 44.7949 43.3853 44.0949 44.0849C43.3949 44.7849 42.7303 45.2183 41.7966 45.5808C41.0924 45.8558 40.0332 46.1808 38.0832 46.27C35.9749 46.3658 35.3415 46.3866 30.0015 46.3866C24.661 46.3866 24.0281 46.3658 21.9197 46.27C19.9697 46.18 18.9113 45.8541 18.2059 45.5804C17.2726 45.2179 16.6059 44.7845 15.9059 44.0845C15.2059 43.3845 14.7726 42.7195 14.4092 41.7857C14.1355 41.0816 13.8092 40.0232 13.7205 38.0732C13.6246 35.9649 13.6055 35.3315 13.6055 29.9906C13.6055 24.6497 13.6246 24.0197 13.7205 21.9114C13.8096 19.9614 14.1355 18.903 14.4092 18.198C14.7717 17.2647 15.2059 16.598 15.9059 15.898C16.6059 15.198 17.2726 14.7646 18.2059 14.4013C18.9109 14.1263 19.9697 13.8013 21.9197 13.7117C23.7647 13.6284 24.4797 13.6034 28.2073 13.5992V13.6042ZM40.6774 16.9251C40.2027 16.9251 39.7386 17.0659 39.3439 17.3296C38.9492 17.5934 38.6416 17.9682 38.46 18.4068C38.2784 18.8454 38.2309 19.328 38.3236 19.7936C38.4162 20.2592 38.6449 20.6869 38.9806 21.0225C39.3164 21.3581 39.7441 21.5866 40.2097 21.6791C40.6753 21.7716 41.1579 21.724 41.5964 21.5422C42.035 21.3604 42.4097 21.0527 42.6734 20.6579C42.937 20.2631 43.0776 19.799 43.0774 19.3243C43.0774 17.9992 42.0024 16.9242 40.6774 16.9242V16.9251ZM30.0015 19.7293C24.3293 19.7293 19.7305 24.3281 19.7305 30.0002C19.7305 35.6723 24.3293 40.2691 30.0015 40.2691C35.6736 40.2691 40.2711 35.6723 40.2711 30.0002C40.2711 24.3281 35.6732 19.7293 30.001 19.7293H30.0015ZM30.0015 23.3335C33.6832 23.3335 36.6682 26.3181 36.6682 30.0002C36.6682 33.6819 33.6832 36.6669 30.0015 36.6669C26.3193 36.6669 23.3347 33.6819 23.3347 30.0002C23.3347 26.3181 26.3193 23.3335 30.0015 23.3335Z" fill="white"/>
<defs>
<radialGradient id="paint0_radial" cx="0" cy="0" r="1" gradientUnits="userSpaceOnUse" gradientTransform="translate(15.9376 64.6213) rotate(-90) scale(59.4644 55.3066)">
<stop stop-color="#FFDD55"/>
<stop offset="0.1" stop-color="#FFDD55"/>
<stop offset="0.5" stop-color="#FF543E"/>
<stop offset="1" stop-color="#C837AB"/>
</radialGradient>
<radialGradient id="paint1_radial" cx="0" cy="0" r="1" gradientUnits="userSpaceOnUse" gradientTransform="translate(-10.0503 4.3223) rotate(78.6806) scale(26.5808 109.567)">
<stop stop-color="#3771C8"/>
<stop offset="0.128" stop-color="#3771C8"/>
<stop offset="1" stop-color="#6600FF" stop-opacity="0"/>
</radialGradient>
</defs>
</svg>
