<?xml version="1.0" encoding="UTF-8"?>
<svg viewBox="0 0 180 145" xmlns="http://www.w3.org/2000/svg">
<path d="m0.32751 59.818c3.2239-36.314 115.72-76.679 158.01-35.39 42.283 41.288 21.141 107.15-50.073 112.07-71.215 4.916-112.39-26.542-107.94-76.678z" fill="#F5EAD4"/>
<path d="m66.387 130.92s18.403-11.071 49.226-1.645c0 0-6.433 8.229-25.585 8.229-19.152 0-23.641-6.584-23.641-6.584z" fill="#FFC346"/>
<path d="m66.387 130.92s18.403-11.071 49.226-1.645c0 0-6.433 8.229-25.585 8.229-19.152 0-23.641-6.584-23.641-6.584z" fill="#FFC346"/>
<path d="m73.57 133.9c-0.9083-0.318-1.7478-0.636-2.5036-0.938-0.0018 0.013-0.0055 0.026-0.0074 0.039-2.9168-1.146-4.6721-2.086-4.6721-2.086 0.0224-0.013 4.9829-2.954 13.986-4.507-0.4542 0.581-0.914 1.149-1.3905 1.681-1.7217 1.929-3.6091 3.833-5.4128 5.811z" fill="#FFD665"/>
<path d="m107.75 133.46c1.02-1.839 2.059-3.665 3.086-5.496 1.562 0.387 3.146 0.808 4.78 1.308 0 0-0.067 0.084-0.206 0.235-0.946 0.609-3.714 2.304-7.595 3.942-2e-3 -5e-3 -2e-3 -0.011-3e-3 -0.015-0.021 8e-3 -0.041 0.017-0.062 0.026z" fill="#FFD665"/>
<path d="m66.387 130.92-0.672 6.584s10.024 7.48 25.436 7.48c15.41 0 25.136-7.855 25.136-7.855l-0.525-7.855s-11.446 7.855-24.612 7.855c-13.167 0-24.764-6.209-24.764-6.209z" fill="#FFC346"/>
<path d="m96.987 136.64c0-6e-3 1e-4 -0.012 0.0019-0.017 4.0358-0.659 7.7288-1.893 10.757-3.163-4e-3 8e-3 -7e-3 0.015-0.013 0.021-3.023 1.271-6.718 2.503-10.746 3.159z" fill="#FFD870"/>
<path d="m107.73 133.48c6e-3 -6e-3 0.01-0.013 0.013-0.021 0.021-9e-3 0.041-0.018 0.062-0.026 2e-3 4e-3 2e-3 0.01 4e-3 0.015-0.026 0.011-0.053 0.023-0.079 0.032z" fill="#FFE487"/>
<path d="m96.368 144.67c0.2233-2.677 0.4373-5.354 0.6197-8.032 4.0281-0.655 7.7231-1.888 10.746-3.159 0.026-9e-3 0.052-0.02 0.078-0.032 0.501 2.563 0.932 5.151 1.366 7.736-3.293 1.452-7.622 2.88-12.81 3.487z" fill="#FFD870"/>
<path d="m82.644 136.33c-3.4231-0.618-6.5317-1.517-9.0948-2.405 0.0075-7e-3 0.015-0.015 0.0206-0.022 2.5482 0.891 5.6492 1.794 9.0742 2.418v9e-3z" fill="#E3A220"/>
<path d="m73.549 133.93c-0.9009-0.313-1.7348-0.624-2.4905-0.921 0.0019-0.013 0.0056-0.026 0.0074-0.04 0.7558 0.302 1.5953 0.62 2.5036 0.939-0.0056 7e-3 -0.0131 0.015-0.0205 0.022z" fill="#E3AA2E"/>
<path d="m82.05 144.08c-5.1895-1.014-9.3627-2.708-12.181-4.134 0.4189-2.312 0.8135-4.627 1.1895-6.946 0.7557 0.297 1.5896 0.608 2.4905 0.921 2.5631 0.888 5.6717 1.787 9.0947 2.405-0.1749 2.587-0.3779 5.171-0.5938 7.754z" fill="#E3A220"/>
<path d="m87.359 114.91s-2.2932 10.076-7.9797 15.761c0 0 10.074 8.178 23.241 0 0 0-7.0825-6.484-8.1789-15.761h-7.0825z" fill="#F4AB08"/>
<path d="m96.333 121.63c-0.5119-1.153-0.9661-2.394-1.3141-3.708l0.0018-2e-3c0.3499 1.314 0.8059 2.554 1.3197 3.706-0.0038 2e-3 -0.0055 2e-3 -0.0074 4e-3z" fill="#E7DCA2"/>
<path d="m89.894 123.18c-0.0596-1.427-0.1005-3.021-0.1098-4.798 0.3965 0.028 0.8022 0.043 1.2154 0.043 1.4556 0 2.8256-0.183 4.0188-0.503 0.3481 1.314 0.8023 2.556 1.3141 3.708-1.7627 0.705-3.5664 1.277-5.4352 1.491-0.322 0.037-0.6571 0.056-1.0033 0.059z" fill="#E09705"/>
<path d="m84.748 122.44h-0.0075c0.7762-1.725 1.3682-3.352 1.7907-4.647h0.0037c-0.4206 1.297-1.0107 2.924-1.7869 4.647z" fill="#E7DCA2"/>
<path d="m88.261 123.09c-1.1261-0.119-2.3192-0.355-3.5142-0.655 0.7762-1.723 1.3662-3.35 1.7869-4.648 0.7688 0.239 1.6232 0.417 2.5352 0.523-0.2401 1.726-0.5175 3.321-0.8079 4.78z" fill="#E09705"/>
<path d="m90.739 134.29c-2.0475 0-3.8829-0.32-5.4483-0.773 0 0 1.6436-3.784 2.9708-10.425 0.523 0.056 1.0312 0.085 1.5189 0.085h0.1135c0.3592 8.509 1.4575 11.103 1.4575 11.103-0.2066 6e-3 -0.4114 0.01-0.6124 0.01z" fill="#DA9204"/>
<path d="m89.781 123.18c-0.4877 0-0.9958-0.029-1.5189-0.085 0.2904-1.46 0.5678-3.055 0.8079-4.78 0.2346 0.028 0.4728 0.05 0.7148 0.067 0.0093 1.777 0.0502 3.371 0.1097 4.798h-0.1135z" fill="#D18902"/>
<path d="m99.378 114.31c0 2.271-3.7507 4.113-8.3781 4.113s-8.378-1.842-8.378-4.113c0-2.273 3.7506-4.116 8.378-4.116s8.3781 1.843 8.3781 4.116z" fill="#F4AB08"/>
<path d="m96.087 111.06c1.0852 1.005 1.0908 2.891-5.6102 3.062-0.6515 0.015-7.2574-0.412-4.9121-2.921-1.7869 0.756-2.9428 1.86-2.9428 3.109 0 2.271 3.7506 4.113 8.378 4.113s8.3781-1.842 8.3781-4.113c0-1.329-1.303-2.498-3.291-3.25z" fill="#FFC346"/>
<path d="m100.18 75.093c-3.1848 1.7329-6.8573 1.9395-10.416 1.8427-3.0974-0.0856-5.7274-0.6422-8.5139-1.5207 1.839 5.0648 6.6209 21.149 6.6209 36.988l0.0298 0.028c3.3114 2.217 5.9564-0.028 5.9564-0.028s-0.5994-19.937 6.881-37.293c0 0-0.223-0.0074-0.558-0.0167z" fill="#F4AB08"/>
<path d="m90.258 113.33c-0.242-0.041-0.4896-0.101-0.7427-0.175 0.2159-1.837-1.2453-16.101-2.4738-26.341 1.1019 0.3034 2.2467 0.4709 3.4082 0.5193 0.1154 10.755-0.1917 25.996-0.1917 25.996z" fill="#DA9204"/>
<path d="m126.86 21.994s19.103-19.92 30.671-13.017c15.213 9.0761 9.028 32.118-11.369 44.007-16.845 9.815-23.442 8.8099-24.14 13.945-0.698 5.1374 5.536 2.8944 4.389 0.7483 0 0-2.76 1.02-2.394-1.5952 0.367-2.6153 8.71-4.0653 7.68 5.5096-0.398 3.7153-6.133 7.9072-11.944 4.458-3.449-2.0475-4.363-7.6242-2.245-12.088 6.625-13.947 19.327-9.3013 30-25.16 11.477-17.056 1.096-21.545-3.474-19.816-4.869 1.8446-10.84 6.3491-17.923 13.631l0.749-10.623z" fill="#FFC346"/>
<path d="m126.58 32.135h2e-3c3.002-3.0563 5.802-5.6064 8.4-7.6595-2e-3 0.0074-2e-3 0.0149-3e-3 0.0242-2.601 2.0549-5.393 4.579-8.399 7.6353z" fill="#E2BA6E"/>
<path d="m126.59 32.135c0.651-4.2141 1.145-8.1454 1.5-11.351 0.075-0.0708 0.153-0.1452 0.233-0.2215 2.699-0.6627 4.277-1.1206 4.277-1.1206v-2.6431c1.692-1.3812 3.667-2.8721 5.797-4.2458-1.614 3.827-2.811 7.9015-3.407 11.922-2.598 2.0531-5.398 4.6032-8.4 7.6595z" fill="#E3A220"/>
<path d="m117.54 63.912c2e-3 -0.0056 4e-3 -0.0093 6e-3 -0.0149-2e-3 0.0056-4e-3 0.0093-6e-3 0.0149zm0.026-0.0577c2e-3 -0.0019 4e-3 -0.0056 4e-3 -0.0075 0 0.0019-2e-3 0.0038-4e-3 0.0075zm0.03-0.0596c2e-3 -0.0037 2e-3 -0.0056 4e-3 -0.0093-2e-3 0.0037-4e-3 0.0056-4e-3 0.0093zm0.026-0.0558c2e-3 -0.0019 2e-3 -0.0038 4e-3 -0.0056-2e-3 0.0018-2e-3 0.0037-4e-3 0.0056zm0.058-0.1154v-0.0019 0.0019zm6.09-7.4548c0.838-0.6292 1.709-1.1895 2.606-1.7106 0 0.0018-2e-3 0.0037-4e-3 0.0055-0.895 0.5194-1.766 1.0778-2.602 1.7051z" fill="#E2BA6E"/>
<path d="m124.2 77.318c-1.417 0-2.93-0.3648-4.451-1.2676-2.209-1.3122-3.38-4.0726-3.376-7.0602 0-1.6752 0.37-3.423 1.132-5.0275 9e-3 -0.0168 0.016-0.0335 0.026-0.0503 2e-3 -0.0056 3e-3 -0.0093 5e-3 -0.0149 8e-3 -0.0149 0.015-0.0279 0.021-0.0428 2e-3 -0.0037 3e-3 -0.0056 3e-3 -0.0074 0.01-0.0168 0.017-0.0354 0.027-0.0522 0-0.0037 1e-3 -0.0055 3e-3 -0.0093 8e-3 -0.0167 0.015-0.0316 0.023-0.0465 1e-3 -0.0019 1e-3 -0.0037 3e-3 -0.0056 0.017-0.0372 0.036-0.0726 0.054-0.1098v-0.0019c1.692-3.4324 3.766-5.7088 6.091-7.4529 0.835-0.6273 1.707-1.1857 2.602-1.705-8e-3 0.013-0.013 0.026-0.022 0.039-3.349 1.9452-6.325 4.4562-8.615 9.0538 1.703-2.2169 3.622-3.8438 5.69-5.1951-1.587 2.3025-3.218 5.4054-3.32 9.0426-0.108 3.8381 2.324 7.1123 4.279 9.9118-0.058 0.0018-0.115 0.0018-0.175 0.0018z" fill="#E3A220"/>
<path d="m147.32 39.08v-0.0019 0.0019zm0.058-0.0856c2e-3 -0.0019 3e-3 -0.0056 5e-3 -0.0075-2e-3 0.0019-3e-3 0.0056-5e-3 0.0075zm0.035-0.0522 2e-3 -0.0018-2e-3 0.0018zm0.03-0.0428c2e-3 -0.0018 2e-3 -0.0037 2e-3 -0.0056 0 0.0019-2e-3 0.0038-2e-3 0.0056zm0.022-0.0335c0.013-0.0205 0.028-0.0428 0.043-0.0633-0.015 0.0205-0.03 0.0428-0.043 0.0633zm0.043-0.0633c0.104-0.1563 0.207-0.3108 0.309-0.4635-0.1 0.1527-0.205 0.3072-0.309 0.4635zm0.337-0.5063c4e-3 -0.0074 9e-3 -0.0149 0.013-0.0223-4e-3 0.0074-9e-3 0.0149-0.013 0.0223zm4.054-16.242c-1.249-2.3789-3.697-3.3933-5.83-3.3933-0.169 0-0.337 0.0056-0.5 0.0186-0.045-0.0037-0.09-0.0056-0.134-0.0075 0.204-0.0204 0.411-0.0297 0.623-0.0297 2.137 0 4.592 1.02 5.841 3.4119z" fill="#C99C6E"/>
<path d="m123.42 58.362c1.275-1.8521 2.524-3.1848 2.924-3.8587 6.368-3.7004 14.081-5.3551 20.976-15.423v-0.0019c0.019-0.0279 0.037-0.0558 0.058-0.0837 2e-3 -0.0019 3e-3 -0.0056 5e-3 -0.0075 0.01-0.0149 0.021-0.0298 0.03-0.0447l2e-3 -0.0018c7e-3 -0.013 0.019-0.0279 0.028-0.041 0-0.0018 2e-3 -0.0037 2e-3 -0.0055 7e-3 -0.0094 0.013-0.0168 0.02-0.028 0.013-0.0204 0.028-0.0428 0.043-0.0633 0.104-0.1563 0.208-0.3108 0.309-0.4634 9e-3 -0.0149 0.019-0.028 0.028-0.0428 4e-3 -0.0075 9e-3 -0.0149 0.013-0.0224 5.284-8.0486 5.618-13.22 4.041-16.22-1.249-2.3919-3.704-3.4119-5.841-3.4119-0.212 0-0.419 0.0093-0.624 0.0298-0.132-0.0075-0.264-0.0112-0.394-0.0112-0.715 0-1.394 0.1061-1.977 0.3258l-0.065 0.0297c0.849-0.4318 1.681-0.819 2.477-1.1205 0.54-0.2048 1.154-0.3258 1.802-0.3667 1.245 0.0856 2.552 0.4802 3.689 1.2341 1.368 1.2545 2.335 2.913 2.863 4.7986 0.056-0.0409 0.112-0.0819 0.168-0.1247 0.703 3.572-0.516 8.929-5.627 16.523-0.923 1.3719-1.86 2.6059-2.803 3.7228-0.151 0.16-0.304 0.3183-0.455 0.4765 0.017-0.0019 0.034-0.0056 0.051-0.0075-2.588 2.9615-5.238 5.0742-7.868 6.7513-0.073-0.0075-0.144-0.0131-0.214-0.0187-2.631 1.666-5.324 2.941-7.915 4.3408-2.003 0.9753-3.931 1.9507-5.746 3.1364z" fill="#CB8320"/>
<path d="m117.73 63.557c2.29-4.5976 5.266-7.1086 8.615-9.0538-0.4 0.6739-1.649 2.0066-2.924 3.8587-2.068 1.3513-3.987 2.9782-5.691 5.1951z" fill="#BE740E"/>
<path d="m154 23.436c-0.433-2.202-1.599-3.7246-3.03-4.6739-0.026-0.0242-0.052-0.0465-0.076-0.0688 2.28-2.3994 4.566-4.8191 6.954-7.0453 1.962 1.4202 3.413 3.1475 4.484 5.0536-2.683 2.3807-5.48 4.5957-8.332 6.7344z" fill="#FFD665"/>
<path d="m153.83 23.561c-0.529-1.8856-1.495-3.5441-2.863-4.7987 1.431 0.9494 2.596 2.472 3.03 4.674-0.056 0.0428-0.112 0.0837-0.167 0.1247z" fill="#E1AB45"/>
<path d="m145.16 44.152c0.134-0.1545 0.268-0.309 0.404-0.4691 2.5-2.6487 4.733-5.5488 6.543-8.6554 3.084-1.7032 6.215-3.33 9.295-4.9717 0.866-0.4616 1.717-0.9586 2.571-1.4426-0.573 3.1271-1.834 6.338-3.719 9.4465-5.022 3.0322-9.569 5.3514-15.094 6.0923z" fill="#FFD665"/>
<path d="m145.11 44.159c0.151-0.1582 0.304-0.3165 0.454-0.4766-0.135 0.1601-0.269 0.3146-0.403 0.4691-0.017 0.0019-0.034 0.0056-0.051 0.0075z" fill="#E1AB45"/>
<path d="m134.1 57.77c-2.277-0.4951-4.503-0.9679-6.778-0.9679-0.314 0-0.631 0.0093-0.947 0.0279 0.91-0.5677 1.843-1.0945 2.788-1.6045 2.619-1.2788 5.363-2.5594 8.129-4.3221 1.789 0.1526 3.576 0.2606 5.357 0.2606 0.877 0 1.751-0.0261 2.624-0.0875 0.728-0.0503 1.415-0.1545 2.104-0.255-0.486 0.309-0.936 0.6403-1.441 0.9344-4.804 2.7995-8.704 4.6497-11.836 6.0141z" fill="#FFD665"/>
<path d="m129.17 55.225c2.591-1.3998 5.284-2.6748 7.915-4.3407 0.07 0.0055 0.141 0.0111 0.214 0.0186-2.766 1.7627-5.51 3.0433-8.129 4.3221z" fill="#E1AB45"/>
<path d="m55.138 21.994s-19.102-19.92-30.672-13.017c-15.211 9.0761-9.0276 32.118 11.371 44.007 16.844 9.815 23.44 8.8099 24.138 13.945 0.698 5.1374-5.5358 2.8944-4.3892 0.7483 0 0 2.7624 1.02 2.3938-1.5952-0.3667-2.6153-8.7076-4.0653-7.6801 5.5096 0.4002 3.7153 6.1352 7.9072 11.946 4.458 3.4491-2.0475 4.363-7.6242 2.2429-12.088-6.6228-13.947-19.327-9.3013-30-25.16-11.475-17.056-1.0963-21.545 3.4734-19.816 4.8693 1.8446 10.841 6.3491 17.923 13.631l-0.7483-10.623z" fill="#FFC346"/>
<path d="m55.092 31.807c-2.5464-2.5706-4.9383-4.7596-7.1906-6.6042 0-0.0056-0.0018-0.0112-0.0018-0.0149 2.2504 1.8428 4.6479 4.0485 7.1924 6.6191z" fill="#E2BA6E"/>
<path d="m55.416 32.135c-0.108-0.1098-0.2159-0.2196-0.3239-0.3276-2.5445-2.5705-4.942-4.7763-7.1924-6.619-0.1358-1.6734-0.2382-3.3486-0.2028-5.0388 0.0372-1.8334-0.2159-3.5477-0.6478-5.1951 0.8321 0.6236 1.6212 1.2434 2.3565 1.8447v2.6431s1.53 0.3984 4.1378 0.9903c0.1303 0.1228 0.2551 0.2419 0.3705 0.3518 0.3555 3.2071 0.8487 7.1365 1.5021 11.351z" fill="#E3A220"/>
<path d="m64.469 63.918c-0.0019-0.0018-0.0037-0.0055-0.0037-0.0074 0 0.0019 0.0018 0.0056 0.0037 0.0074zm-0.0224-0.0428c-0.0018-0.0037-0.0037-0.0074-0.0037-0.0111 0 0.0037 0.0019 0.0074 0.0037 0.0111zm-0.0204-0.0465c-0.0019-0.0019-0.0038-0.0056-0.0057-0.0093 0.0019 0.0037 0.0038 0.0074 0.0057 0.0093zm-0.0224-0.0447c-0.0018-0.0019-0.0037-0.0056-0.0037-0.0074 0.0019 0.0018 0.0019 0.0055 0.0037 0.0074z" fill="#E2BA6E"/>
<path d="m57.799 77.318c-0.0875 0-0.1751-0.0018-0.2607-0.0037 3.451-4.6069 4.2588-9.8578 2.8107-15.561-0.2532-0.9958-0.5975-1.9544-1.0144-2.8814 1.7813 1.249 3.4416 2.7399 4.9344 4.6851-1.8278-3.6725-4.0969-6.0141-6.6414-7.7992-0.0074-0.0112-0.013-0.0204-0.0204-0.0316 2.6115 1.8297 4.9401 4.2234 6.794 8.0504 0 0.0019 0.0019 0.0056 0.0037 0.0075 0.0056 0.0111 0.0112 0.0242 0.0167 0.0353 0.0019 0.0038 0.0038 0.0075 0.0057 0.0093 0.0056 0.0131 0.0093 0.0242 0.0167 0.0354 0 0.0037 0.0019 0.0074 0.0037 0.0112 0.0056 0.0111 0.0131 0.0242 0.0187 0.0353 0 0.0019 0.0018 0.0056 0.0037 0.0075 0.0056 0.0149 0.013 0.0298 0.0204 0.0447 2.0606 4.3426 1.2527 9.735-1.9656 11.911-0.0912 0.0614-0.1842 0.121-0.2773 0.1768-1.5207 0.9028-3.0321 1.2676-4.4486 1.2676z" fill="#E3A220"/>
<path d="m34.652 39.039c-0.0018-0.0019-0.0037-0.0038-0.0056-0.0056 0.0019 0.0018 0.0038 0.0037 0.0056 0.0056zm-0.0298-0.0428c-0.0018-0.0019-0.0056-0.0075-0.0074-0.0094 0.0037 0.0038 0.0056 0.0056 0.0074 0.0094zm-0.0261-0.0391c-0.0037-0.0056-0.0074-0.0112-0.013-0.0168 0.0056 0.0056 0.0093 0.0112 0.013 0.0168zm-0.039-0.0559c0-0.0018-0.0019-0.0037-0.0038-0.0074 0.0019 0.0037 0.0019 0.0056 0.0038 0.0074zm-0.0223-0.0335c-0.0149-0.0223-0.0298-0.0447-0.0447-0.0651 0.0149 0.0223 0.0298 0.0428 0.0447 0.0651zm-4.4488-16.79c1.2453-2.4086 3.7117-3.4361 5.8541-3.4361 0.2122 0 0.4207 0.0093 0.6236 0.0298-0.0447 0.0019-0.0894 0.0037-0.1341 0.0074-0.1638-0.013-0.3312-0.0186-0.4988-0.0186-2.1406 0-4.5995 1.0219-5.8448 3.4175z" fill="#C99C6E"/>
<path d="m59.334 58.872c-2.0289-1.424-4.218-2.5334-6.5-3.6465-2.5929-1.3997-5.2864-2.6748-7.9146-4.3407-0.0726 0.0056-0.1433 0.0112-0.2141 0.0186-2.6319-1.6771-5.2825-3.7898-7.8698-6.7512 0.0186 0.0019 0.0353 0.0056 0.0521 0.0075-0.1527-0.1583-0.3053-0.3184-0.4579-0.4803-0.9437-1.115-1.8781-2.349-2.8014-3.719-5.1113-7.5944-6.3287-12.952-5.6251-16.524 0.0559 0.0429 0.1099 0.0838 0.1657 0.1248 0.5286-1.8856 1.4947-3.5441 2.8647-4.7987 1.1373-0.7538 2.4421-1.1484 3.6874-1.2341 0.6477 0.041 1.2619 0.162 1.8017 0.3667 0.7967 0.3016 1.6288 0.6887 2.4775 1.1206l-0.0651-0.0298c-0.5808-0.2196-1.262-0.3257-1.9749-0.3257-0.1322 0-0.2643 0.0037-0.3965 0.0111-0.2029-0.0204-0.4114-0.0298-0.6235-0.0298-2.1425 0-4.6089 1.0275-5.8541 3.4362-1.5952 3.0694-1.2006 8.3948 4.404 16.724 0.0149 0.0205 0.0299 0.0428 0.0447 0.0652 0.0056 0.0074 0.013 0.0186 0.0186 0.026 0.0019 0.0037 0.0037 0.0056 0.0037 0.0075 0.0093 0.013 0.0187 0.026 0.0261 0.0391 0.0056 0.0055 0.0093 0.0111 0.013 0.0167 0.0056 0.0112 0.013 0.0205 0.0186 0.0298 0.0019 0.0018 0.0056 0.0074 0.0075 0.0093 0.0093 0.013 0.0167 0.0242 0.0242 0.0372 0.0018 0.0019 0.0037 0.0037 0.0056 0.0056 7.6298 11.17 16.268 12.015 22.975 16.719 0.644 1.0014 1.223 2.0363 1.707 3.1141z" fill="#CB8320"/>
<path d="m64.268 63.557c-1.4928-1.9452-3.1532-3.4361-4.9345-4.6851-0.4839-1.0778-1.0629-2.1127-1.7069-3.1141 2.5445 1.7851 4.8135 4.1267 6.6414 7.7992z" fill="#BE740E"/>
<path d="m28.003 23.436c-2.8534-2.1387-5.651-4.3537-8.3314-6.7344 1.0684-1.9061 2.5222-3.6334 4.4822-5.0536 2.3881 2.2262 4.6738 4.6459 6.9559 7.0453-0.0261 0.0223-0.0521 0.0446-0.0763 0.0688-1.4332 0.9493-2.5967 2.4719-3.0304 4.6739z" fill="#FFD665"/>
<path d="m28.169 23.561c-0.0558-0.041-0.1098-0.0819-0.1657-0.1247 0.4337-2.202 1.5971-3.7246 3.0304-4.674-1.37 1.2546-2.3361 2.9131-2.8647 4.7987z" fill="#E1AB45"/>
<path d="m36.835 44.152c-5.5227-0.7409-10.072-3.0601-15.094-6.0923-1.8856-3.1085-3.1439-6.3194-3.719-9.4465 0.8562 0.484 1.705 0.981 2.5724 1.4426 3.0788 1.6417 6.2114 3.2685 9.2938 4.9717 1.8093 3.1066 4.043 6.0029 6.5409 8.6517 0.1359 0.16 0.27 0.3183 0.4058 0.4728z" fill="#FFD665"/>
<path d="m36.888 44.159c-0.0168-0.0019-0.0335-0.0056-0.0521-0.0075-0.1359-0.1545-0.2699-0.3127-0.4058-0.4728 0.1526 0.162 0.3052 0.3221 0.4579 0.4803z" fill="#E1AB45"/>
<path d="m47.895 57.77c-3.1309-1.3644-7.0323-3.2146-11.836-6.0141-0.5044-0.2941-0.9549-0.6254-1.4407-0.9344 0.6905 0.1005 1.3756 0.2047 2.1034 0.255 0.873 0.0614 1.7496 0.0875 2.6263 0.0875 1.7795 0 3.5664-0.108 5.357-0.2606 2.7661 1.7627 5.5078 3.0433 8.1287 4.3221 0.9455 0.51 1.8763 1.0368 2.7865 1.6045-0.3165-0.0186-0.631-0.0279-0.9474-0.0279-2.2746 0-4.5009 0.4728-6.7773 0.9679z" fill="#FFD665"/>
<path d="m52.834 55.225c-2.6208-1.2788-5.3626-2.5594-8.1286-4.3221 0.0707-0.0075 0.1414-0.0131 0.214-0.0186 2.6283 1.6659 5.3217 2.9409 7.9146 4.3407z" fill="#E1AB45"/>
<path d="m96.95 86.448c0.6068-2.403 1.3327-4.8488 2.2001-7.2798 0.0019 0 0.0038 0 0.0056-0.0019-0.8618 2.4291-1.5803 4.8731-2.189 7.278-0.0056 0.0019-0.0111 0.0037-0.0167 0.0037zm-12.654-0.724c-0.0019-0.0019-0.0038-0.0019-0.0038-0.0037-0.6366-2.5706-1.2768-4.8378-1.8427-6.688l0.0018 0.0019c0.5659 1.8483 1.2081 4.1155 1.8447 6.6898z" fill="#E7DCA2"/>
<path d="m91.163 87.347c-0.2382 0-0.4765-0.0055-0.7148-0.0149-0.0279-2.6543-0.0818-5.035-0.173-6.8461 0.2419 0.0056 0.482 0.0093 0.724 0.0093 2.8274 0 5.5562-0.4672 8.1509-1.3271-0.8674 2.4309-1.5933 4.8768-2.2001 7.2798-1.8874 0.577-3.853 0.899-5.787 0.899zm-4.123-0.5342c-0.9511-0.2606-1.8706-0.6198-2.7436-1.0889-0.6366-2.5743-1.2788-4.8414-1.8447-6.6898 1.2118 0.4226 2.4552 0.7595 3.7247 1.0033 0.2513 1.8149 0.549 4.1639 0.8636 6.7754z" fill="#E09705"/>
<path d="m90.449 87.332c-1.1615-0.0484-2.3063-0.2159-3.4082-0.5194-0.3146-2.6115-0.6124-4.9605-0.8636-6.7754 1.3383 0.2569 2.7064 0.4095 4.0987 0.4486 0.0912 1.8111 0.1451 4.1918 0.1731 6.8462z" fill="#C88103"/>
<path d="m90.999 15.861-37.853-3.142s2.4999 35.297 10.697 49.747c5.8857 10.375 15.71 18.029 27.156 18.029s21.27-7.6539 27.156-18.029c8.198-14.45 10.699-49.747 10.699-49.747l-37.855 3.142z" fill="#FFC346"/>
<path d="m92.962 80.415c2.4961-6.109 5.9434-15.863 7.0831-23.891 1.15-8.1286 1.796-16.847 1.959-25.594 4.151-0.2736 9.136-1.087 13.553-2.6562-1.132 8.9849-2.779 17.951-6.005 26.532-3.263 8.6814-7.43 19.379-16.59 25.609z" fill="#FFD870"/>
<path d="m91 80.495c-1.1727 0-2.3248-0.1023-3.4621-0.2643-9.1412-9.0295-15.436-20.416-18.402-33.856-1.3923-6.3194-2.122-12.898-2.9447-19.463 6.4478 1.9731 13.832 2.9913 20.697 3.5422-0.7036 6.4348-0.9288 13.039-0.9288 19.943 0 20.014 5.0406 30.098 5.0406 30.098z" fill="#E3A220"/>
<path d="m92.427 28.716c-21.631-0.0019-38.29-5.9862-38.29-5.9862-0.0912-0.7725-0.1749-1.5152-0.2531-2.2207 7.6614 1.7255 23.848 4.9345 38.233 4.9345 14.206 0 28.835-3.0805 35.988-4.8265-0.065 0.5845-0.134 1.1931-0.208 1.826-12.084 4.713-24.423 6.2729-35.469 6.2729z" fill="#E3A220"/>
<path d="m91 0c-22.74 0-41.594 8.6777-41.594 8.6777v10.764s23.04 6.001 42.711 6.001c19.83 0 40.48-6.001 40.48-6.001v-10.764s-18.854-8.6777-41.596-8.6777z" fill="#FFC346"/>
<path d="m89.948 15.76c-22.402 0-36.06-5.2454-40.543-6.8238v10.506s23.04 6.001 42.711 6.001c19.83 0 40.48-6.001 40.48-6.001v-10.722c-6.986 3.0304-21.998 7.0398-42.648 7.0398z" fill="#FFC346"/>
<path d="m70.915 23.68c-4.3351-0.6403-8.3539-1.3681-11.706-2.0419 0.1675-3.0974 0.2979-6.1891 0.3351-9.2716 3.2127 0.9195 7.0695 1.8521 11.557 2.5967 0.0242 2.8925-0.0335 5.8093-0.1861 8.7168z" fill="#E3A220"/>
<path d="m104.27 24.776c0.282-3.0359 0.471-6.0644 0.439-9.0891 2.708-0.3072 5.264-0.6887 7.661-1.1187 0.319 3.0061 0.616 6.0159 0.843 9.0295-2.831 0.4505-5.835 0.86-8.943 1.1783z" fill="#FFD870"/>
<path d="m127.2 20.829c-0.29-3.2444-0.595-6.4906-0.91-9.735 1.58-0.5193 2.997-1.0349 4.244-1.5244-0.207 3.4864-0.248 6.9746-0.123 10.461-0.854 0.2215-1.936 0.4951-3.211 0.7985z" fill="#FFD665"/>
<path d="m84.911 25.199c-1.6603-0.1061-3.3169-0.2457-4.9661-0.4058 0.0503-2.9093 0.0875-5.8131 0.1098-8.7168 1.6362 0.1377 3.3319 0.2457 5.0872 0.3164-0.0447 2.9298-0.1211 5.8652-0.2309 8.8062z" fill="#E3A220"/>
<path d="m91 2.8229e-4c-22.74 0-41.594 8.6777-41.594 8.6777v0.25874c4.4822 1.5784 18.141 5.6176 40.543 5.6176 20.65 0 35.662-2.8033 42.648-5.8336v-0.04281s-18.854-8.6777-41.596-8.6777z" fill="#FFC346"/>
<path d="m89.948 15.76c-1.6454 0-3.2443-0.0279-4.7948-0.0819v-0.0074c-1.7628-0.0615-3.453-0.1564-5.0928-0.2774v0.0149c-0.2885-0.0223-0.5733-0.0428-0.8581-0.0651 0.188-0.3611 0.3797-0.7185 0.5714-1.0778 3.1625 0.1843 6.5539 0.2885 10.174 0.2885 2.2839 0 4.4971-0.0335 6.6395-0.0986-0.2382 0.3983-0.4802 0.7967-0.7222 1.1931-1.9172 0.0726-3.8902 0.1117-5.9173 0.1117zm12.531-0.5081c0.162-0.363 0.322-0.7278 0.482-1.0908 6.209-0.389 11.682-1.0424 16.324-1.8558-0.067 0.175-0.136 0.3481-0.205 0.523-2.09 0.4542-4.346 0.8786-6.76 1.2565-2e-3 -0.0075-2e-3 -0.0131-2e-3 -0.0205-2.399 0.376-4.916 0.7185-7.619 0.9828v0.0037c-0.731 0.0726-1.47 0.1396-2.22 0.2011zm-28.489-0.4319c-0.9921-0.1191-1.9581-0.2494-2.8944-0.3853v-0.0186c-4.4766-0.6589-8.3482-1.4798-11.548-2.3081v0.013c-0.4133-0.1061-0.8153-0.214-1.2062-0.3201 0.0838-0.1099 0.1675-0.2178 0.2494-0.3276 4.1806 0.9158 9.5637 1.826 16.121 2.4179-0.2419 0.3109-0.482 0.6198-0.7222 0.9288z" fill="#FFD665"/>
<path d="m90.177 16.496c-1.7292 0-3.4062-0.0354-5.0349-0.1024 0.0037-0.2382 0.0074-0.4765 0.0111-0.7147 1.5506 0.0539 3.1494 0.0819 4.7949 0.0819 2.027 0 4.0001-0.0391 5.9173-0.1117-0.1489 0.2438-0.2978 0.4877-0.4486 0.7315 2.3416-0.0931 4.5924-0.2476 6.7564-0.4486 0.103-0.2252 0.203-0.4523 0.306-0.6794 0.75-0.0614 1.489-0.1284 2.22-0.201 4e-3 0.2122 8e-3 0.4244 0.01 0.6366-4.447 0.5025-9.3017 0.8078-14.532 0.8078zm-10.122-0.4188c-3.2164-0.2699-6.204-0.6571-8.9532-1.1131-0.0019-0.1768-0.0037-0.3537-0.0056-0.5286 0.9363 0.1358 1.9023 0.2661 2.8944 0.3853-0.134 0.1712-0.2661 0.3425-0.4001 0.5137 1.6789 0.2401 3.464 0.4393 5.2974 0.6143 0.1043-0.2029 0.2085-0.404 0.3146-0.605 0.2848 0.0223 0.5695 0.0428 0.8581 0.0652-0.0019 0.2215-0.0037 0.4448-0.0056 0.6682zm32.315-1.5077c-0.017-0.1619-0.033-0.322-0.05-0.484 2.414-0.3778 4.67-0.8022 6.76-1.2564-0.046 0.1135-0.091 0.2271-0.136 0.3406 2.739-0.6645 5.194-1.3774 7.347-2.081v0.0056c-3.749 1.2322-8.419 2.4849-13.921 3.4752zm-52.826-2.202c-4.9084-1.4072-8.3092-2.7846-10.139-3.4305 1.6585 0.58447 4.6143 1.772 8.8062 3.0377 0.0446-0.0577 0.0875-0.1154 0.1303-0.1731 0.3909 0.1061 0.7929 0.2141 1.2062 0.3202-0.0019 0.0819-0.0019 0.1638-0.0038 0.2457zm70.991-2.7977c0.719-0.28293 1.381-0.55653 1.986-0.81713-0.605 0.26246-1.267 0.53606-1.986 0.81713z" fill="#FFD665"/>
<path d="m71.096 14.435c-4.4915-0.6571-8.3427-1.4854-11.548-2.3137v-0.013c3.1997 0.8283 7.0713 1.6491 11.548 2.3081v0.0186z" fill="#EFC045"/>
<path d="m71.101 14.963c-4.4878-0.7445-8.3445-1.6771-11.557-2.5966 0.0019-0.0819 0.0019-0.1638 0.0038-0.2457 3.2053 0.8283 7.0565 1.6566 11.548 2.3137 0.0018 0.175 0.0036 0.3518 0.0055 0.5286z" fill="#EFC045"/>
<path d="m104.7 15.051v-0.0037c2.703-0.2644 5.22-0.6069 7.619-0.9829 0 0.0075 0 0.0131 2e-3 0.0205-2.388 0.3742-4.933 0.7018-7.621 0.9661z" fill="#FFE588"/>
<path d="m104.71 15.688c-2e-3 -0.2122-6e-3 -0.4244-0.01-0.6366 2.688-0.2643 5.233-0.5919 7.621-0.9661 0.016 0.162 0.033 0.3221 0.05 0.484-2.398 0.43-4.953 0.8115-7.661 1.1187z" fill="#FFE588"/>
<path d="m126.29 11.094v-0.0056c1.58-0.5175 2.997-1.0312 4.244-1.5189-1.247 0.4895-2.664 1.0052-4.244 1.5245z" fill="#FFE37F"/>
<path d="m132.53 8.7466c8e-3 -0.00372 0.017-0.00745 0.024-0.01118-7e-3 0.00373-0.016 0.00746-0.024 0.01118z" fill="#FFD665"/>
<path d="m85.153 15.678c-1.759-0.0595-3.4566-0.1526-5.0928-0.2699v-0.0149c1.6399 0.121 3.3301 0.2159 5.0928 0.2774v0.0074z" fill="#EFC045"/>
<path d="m85.142 16.394c-1.7552-0.0708-3.451-0.1787-5.0871-0.3165 0.0018-0.2233 0.0037-0.4467 0.0055-0.6682 1.6362 0.1173 3.3338 0.2103 5.0928 0.2699-0.0037 0.2383-0.0074 0.4765-0.0112 0.7148z" fill="#EFC045"/>
<path d="m89.948 14.554c-3.6204 0-7.0118-0.1043-10.174-0.2885 2.5575-4.767 5.4166-9.4112 8.0579-14.156-0.8283 0.031644-1.6752 0.035359-2.4942 0.085616-3.4789 4.6125-7.0751 9.1375-10.625 13.696-6.5576-0.5919-11.941-1.5021-16.121-2.4179 2.0345-2.6785 4.1025-5.3291 6.1798-7.976-9.2064 2.3751-15.193 5.102-15.362 5.1784 0.3015-0.13774 19.034-8.6759 41.591-8.6759 22.742 0 41.596 8.6777 41.596 8.6777s-4.051-1.8558-10.642-3.8512c-0.817 2.5203-1.705 5.0127-2.669 7.479-4.642 0.8135-10.115 1.4668-16.324 1.8558 1.826-4.1527 3.529-8.3501 4.972-12.648-1.4-0.24012-2.824-0.46907-4.297-0.6608-1.945 4.3221-4.0629 8.5605-6.4827 12.656-0.188 0.3183-0.376 0.6328-0.5659 0.9474-2.1424 0.0652-4.3556 0.0987-6.6395 0.0987zm-40.543-5.8764h0.0019-0.0019zm0.0019 0v-0.00186 0.00186z" fill="#FFD665"/>
<path d="m58.342 11.801c-4.2626-1.1578-7.2501-2.2709-8.9365-2.8647 1.7199 0.6068 4.7893 1.5729 9.1859 2.5371-0.0819 0.1098-0.1657 0.2177-0.2494 0.3276z" fill="#FFE487"/>
<path d="m58.212 11.974c-4.1919-1.2657-7.1477-2.4533-8.8062-3.0378 1.6864 0.59378 4.6739 1.7069 8.9365 2.8647-0.0428 0.0577-0.0857 0.1154-0.1303 0.1731z" fill="#FFE487"/>
<path d="m58.591 11.473c-4.3966-0.9642-7.466-1.9303-9.1859-2.5371v-0.25873h0.0019v-0.00187h0.0018c0.1694-0.07631 6.1556-2.8032 15.362-5.1784-2.0773 2.6469-4.1453 5.2975-6.1798 7.976z" fill="#FFE487"/>
<path d="m79.202 15.343c-1.8149-0.1452-3.5515-0.3201-5.2119-0.523 0.2402-0.309 0.4802-0.618 0.7222-0.9288 1.6157 0.1452 3.3021 0.2717 5.0611 0.3741-0.1917 0.3593-0.3834 0.7166-0.5714 1.0777z" fill="#FFE487"/>
<path d="m78.887 15.948c-1.8334-0.1749-3.6185-0.3741-5.2975-0.6142 0.1341-0.1712 0.2662-0.3425 0.4002-0.5137 1.6604 0.2029 3.397 0.3778 5.2119 0.523-0.1061 0.201-0.2104 0.4021-0.3146 0.6049z" fill="#FFE487"/>
<path d="m79.774 14.265c-1.759-0.1023-3.4454-0.2289-5.0611-0.3741 3.5496-4.5585 7.1458-9.0835 10.625-13.696 0.819-0.050257 1.6659-0.053972 2.4943-0.085616-2.6413 4.7446-5.5004 9.3888-8.0579 14.156z" fill="#FFE487"/>
<path d="m132.52 8.7521c4e-3 -0.00187 8e-3 -0.00373 0.013-0.00559-5e-3 0.00186-9e-3 0.00372-0.013 0.00559z" fill="#FFD870"/>
<path d="m119.08 12.828c0.069-0.175 0.138-0.3481 0.205-0.523 5.8-1.0163 10.301-2.2802 13.311-3.585-0.624 0.2699-1.311 0.54724-2.059 0.83017v-0.01302c-1.258 0.46908-2.675 0.94928-4.257 1.4277 0 0.0056 0 0.0112 2e-3 0.0167-2.115 0.6366-4.522 1.2658-7.202 1.8465z" fill="#FFE487"/>
<path d="m118.94 13.169c0.045-0.1135 0.09-0.2271 0.136-0.3406 2.681-0.5808 5.087-1.2099 7.202-1.8465 2e-3 0.0354 5e-3 0.0707 9e-3 0.1061-2.153 0.7036-4.609 1.4165-7.347 2.081zm11.591-3.5999c0-0.00745 2e-3 -0.01303 2e-3 -0.01861 0.748-0.28293 1.435-0.56027 2.059-0.83017-0.013 0.00559-0.026 0.01116-0.038 0.01489-7e-3 0.00372-0.016 0.00745-0.024 0.01117-5e-3 0.00187-9e-3 0.00373-0.013 0.00559-0.605 0.2606-1.267 0.5342-1.986 0.81713z" fill="#FFE487"/>
<path d="m126.28 10.982c-2e-3 -0.0056-2e-3 -0.0112-2e-3 -0.0168 1.582-0.4784 2.999-0.9586 4.257-1.4276v0.01302c-1.249 0.47093-2.669 0.95303-4.255 1.4314z" fill="#FFED9C"/>
<path d="m126.29 11.088c-3e-3 -0.0354-7e-3 -0.0708-9e-3 -0.1061 1.586-0.4784 3.006-0.9605 4.255-1.4314 0 0.00559-2e-3 0.01117-2e-3 0.01861-1.247 0.48764-2.663 1.0014-4.244 1.5189z" fill="#FFED9C"/>
<path d="m119.28 12.306c0.964-2.4664 1.852-4.9587 2.669-7.479 6.592 1.9954 10.642 3.8512 10.642 3.8512v0.04281c-3.01 1.3048-7.511 2.5687-13.311 3.585z" fill="#FFE487"/>
<path d="m95.865 15.648c0.242-0.3965 0.484-0.7948 0.7222-1.1931 2.202-0.067 4.3296-0.1657 6.3736-0.2941-0.16 0.363-0.32 0.7278-0.482 1.0907-2.122 0.175-4.328 0.3109-6.6138 0.3965z" fill="#FFE487"/>
<path d="m95.417 16.38c0.1508-0.2438 0.2997-0.4877 0.4486-0.7315 2.2858-0.0856 4.4914-0.2215 6.6134-0.3965-0.102 0.2271-0.203 0.4542-0.305 0.6794-2.165 0.2011-4.4154 0.3556-6.757 0.4486z" fill="#FFE487"/>
<path d="m96.588 14.456c0.1899-0.3146 0.3779-0.6291 0.5659-0.9474 2.4197-4.095 4.5382-8.3334 6.4832-12.656 1.472 0.19172 2.896 0.42068 4.296 0.66079-1.443 4.2979-3.146 8.4953-4.972 12.648-2.044 0.1285-4.1711 0.2271-6.3731 0.2941z" fill="#FFE487"/>
<path d="m91 3.8157c-16.853 0-30.824 4.4989-30.824 4.4989v0.19173c3.3225 1.1708 13.445 4.1639 30.046 4.1639 15.302 0 26.426-2.0773 31.602-4.324v-0.03165s-13.971-4.4989-30.824-4.4989z" fill="#A04F00"/>
<path d="m49.405 8.6778s10.822 8.4041 42.242 8.4041c31.42 0 40.949-8.3613 40.949-8.3613s-13.244 7.1012-41.073 7.1012-42.117-7.144-42.117-7.144z" fill="#FFE18C"/>
<path d="m49.405 18.856v-0.1005 0.6869s23.042 6.001 42.711 6.001c19.83 0 40.48-6.001 40.48-6.001v-0.5864s-20.65 6.0011-40.48 6.0011c-19.669 0-42.711-6.0011-42.711-6.0011z" fill="#FFE18C"/>
<path d="m66.537 130.92s12.298 5.637 24.814 5.637 24.41-7.282 24.41-7.282-10.343 8.229-24.41 8.229c-14.066 0-24.814-6.584-24.814-6.584z" fill="#FFE18C"/>
</svg>
