<?xml version="1.0" encoding="UTF-8"?>
<svg viewBox="0 0 206 131" xmlns="http://www.w3.org/2000/svg">
<path d="m34.16 8.153c32.248-27.39 173.58 19.744 171.82 59.824-2.217 50.698-177.37 61.851-191.78 26.363-14.411-35.488-11.085-59.824 19.954-86.186z" fill="#F5EAD4"/>
<path d="m151.84 44.727c-27.217 6.2907-51.021 5.8873-51.021 5.8873s-23.673 2.5125-51.34-1.3394l-1.6493 34.103s20.08 11.508 54.656 9.9716c36.321-1.615 51.776-13.808 51.776-13.808l-2.422-34.815z" fill="#3D3D3D"/>
<path d="m86.325 91.221c-5.1084-0.4299-10.217-1.1877-15.603-2.0531-6.2086-0.9961-11.686-5.6312-17.348-7.4563 0.6814-5.009 1.3216-10.736 1.7665-16.419 7.5714 2.8841 19.431 6.5274 31.659 8.3067-0.1323 6.2982-0.2712 12.483-0.4752 17.622z" fill="#0F0F0F"/>
<path d="m81.628 51.419c-7.3263 0-16.258-0.3214-25.889-1.37v-0.0085c9.6547 1.0503 18.598 1.37 25.935 1.37 2.0313 0 3.9387-0.0247 5.7052-0.0653v0.0084c-1.7773 0.0415-3.7022 0.0654-5.7507 0.0654z" fill="#3C3C3B"/>
<path d="m132.15 85.687c-0.143-5.0743-0.354-11.333-0.74-17.624 4.403-1.5996 8.717-3.3873 12.99-5.3389 0.551 4.6225 1.183 11.458 1.838 15.866-4.613 1.6836-9.32 5.8092-14.088 7.096z" fill="#828282"/>
<path d="m129.34 48.707v-0.0043c4.147-0.5256 8.606-1.2181 13.229-2.071 2e-3 7e-3 2e-3 0.0137 2e-3 0.0196-4.629 0.8554-9.078 1.5284-13.231 2.0557z" fill="#FDFBF8"/>
<path d="m100.58 74.675c-4.5072 0-9.1707-0.4052-13.782-1.0766 0.1628-7.8377 0.3168-15.854 0.5794-22.245 8.2985-0.1933 13.444-0.74 13.444-0.74s0.308 0.0067 0.892 0.0067c3.058 0 13.687-0.1432 27.623-1.914 1.007 5.4658 1.649 12.43 2.075 19.357-6.124 2.2218-12.416 4.0757-18.995 5.4795-3.705 0.7917-7.704 1.1326-11.836 1.1326z" fill="#242424"/>
<path d="m48.838 62.607c-0.0173-0.0093-0.0347-0.0178-0.0521-0.0265l0.6966-13.305-0.6445 13.332z" fill="#93918F"/>
<path d="m55.14 65.293c-2.7082-1.0332-4.8718-1.9682-6.3019-2.6861l0.6445-13.332c2.1115 0.2957 4.1991 0.5518 6.2564 0.7747 0.0608 4.6268-0.1823 9.9179-0.599 15.243z" fill="#242424"/>
<path d="m86.8 73.599c-12.228-1.7793-24.088-5.4227-31.66-8.3067 0.4167-5.3252 0.6597-10.616 0.599-15.243 9.6308 1.0486 18.563 1.37 25.889 1.37 2.0486 0 3.9735-0.0239 5.7508-0.0653-0.2626 6.3907-0.4166 14.407-0.5794 22.245z" fill="#090909"/>
<path d="m152.81 58.665-0.97-13.938 1.046 13.901c-0.026 0.0109-0.052 0.0263-0.076 0.0371z" fill="#93918F"/>
<path d="m144.4 62.724c-0.022-0.1974-0.045-0.3897-0.069-0.5789-0.649-5.2955-1.556-10.486-1.765-15.495 3.025-0.5595 6.127-1.1977 9.275-1.9243l0.97 13.938c-2.795 1.4191-5.594 2.7754-8.411 4.0596z" fill="#242424"/>
<path d="m131.41 68.063c-0.425-6.9274-1.067-13.891-2.074-19.357 4.153-0.5273 8.602-1.2003 13.231-2.0557 0.208 5.009 1.115 10.199 1.764 15.495 0.024 0.1892 0.048 0.3815 0.07 0.5789-4.273 1.9516-8.587 3.7393-12.991 5.3389z" fill="#4C4C4C"/>
<path d="m99.247 15.133-99.247 19.837 0.13886 3.1314 101.44 29.44 98.425-38.322-0.139-3.1338-100.61-10.952z" fill="#454545"/>
<path d="m101.72 15.401-2.472-0.2686-99.247 19.837 0.13886 3.1314 101.44 29.44 0.144-0.0569v-52.082z" fill="#0F0F0F"/>
<path d="M99.1059 12L0 34.9709L101.437 64.4077L199.861 26.0863L99.1059 12Z" fill="#6A6A6A"/>
<path d="m46.534 40.36c6.5059-6.3714 12.897-12.851 19.238-19.379l-61.173 14.178 36.301 10.533c1.9032-1.7556 3.789-3.5264 5.6336-5.3319z" fill="#A4A4A4"/>
<path d="m111.51 37.946c4.484-7.047 9.069-14.026 13.515-21.089l-8.836-1.235c-12.65 13.843-25.579 27.43-38.897 40.632l19.789 5.7423c4.7438-8.053 9.4078-16.156 14.429-24.051z" fill="#A4A4A4"/>
<path d="m195.3 26.682-34.75-4.8582c-4.908 8.2437-10.158 16.276-15.338 24.361l50.088-19.503z" fill="#A4A4A4"/>
<path d="m100.03 32.68s-73.734 5.5576-77.546 11.463c-3.8129 5.9041-6.2043 65.962-6.2043 65.962l3.6219-0.161s2.5997-59.296 5.3037-63.362c2.7039-4.0646 74.825-13.901 74.825-13.901z" fill="#3D3D3D"/>
<path d="m9.4356 128.54s3.4982-22.832 8.8692-21.511c5.2386 1.287 6.4495 21.441 6.4495 21.441l-4.0884 1.632-2.4566-7.245 1.3954 7.57-5.907-0.017 0.3385-7.424-1.0807 7.013-3.5198-1.459z" fill="#3D3D3D"/>
<path d="m21.784 107.88c0 1-1.7339 1.812-3.8715 1.812-2.1375 0-3.8692-0.812-3.8692-1.812s1.7317-1.812 3.8692-1.812c2.1376 0 3.8715 0.812 3.8715 1.812z" fill="#0F0F0F"/>
</svg>
