<?xml version="1.0" encoding="UTF-8"?>
<svg viewBox="0 0 180 115" xmlns="http://www.w3.org/2000/svg">
<path d="m24.953 11.294c27.165-20.29 144.61-17.246 147.01 42.609 2.397 59.855-112.65 77.102-145.41 45.652-30.223-29.016-21.1-73.694-1.598-88.261z" fill="#F5EAD4"/>
<path d="m178.76 69.874-9.138-2.8671 2.808 6.3061 6.33-3.439z" fill="#EF0C28"/>
<path d="m84.143 20.452-77.217 24.124 98.502 28.22 72.498-28.75-93.783-23.594z" fill="#F14659"/>
<path d="m85.614 24.98-63.298 19.774 81.602 21.923 58.571-22.356-76.874-19.341z" fill="#272727"/>
<path d="m86.083 26.423-58.861 18.389 75.88 20.386 54.465-20.79-71.484-17.984z" fill="#F14659"/>
<path d="m59.47 34.735 26.613-8.3136 26.414 6.6473c-4.996 0.1691-9.991 0.3384-14.994 0.5205-12.773 0.4637-25.302 0.352-38.034 1.1458z" fill="#F44A57"/>
<path d="m82.831 59.751-30.773-8.2655 30.773 8.2655z" fill="#6C5F56"/>
<path d="m83.459 59.756c-0.2528 0-0.4639-0.0017-0.6288-0.0059l-30.773-8.2655c2.3638-0.073 83.316-8.1254 98.106-8.9405l7.403 1.862-37.664 14.376c-8.608 0.1608-31.292 0.9741-36.444 0.9741z" fill="#F44A57"/>
<path d="m174.39 47.907s-10.339 16.184 1.445 24.876c0 0-63.635 23.776-69.831 23.125-6.1965-0.6528-12.567-19.614 0.473-24.589 13.039-4.9767 67.913-23.412 67.913-23.412z" fill="#FFFDF6"/>
<path d="m174.39 47.907s-10.339 16.184 1.445 24.876c0 0-63.635 23.776-69.831 23.125-6.1965-0.6528-12.567-19.614 0.473-24.589 13.039-4.9767 67.913-23.412 67.913-23.412z" fill="#EFE9D9"/>
<path d="m170.99 55.86c0.627-2.3372 1.511-4.3753 2.219-5.8054l2e-3 -0.0018c-0.708 1.4293-1.59 3.47-2.216 5.8045l-5e-3 0.0027z" fill="#E7D5C4"/>
<path d="m108.77 94.167s-0.022-0.0292-0.062-0.086c2.628-3.2767 4.866-7.5843 4.75-11.868-0.097-3.4606-2.124-6.3364-4.317-8.4544l64.068-23.704c-0.708 1.4301-1.592 3.4682-2.218 5.8054l-0.075 0.0224c-17.804 6.3714-51.304 10.292-51.352 34.536l-10.794 3.7475z" fill="#DBC7AE"/>
<path d="m113.45 82.214c-0.139-4.9998-4.308-8.7818-7.182-10.809-12.762 5.0985-6.4357 23.852-0.272 24.503 0.27 0.0266 0.686-0.0059 1.167-0.0662 3.222-3.3884 6.428-8.5247 6.287-13.628z" fill="#A78E78"/>
<path d="m7.2509 44.474s-13.413 11.001-3.7534 27.005l103.52 27.201s-10.086-12.783-0.747-27.276l-99.021-26.93z" fill="#B1001D"/>
<path d="m7.2509 44.474s-13.413 11.001-3.7534 27.005l103.52 27.201s-10.086-12.783-0.747-27.276l-99.021-26.93z" fill="#D31227"/>
<path d="m177.93 44.045-72.303 27.182s-10.247 13.78 1.396 27.452l72.171-24.967s2.08-2.3492-0.429-3.8394l-69.996 24.293s-7.676-10.335-0.158-20.21l69.38-25.672s1.951-2.2497-0.061-4.2396z" fill="#EB2D42"/>
<path d="m29.187 50.44-6.7352-1.8321c-3.2169 3.3137-9.7738 12.236-5.0771 26.516l6.3041 1.6577c-2.1461-5.9455-4.6549-17.929 5.5082-26.342z" fill="#272727"/>
<path d="m93.103 67.825-6.5679-1.7875c-3.4214 3.9511-8.6811 12.758-3.9954 26.212l6.3152 1.6603c-2.1065-5.4971-5.0662-17.417 4.2481-26.085z" fill="#272727"/>
<path d="m102.86 95.381-14.813-3.8341c-0.9059-2.9865-1.6645-6.929-1.2402-11.067 2.6123 0.2285 4.9959 0.3496 7.0848 0.3496 2.621 0 4.778-0.1891 6.3478-0.5952-2.1173 9.5048 2.621 15.147 2.621 15.147zm-21.04-5.4481-58.815-15.231c-0.7982-2.7341-1.4468-6.2076-1.2049-9.8777 16.995 6.7639 41.35 12.69 58.976 14.99-0.2463 2.97 0.0022 6.3457 1.0444 10.119zm-65.046-16.845-11.742-3.039c-4.5296-6.6909-3.8678-12.312-1.9987-16.322 2.1153 2.8165 6.7394 5.7428 12.898 8.5885-0.3892 3.1204-0.233 6.7133 0.8422 10.773z" fill="#B40A1C"/>
<path d="m23.002 74.703-6.2315-1.614c-1.0752-4.0593-1.2314-7.6522-0.8422-10.773 1.8273 0.8441 3.7952 1.6843 5.8688 2.5089-0.2419 3.6701 0.4067 7.1436 1.2049 9.8777z" fill="#201A1C"/>
<path d="m88.044 91.548-6.2271-1.6139c-1.0422-3.7732-1.2907-7.1489-1.0444-10.119 2.1152 0.2749 4.1337 0.4989 6.0313 0.6656-0.4243 4.1382 0.3343 8.0808 1.2402 11.067z" fill="#201A1C"/>
</svg>
