<?xml version="1.0" encoding="UTF-8"?>
<svg fill="none" viewBox="0 0 360 300" xmlns="http://www.w3.org/2000/svg">
<path d="m37.498 211c-2.0259-21.656-2.408-25.491-2.9307-28.642-0.4434-2.411-1.031-4.141-1.514-4.412-0.274-0.479-1.9935-1.07-4.4088-1.51-3.1507-0.526-6.9863-0.905-28.645-2.934 21.658-2.033 25.494-2.412 28.645-2.938 2.4153-0.44 4.1348-1.031 4.4088-1.51 0.483-0.278 1.0706-1.997 1.514-4.409 0.5227-3.15 0.9048-6.992 2.9307-28.645 2.0368 21.653 2.4118 25.495 2.9381 28.645 0.4434 2.412 1.0346 4.131 1.5104 4.409 0.2776 0.479 2.0008 1.07 4.4088 1.51 3.1543 0.526 6.9935 0.905 28.645 2.938-21.651 2.029-25.49 2.408-28.645 2.934-2.408 0.44-4.1312 1.031-4.4088 1.51-0.4758 0.271-1.067 2.001-1.5104 4.412-0.5263 3.151-0.9013 6.986-2.9381 28.642z" fill="#FFC533"/>
<path d="m295.99 64c-1.301-13.869-1.544-16.314-1.879-18.338-0.278-1.5436-0.654-2.6477-0.96-2.8211-0.18-0.3064-1.284-0.6822-2.828-0.9597-2.019-0.341-4.476-0.5839-18.327-1.8904 13.851-1.2892 16.308-1.5377 18.327-1.873 1.544-0.2891 2.648-0.6649 2.828-0.9655 0.306-0.1792 0.682-1.2776 0.96-2.8269 0.335-2.0176 0.578-4.4745 1.879-18.326 1.301 13.851 1.55 16.308 1.886 18.326 0.277 1.5493 0.659 2.6477 0.965 2.8269 0.18 0.3006 1.284 0.6764 2.822 0.9655 2.019 0.3353 4.477 0.5838 18.333 1.873-13.856 1.3065-16.314 1.5494-18.333 1.8904-1.538 0.2775-2.642 0.6533-2.822 0.9597-0.306 0.1734-0.688 1.2775-0.965 2.8211-0.336 2.0234-0.585 4.4688-1.886 18.338z" fill="#FFC533"/>
<path d="m336 244c-1.301-13.859-1.538-16.316-1.885-18.334-0.277-1.544-0.653-2.648-0.96-2.821-0.173-0.301-1.277-0.677-2.827-0.966-2.012-0.335-4.469-0.578-18.328-1.879 13.859-1.301 16.316-1.544 18.328-1.873 1.55-0.289 2.654-0.671 2.827-0.966 0.307-0.179 0.683-1.283 0.96-2.827 0.347-2.012 0.584-4.481 1.885-18.334 1.301 13.853 1.538 16.322 1.885 18.334 0.283 1.544 0.659 2.648 0.96 2.827 0.179 0.295 1.277 0.677 2.815 0.966 2.024 0.329 4.475 0.572 18.34 1.873-13.865 1.301-16.316 1.544-18.34 1.879-1.538 0.289-2.636 0.665-2.815 0.966-0.301 0.173-0.677 1.277-0.96 2.821-0.347 2.018-0.584 4.475-1.885 18.334z" fill="#FFC533"/>
<path d="m96 36c-0.9757-10.394-1.1535-12.237-1.4136-13.75-0.2082-1.1577-0.4901-1.986-0.7199-2.1161-0.1301-0.2255-0.9583-0.5073-2.1204-0.7241-1.5091-0.2515-3.352-0.4336-13.746-1.4093 10.394-0.9757 12.237-1.1578 13.746-1.405 1.1621-0.2168 1.9903-0.503 2.1204-0.7241 0.2298-0.1345 0.5117-0.9627 0.7199-2.1205 0.2601-1.509 0.4379-3.3606 1.4136-13.75 0.9757 10.39 1.1535 12.241 1.4136 13.75 0.2125 1.1578 0.4943 1.986 0.7198 2.1205 0.1345 0.2211 0.9583 0.5073 2.1116 0.7241 1.518 0.2472 3.357 0.4293 13.755 1.405-10.398 0.9757-12.237 1.1578-13.755 1.4093-1.1533 0.2168-1.9771 0.4986-2.1116 0.7241-0.2255 0.1301-0.5073 0.9584-0.7198 2.1161-0.2601 1.5134-0.4379 3.3564-1.4136 13.75z" fill="#FFC533"/>
<path d="m183 300c-0.976-10.394-1.153-12.237-1.414-13.75-0.208-1.158-0.49-1.986-0.72-2.117-0.13-0.225-0.958-0.507-2.12-0.724-1.509-0.251-3.352-0.433-13.746-1.409 10.394-0.976 12.237-1.158 13.746-1.405 1.162-0.217 1.99-0.503 2.12-0.724 0.23-0.135 0.512-0.963 0.72-2.121 0.261-1.509 0.438-3.36 1.414-13.75 0.976 10.39 1.153 12.241 1.414 13.75 0.212 1.158 0.494 1.986 0.719 2.121 0.135 0.221 0.959 0.507 2.112 0.724 1.518 0.247 3.357 0.429 13.755 1.405-10.398 0.976-12.237 1.158-13.755 1.409-1.153 0.217-1.977 0.499-2.112 0.724-0.225 0.131-0.507 0.959-0.719 2.117-0.261 1.513-0.438 3.356-1.414 13.75z" fill="#FFC533"/>
<g filter="url(#b)">
<circle cx="189" cy="132" r="80" fill="#21C063"/>
</g>
<mask id="a" x="109" y="52" width="160" height="160" mask-type="alpha" maskUnits="userSpaceOnUse">
<circle cx="189" cy="132" r="80" fill="#21C063"/>
</mask>
<g mask="url(#a)">
<path d="m270.05 128.03c0 48.231-39.346 87.331-87.882 87.331-77.688 0-1.634 22.246 52.41-30.648 53.601-52.461 35.472-168.58 35.472-56.683z" fill="#1B9D51" opacity=".7"/>
</g>
<path d="m232.54 98.464c1.952 1.9525 1.952 5.1185 0 7.0715l-55 55c-1.953 1.952-5.119 1.952-7.072 0l-25-25c-1.952-1.953-1.952-5.119 0-7.072 1.953-1.952 5.119-1.952 7.072 0l21.464 21.465 51.464-51.464c1.953-1.9527 5.119-1.9527 7.072 0z" clip-rule="evenodd" fill="#fff" fill-rule="evenodd"/>
<defs>
<filter id="b" x="69" y="20" width="240" height="240" color-interpolation-filters="sRGB" filterUnits="userSpaceOnUse">
<feFlood flood-opacity="0" result="BackgroundImageFix"/>
<feColorMatrix in="SourceAlpha" values="0 0 0 0 0 0 0 0 0 0 0 0 0 0 0 0 0 0 127 0"/>
<feOffset dy="8"/>
<feGaussianBlur stdDeviation="20"/>
<feColorMatrix values="0 0 0 0 0 0 0 0 0 0 0 0 0 0 0 0 0 0 0.25 0"/>
<feBlend in2="BackgroundImageFix" result="effect1_dropShadow"/>
<feBlend in="SourceGraphic" in2="effect1_dropShadow" result="shape"/>
</filter>
</defs>
</svg>