<svg width="1440" height="174" viewBox="0 0 1440 174" fill="none" preserveAspectRatio="none" xmlns="http://www.w3.org/2000/svg">
<path d="M1165 113C1273 113 1395 75 1442.5 55V122.5H-3L0.00012207 0C57.5001 65 212 113 304.5 113C397 113 682.5 66.5 805 75C927.5 83.5 1030 113 1165 113Z" fill="#F8F5E8"/>
<path d="M1442.5 39C1395 59 1273 136 1165 136C1030 136 933.5 64.5 813.5 67C693.5 69.5 403.5 138 304.5 138C205.5 138 57.5 108 0 43" stroke="#EECE9F" stroke-width="2"/>
<path d="M1442.5 66C1395 86 1273 173 1165 173C1030 173 963.5 83.5 843.5 86C723.5 88.5 343.5 175.5 241.5 169.5C139.5 163.5 69 145 0 90" stroke="#EFDEC6" stroke-width="2"/>
</svg>
