<svg width="1440" height="224" viewBox="0 0 1440 224" fill="none" preserveAspectRatio="none" xmlns="http://www.w3.org/2000/svg">
<path d="M503 58.1401C270.5 18.6399 116.667 79.6399 0.5 91.6399V0.5H1440V180.14C1410 198.307 1315.1 229.74 1155.5 222.14C956 212.64 735.5 97.6403 503 58.1401Z" fill="#F8F5E8"/>
<path d="M1441.5 109C1441.5 109 1346 177.5 1164 196C982 214.5 627 28.0001 409.5 9.99996C192 -8.00022 -1 113 -1 113" stroke="#EFDEC6" stroke-width="2"/>
<path d="M1441.5 38.9998C1441.5 38.9998 1346 127.5 1164 146C982 164.5 627 48.0002 409.5 30.0001C192 11.9999 -1 143 -1 143" stroke="#EECE9F" stroke-width="2"/>
</svg>
