<?xml version="1.0" encoding="UTF-8"?>
<svg fill="none" preserveAspectRatio="none" viewBox="0 0 758 196" xmlns="http://www.w3.org/2000/svg">
<g filter="url(#a)">
<path d="m554.79 26.391c-83.195-1.9053-148.5-9.7433-178.35-20.88-0.372-0.13876-0.744-0.16521-1.131-0.07758-32.302 7.3107-109.3 9.78-193.52 18.657-70.009 7.3785-159.95-1.4329-178.75-3.4437-1.5653-0.1675-2.6503 1.4714-1.9925 2.9016 19.417 42.215 16.566 68.809 23.285 128.81 0.0894 0.798 0.5359 1.449 1.3084 1.67 15.047 4.299 174.74 48.434 360.71 40.309 184.6-8.064 338.48-46.729 355-50.997 0.904-0.234 1.442-1.04 1.412-1.974-1.688-52.007 8.29-112.82 14.51-138.15 0.341-1.388-0.807-2.6773-2.22-2.4615-41.605 6.3536-118.52 27.511-200.26 25.639z" fill="#F8F5E8" fill-opacity=".4"/>
</g>
<defs>
<filter id="a" x="-9.1514" y="-9.2725" width="776.48" height="214.6" color-interpolation-filters="sRGB" filterUnits="userSpaceOnUse">
<feFlood flood-opacity="0" result="BackgroundImageFix"/>
<feGaussianBlur in="BackgroundImage" stdDeviation="5"/>
<feComposite in2="SourceAlpha" operator="in" result="effect1_backgroundBlur"/>
<feBlend in="SourceGraphic" in2="effect1_backgroundBlur" result="shape"/>
</filter>
</defs>
</svg>
