<svg width="1102" height="274" viewBox="0 0 1102 274" fill="none" preserveAspectRatio="none" xmlns="http://www.w3.org/2000/svg">
<path opacity="0.5" d="M811.5 43C687.963 40.5093 591.06 15.3556 546.993 0.664788C546.66 0.553595 546.338 0.533156 545.993 0.603249C498.353 10.2957 384.055 28.397 259 40C153.284 49.8087 25.1318 45.9249 2.49729 45.1293C0.945907 45.0747 -0.0502345 46.7516 0.681401 48.1207C30.5159 103.95 35.6333 138.586 45.8288 217.671C45.9312 218.466 46.3621 219.103 47.1342 219.315C64.7055 224.14 284.386 282.677 562 272C837.962 261.386 1049.41 210.127 1068.58 205.356C1069.5 205.128 1069.97 204.33 1069.94 203.386C1067.5 135.565 1091.36 56.1051 1101.32 22.9188L1101.62 21.929C1102.04 20.5465 1100.93 19.1953 1099.49 19.3771C1038.51 27.1157 933.472 45.4591 811.5 43Z" fill="#F8F5E8"/>
</svg>
