<svg width="1122" height="255" viewBox="0 0 1122 255" fill="none" preserveAspectRatio="none" xmlns="http://www.w3.org/2000/svg">
<g filter="url(#filter0_b)">
<path d="M821.5 34C697.965 31.5094 601.062 21.244 556.995 6.66465C556.661 6.55422 556.337 6.53351 555.993 6.60286C508.351 16.1895 394.054 19.3971 269 31C163.31 40.8063 26.9502 28.6823 2.75234 26.3682C1.15134 26.2151 0.0509166 27.9424 0.800736 29.3653C30.143 85.044 25.756 119.693 35.8256 198.64C35.9289 199.449 36.3779 200.098 37.1692 200.299C55.7803 205.008 294.075 263.689 572 253C848.403 242.369 1078.32 190.963 1098.55 186.334C1099.49 186.12 1099.97 185.312 1099.93 184.352C1097.33 115.86 1112.43 35.509 1121.65 2.9369C1122.04 1.54789 1120.93 0.194781 1119.5 0.382794C1058.21 8.43503 943.483 36.4593 821.5 34Z" fill="#F8F5E8" fill-opacity="0.4"/>
</g>
<defs>
<filter id="filter0_b" x="-9.43994" y="-9.63477" width="1141.17" height="273.933" filterUnits="userSpaceOnUse" color-interpolation-filters="sRGB">
<feFlood flood-opacity="0" result="BackgroundImageFix"/>
<feGaussianBlur in="BackgroundImage" stdDeviation="5"/>
<feComposite in2="SourceAlpha" operator="in" result="effect1_backgroundBlur"/>
<feBlend mode="normal" in="SourceGraphic" in2="effect1_backgroundBlur" result="shape"/>
</filter>
</defs>
</svg>
