<?xml version="1.0" encoding="UTF-8" standalone="no"?>
<svg
   xmlns:dc="http://purl.org/dc/elements/1.1/"
   xmlns:cc="http://creativecommons.org/ns#"
   xmlns:rdf="http://www.w3.org/1999/02/22-rdf-syntax-ns#"
   xmlns:svg="http://www.w3.org/2000/svg"
   xmlns="http://www.w3.org/2000/svg"
   xmlns:sodipodi="http://sodipodi.sourceforge.net/DTD/sodipodi-0.dtd"
   xmlns:inkscape="http://www.inkscape.org/namespaces/inkscape"
   width="45"
   height="45"
   viewBox="0 0 45 45"
   fill="none"
   version="1.1"
   id="svg4"
   sodipodi:docname="carousel-dot.svg"
   inkscape:version="0.92.4 (5da689c313, 2019-01-14)">
  <metadata
     id="metadata10">
    <rdf:RDF>
      <cc:Work
         rdf:about="">
        <dc:format>image/svg+xml</dc:format>
        <dc:type
           rdf:resource="http://purl.org/dc/dcmitype/StillImage" />
      </cc:Work>
    </rdf:RDF>
  </metadata>
  <defs
     id="defs8" />
  <sodipodi:namedview
     pagecolor="#ffffff"
     bordercolor="#666666"
     borderopacity="1"
     objecttolerance="10"
     gridtolerance="10"
     guidetolerance="10"
     inkscape:pageopacity="0"
     inkscape:pageshadow="2"
     inkscape:window-width="1920"
     inkscape:window-height="1017"
     id="namedview6"
     showgrid="false"
     inkscape:zoom="6.8855548"
     inkscape:cx="31.005659"
     inkscape:cy="35.52663"
     inkscape:window-x="-8"
     inkscape:window-y="-8"
     inkscape:window-maximized="1"
     inkscape:current-layer="svg4" />
  <path
     style="fill:#123c5a;fill-opacity:1;stroke:none;stroke-width:2.5;stroke-linecap:round;stroke-linejoin:round;stroke-miterlimit:4;stroke-dasharray:none;stroke-opacity:0.40784314;paint-order:markers fill stroke"
     d="M 1.7792969 1.7792969 L 2.0136719 3.1660156 L 2.0136719 3.1679688 L 2.015625 3.1738281 L 2.0195312 3.1992188 L 2.0351562 3.296875 C 2.0496063 3.384305 2.0724794 3.5154837 2.0996094 3.6835938 C 2.1538794 4.0198437 2.2309487 4.5092236 2.3242188 5.1210938 C 2.5107887 6.3450938 2.7590625 8.0565798 3.0078125 10.005859 C 3.5068425 13.916259 4 18.7391 4 22.5 C 4 26.2609 3.5068425 31.083641 3.0078125 34.994141 C 2.7590625 36.943341 2.5107887 38.654906 2.3242188 39.878906 C 2.2309486 40.490806 2.1538794 40.980206 2.0996094 41.316406 C 2.0724794 41.484506 2.0496063 41.613772 2.0351562 41.701172 L 2.0195312 41.800781 L 2.015625 41.826172 L 2.0136719 41.832031 L 2.0136719 41.833984 L 1.7792969 43.220703 L 3.1660156 42.986328 L 3.1679688 42.986328 L 3.1738281 42.984375 L 3.1992188 42.980469 L 3.2988281 42.964844 C 3.3862581 42.950444 3.5154737 42.927491 3.6835938 42.900391 C 4.0198338 42.846091 4.5092238 42.768981 5.1210938 42.675781 C 6.3450837 42.489181 8.0565998 42.240988 10.005859 41.992188 C 13.916259 41.493188 18.7391 41 22.5 41 C 26.2609 41 31.083741 41.493188 34.994141 41.992188 C 36.943441 42.240988 38.654906 42.489181 39.878906 42.675781 C 40.490806 42.768981 40.980106 42.846091 41.316406 42.900391 C 41.484506 42.927491 41.613772 42.950444 41.701172 42.964844 L 41.800781 42.980469 L 41.826172 42.984375 L 41.832031 42.986328 L 41.833984 42.986328 L 43.220703 43.220703 L 42.986328 41.833984 L 42.986328 41.832031 L 42.984375 41.826172 L 42.980469 41.800781 L 42.964844 41.701172 C 42.950344 41.613772 42.927491 41.484506 42.900391 41.316406 C 42.846091 40.980206 42.768981 40.490806 42.675781 39.878906 C 42.489181 38.654906 42.240887 36.943341 41.992188 34.994141 C 41.493087 31.083641 41 26.2609 41 22.5 C 41 18.7391 41.493088 13.916259 41.992188 10.005859 C 42.240887 8.0565798 42.489181 6.3450936 42.675781 5.1210938 C 42.768981 4.5092238 42.846091 4.0198437 42.900391 3.6835938 C 42.927491 3.5154838 42.950344 3.384305 42.964844 3.296875 L 42.980469 3.1992188 L 42.984375 3.1738281 L 42.986328 3.1679688 L 42.986328 3.1660156 L 43.220703 1.7792969 L 41.833984 2.0136719 L 41.832031 2.0136719 L 41.826172 2.015625 L 41.800781 2.0195312 L 41.701172 2.0351562 C 41.613772 2.0496064 41.484506 2.0705263 41.316406 2.0976562 C 40.980106 2.1519263 40.490806 2.2309488 39.878906 2.3242188 C 38.654906 2.5107887 36.943441 2.7590625 34.994141 3.0078125 C 31.083741 3.5068325 26.2609 4 22.5 4 C 18.7391 4 13.916259 3.5068325 10.005859 3.0078125 C 8.0565998 2.7590625 6.3450836 2.5107888 5.1210938 2.3242188 C 4.5092237 2.2309488 4.0198338 2.1519263 3.6835938 2.0976562 C 3.5154737 2.0705264 3.3862581 2.0496064 3.2988281 2.0351562 L 3.1992188 2.0195312 L 3.1738281 2.015625 L 3.1679688 2.0136719 L 3.1660156 2.0136719 L 1.7792969 1.7792969 z "
     id="path4528" />
</svg>
