<svg preserveAspectRatio="none" viewBox="0 0 1258 1022" fill="none" xmlns="http://www.w3.org/2000/svg">
<g filter="url(#filter0_d)">
<path d="M1143.44 81.8803C1166.33 285.849 1154.71 726.731 1154.64 948.311C1154.64 949.44 1153.67 950.289 1152.54 950.253C710.891 936.288 571.424 939.144 136.359 950.266C135.239 950.295 134.274 949.578 134.268 948.458C134.078 915.999 131.412 468.645 128.109 366.164C124.927 267.455 103.439 135.565 100.366 117.11C100.167 115.914 101.078 114.895 102.29 114.855L1141.39 80.1641C1142.43 80.1293 1143.32 80.8443 1143.44 81.8803Z" fill="#F5EAD4"/>
</g>
<g filter="url(#filter1_d)">
<path d="M1137.38 94.1163C1152.42 288.472 1143 720.492 1142.94 939.806C1142.94 940.942 1141.95 941.793 1140.82 941.748C700.47 924.139 569.763 928.006 123.243 941.752C122.085 941.788 121.087 941.035 121.13 939.878C122.35 906.633 138.749 456.349 135.45 353.933C132.273 255.31 110.829 123.566 107.726 104.924C107.524 103.71 108.467 102.684 109.698 102.671L1135.37 92.3342C1136.42 92.3237 1137.3 93.068 1137.38 94.1163Z" fill="#F5EAD4"/>
</g>
<g filter="url(#filter2_d)">
<path d="M1127.29 81.661C1133.41 289.949 1134.75 732.572 1128.3 931.925C1128.26 933.028 1127.3 933.827 1126.2 933.791C673.339 919.129 555.537 920.408 120.759 933.753C119.607 933.788 118.612 933.039 118.646 931.887C119.645 898.56 133.143 444.084 129.841 341.595C126.641 242.254 119.609 100.617 118.689 82.2416C118.633 81.1237 119.558 80.2204 120.677 80.185C590.563 65.34 665.474 65.3406 1125.31 79.7774C1126.37 79.8106 1127.26 80.6043 1127.29 81.661Z" fill="#F5EAD4"/>
</g>
<defs>
<filter id="filter0_d" x="0.338379" y="0.163086" width="1257.31" height="1070.1" filterUnits="userSpaceOnUse" color-interpolation-filters="sRGB">
<feFlood flood-opacity="0" result="BackgroundImageFix"/>
<!-- <feColorMatrix in="SourceAlpha" type="matrix" values="0 0 0 0 0 0 0 0 0 0 0 0 0 0 0 0 0 0 127 0"/> -->
<feOffset dy="20"/>
<feGaussianBlur stdDeviation="50"/>
<feColorMatrix type="matrix" values="0 0 0 0 0 0 0 0 0 0 0 0 0 0 0 0 0 0 0.25 0"/>
<feBlend mode="normal" in2="BackgroundImageFix" result="effect1_dropShadow"/>
<feBlend mode="normal" in="SourceGraphic" in2="effect1_dropShadow" result="shape"/>
</filter>
<filter id="filter1_d" x="95.6992" y="84.334" width="1062.21" height="873.419" filterUnits="userSpaceOnUse" color-interpolation-filters="sRGB">
<feFlood flood-opacity="0" result="BackgroundImageFix"/>
<feColorMatrix in="SourceAlpha" type="matrix" values="0 0 0 0 0 0 0 0 0 0 0 0 0 0 0 0 0 0 127 0"/>
<feOffset dy="4"/>
<feGaussianBlur stdDeviation="6"/>
<feColorMatrix type="matrix" values="0 0 0 0 0 0 0 0 0 0 0 0 0 0 0 0 0 0 0.25 0"/>
<feBlend mode="normal" in2="BackgroundImageFix" result="effect1_dropShadow"/>
<feBlend mode="normal" in="SourceGraphic" in2="effect1_dropShadow" result="shape"/>
</filter>
<filter id="filter2_d" x="110.646" y="63" width="1029.9" height="880.792" filterUnits="userSpaceOnUse" color-interpolation-filters="sRGB">
<feFlood flood-opacity="0" result="BackgroundImageFix"/>
<feColorMatrix in="SourceAlpha" type="matrix" values="0 0 0 0 0 0 0 0 0 0 0 0 0 0 0 0 0 0 127 0"/>
<feOffset dy="2"/>
<feGaussianBlur stdDeviation="4"/>
<feColorMatrix type="matrix" values="0 0 0 0 0 0 0 0 0 0 0 0 0 0 0 0 0 0 0.25 0"/>
<feBlend mode="normal" in2="BackgroundImageFix" result="effect1_dropShadow"/>
<feBlend mode="normal" in="SourceGraphic" in2="effect1_dropShadow" result="shape"/>
</filter>
</defs>
</svg>
