<?xml version="1.0" encoding="UTF-8"?>
<svg fill="none" preserveAspectRatio="none" viewBox="0 0 1025 790" xmlns="http://www.w3.org/2000/svg">
<g filter="url(#c)">
<path d="m880.12 109.5c5.624 189.43 6.43 297.52 1.601 465.36-0.813 28.279-25.275 50.155-53.502 48.25-375.52-25.336-384.46-24.741-747.77-0.605l-10.567 0.702c-28.041 1.863-52.355-19.685-53.459-47.766-1.9353-49.225-4.8482-125.59-6.9527-190.92-3.4278-106.41 9.0001-264.57 9.0001-264.57 442.72-42.976 411.65-30.729 861.65-10.451z" fill="#F5EAD4"/>
</g>
<path d="m445-4.8828e-4 435 109.5-861.5 10.5 426.5-120z" fill="#F5EAD4"/>
<path d="m19 120.5s262.53 10.8 430.75 8.75c168.22-2.051 429.75-19.25 429.75-19.25" stroke="#B7AC98" stroke-dasharray="2 5" stroke-linecap="round" stroke-linejoin="round"/>
<path d="m19 120.5 860.5 505" opacity=".4" stroke="#B7AC98" stroke-linecap="round" stroke-linejoin="round" stroke-width="2"/>
<path d="m880.51 110.86c0.474-0.283 0.629-0.897 0.345-1.371-0.283-0.475-0.897-0.629-1.371-0.346l1.026 1.717zm-1.026-1.717-842.5 503.5 1.026 1.717 842.5-503.5-1.026-1.717z" fill="#B7AC98" opacity=".4"/>
<g filter="url(#b)">
<path d="m227.88 152.8c0.066-1.029 0.776-1.819 1.808-1.848 20.247-0.562 217.81-5.952 346.81-5.952 128.35 0 324.57 5.336 346.49 5.943 1.141 0.032 1.945 0.933 1.861 2.072-1.246 16.943-9.85 137.36-9.85 232.98 0 96.454 8.753 261.01 9.881 281.82 0.064 1.183-0.852 2.139-2.036 2.084-22.621-1.044-218.27-9.899-346.34-9.899-128.65 0-325.49 8.935-346.64 9.913-1.091 0.051-1.912-0.765-1.978-1.856-1.127-18.536-9.881-165.6-9.881-262.06 0-96.525 8.765-235.83 9.883-253.2z" fill="#F5EAD4"/>
</g>
<g filter="url(#a)">
<path d="m233.89 143.82c0.063-1.032 0.776-1.839 1.81-1.868 20.289-0.563 217.82-5.952 346.8-5.952 128.48 0 324.96 5.346 346.55 5.945 1.121 0.031 1.905 0.911 1.851 2.031-0.842 17.4-6.904 146.08-6.904 242.02 0 96.17 14.792 251.34 16.78 271.76 0.118 1.213-0.808 2.196-2.026 2.143-23.621-1.042-228.16-9.9-356.25-9.9-128.67 0-325.55 8.938-346.65 9.913-1.089 0.051-1.905-0.744-1.975-1.831-1.152-17.808-9.875-155.79-9.875-252.08 0-96.675 8.793-244.18 9.888-262.18z" fill="#F5EAD4"/>
</g>
<g opacity=".7">
<path d="m885.37 245.1c0-2.29 1.847-4.147 4.132-4.169v-1.277c-2.285-0.022-4.132-1.879-4.132-4.17s1.847-4.148 4.132-4.169v-1.278c-2.285-0.021-4.132-1.879-4.132-4.17 0-2.29 1.847-4.148 4.132-4.169v-1.277c-2.285-0.022-4.132-1.879-4.132-4.17 0-2.29 1.847-4.148 4.132-4.169v-1.278c-2.285-0.021-4.132-1.879-4.132-4.169 0-2.291 1.847-4.149 4.132-4.169v-1.278c-2.285-0.022-4.132-1.88-4.132-4.17 0-2.291 1.847-4.148 4.132-4.169v-1.278c-2.285-0.021-4.132-1.879-4.132-4.169 0-2.291 1.847-4.148 4.132-4.17v-1.278c-2.285-0.021-4.132-1.878-4.132-4.169 0-2.29 1.847-4.148 4.132-4.169v-0.981h-3.299c-0.127 2.19-1.938 3.927-4.159 3.927s-4.031-1.737-4.159-3.927h-1.334c-0.128 2.19-1.938 3.927-4.16 3.927-2.221 0-4.031-1.737-4.158-3.927h-1.335c-0.127 2.19-1.938 3.927-4.159 3.927s-4.031-1.737-4.159-3.927h-1.334c-0.128 2.19-1.938 3.927-4.159 3.927s-4.032-1.737-4.159-3.927h-1.334c-0.128 2.19-1.938 3.927-4.159 3.927s-4.032-1.737-4.159-3.927h-1.335c-0.127 2.19-1.937 3.927-4.159 3.927-2.221 0-4.032-1.737-4.159-3.927h-1.334c-0.127 2.19-1.938 3.927-4.159 3.927s-4.032-1.737-4.159-3.927h-1.335c-0.127 2.19-1.937 3.927-4.159 3.927-2.22 0-4.031-1.737-4.158-3.927h-1.335c-0.127 2.19-1.938 3.927-4.159 3.927s-4.031-1.737-4.159-3.927h-1.334c-0.127 2.19-1.938 3.927-4.159 3.927s-4.032-1.737-4.159-3.927h-1.334c-0.128 2.19-1.938 3.927-4.159 3.927-2.222 0-4.032-1.737-4.159-3.927h-2.733v0.991c2.192 0.124 3.934 1.936 3.934 4.159 0 2.224-1.742 4.036-3.934 4.16v1.297c2.192 0.124 3.934 1.936 3.934 4.16 0 2.223-1.742 4.035-3.934 4.159v1.298c2.192 0.124 3.934 1.936 3.934 4.159 0 2.224-1.742 4.035-3.934 4.159v1.298c2.192 0.124 3.934 1.936 3.934 4.16 0 2.223-1.742 4.035-3.934 4.159v1.298c2.192 0.124 3.934 1.936 3.934 4.159 0 2.224-1.742 4.036-3.934 4.159v1.298c2.192 0.124 3.934 1.937 3.934 4.159 0 2.224-1.742 4.036-3.934 4.16v1.298c2.192 0.124 3.934 1.936 3.934 4.159s-1.742 4.036-3.934 4.159v1.298c2.192 0.124 3.934 1.936 3.934 4.159 0 2.224-1.742 4.037-3.934 4.16v2.116h2.803c-0.054-0.267-0.082-0.545-0.082-0.828 0-2.303 1.867-4.172 4.171-4.172 2.303 0 4.171 1.869 4.171 4.172 0 0.283-0.029 0.561-0.083 0.828h1.475c-0.053-0.267-0.083-0.545-0.083-0.828 0-2.303 1.868-4.172 4.172-4.172s4.172 1.869 4.172 4.172c0 0.283-0.03 0.561-0.083 0.828h1.475c-0.054-0.267-0.083-0.545-0.083-0.828 0-2.303 1.868-4.172 4.171-4.172 2.304 0 4.171 1.869 4.171 4.172 0 0.283-0.029 0.561-0.082 0.828h1.475c-0.054-0.267-0.083-0.545-0.083-0.828 0-2.303 1.868-4.172 4.171-4.172 2.304 0 4.172 1.869 4.172 4.172 0 0.283-0.029 0.561-0.083 0.828h1.476c-0.055-0.267-0.083-0.545-0.083-0.828 0-2.303 1.867-4.172 4.171-4.172s4.171 1.869 4.171 4.172c0 0.283-0.029 0.561-0.083 0.828h1.475c-0.054-0.267-0.082-0.545-0.082-0.828 0-2.303 1.867-4.172 4.171-4.172s4.172 1.869 4.172 4.172c0 0.283-0.029 0.561-0.083 0.828h1.475c-0.054-0.267-0.083-0.545-0.083-0.828 0-2.303 1.868-4.172 4.172-4.172 2.303 0 4.171 1.869 4.171 4.172 0 0.283-0.029 0.561-0.083 0.828h1.476c-0.054-0.267-0.083-0.545-0.083-0.828 0-2.303 1.867-4.172 4.171-4.172s4.171 1.869 4.171 4.172c0 0.283-0.029 0.561-0.082 0.828h1.475c-0.054-0.267-0.083-0.545-0.083-0.828 0-2.303 1.867-4.172 4.171-4.172s4.171 1.869 4.171 4.172c0 0.283-0.028 0.561-0.082 0.828h1.475c-0.054-0.267-0.083-0.545-0.083-0.828 0-2.303 1.868-4.172 4.171-4.172 2.304 0 4.172 1.869 4.172 4.172 0 0.283-0.029 0.561-0.083 0.828h1.475c-0.053-0.267-0.082-0.545-0.082-0.828 0-2.303 1.867-4.172 4.171-4.172s4.171 1.869 4.171 4.172c0 0.283-0.029 0.561-0.083 0.828h3.37v-2.106c-2.285-0.021-4.132-1.879-4.132-4.17z" fill="#F3E2C3"/>
<path d="m877.32 241.04h-86.499v-58.072h86.499v58.072z" fill="#EECE9F"/>
<path d="m899.48 235.37c0.338-1.135-0.063-2.272 0.126-3.417 0.048-0.291-0.305-0.086-0.392-0.01-0.218 0.188-0.41 0.457-0.457 0.745-0.175 1.063 0.229 2.158-0.082 3.201-0.069 0.231 0.06 0.33 0.263 0.199 0.243-0.157 0.459-0.441 0.542-0.718z" fill="#fff"/>
<path d="m863.22 216.12c0.655-0.321 1.325-0.613 2.006-0.882 0.072-0.764 0.505-1.327 1.024-1.863-1.15 0.383-2.269 0.829-3.351 1.344 0.235 0.42 0.366 0.882 0.321 1.401z" fill="#F3E2C3"/>
<path d="m862.15 216.67c-0.114-0.035-0.184-0.105-0.165-0.221 0.067-0.43-0.022-0.816-0.192-1.17-0.696 0.368-1.375 0.765-2.037 1.186 7e-3 0.541 0.026 1.081 0.071 1.619 0.749-0.507 1.524-0.979 2.323-1.414z" fill="#F3E2C3"/>
<path d="m849.36 251.57c6e-3 -6e-3 0.016-0.011 0.023-0.017-0.821-2.092-1.395-4.305-1.691-6.605-0.104 0.061-0.225 0.109-0.252 0.118-0.187 0.067-0.6 0.209-0.79 0.075-0.151-0.107-0.279-0.229-0.391-0.36 0.324 2.777 1.03 5.439 2.074 7.927 0.278-0.407 0.652-0.766 1.027-1.138z" fill="#F3E2C3"/>
<path d="m849.69 252.32c-0.35 0.426-0.602 0.899-0.581 1.52 2e-3 0.087-0.064 0.164-0.164 0.229 0.651 1.352 1.403 2.647 2.245 3.876 0.129-0.519 0.427-0.945 0.791-1.344-0.88-1.352-1.651-2.781-2.291-4.281z" fill="#F3E2C3"/>
<path d="m847 242.75c-0.071 0.71 0.123 1.374 0.651 1.837-0.123-1.067-0.194-2.149-0.194-3.249 0-4.238 0.949-8.256 2.638-11.862 2e-3 -0.048 2e-3 -0.094 7e-3 -0.143 7e-3 -0.073 0.063-0.135 0.145-0.188 1.5-3.097 3.556-5.873 6.032-8.21-0.075-0.557-0.077-1.129-0.077-1.687-1e-3 -0.436 1.227-0.651 1.228-0.329 0 0.321 2e-3 0.647 0.016 0.972 0.412-0.348 0.831-0.688 1.263-1.013-0.048-0.046-0.082-0.106-0.09-0.186-0.048-0.468-0.075-0.937-0.091-1.405-1.694 1.2-3.258 2.572-4.662 4.094 0.013 0.022 0.022 0.045 0.022 0.073 6e-3 0.408 0.095 0.79 0.381 1.092 0.318 0.336-0.85 0.786-1.142 0.478-0.131-0.139-0.225-0.296-0.298-0.461-0.381 0.46-0.745 0.935-1.098 1.418 0.117 0.057 0.232 0.118 0.343 0.188 0.534 0.335-0.536 0.871-0.943 0.655-1.282 1.888-2.347 3.933-3.167 6.098 0.079-0.014 0.158-0.022 0.233-0.021 0.172 2e-3 0.51 0.106 0.327 0.339-0.567 0.72-0.491 1.614-0.486 2.48 2e-3 0.369-0.788 0.588-1.101 0.475-0.3 1.197-0.522 2.424-0.669 3.674 0.35 0.08 0.695 0.175 1.034 0.301 0.255 0.095 0.343 0.325 0.144 0.536-0.197 0.21-0.591 0.337-0.869 0.234-0.133-0.05-0.27-0.085-0.405-0.126-0.071 0.833-0.116 1.673-0.116 2.524 0 0.492 0.014 0.981 0.038 1.467 0.367-0.137 0.917-0.157 0.906-0.055z" fill="#F3E2C3"/>
<path d="m889.92 265.43c0.087 0.179-4e-3 0.402-0.172 0.532-0.279 0.218-0.351 0.452-0.222 0.806 0.108 0.295-0.262 0.548-0.495 0.61-0.276 0.074-0.625 0.015-0.734-0.282-0.094-0.258-0.107-0.507-0.056-0.741-0.969 0.494-1.967 0.94-2.997 1.321 0.188 0.449 0.504 0.829 0.931 1.138 2.589-1.007 5.003-2.366 7.179-4.024-0.511-0.19-1.033-0.355-1.496-0.638-0.628 0.45-1.273 0.879-1.938 1.278z" fill="#F3E2C3"/>
<path d="m903.98 242.51c-0.236-0.296 0.614-1.206 0.765-1.016 0.073 0.092 0.156 0.19 0.247 0.288 2e-3 -0.148 0.011-0.294 0.011-0.443 0-1.13-0.07-2.243-0.195-3.34-0.337-0.164-0.632-0.407-0.874-0.702-0.185-0.226 0.086-0.645 0.246-0.794 0.11-0.104 0.251-0.181 0.386-0.186-0.638-3.7-1.961-7.169-3.845-10.263-0.219 0.257-0.512 0.427-0.63 0.215-0.35-0.629-0.955-0.909-1.608-1.061 1.646 2.335 2.95 4.927 3.827 7.709 0.086-0.157 0.203-0.301 0.333-0.413 0.088-0.076 0.44-0.281 0.392 9e-3 -0.167 1.014 0.126 2.021-0.039 3.026 0.395 1.872 0.606 3.812 0.606 5.8 0 1.103-0.071 2.189-0.195 3.259 0.265 0.686 0.489 1.39 0.933 1.987 0.251 0.339-0.593 1.248-0.766 1.016-0.202-0.273-0.358-0.563-0.498-0.86-0.701 3.58-2.086 6.917-4.011 9.872 0.145-0.033 0.289-0.075 0.429-0.133 0.601-0.246 1.307 0.312 0.521 0.635-0.502 0.206-1.016 0.315-1.531 0.355-0.966 1.371-2.048 2.654-3.238 3.829 0.248 0.065 0.494 0.137 0.736 0.228 0.255 0.094 0.343 0.324 0.144 0.536-0.197 0.209-0.591 0.336-0.869 0.233-0.261-0.098-0.527-0.179-0.796-0.248-0.544 0.498-1.111 0.969-1.693 1.423 0.447 0.286 0.954 0.455 1.454 0.638 6.101-5.017 10.151-12.435 10.708-20.793-0.352-0.165-0.67-0.454-0.95-0.806z" fill="#F3E2C3"/>
<path d="m892.62 219.09c1.134 0.874 2.199 1.833 3.188 2.866 0.043-0.673-0.084-1.36-0.068-2.04-0.763-0.72-1.561-1.401-2.397-2.038-0.24 0.381-0.436 0.793-0.679 1.168-0.011 0.017-0.031 0.028-0.044 0.044z" fill="#F3E2C3"/>
<path d="m896.5 222.1c-0.039 0.131-0.11 0.263-0.197 0.383 0.539 0.594 1.049 1.213 1.536 1.851 0.152-0.195 0.344-0.347 0.502-0.327 0.405 0.052 0.807 0.126 1.181 0.253-0.874-1.224-1.838-2.379-2.884-3.454 0.012 0.432-9e-3 0.863-0.138 1.294z" fill="#F3E2C3"/>
<path d="m887.42 215.92c1.551 0.728 3.022 1.596 4.403 2.584 0.233-0.406 0.466-0.809 0.765-1.174-1.394-0.993-2.875-1.872-4.434-2.614-0.225 0.367-0.416 0.76-0.649 1.119-0.022 0.033-0.056 0.057-0.085 0.085z" fill="#F3E2C3"/>
<path d="m866.47 214.78c1.224-0.418 2.484-0.755 3.777-1.003 0.157-0.119 0.322-0.232 0.503-0.328 0.236-0.126 0.652-0.153 0.833 0.084 5e-3 7e-3 6e-3 0.014 0.011 0.021 1.286-0.182 2.597-0.282 3.932-0.282 2.586 0 5.087 0.359 7.466 1.016 0.317-0.199 1.029-0.331 1.082-0.122 0.043 0.168 0.092 0.332 0.15 0.492 0.782 0.256 1.552 0.541 2.302 0.862 0.243-0.407 0.464-0.821 0.74-1.202-1.517-0.662-3.101-1.198-4.738-1.599-0.175 0.129-0.411 0.195-0.607 0.162-0.113-0.019-0.208-0.036-0.294-0.027-0.013 1e-3 -0.021 2e-3 -0.031 3e-3 -0.01 4e-3 -0.017 6e-3 -0.025 8e-3 -9e-3 4e-3 -0.013 7e-3 -0.019 9e-3 -0.039 0.034-0.051 0.041-0.025 0.013-0.044 0.047-0.094 0.097-0.129 0.152-0.171 0.269-0.478 0.415-0.8 0.376-0.227-0.027-0.544-0.252-0.375-0.518 0.144-0.227 0.32-0.408 0.515-0.554-0.888-0.16-1.789-0.279-2.702-0.357-0.135 0.051-0.281 0.075-0.409 0.053-0.113-0.018-0.208-0.036-0.293-0.026-0.013 1e-3 -0.022 2e-3 -0.031 3e-3 -0.01 3e-3 -0.018 5e-3 -0.025 7e-3 -9e-3 4e-3 -0.014 7e-3 -0.019 0.01-0.04 0.033-0.052 0.041-0.025 0.013-0.045 0.047-0.094 0.096-0.13 0.151-0.171 0.269-0.477 0.416-0.799 0.376-0.228-0.027-0.545-0.252-0.375-0.518 0.038-0.061 0.082-0.114 0.125-0.17-0.176-3e-3 -0.351-0.013-0.529-0.013-2.691 0-5.297 0.369-7.776 1.049-0.565 0.557-1.139 1.092-1.28 1.859z" fill="#F3E2C3"/>
<path d="m862.5 266.19c-0.689-0.363-1.36-0.754-2.014-1.17 0.01 0.063 0.022 0.127 0.049 0.2 0.108 0.296-0.263 0.549-0.495 0.611-0.276 0.074-0.625 0.015-0.734-0.282-0.163-0.446-0.079-0.864 0.147-1.22-0.446-0.313-0.882-0.638-1.308-0.976-0.039 0.04-0.074 0.082-0.112 0.121-0.187 0.189-0.574 0.259-0.824 0.285-0.115 0.012-0.471 0.018-0.283-0.172 0.222-0.225 0.434-0.459 0.647-0.692-0.356-0.297-0.703-0.602-1.043-0.916-0.014 0.236-0.018 0.473-0.018 0.71 0 0.311-0.39 0.506-0.733 0.503 1.81 1.638 3.825 3.05 6 4.202 2e-3 -5e-3 2e-3 -9e-3 6e-3 -0.013 0.255-0.393 0.469-0.802 0.715-1.191z" fill="#F3E2C3"/>
<path d="m855.54 261.03c-1.107-1.124-2.118-2.342-3.025-3.637-0.11 0.256-0.178 0.535-0.167 0.856 6e-3 0.196-0.329 0.346-0.65 0.408 0.334 0.46 0.679 0.912 1.039 1.351 0.198-0.108 0.476-0.153 0.659-0.168 0.141-0.011 0.462 0 0.291 0.206-0.152 0.182-0.301 0.368-0.438 0.559 0.637 0.736 1.309 1.44 2.015 2.109 2e-3 -0.474 0.018-0.944 0.105-1.412 0.02-0.107 0.083-0.198 0.171-0.272z" fill="#F3E2C3"/>
<path d="m870.38 269.86c0.295-0.204 0.501-0.491 0.597-0.818-2.679-0.438-5.234-1.253-7.602-2.395-0.146 0.263-0.285 0.529-0.446 0.777-0.107 0.163-0.311 0.258-0.516 0.304 0.61 0.304 1.23 0.59 1.863 0.853-5e-3 -0.124-4e-3 -0.248 9e-3 -0.374 0.037-0.364 1.243-0.481 1.228-0.329-0.045 0.449 0.019 0.879 0.203 1.254 0.885 0.313 1.787 0.586 2.708 0.814 0.33-0.084 0.691-0.081 0.692 0.051 0 0.034 3e-3 0.074 4e-3 0.111 0.382 0.085 0.768 0.161 1.156 0.231h-3e-3c-0.274-0.13-0.047-0.372 0.107-0.479z" fill="#F3E2C3"/>
<path d="m884.06 268.08c-2.691 0.86-5.555 1.329-8.529 1.329-1.17 0-2.322-0.081-3.456-0.221-0.196 0.405-0.523 0.747-0.929 1.027-0.148 0.104-0.375 0.168-0.585 0.167 1.618 0.276 3.276 0.428 4.97 0.428 1.473 0 2.919-0.112 4.334-0.322-0.206-0.27-0.345-0.579-0.361-0.956-0.014-0.32 1.221-0.513 1.228-0.329 0.018 0.428 0.199 0.766 0.456 1.056 1.308-0.255 2.584-0.6 3.824-1.023-0.438-0.316-0.755-0.704-0.952-1.156z" fill="#F3E2C3"/>
<path d="m894.24 225.14c1.039 1.197 1.963 2.493 2.759 3.874-0.033-0.635-0.132-1.276-0.027-1.905 0.027-0.164 0.103-0.32 0.202-0.46-0.884-1.297-1.883-2.509-2.979-3.625-0.056 0.707 0.06 1.413 0.045 2.116z" fill="#F3E2C3"/>
<path d="m897.69 229.78c-0.027 0.092-0.072 0.182-0.124 0.27 0.606 1.178 1.121 2.409 1.534 3.686 0.037 6e-3 0.071 0.02 0.096 0.052 0.255 0.318 0.561 0.564 0.971 0.626 0.447 0.067-0.152 1.087-0.572 1.079 0.407 1.677 0.642 3.421 0.687 5.211 6e-3 -0.054 0.02-0.107 0.038-0.151 0.436-1.055 0.253-2.149-0.06-3.21-0.122-0.411 0.75-1.281 0.869-0.881 0.385 1.306 0.537 2.61 4e-3 3.899-0.105 0.256-0.325 0.56-0.612 0.628-0.151 0.036-0.217-0.043-0.236-0.149 4e-3 0.166 0.013 0.33 0.013 0.496 0 0.295-0.013 0.588-0.023 0.881 0.154-0.141 0.294-0.226 0.324-0.178 0.265 0.42 0.618 0.744 1.044 0.916 0.033-0.536 0.055-1.075 0.055-1.619 0-2.787-0.442-5.472-1.253-7.994-0.825-0.477-1.433-1.249-2.013-1.99-0.269-0.344 0.567-1.27 0.765-1.016 0.054 0.069 0.108 0.138 0.163 0.207-0.466-1.023-0.992-2.012-1.58-2.961 0.04 0.735 0.128 1.468-0.09 2.198z" fill="#F3E2C3"/>
<path d="m849.47 239.01c-8e-3 0.083-0.013 0.168-0.02 0.252 0.015-0.082 0.019-0.167 0.02-0.252z" fill="#F3E2C3"/>
<path d="m900.14 248.8c-0.248-0.315-0.503-0.623-0.721-0.948-0.309 1.132-0.693 2.232-1.153 3.294 0.253 0.27-0.127 0.885-0.474 1.032-0.249 0.508-0.517 1.004-0.799 1.491 0.36 0.168 0.67 0.449 0.896 0.918 0.247 0.511-0.967 0.87-1.228 0.329-0.062-0.128-0.141-0.231-0.233-0.314-1.026 1.611-2.229 3.096-3.588 4.425 0.073 0.204 0.161 0.401 0.281 0.587 0.101 0.156-1.03 0.636-1.228 0.329-5e-3 -8e-3 -9e-3 -0.016-0.014-0.024-0.72 0.634-1.476 1.228-2.266 1.776 0.031 1e-3 0.064-4e-3 0.094 0 0.69 0.077 1.384 0.059 2.072 0.132 0.997-0.793 1.934-1.655 2.805-2.582-0.195-0.461-0.309-0.937-0.257-1.474 0.035-0.37 1.244-0.496 1.228-0.329-0.023 0.24-0.01 0.466 0.025 0.685 0.253-0.301 0.498-0.609 0.737-0.922-0.317-0.099-0.631-0.218-0.936-0.366-0.572-0.275 0.531-0.868 0.96-0.662 0.179 0.087 0.368 0.163 0.56 0.232 1.663-2.353 2.947-4.989 3.766-7.823-0.192 0.213-0.424 0.344-0.527 0.214z" fill="#F3E2C3"/>
<path d="m871.48 265.77c-0.944-0.155-1.869-0.367-2.774-0.626-0.269 0.437-0.588 0.835-0.973 1.178 1.144 0.358 2.322 0.633 3.527 0.831-0.127-0.304-0.194-0.634-0.202-0.971-4e-3 -0.2 0.213-0.337 0.422-0.412z" fill="#F3E2C3"/>
<path d="m893.33 224.15c-4e-3 -0.24 4e-3 -0.48 0.043-0.718 0.047-0.287 0.239-0.557 0.457-0.745 3e-3 -2e-3 9e-3 -7e-3 0.013-0.01-1.019-1.001-2.121-1.916-3.292-2.741-0.298 0.36-0.515 0.779-0.745 1.188 1.268 0.898 2.448 1.911 3.524 3.026z" fill="#F3E2C3"/>
<path d="m856.19 256.79c-0.362-0.452-0.709-0.915-1.038-1.391-0.096-0.013-0.16-0.044-0.108-0.113 4e-3 -6e-3 0.01-0.012 0.014-0.018-0.354-0.52-0.686-1.056-1.001-1.603-2e-3 0.094-3e-3 0.187-3e-3 0.281 0 0.556-1.245 0.741-1.244 0.093 0-0.499 0.014-0.993 0.105-1.484 0.032-0.167 0.17-0.298 0.343-0.382-1.375-2.815-2.228-5.927-2.442-9.211-0.335 0.251-0.532 0.682-0.599 1.082-0.026 0.153-0.365 0.283-0.678 0.333 0.12 1.037 0.302 2.056 0.541 3.054 0.347-0.132 0.817-0.185 0.86-0.017 0.095 0.375 0.213 0.733 0.424 1.06 0.073 0.112-0.493 0.391-0.889 0.424 0.736 2.436 1.819 4.722 3.191 6.802 0.08 0.026 0.134 0.072 0.094 0.146 0.473 0.708 0.979 1.391 1.517 2.047 0.197-0.432 0.511-0.803 0.913-1.103z" fill="#F3E2C3"/>
<path d="m869.14 216.19c-6e-3 -0.076 0-0.149-1e-3 -0.223-5.572 1.404-10.437 4.6-13.948 8.937-2e-3 0.012-2e-3 0.023-8e-3 0.037-0.445 1.128-1.038 2.138-2.02 2.833-0.541 0.888-1.025 1.816-1.459 2.77 0.119 0.162 0.263 0.309 0.442 0.436 0.178 0.126-0.31 0.319-0.368 0.34-0.108 0.039-0.29 0.097-0.463 0.118-0.178 0.434-0.343 0.874-0.498 1.32 0.209-0.322 1.289-0.461 1.191-0.126-0.219 0.745-0.507 1.473-0.526 2.258-0.01 0.423-1.235 0.618-1.228 0.33 0.018-0.756 0.243-1.446 0.459-2.157-0.606 1.811-1.024 3.707-1.22 5.669 0.168-0.38 1.169-0.561 1.203-0.196 0.085 0.903-0.402 1.581-1.119 2.078-0.056 0.039-0.125 0.073-0.199 0.101-4e-3 0.209-0.015 0.418-0.015 0.628 0 0.675 0.034 1.341 0.083 2.002 0.314-0.37 0.753-0.636 1.231-0.807 0.032-0.011 0.075-0.024 0.115-0.038-0.017-0.383-0.029-0.768-0.029-1.157 0-5.862 2.052-11.251 5.469-15.498-0.064 4e-3 -0.126 7e-3 -0.186 1e-3 -0.241-0.021-0.281-0.179-0.085-0.319 0.887-0.629 1.243-1.742 2.035-2.471 0.215-0.198 0.532-0.292 0.819-0.306 0.065-4e-3 0.219 0.014 0.305 0.065 0.952-0.845 1.969-1.615 3.043-2.306-0.104-0.191-0.224-0.376-0.385-0.549-0.174-0.188 0.954-0.632 1.16-0.412 0.065 0.071 0.115 0.145 0.171 0.218 0.122-0.04 0.254-0.059 0.377-0.054 0.713-0.399 1.447-0.764 2.202-1.092 0.197-0.566 0.58-1.046 0.978-1.525 0.169-0.202 0.58-0.275 0.823-0.295 0.141-0.011 0.462 0 0.291 0.206-0.282 0.339-0.56 0.687-0.752 1.073 2.653-0.974 5.518-1.505 8.504-1.505 1.739 0 3.436 0.182 5.075 0.524-0.042-0.075-0.077-0.153-0.096-0.234-0.11-0.448-0.291-0.872-0.476-1.295-0.695-0.121-1.398-0.216-2.111-0.281-0.324 0.15-0.807 0.263-0.93 0.072-0.031-0.049-0.057-0.1-0.085-0.15-0.456-0.023-0.915-0.036-1.377-0.036-0.475 0-0.946 0.014-1.415 0.039-0.027 0.271-0.022 0.549 0.013 0.825 0.062 0.5-1.172 0.786-1.229 0.329-0.044-0.357-0.047-0.713-4e-3 -1.061-0.857 0.086-1.7 0.215-2.53 0.382-1e-3 0.057-3e-3 0.115 2e-3 0.173 0.047 0.584-1.184 0.877-1.229 0.329z" fill="#F3E2C3"/>
<path d="m886.99 218.26c-0.388 0.152-0.736 0.376-1.081 0.605 1.066 0.494 2.089 1.062 3.066 1.696 0.205-0.35 0.423-0.691 0.712-0.993 0.043-0.045 0.098-0.081 0.155-0.113-0.827-0.543-1.686-1.04-2.575-1.488-0.072 0.139-0.168 0.25-0.277 0.293z" fill="#F3E2C3"/>
<path d="m884.81 218.38c0.525-0.228 0.987-0.583 1.475-0.89-1.776-0.804-3.655-1.42-5.615-1.812 0.218 0.52 0.449 1.033 0.614 1.572 1.212 0.29 2.39 0.668 3.526 1.13z" fill="#F3E2C3"/>
<path d="m888.86 262.2c-1.066 0.683-2.185 1.287-3.353 1.803-1e-3 0.078-2e-3 0.156-2e-3 0.234-1e-3 0.499-1.002 0.697-1.206 0.264-1.74 0.661-3.574 1.128-5.474 1.382v1.412c2.527-0.319 4.943-0.997 7.195-1.986-0.12-0.011-0.222-0.052-0.101-0.174 0.51-0.515 0.973-1.074 1.483-1.59 0.187-0.189 0.573-0.259 0.824-0.285 0.114-0.012 0.471-0.019 0.282 0.172-0.4 0.405-0.777 0.832-1.165 1.249 1.317-0.67 2.572-1.442 3.75-2.316-0.718-0.105-1.451-0.067-2.173-0.148-0.025-3e-3 -0.04-0.012-0.06-0.017z" fill="#F3E2C3"/>
<path d="m860.08 260.68c-0.051-4e-3 -0.104-5e-3 -0.156-0.011-0.191-0.022-0.251-0.116-0.145-0.226-1.082-0.893-2.081-1.88-2.997-2.941-0.36 0.361-0.549 0.866-0.506 1.395 4e-3 0.046-3e-3 0.09-0.014 0.132 0.891 0.969 1.855 1.869 2.881 2.695 0.028-4e-3 0.061-9e-3 0.087-0.012 0.114-0.012 0.47-0.019 0.282 0.172-0.024 0.024-0.046 0.05-0.07 0.075 2.219 1.734 4.722 3.119 7.43 4.071 0.355-0.34 0.63-0.748 0.861-1.187-2.806-0.933-5.39-2.353-7.653-4.163z" fill="#F3E2C3"/>
<path d="m877.58 266.02c-0.679 0.056-1.363 0.092-2.057 0.092-0.452 0-0.901-0.014-1.347-0.038-0.05 0.074-0.1 0.147-0.156 0.218-0.323 0.407-1.473 0.28-1.03-0.308-0.251-0.026-0.5-0.063-0.749-0.096 0.033 0.05 0.054 0.113 0.056 0.19 0.01 0.434 0.176 0.854 0.474 1.17 0.039 0.041 0.054 0.084 0.061 0.127 0.885 0.091 1.783 0.138 2.691 0.138 0.694 0 1.378-0.036 2.058-0.089 0-2e-3 -1e-3 -3e-3 -1e-3 -5e-3v-1.399z" fill="#F3E2C3"/>
<path d="m881.94 255.29c-1.003 0.463-2.062 0.821-3.166 1.06 3e-3 0.475 0.013 0.95 0.04 1.423 0.958-0.191 1.886-0.467 2.777-0.814-7e-3 -0.022-0.014-0.044-0.016-0.07-0.049-0.602 0.088-1.14 0.365-1.599z" fill="#F3E2C3"/>
<path d="m884.71 229.03c1.034 0.773 1.967 1.675 2.777 2.68 0.234-0.439 0.471-0.877 0.742-1.294-0.593-0.689-1.239-1.329-1.936-1.914-0.027 0.012-0.054 0.021-0.082 0.026-0.524 0.09-1.01 0.306-1.501 0.502z" fill="#F3E2C3"/>
<path d="m875.53 256.7c-0.389 0-0.774-0.019-1.156-0.048 0.013 0.249 0.032 0.497 0.057 0.746 0.033 0.32-0.316 0.554-0.651 0.611 0.576 0.06 1.159 0.092 1.75 0.092 0.696 0 1.379-0.048 2.053-0.13-0.027-0.469-0.041-0.937-0.046-1.406-0.657 0.086-1.326 0.135-2.007 0.135z" fill="#F3E2C3"/>
<path d="m862.94 232.56c2.336-3.339 5.962-5.711 10.151-6.382 0.203-0.369 0.416-0.733 0.666-1.074 0.155-0.213 0.473-0.296 0.719-0.339 0.034-6e-3 0.628-0.059 0.493 0.126-0.266 0.364-0.492 0.753-0.707 1.148 0.419-0.035 0.841-0.057 1.268-0.057 0.254 0 0.505 8e-3 0.755 0.02 0.086-0.307 0.218-0.602 0.434-0.877 0.181-0.231 0.53-0.333 0.813-0.33 0.173 1e-3 0.51 0.106 0.327 0.338-0.235 0.299-0.356 0.628-0.421 0.972 0.755 0.094 1.492 0.242 2.21 0.442 0.052-0.466 0.182-0.913 0.47-1.322-1.46-0.416-2.997-0.643-4.588-0.643-2.92 0-5.666 0.752-8.059 2.07 0.156 0.118 0.307 0.239 0.44 0.367 0.161 0.155-0.94 0.619-1.16 0.407-0.073-0.07-0.152-0.137-0.233-0.204-2.04 1.307-3.779 3.042-5.09 5.079 0.487 0.17 1.002 0.272 1.512 0.259z" fill="#F3E2C3"/>
<path d="m860.66 245.21c-0.322-1.237-0.495-2.534-0.495-3.871 0-0.746 0.057-1.481 0.16-2.2-0.098 0.086-0.201 0.169-0.312 0.246-0.222 0.153-0.618 0.235-0.87 0.115-0.273-0.13-0.046-0.372 0.108-0.478 0.457-0.317 0.704-0.832 0.652-1.386-0.028-0.305 0.487-0.523 0.859-0.526 0.383-1.334 0.938-2.595 1.646-3.754-0.499-0.014-0.996-0.092-1.483-0.235-0.262 0.466-0.503 0.945-0.722 1.436 0.119 0.334 0.283 0.657 0.468 0.983 0.081 0.142-0.637 0.461-1.019 0.429-0.573 1.688-0.888 3.493-0.888 5.37 0 1.348 0.164 2.657 0.466 3.912 0.483-0.039 0.974-0.082 1.43-0.041z" fill="#F3E2C3"/>
<path d="m883.6 228.28c0.021-7e-3 0.042-0.013 0.063-0.015 0.591-0.046 1.13-0.282 1.676-0.501-1.293-0.939-2.725-1.697-4.26-2.238-0.201 0.435-0.246 0.911-0.25 1.396 0.975 0.36 1.901 0.817 2.771 1.358z" fill="#F3E2C3"/>
<path d="m861.09 246.57c-0.325-0.535-0.979-0.559-1.633-0.492 0.302 1.02 0.698 2 1.179 2.929 0.495-6e-3 1.026-0.074 1.541-0.096-0.425-0.745-0.791-1.526-1.087-2.341z" fill="#F3E2C3"/>
<path d="m863.15 251.75c0.334-2e-3 0.684-0.034 1.036-0.062-0.522-0.571-1.001-1.182-1.433-1.827-0.474-0.17-1.101-0.073-1.653 0 0.449 0.756 0.953 1.476 1.512 2.151 0.105-0.146 0.29-0.262 0.538-0.262z" fill="#F3E2C3"/>
<path d="m873.2 257.73c-0.042-0.406-0.066-0.811-0.083-1.218-0.962-0.152-1.895-0.394-2.79-0.717-1.321 0.329-2.689 0.104-3.935-0.497-0.572-0.276 0.531-0.868 0.96-0.662 0.405 0.196 0.849 0.351 1.302 0.437-1.333-0.67-2.556-1.529-3.634-2.541-0.588-0.081-1.31 0.097-1.845 0.126 2.6 2.836 6.161 4.773 10.162 5.298-0.075-0.048-0.127-0.123-0.137-0.226z" fill="#F3E2C3"/>
<path d="m887.99 232.38c0.505 0.701 0.954 1.444 1.337 2.227 0.081-0.188 0.18-0.371 0.316-0.544 0.181-0.23 0.528-0.332 0.81-0.33-0.458-0.896-0.993-1.747-1.599-2.541-0.169 0.315-0.335 0.632-0.513 0.942-0.066 0.117-0.204 0.193-0.351 0.246z" fill="#F3E2C3"/>
<path d="m890.3 236.56c0 0.083-0.041 0.159-0.106 0.224 0.45 1.442 0.692 2.974 0.692 4.562 0 2.104-0.426 4.11-1.195 5.938 0.018-8e-3 0.035-0.022 0.054-0.028 0.273-0.088 0.215 0.255 0.15 0.398-0.317 0.709-0.677 1.39-0.831 2.157-0.055 0.278-0.301 0.577-0.541 0.718-0.223 0.132-0.344 0.012-0.297-0.224 0.038-0.189 0.09-0.373 0.147-0.555-0.534 0.813-1.142 1.572-1.816 2.268 0.087 0.307 0.197 0.601 0.372 0.873 0.102 0.156-1.03 0.635-1.228 0.329-0.054-0.084-0.101-0.169-0.144-0.257-0.509 0.44-1.045 0.847-1.608 1.218 0.025 0.02 0.056 0.032 0.076 0.058 0.192 0.251-0.086 0.511-0.293 0.62-0.59 0.314-0.937 0.923-0.929 1.584 4.505-2.181 7.888-6.32 9.045-11.305-0.166 0.137-0.349 0.195-0.474 0.078-0.67-0.633-0.963-1.503-0.311-2.281 0.129-0.154 0.435-0.468 0.664-0.295 0.218 0.164 0.029 0.566-0.1 0.72-1e-3 2e-3 -1e-3 2e-3 -2e-3 3e-3 1e-3 6e-3 2e-3 8e-3 4e-3 0.017 0.015 0.105 0.044 0.199 0.096 0.294 0.09 0.165 0.203 0.303 0.33 0.435 0.139-0.84 0.217-1.701 0.227-2.578-0.159-0.024-0.265-0.098-0.243-0.238 0.155-0.982-0.478-1.739-1.126-2.394-0.291-0.293 0.779-0.724 1.11-0.492-0.261-1.47-0.712-2.875-1.331-4.186-0.457 0.694-0.397 1.529-0.392 2.339z" fill="#F3E2C3"/>
<path d="m828.06 194.83c0.19-0.815 0.759-1.464 1.556-1.887 0.234-0.125 0.651-0.152 0.832 0.085 0.192 0.251-0.086 0.51-0.294 0.621-0.333 0.177-0.586 0.449-0.746 0.77 0.96-0.307 1.911-0.648 2.855-1.019 0.171-0.216 0.502-0.315 0.763-0.303 0.78-0.323 1.555-0.667 2.322-1.033-0.059 6e-3 -0.118 0.011-0.178 4e-3 -0.228-0.028-0.545-0.252-0.376-0.519 0.191-0.299 0.432-0.524 0.706-0.682-0.202-0.156-0.482-0.198-0.728-0.08-3.034 1.452-6.187 2.549-9.39 3.291-0.056 0.193-0.09 0.399-0.083 0.627 0.012 0.374-1.22 0.581-1.228 0.329-9e-3 -0.25 0.027-0.477 0.086-0.69-1.141 0.231-2.286 0.416-3.434 0.556 0.034 0.221 0.041 0.45 2e-3 0.694-0.061 0.392-1.295 0.615-1.224 0.167 0.04-0.257 0.024-0.497-0.029-0.726-0.39 0.037-0.779 0.069-1.169 0.094 0 0.468 4e-3 0.936 0.02 1.402 3.267-0.215 6.535-0.781 9.737-1.701z" fill="#F3E2C3"/>
<path d="m766.87 188.77c-0.07-0.14-1e-3 -0.312 0.321-0.444 1.069-0.439 2.189-0.468 3.267-0.209 0.393-0.067 0.79-0.134 1.191-0.201 0.033-0.498-0.073-0.945-0.253-1.377-1.962 0.327-3.815 0.65-5.6 1.018 0.022 0.474 0.032 0.949 0.034 1.423 0.344-0.071 0.69-0.142 1.04-0.21z" fill="#F3E2C3"/>
<path d="m756.6 191.44c1e-3 0.117 2e-3 0.233 3e-3 0.349 0.972-0.421 1.943-0.794 2.923-1.127 0.076-0.373 0.875-0.591 1.141-0.372 0.51-0.158 1.023-0.305 1.54-0.446-0.072-0.284-0.098-0.584-0.047-0.909 0.062-0.391 1.296-0.615 1.225-0.167-0.042 0.269-0.021 0.52 0.039 0.758 0.383-0.094 0.77-0.186 1.158-0.274 0-0.477-7e-3 -0.953-0.027-1.429-3.164 0.705-6.138 1.593-9.147 2.961-0.352 0.16-0.508 0.575-0.348 0.927 0.067 0.148 0.181 0.259 0.315 0.328-1e-3 -0.09-3e-3 -0.18-3e-3 -0.269-3e-3 -0.461 1.226-0.689 1.228-0.33z" fill="#F3E2C3"/>
<path d="m784.78 189.02c0.815 0.188 1.627 0.394 2.435 0.612 0.137-3e-3 0.295 0.01 0.307 0.085 2.132 0.588 4.238 1.265 6.325 1.978-0.431-0.639-1.259-1.041-1.805-1.566-0.084-0.082 0.178-0.248 0.478-0.357-0.718-0.236-1.437-0.468-2.16-0.69-0.28 0.149-0.563 0.295-0.844 0.443-0.241 0.128-0.596 0.234-0.865 0.135-0.27-0.1-0.012-0.334 0.127-0.407 0.262-0.138 0.524-0.272 0.784-0.41-0.649-0.193-1.301-0.379-1.956-0.557-0.147 7e-3 -0.3-0.014-0.388-0.107-0.777-0.206-1.558-0.397-2.343-0.576 5e-3 0.484 1e-3 0.962-0.095 1.417z" fill="#F3E2C3"/>
<path d="m772.87 187.67c-6e-3 0.066-0.05 0.124-0.118 0.174 2.404-0.139 4.77-0.027 7.1 0.274 0.142-0.452 0.266-0.906 0.318-1.377-0.983-0.13-1.975-0.223-2.973-0.286-0.085 0.038-0.17 0.074-0.258 0.105-0.198 0.071-0.589 0.202-0.791 0.072-0.097-0.064-7e-3 -0.15 0.109-0.221-1.172-0.045-2.355-0.036-3.549 0.032 0.134 0.385 0.205 0.785 0.162 1.227z" fill="#F3E2C3"/>
<path d="m812.03 195.27c0.96 0.463 2.129 0.721 3.149 0.302 0.601-0.246 1.306 0.312 0.52 0.635-1.528 0.627-3.162 0.432-4.628-0.275-0.572-0.275 0.53-0.868 0.959-0.662zm-16.67-3.075c0 6e-3 -3e-3 0.012-4e-3 0.018 0.851 0.297 1.698 0.596 2.542 0.895 0.798 0.283 1.597 0.565 2.38 0.84 0.44 0.164 0.885 0.313 1.33 0.463 0.085 4e-3 0.158 0.021 0.178 0.062 1.552 0.514 3.133 0.932 4.735 1.263 2e-3 -2e-3 2e-3 -4e-3 3e-3 -6e-3 0.474-0.745 1.253-1.057 2.122-0.911 0.253 0.043 0.511 0.233 0.375 0.519-0.13 0.273-0.512 0.425-0.8 0.376-0.113-0.019-0.208-0.035-0.293-0.026-0.013 0-0.022 1e-3 -0.031 2e-3 -0.014 5e-3 -0.015 5e-3 -0.024 7e-3 -9e-3 5e-3 -0.014 8e-3 -0.02 0.01-0.04 0.035-0.051 0.041-0.025 0.013-0.045 0.048-0.094 0.097-0.129 0.152-0.02 0.032-0.049 0.056-0.073 0.085 2.54 0.454 5.127 0.681 7.728 0.681 0.574 0 1.149-0.015 1.724-0.037-0.015-0.466-0.018-0.933-0.019-1.4-4.124 0.161-8.233-0.26-12.185-1.275-0.093 0.101-0.173 0.222-0.225 0.378-0.104 0.315-1.293 0.46-1.211 0.214 0.116-0.354 0.359-0.609 0.657-0.803-1.128-0.313-2.242-0.673-3.339-1.084-0.797-0.279-1.594-0.562-2.391-0.844-1.517-0.537-3.043-1.077-4.581-1.598 0.721 0.534 1.535 1.058 1.576 2.006z" fill="#F3E2C3"/>
<path d="m783.63 188.76c0.034-0.382 0.021-0.776 0.018-1.165 0-0.09 0.047-0.17 0.122-0.24-0.807-0.167-1.619-0.311-2.435-0.439-0.091 0.46-0.227 0.909-0.365 1.364 0.891 0.138 1.778 0.295 2.66 0.48z" fill="#F3E2C3"/>
<path d="m834.83 196.68c0.185 7e-3 0.369 0.019 0.553 0.032-0.168-0.085-0.367-0.101-0.553-0.032z" fill="#F3E2C3"/>
<path d="m800.96 199.53c0.015 0.193-0.109 0.353-0.283 0.462 1.227 0.447 2.475 0.833 3.738 1.161 0.01-0.043 0.039-0.089 0.116-0.14 0.233-0.153 0.587-0.264 0.869-0.232 0.888 0.099 1.783 0.036 2.663 0.219 0.284 0.059-0.049 0.291-0.145 0.338-0.253 0.123-0.579 0.21-0.86 0.152-0.617-0.129-1.25-0.118-1.879-0.147 2.638 0.633 5.337 1.02 8.064 1.149-0.203-0.302-0.298-0.652-0.303-1.025-2e-3 -0.156 0.131-0.285 0.309-0.376-0.449-0.022-0.897-0.052-1.344-0.089-0.017 0.049-0.046 0.098-0.091 0.146-0.197 0.209-0.591 0.336-0.869 0.232-0.525-0.194-1.067-0.325-1.617-0.421-0.179-0.032-0.389-0.127-0.399-0.301-1.419-0.216-2.824-0.505-4.211-0.867-0.075 0.446-1.172 0.675-1.225 0.245-0.025-0.2-0.037-0.4-0.036-0.598-0.79-0.234-1.573-0.492-2.348-0.774-0.117 0.266-0.174 0.561-0.149 0.866z" fill="#F3E2C3"/>
<path d="m774.78 193.7c1.13 0 2.252 0.053 3.365 0.151 0.228-0.202 0.477-0.386 0.757-0.545 0.241-0.136 0.601-0.241 0.869-0.118 0.264 0.122 0.054 0.375-0.111 0.468-0.16 0.091-0.304 0.196-0.441 0.306 0.916 0.105 1.828 0.233 2.734 0.392 0.325-0.383 0.553-0.838 0.803-1.276-2.837-0.53-5.731-0.826-8.694-0.768 0.058 0.026 0.114 0.058 0.16 0.107 0.337 0.356 0.501 0.809 0.558 1.283z" fill="#F3E2C3"/>
<path d="m785.36 195.06c-9e-3 -0.036-0.012-0.068-0.025-0.107-0.109-0.295 0.261-0.548 0.494-0.61 0.275-0.074 0.625-0.015 0.734 0.281 0.095 0.262 0.106 0.514 0.053 0.75 2.565 0.672 5.093 1.489 7.593 2.348 0.106 5e-3 0.178 0.027 0.193 0.066 0.516 0.178 1.03 0.357 1.544 0.538 0.123-0.33 0.313-0.624 0.544-0.899-0.245-7e-3 -0.454-0.11-0.454-0.353v-0.201c-1.66-0.581-3.333-1.15-5.021-1.681-4e-3 0.044-3e-3 0.086-9e-3 0.131-0.041 0.313-1.26 0.548-1.214 0.204 0.033-0.25 0.029-0.483 0.01-0.709-1.978-0.595-3.978-1.128-6.006-1.548-0.254 0.44-0.501 0.877-0.835 1.267 0.803 0.158 1.603 0.331 2.399 0.523z" fill="#F3E2C3"/>
<path d="m829.85 200.19c-0.04-0.027-0.045-0.07 0.025-0.141 0.51-0.515 0.973-1.074 1.483-1.589 0.187-0.189 0.573-0.26 0.824-0.286 0.115-0.012 0.471-0.018 0.282 0.172-0.444 0.449-0.856 0.927-1.291 1.384 1.421-0.518 2.825-1.102 4.205-1.762 0.26-0.124 0.408-0.388 0.397-0.659-0.151 0.031-0.305 0.04-0.448 0.01-0.523-0.109-1.056-0.117-1.589-0.135-1.403 0.629-2.831 1.182-4.274 1.663-2e-3 0.101-4e-3 0.202-4e-3 0.305 0 0.555-1.244 0.74-1.244 0.092v-4e-3c-1.793 0.539-3.609 0.965-5.435 1.276v1.42c2.381-0.393 4.746-0.977 7.069-1.746z" fill="#F3E2C3"/>
<path d="m797.9 199.02c0.613 0.218 1.222 0.432 1.829 0.646-6e-3 -0.505 0.115-0.964 0.347-1.363-0.57-0.201-1.139-0.401-1.709-0.603-0.265-0.094-0.531-0.188-0.796-0.282-0.296 0.372-0.506 0.785-0.531 1.299 0.287 0.101 0.574 0.202 0.86 0.303z" fill="#F3E2C3"/>
<path d="m755.81 196.97c-0.195 0.299-0.363 0.609-0.541 0.912 0.199 0.154 0.472 0.198 0.717 0.087 2.888-1.312 5.762-2.173 8.828-2.859-0.358-0.274-0.744-0.526-1.044-0.815-0.162-0.155 0.94-0.62 1.16-0.408 0.343 0.33 0.798 0.616 1.203 0.94 1.76-0.361 3.589-0.68 5.527-1.002 0.089-8e-3 0.177-0.011 0.266-0.017 0.247-0.187 0.7-0.202 0.92-0.06 0.219-0.012 0.439-0.029 0.658-0.036-0.072-0.289-0.21-0.56-0.416-0.779-0.211-0.223 0.119-0.51 0.3-0.594 0.024-0.011 0.054-0.017 0.08-0.027-0.65 0.023-1.303 0.06-1.96 0.12-0.018 2e-3 -0.035 3e-3 -0.052 6e-3 -4.812 0.802-8.975 1.573-13.066 3.046-0.145 0.248-0.296 0.493-0.466 0.726-0.156 0.212-0.473 0.296-0.719 0.339-0.035 6e-3 -0.629 0.059-0.494-0.126 0.095-0.129 0.18-0.264 0.265-0.398-0.461 0.185-0.922 0.381-1.385 0.588 0.178 0.04 0.349 0.156 0.219 0.357z" fill="#F3E2C3"/>
<path d="m814.54 202.23c0.092 0.097 0.058 0.203-0.041 0.298 0.283 5e-3 0.566 0.018 0.849 0.018 0.515 0 1.031-0.012 1.547-0.029 0.213-0.173 0.504-0.26 0.773-0.273 0.109-6e-3 0.475 0.046 0.323 0.223 0.322-0.019 0.644-0.042 0.965-0.068-0.04-0.257-0.02-0.535 0.052-0.808 0.111-0.422 1.348-0.606 1.228-0.152-0.076 0.288-0.093 0.588-9e-3 0.841 0.407-0.045 0.813-0.094 1.219-0.149-5e-3 -0.478-0.034-0.947-0.144-1.394-1.563 0.213-3.13 0.345-4.695 0.39 0.032 0.087 0.064 0.174 0.103 0.259 0.145 0.318-1.052 0.714-1.229 0.328-0.085-0.185-0.149-0.377-0.203-0.571-0.374-1e-3 -0.748-6e-3 -1.122-0.017 1e-3 4e-3 4e-3 8e-3 4e-3 0.013 6e-3 0.407 0.095 0.789 0.38 1.091z" fill="#F3E2C3"/>
<path d="m776.1 198.23c-0.787-0.026-1.578-0.031-2.375-8e-3 -0.013 0.013-0.023 0.026-0.036 0.038-0.215 0.198-0.532 0.292-0.819 0.306-0.116 6e-3 -0.52-0.05-0.303-0.249 0.014-0.014 0.026-0.029 0.04-0.042-0.346 0.02-0.692 0.037-1.041 0.068 0.056 0.276 0.042 0.578-0.036 0.876-0.111 0.421-1.348 0.606-1.229 0.152 0.075-0.283 0.093-0.576 0.015-0.826-0.412 0.071-0.82 0.141-1.224 0.212 7e-3 0.479 0.04 0.95 0.16 1.395 0.787-0.139 1.588-0.276 2.41-0.413 0.752-0.067 1.499-0.101 2.244-0.119-0.026-0.066-0.049-0.131-0.078-0.196-0.146-0.318 1.052-0.714 1.228-0.329 0.077 0.167 0.135 0.338 0.186 0.512 0.379 4e-3 0.757 0.019 1.134 0.036-0.01-0.396-0.1-0.768-0.379-1.063-0.109-0.115-0.042-0.243 0.103-0.35z" fill="#F3E2C3"/>
<path d="m815.76 207.06c-1.12 0.01-2.237-0.021-3.349-0.097-0.23 0.204-0.483 0.391-0.767 0.552-0.241 0.137-0.602 0.242-0.869 0.119-0.264-0.122-0.054-0.375 0.11-0.468 0.154-0.087 0.293-0.187 0.426-0.293-0.925-0.087-1.844-0.207-2.759-0.355-0.317 0.392-0.545 0.851-0.799 1.288 2.499 0.439 5.042 0.659 7.599 0.659 0.346 0 0.693-6e-3 1.039-0.015-0.022-0.016-0.048-0.024-0.068-0.045-0.351-0.371-0.514-0.848-0.563-1.345z" fill="#F3E2C3"/>
<path d="m805.2 205.83c3e-3 9e-3 3e-3 0.016 6e-3 0.025 0.108 0.296-0.262 0.549-0.495 0.611-0.275 0.074-0.625 0.015-0.733-0.282-0.089-0.241-0.102-0.473-0.063-0.693-1.068-0.303-2.124-0.647-3.164-1.038-0.797-0.278-1.594-0.561-2.391-0.843-0.532-0.188-1.065-0.377-1.599-0.565-0.314 0.065-0.632 0.059-0.629-0.04 3e-3 -0.06 0.012-0.116 0.018-0.174-0.498-0.175-0.997-0.348-1.499-0.52-0.114 0.402-0.331 0.749-0.6 1.071 0.245 6e-3 0.453 0.11 0.453 0.352v7e-3c1.135 0.392 2.265 0.791 3.389 1.19 0.55 0.194 1.095 0.386 1.64 0.578 0-8e-3 0-0.015 1e-3 -0.023 0.041-0.313 1.26-0.548 1.214-0.204-0.03 0.227-0.029 0.441-0.015 0.649 1.948 0.704 3.945 1.257 5.976 1.666 0.254-0.436 0.498-0.87 0.818-1.262-0.781-0.146-1.556-0.314-2.327-0.505z" fill="#F3E2C3"/>
<path d="m834.73 203.84c0.254-0.392 0.467-0.799 0.712-1.186-0.196-0.122-0.448-0.146-0.671-0.039-2.887 1.381-5.881 2.439-8.923 3.177 0.322 0.24 0.656 0.467 0.922 0.723 0.161 0.155-0.94 0.62-1.16 0.407-0.305-0.292-0.698-0.551-1.066-0.833-1.94 0.411-3.897 0.693-5.854 0.843-0.239 0.28-0.877 0.294-1.066 0.068-0.203 0.011-0.406 0.018-0.61 0.026 0.065 0.317 0.214 0.613 0.438 0.851 0.178 0.188-0.03 0.421-0.208 0.54 5.045-0.212 10.108-1.27 14.946-3.161 0.133-0.224 0.271-0.445 0.426-0.656 0.155-0.212 0.473-0.296 0.718-0.339 0.035-6e-3 0.63-0.059 0.494 0.126-0.064 0.087-0.12 0.18-0.179 0.27 0.386-0.166 0.771-0.338 1.155-0.515-0.106-0.061-0.166-0.16-0.074-0.302z" fill="#F3E2C3"/>
<path d="m789.59 201.28c-0.018-0.218 0.143-0.395 0.353-0.504-1.27-0.384-2.548-0.74-3.838-1.06-0.021 0.026-0.044 0.052-0.086 0.08-0.233 0.153-0.588 0.264-0.869 0.233-0.888-0.1-1.784-0.036-2.664-0.219-0.283-0.059 0.05-0.291 0.146-0.338 0.252-0.123 0.579-0.21 0.86-0.152 0.499 0.104 1.009 0.117 1.518 0.133-2.53-0.581-5.103-0.998-7.727-1.166 0.218 0.309 0.321 0.67 0.326 1.056 2e-3 0.144-0.111 0.265-0.269 0.355 0.437 0.029 0.873 0.061 1.307 0.105 0.017-0.047 0.045-0.095 0.089-0.142 0.197-0.208 0.591-0.335 0.868-0.232 0.525 0.195 1.067 0.326 1.618 0.422 0.197 0.034 0.433 0.145 0.397 0.354 1.415 0.239 2.818 0.542 4.209 0.888-0.044-0.493 1.173-0.773 1.229-0.319 0.026 0.216 0.039 0.431 0.035 0.644 0.794 0.214 1.584 0.441 2.371 0.679 0.103-0.253 0.15-0.531 0.127-0.817z" fill="#F3E2C3"/>
<path d="m760.71 200.64c0.023 0.027 0.02 0.066-0.038 0.125-0.51 0.515-0.974 1.073-1.483 1.589-0.188 0.189-0.573 0.26-0.825 0.286-0.114 0.011-0.47 0.018-0.282-0.173 0.455-0.459 0.877-0.95 1.324-1.417-1.338 0.443-2.663 0.953-3.995 1.558-0.334 0.152-0.488 0.533-0.367 0.872 0.06 1e-3 0.119 3e-3 0.176 0.015 0.45 0.093 0.908 0.112 1.367 0.127 1.489-0.645 2.979-1.177 4.496-1.63 2e-3 -0.11 3e-3 -0.22 3e-3 -0.33 0-0.555 1.245-0.74 1.245-0.092 0 0.022-1e-3 0.044-1e-3 0.066 1.75-0.473 3.549-0.859 5.436-1.213v-1.425c-2.469 0.458-4.79 0.966-7.056 1.642z" fill="#F3E2C3"/>
<path d="m793.52 201.92c-0.896-0.302-1.797-0.593-2.702-0.876 0.025 0.509-0.084 0.971-0.299 1.375 0.86 0.27 1.717 0.548 2.569 0.835 0.268-0.376 0.447-0.797 0.43-1.325 0-3e-3 2e-3 -5e-3 2e-3 -9e-3z" fill="#F3E2C3"/>
<path d="m805.75 211.88c-0.874-0.204-1.741-0.438-2.599-0.7-0.038-6e-3 -0.073-0.014-0.096-0.028-0.774-0.238-1.541-0.496-2.299-0.78-0.797-0.279-1.594-0.562-2.391-0.844-0.6-0.213-1.202-0.426-1.805-0.638 0.364 0.783 1.33 1.217 1.941 1.804 0.065 0.062-0.073 0.173-0.274 0.271 0.688 0.244 1.376 0.487 2.052 0.723 0 0 1e-3 1e-3 2e-3 1e-3 0.248-0.131 0.498-0.26 0.747-0.392 0.241-0.127 0.596-0.233 0.865-0.134s0.012 0.334-0.127 0.407c-0.244 0.129-0.489 0.254-0.732 0.382 0.599 0.211 1.201 0.409 1.809 0.592 0.193-0.022 0.434-0.01 0.519 0.154 0.764 0.22 1.532 0.425 2.308 0.601-6e-3 -0.483-6e-3 -0.962 0.08-1.419z" fill="#F3E2C3"/>
<path d="m806.91 212.13c-0.026 0.359-0.014 0.726-0.011 1.089 0 0.113-0.074 0.212-0.185 0.291 0.825 0.166 1.654 0.312 2.489 0.43 0.087-0.46 0.222-0.909 0.36-1.362-0.889-0.122-1.775-0.269-2.653-0.448z" fill="#F3E2C3"/>
<path d="m778.52 205.55c-0.96-0.463-2.128-0.72-3.149-0.302-0.601 0.247-1.305-0.312-0.52-0.634 1.528-0.628 3.163-0.433 4.628 0.275 0.573 0.275-0.53 0.868-0.959 0.661zm16.671 3.075c-3e-3 -0.063 0.044-0.121 0.12-0.172-2.084-0.724-4.188-1.422-6.32-2.042-0.109 0-0.215-0.014-0.232-0.07-1.575-0.453-3.165-0.857-4.773-1.196-0.476 0.703-1.235 0.999-2.082 0.857-0.252-0.043-0.511-0.233-0.375-0.519 0.13-0.273 0.512-0.425 0.8-0.377 0.113 0.02 0.208 0.036 0.294 0.027 0.012-1e-3 0.021-2e-3 0.03-3e-3 0.014-4e-3 0.015-4e-3 0.024-7e-3l0.02-0.01c0.04-0.033 0.051-0.04 0.026-0.013 0.044-0.047 0.094-0.096 0.128-0.151 6e-3 -9e-3 0.015-0.015 0.021-0.024-3.064-0.58-6.191-0.895-9.403-0.779 0.016 0.466 0.021 0.933 0.022 1.4 4.151-0.152 8.185 0.445 12.131 1.413 0.12-0.11 0.217-0.254 0.279-0.442 0.104-0.315 1.293-0.46 1.212-0.214-0.126 0.382-0.4 0.648-0.732 0.846 3.361 0.867 6.66 1.985 9.912 3.131-0.565-0.43-1.071-0.912-1.102-1.655z" fill="#F3E2C3"/>
<path d="m835.16 208.47c0 0.193 3e-3 0.385 5e-3 0.577 2e-3 0.461-1.227 0.689-1.228 0.329-1e-3 -0.152-3e-3 -0.305-4e-3 -0.457-0.962 0.436-1.936 0.837-2.919 1.204-0.034 0.389-0.859 0.625-1.139 0.408-0.508 0.175-1.018 0.341-1.53 0.496 0.06 0.268 0.079 0.551 0.031 0.855-0.061 0.391-1.295 0.615-1.225 0.167 0.038-0.237 0.027-0.46-0.017-0.673-0.392 0.108-0.785 0.21-1.18 0.307 2e-3 0.477 0.01 0.955 0.032 1.432 3.201-0.764 6.351-1.868 9.385-3.319 0.348-0.167 0.496-0.585 0.329-0.934-0.106-0.222-0.314-0.362-0.54-0.392z" fill="#F3E2C3"/>
<path d="m823.7 212.18c-0.016 0.107-0.116 0.22-0.343 0.313-1.049 0.43-2.148 0.466-3.209 0.222-0.415 0.046-0.831 0.087-1.246 0.12-0.046 0.503 0.053 0.953 0.227 1.387 1.883-0.157 3.763-0.436 5.63-0.828-0.025-0.473-0.036-0.947-0.04-1.422-0.339 0.073-0.679 0.142-1.019 0.208z" fill="#F3E2C3"/>
<path d="m817.67 213.15c9e-3 -0.101 0.108-0.183 0.244-0.247-1.233 0.072-2.465 0.092-3.693 0.06-0.094 0.013-0.187 0.019-0.271 7e-3 -0.028-4e-3 -0.049-0.013-0.076-0.019-1.068-0.036-2.133-0.112-3.192-0.229-0.14 0.449-0.263 0.901-0.313 1.369 1.008 0.114 2.02 0.203 3.037 0.248 0.065-0.027 0.129-0.056 0.195-0.08 0.198-0.07 0.59-0.202 0.791-0.071 0.076 0.049 0.037 0.112-0.038 0.172 0.333 7e-3 0.664 0.021 0.997 0.021 0.818 0 1.638-0.024 2.458-0.069-0.119-0.365-0.179-0.745-0.139-1.162z" fill="#F3E2C3"/>
<path d="m771.51 204.26c-0.017 1e-3 -0.034 3e-3 -0.051 6e-3 -3.235 0.539-6.176 1.066-9 1.799-0.21 0.774-0.762 1.394-1.53 1.802-0.235 0.125-0.652 0.152-0.832-0.085-0.193-0.252 0.086-0.511 0.293-0.621 0.319-0.17 0.568-0.426 0.728-0.731-0.933 0.269-1.856 0.566-2.775 0.899-8e-3 0.012-0.013 0.025-0.021 0.037-0.157 0.252-0.527 0.361-0.808 0.347-0.042-2e-3 -0.087-0.011-0.131-0.024-0.658 0.258-1.315 0.533-1.973 0.833-0.114 0.051-0.204 0.131-0.273 0.225 0.077-0.013 0.157-0.015 0.237-5e-3 0.228 0.028 0.545 0.252 0.376 0.519-0.123 0.192-0.266 0.354-0.426 0.488 0.193 0.123 0.442 0.149 0.665 0.047 2.981-1.355 5.949-2.228 9.128-2.925 0.087-0.231 0.138-0.483 0.128-0.766-0.012-0.375 1.22-0.581 1.229-0.329 0.01 0.308-0.04 0.582-0.129 0.835 1.127-0.228 2.286-0.44 3.482-0.647-0.042-0.236-0.05-0.485-8e-3 -0.749 0.062-0.391 1.295-0.614 1.225-0.166-0.04 0.248-0.028 0.482 0.022 0.704 0.199-0.034 0.396-0.067 0.597-0.101 0.194-0.017 0.385-0.023 0.578-0.037 0-0.468-5e-3 -0.935-0.023-1.402-0.236 0.017-0.47 0.025-0.708 0.047z" fill="#F3E2C3"/>
</g>
<path d="m291.4 216.28c2.304 0 4.128 0.768 5.472 2.304 1.44 1.44 2.16 3.36 2.16 5.76 0 2.592-0.864 4.656-2.592 6.192-1.632 1.44-3.888 2.16-6.768 2.16-3.36 0-6-1.296-7.92-3.888-1.824-2.592-2.736-6.288-2.736-11.088 0-4.32 0.96-8.304 2.88-11.952 1.92-3.744 4.8-7.488 8.64-11.232 0.096-0.096 0.24-0.144 0.432-0.144 0.288 0 0.528 0.144 0.72 0.432s0.192 0.528 0 0.72c-4.704 4.8-7.056 10.464-7.056 16.992 0 2.688 0.48 4.656 1.44 5.904 0.864-1.44 2.64-2.16 5.328-2.16zm24.912 0c2.304 0 4.128 0.768 5.472 2.304 1.44 1.44 2.16 3.36 2.16 5.76 0 2.592-0.864 4.656-2.592 6.192-1.632 1.44-3.888 2.16-6.768 2.16-3.36 0-6-1.296-7.92-3.888-1.824-2.592-2.736-6.288-2.736-11.088 0-4.32 0.96-8.304 2.88-11.952 1.92-3.744 4.8-7.488 8.64-11.232 0.096-0.096 0.24-0.144 0.432-0.144 0.288 0 0.528 0.144 0.72 0.432s0.192 0.528 0 0.72c-4.704 4.8-7.056 10.464-7.056 16.992 0 2.688 0.48 4.656 1.44 5.904 0.864-1.44 2.64-2.16 5.328-2.16z" fill="#EFDEC6"/>
<defs>
<filter id="c" x=".87231" y="85" width="892.02" height="548.32" color-interpolation-filters="sRGB" filterUnits="userSpaceOnUse">
<feFlood flood-opacity="0" result="BackgroundImageFix"/>
<feColorMatrix in="SourceAlpha" values="0 0 0 0 0 0 0 0 0 0 0 0 0 0 0 0 0 0 127 0"/>
<feOffset dy="2"/>
<feGaussianBlur stdDeviation="4"/>
<feColorMatrix values="0 0 0 0 0 0 0 0 0 0 0 0 0 0 0 0 0 0 0.25 0"/>
<feBlend in2="BackgroundImageFix" result="effect1_dropShadow"/>
<feBlend in="SourceGraphic" in2="effect1_dropShadow" result="shape"/>
</filter>
<filter id="b" x="118" y="65" width="906.88" height="724.92" color-interpolation-filters="sRGB" filterUnits="userSpaceOnUse">
<feFlood flood-opacity="0" result="BackgroundImageFix"/>
<feColorMatrix in="SourceAlpha" values="0 0 0 0 0 0 0 0 0 0 0 0 0 0 0 0 0 0 127 0"/>
<feOffset dy="20"/>
<feGaussianBlur stdDeviation="50"/>
<feColorMatrix values="0 0 0 0 0 0 0 0 0 0 0 0 0 0 0 0 0 0 0.25 0"/>
<feBlend in2="BackgroundImageFix" result="effect1_dropShadow"/>
<feBlend in="SourceGraphic" in2="effect1_dropShadow" result="shape"/>
</filter>
<filter id="a" x="216" y="130" width="732.79" height="539.92" color-interpolation-filters="sRGB" filterUnits="userSpaceOnUse">
<feFlood flood-opacity="0" result="BackgroundImageFix"/>
<feColorMatrix in="SourceAlpha" values="0 0 0 0 0 0 0 0 0 0 0 0 0 0 0 0 0 0 127 0"/>
<feOffset dy="2"/>
<feGaussianBlur stdDeviation="4"/>
<feColorMatrix values="0 0 0 0 0 0 0 0 0 0 0 0 0 0 0 0 0 0 0.25 0"/>
<feBlend in2="BackgroundImageFix" result="effect1_dropShadow"/>
<feBlend in="SourceGraphic" in2="effect1_dropShadow" result="shape"/>
</filter>
</defs>
</svg>