<?xml version="1.0" encoding="UTF-8"?>
<svg fill="none" preserveAspectRatio="none" viewBox="0 0 1394 742" xmlns="http://www.w3.org/2000/svg">
<g filter="url(#c)">
<path d="m1263.3 82.57c23.05 202.15 41.32 344.57 21.39 537.54-0.11 1.055-1.04 1.854-2.1 1.804-436-20.782-704.71-18.044-1146.4 6e-3 -1.121 0.046-2.084-0.783-2.105-1.905-0.337-17.984-2.937-154.07-6.132-253.22-3.181-98.696-24.664-230.56-27.742-249.05-0.1997-1.198 0.717-2.218 1.931-2.255l1159.1-34.704c1.04-0.0311 1.93 0.7546 2.05 1.7878z" fill="#F5EAD4"/>
</g>
<g filter="url(#b)">
<path d="m1263.2 94.817c15.15 192.36 24.55 320.63 10.7 512.96-0.08 1.1-1.06 1.945-2.16 1.867-440.75-31.364-701.61-28.174-1148.4-0.023-1.247 0.079-2.301-0.904-2.158-2.146 2.216-19.176 17.3-154.31 14.123-252.92-3.177-98.619-24.619-230.36-27.723-249.01-0.202-1.214 0.742-2.241 1.974-2.252l1151.7-10.341c1.05-0.0095 1.93 0.8128 2.01 1.8602z" fill="#F5EAD4"/>
</g>
<g filter="url(#a)">
<path d="m1263.1 82.342c6.1 206.24 6.46 316.07 0.01 513.14-0.04 1.131-1.03 2.029-2.16 1.953-447.21-30.134-697.1-29.138-1138-0.065-1.286 0.085-2.365-0.956-2.161-2.229 3.131-19.542 24.037-154.44 20.864-252.92-3.193-99.125-18.88-231.68-21.012-249.37-0.135-1.1165 0.709-2.0699 1.829-2.1783 434.42-42.058 683.3-30.834 1119.3-11.171l19.37 0.8736c1.05 0.0472 1.91 0.9181 1.94 1.9643z" fill="#F5EAD4"/>
</g>
<defs>
<filter id="c" x=".15356" y=".78088" width="1393" height="741.14" color-interpolation-filters="sRGB" filterUnits="userSpaceOnUse">
<feFlood flood-opacity="0" result="BackgroundImageFix"/>
<feColorMatrix in="SourceAlpha" values="0 0 0 0 0 0 0 0 0 0 0 0 0 0 0 0 0 0 127 0"/>
<feOffset dy="20"/>
<feGaussianBlur stdDeviation="50"/>
<feColorMatrix values="0 0 0 0 0 0 0 0 0 0 0 0 0 0 0 0 0 0 0.25 0"/>
<feBlend in2="BackgroundImageFix" result="effect1_dropShadow"/>
<feBlend in="SourceGraphic" in2="effect1_dropShadow" result="shape"/>
</filter>
<filter id="b" x="95.514" y="84.956" width="1197.1" height="540.69" color-interpolation-filters="sRGB" filterUnits="userSpaceOnUse">
<feFlood flood-opacity="0" result="BackgroundImageFix"/>
<feColorMatrix in="SourceAlpha" values="0 0 0 0 0 0 0 0 0 0 0 0 0 0 0 0 0 0 127 0"/>
<feOffset dy="4"/>
<feGaussianBlur stdDeviation="6"/>
<feColorMatrix values="0 0 0 0 0 0 0 0 0 0 0 0 0 0 0 0 0 0 0.25 0"/>
<feBlend in2="BackgroundImageFix" result="effect1_dropShadow"/>
<feBlend in="SourceGraphic" in2="effect1_dropShadow" result="shape"/>
</filter>
<filter id="a" x="112.63" y="55.944" width="1163.2" height="551.5" color-interpolation-filters="sRGB" filterUnits="userSpaceOnUse">
<feFlood flood-opacity="0" result="BackgroundImageFix"/>
<feColorMatrix in="SourceAlpha" values="0 0 0 0 0 0 0 0 0 0 0 0 0 0 0 0 0 0 127 0"/>
<feOffset dy="2"/>
<feGaussianBlur stdDeviation="4"/>
<feColorMatrix values="0 0 0 0 0 0 0 0 0 0 0 0 0 0 0 0 0 0 0.25 0"/>
<feBlend in2="BackgroundImageFix" result="effect1_dropShadow"/>
<feBlend in="SourceGraphic" in2="effect1_dropShadow" result="shape"/>
</filter>
</defs>
</svg>