<svg width="40" height="40" viewBox="0 0 40 40" fill="none" xmlns="http://www.w3.org/2000/svg">
<path d="M20 40C8.97176 40 0 31.0282 0 20C0 8.97176 8.97176 0 20 0C31.0282 0 40 8.97176 40 20C40 31.0282 31.0282 40 20 40Z" fill="#FFDF40"/>
<path d="M40 20C40 8.97176 31.0282 0 20 0V40C31.0282 40 40 31.0282 40 20Z" fill="#FFBE40"/>
<g clip-path="url(#clip0)">
<path d="M32.571 16.8279C33.3065 18.4678 34.3118 21.559 33.8458 25.5291L33.7374 26.4514L31.0578 25.8487C30.7465 26.5903 30.1427 27.7996 29.1027 29.0855C27.5823 30.9663 24.7943 33.3863 20.1499 34.2334L20.0043 34.26L19.9999 34.2596L19.8589 34.2349C17.6869 33.8631 15.7478 33.1559 14.095 32.1334C12.7605 31.3081 11.6113 30.2777 10.6786 29.0711C9.70114 27.8071 9.16795 26.6136 8.89765 25.8587L6.26246 26.4514L6.15412 25.5291C5.68808 21.559 6.69341 18.4678 7.42889 16.8279H5.71423L5.8241 15.8932C6.18987 12.7891 7.75172 10.058 10.34 7.99548C12.2762 6.45304 14.1 5.8259 14.177 5.80018L14.4311 5.71429L19.9999 7.40824L25.5688 5.71429L25.8229 5.80018C25.8999 5.8259 27.7237 6.45304 29.6598 7.99548C32.2482 10.058 33.81 12.7891 34.1758 15.8932L34.2857 16.8279H32.571Z" fill="#F59A1E"/>
<path d="M32.5711 16.8279C33.3065 18.4678 34.3119 21.559 33.8458 25.5291L33.7375 26.4514L31.0578 25.8487C30.7465 26.5903 30.1427 27.7996 29.1027 29.0855C27.5823 30.9663 24.7943 33.3863 20.15 34.2334L20.0044 34.26L20 34.2596V7.40824L25.5688 5.71429L25.823 5.80018C25.8999 5.8259 27.7238 6.45304 29.6599 7.99548C32.2482 10.058 33.8101 12.7891 34.1758 15.8932L34.2857 16.8279H32.5711Z" fill="#F17C10"/>
<path d="M26.7328 21.4265L27.9498 23.9134L26.8645 26.1733L24.9155 27.2715L25.0142 27.3037L23.2128 30.7699L20 29.7728L16.7871 30.7699L14.9857 27.3037L15.0845 27.2715L13.1355 26.1733L12.0502 23.9134L13.2672 21.4265L10.0765 18.111L11.294 13.0361L14.945 9.93573L20 10.9321L25.055 9.93573L28.706 13.0361L29.9234 18.111L26.7328 21.4265Z" fill="#FFC533"/>
<path d="M26.7328 21.4265L27.9498 23.9134L26.8645 26.1733L24.9155 27.2715L25.0143 27.3037L23.2128 30.7699L20 29.7728V10.9321L25.055 9.93573L28.706 13.0361L29.9234 18.111L26.7328 21.4265Z" fill="#F5AF00"/>
<path d="M30.9428 18.3882L29.5368 12.5258L25.3143 8.93976L19.9998 9.9876L14.6854 8.93976L10.4631 12.5258L9.05688 18.3882L12.1494 21.6019L11.0203 23.9091L12.4269 26.8366L14.2257 27.8511L16.3222 31.8842L19.9998 30.7426L23.6779 31.8842L25.774 27.8511L27.5728 26.8372L28.9794 23.9091L27.8503 21.6019L30.9428 18.3882ZM22.7475 29.6549L19.9998 28.8023L17.2522 29.6549L16.3249 27.8713L18.1101 27.2462L19.9998 26.6203L21.8889 27.2455L23.6748 27.8713L22.7475 29.6549ZM26.9199 23.9171L26.1552 25.5091L24.8177 26.2628L22.4857 25.4912L20.9265 24.9451V22.8972H23.2042V17.3986H25.42V15.5455H21.3509V21.0441H18.6488V15.5455H14.5797V17.3986H16.7955V22.8972H19.0732V24.9451L17.514 25.4912L15.182 26.2628L13.8444 25.5091L13.0798 23.9171L14.3844 21.251L11.0961 17.8341L12.1241 13.5464L15.2042 10.9315L19.9998 11.8766L24.7955 10.9315L27.8755 13.5464L28.9033 17.8341L25.6151 21.2516L26.9199 23.9171Z" fill="#F59A1E"/>
<path d="M27.8504 21.6019L28.9796 23.9091L27.5729 26.8372L25.7741 27.8511L23.678 31.8842L20 30.7426V28.8023L22.7477 29.6549L23.675 27.8713L21.889 27.2455L20 26.6203V21.0441H21.3511V15.5455H25.4201V17.3986H23.2043V22.8972H20.9266V24.9451L22.4859 25.4912L24.8179 26.2628L26.1554 25.5091L26.9201 23.9171L25.6152 21.2516L28.9035 17.8341L27.8757 13.5464L24.7956 10.9315L20 11.8766V9.9876L25.3144 8.93976L29.5367 12.5258L30.9429 18.3882L27.8504 21.6019Z" fill="#F17C10"/>
</g>
<defs>
<clipPath id="clip0">
<rect width="28.5714" height="28.5714" fill="white" transform="translate(5.71423 5.71429)"/>
</clipPath>
</defs>
</svg>
