<?xml version="1.0" encoding="UTF-8"?>
<svg viewBox="0 0 198 146" xmlns="http://www.w3.org/2000/svg">
<path d="m21.544 21.866c32.598-23.113 173.53-19.646 176.41 48.536 2.876 68.183-135.19 87.829-174.49 52.004-36.268-33.053-25.321-83.947-1.9173-100.54z" fill="#F5EAD4"/>
<path d="m14 42.175 33.4 103.32 74.593-23.962c10.195-3.815 15.759-6.68 13.168-15.167-6.478-21.216-25.375-81.346-27.111-85.435-2.133-5.0317-2.875-9.2447-17.54-4.3597l-76.51 25.605z" fill="#31C4E6"/>
<path d="m14 42.175 33.4 103.32 74.593-23.962c10.195-3.815 15.759-6.68 13.168-15.167-6.478-21.216-25.375-81.346-27.111-85.435-2.133-5.0317-2.875-9.2447-17.54-4.3597l-76.51 25.605z" fill="#F14659"/>
<path d="m49.141 142.27-17.124-52.967c6.614 6.4225 14.842 11.91 21.945 16.25 0.8188 0.5 1.6397 0.983 2.4585 1.444l6.8011 28.593 25.271-5.961-39.352 12.641z" fill="#E02136"/>
<path d="m50.056 42.528 1.5907 5.1168 27.111-9.0001-1.6333-5.2827-27.068 9.166z" fill="#848484"/>
<path d="m39.865 62.125 56.268-18.328c-0.1722-0.5593-0.3339-1.1207-0.4934-1.6864l-56.298 18.528c0.1765 0.4955 0.3509 0.991 0.5232 1.4866z" fill="#848484"/>
<path d="m42.478 69.84 56.404-18.198c-0.2063-0.5445-0.4083-1.0868-0.6125-1.6312l-56.289 18.349c0.1658 0.4934 0.3296 0.9847 0.4976 1.4802z" fill="#848484"/>
<path d="m45.078 77.495 56.506-18.053c-0.162-0.555-0.334-1.1037-0.504-1.6524l-56.487 18.236c0.1637 0.4913 0.3232 0.9804 0.4848 1.4695z" fill="#848484"/>
<path d="m47.355 85.195 56.593-17.911c-0.189-0.5381-0.359-1.0825-0.533-1.6269l-56.453 18.051c0.134 0.4934 0.268 0.989 0.3935 1.4866z" fill="#848484"/>
<path d="m72.809 15.836 5.2465 108.46 78.264-3.641c10.838-1.021 16.954-2.333 16.671-11.203-0.708-22.171-3.243-85.148-3.847-89.551-0.744-5.4145-0.362-9.6742-15.795-8.7895l-80.539 4.7276z" fill="#31C4E6"/>
<path d="m72.809 15.836 5.2465 108.46 78.264-3.641c10.838-1.021 16.954-2.333 16.671-11.203-0.708-22.171-3.243-85.148-3.847-89.551-0.744-5.4145-0.362-9.6742-15.795-8.7895l-80.539 4.7276z" fill="#FBC958"/>
<path d="m127.16 119.47c0.891-0.391 1.723-0.789 2.488-1.197l18.575-4.381c5.789 1.163 11.526 1.854 17.139 1.854 0.336 0 0.674-2e-3 1.008-8e-3 -2.695 1.431-6.657 1.978-11.708 2.454l-27.502 1.278z" fill="#E2B03F"/>
<path d="m107.52 25.595 0.197 5.355 28.521-1.6035-0.193-5.5272-28.525 1.7757z" fill="#ADA2AB"/>
<path d="m92.562 41.851 59.103-2.9922c-0.019-0.5848-0.03-1.1696-0.036-1.7545l-59.182 3.1752c0.0404 0.5231 0.0787 1.0484 0.1148 1.5715z" fill="#ADA2AB"/>
<path d="m93.07 49.98 59.198-2.8306c-0.057-0.5806-0.11-1.157-0.163-1.7333l-59.128 3.005c0.0297 0.519 0.0616 1.0358 0.0935 1.5589z" fill="#ADA2AB"/>
<path d="m93.578 58.05 59.26-2.6648c-0.01-0.5763-0.034-1.1526-0.053-1.7268l-59.292 2.8455c0.0319 0.5189 0.0574 1.0314 0.085 1.5461z" fill="#ADA2AB"/>
<path d="m93.766 66.075 59.306-2.5031c-0.04-0.5678-0.063-1.1399-0.089-1.712l-59.207 2.6775c0 0.5125-0.0021 1.0251-0.0106 1.5376z" fill="#ADA2AB"/>
<path d="m141.98 11.774 8.474-0.4955-6.101 0.3573-2.373 0.1382z" fill="#FDFCFA"/>
<path d="m170.24 40.017-18.141-17.615c-1.32-5.5336-2.305-9.5296-2.743-11.059l-3.781 0.2211-1.229 0.0724 6.103-0.3573 19.359 19.604c0.134 2.6946 0.279 5.774 0.432 9.1341z" fill="#FFE3A4"/>
<path d="m171.43 67.709c-0.036-0.8889-0.072-1.7779-0.108-2.6668 0.036 0.8868 0.072 1.7779 0.108 2.6668zm-0.112-2.7348c0-0.0404-2e-3 -0.083-4e-3 -0.1234 2e-3 0.0404 4e-3 0.083 4e-3 0.1234z" fill="#FDFCFA"/>
<path d="m171.45 68.235-11.054-10.227c-5e-3 -0.0191-9e-3 -0.0404-0.013-0.0595l-0.102-0.4488c-0.634-2.754-1.266-5.5038-1.893-8.2174l-0.015-0.0639c-0.181-0.7826-0.359-1.5609-0.538-2.335l13.247 12.401c0.077 1.8417 0.153 3.7004 0.23 5.5655 2e-3 0.0404 4e-3 0.0829 4e-3 0.1233 2e-3 0.0234 2e-3 0.0446 4e-3 0.068 0.036 0.889 0.073 1.778 0.109 2.6669 6e-3 0.1765 0.015 0.353 0.021 0.5274z" fill="#FFE3A4"/>
<path d="m148.22 113.89c-3.92-0.786-7.858-1.788-11.799-2.939l10.276-2.424c10.465-2.999 16.237-5.415 14.325-14.081-1.916-8.6939-5.333-23.796-8.83-39.033l0.643-0.0277c-0.011-0.5763-0.034-1.1527-0.054-1.7269l-0.98 0.0468c-0.072-0.3211-0.147-0.6401-0.219-0.9591-0.281-1.2228-0.564-2.4478-0.844-3.6664l9.653 8.93c3.585 15.62 7.124 31.256 9.089 40.164 1.912 8.6657-3.86 11.085-14.325 14.081l-6.935 1.635z" fill="#E2B03F"/>
<path d="m129.65 118.27c3.552-1.886 5.721-4.009 6.089-7.158l0.687-0.162c3.941 1.151 7.879 2.152 11.799 2.939l-18.575 4.381z" fill="#D09A1E"/>
<path d="m152.2 55.413c-0.091-0.3977-0.181-0.7932-0.272-1.193-0.041-0.1701-0.079-0.3424-0.119-0.5147l0.98-0.0468c0.019 0.5742 0.043 1.1506 0.053 1.7269l-0.642 0.0276z" fill="#988167"/>
<path d="m157.83 46.885-8.452-7.9112 2.282-0.1149c-0.019-0.5848-0.03-1.1697-0.036-1.7545l-3.611 0.1935c-2.337-10.072-4.43-18.959-5.785-24.48l9.872 9.5849c1.557 6.5289 3.584 15.2 5.73 24.482z" fill="#E2B03F"/>
<path d="m149.38 38.974-1.246-1.1654c-0.039-0.1723-0.079-0.3403-0.119-0.5104l3.611-0.1935c6e-3 0.5848 0.017 1.1696 0.036 1.7545l-2.282 0.1148z" fill="#988167"/>
<path d="m141.98 11.778v-0.0021l2.373-0.1382-2.373 0.1403z" fill="#DDC896"/>
<path d="m152.1 22.402-9.872-9.5849c-0.087-0.3637-0.173-0.7082-0.255-1.04l2.373-0.1403 1.229-0.0724 3.781-0.2211c0.439 1.529 1.423 5.5251 2.744 11.059z" fill="#F3C14F"/>
<path d="m160.39 58.01-9.653-8.93c-0.14-0.6146-0.28-1.2228-0.423-1.8353l1.95-0.0936c-0.057-0.5805-0.11-1.1569-0.163-1.7332l-2.183 0.1106c-0.508-2.2033-1.01-4.3767-1.503-6.5055l0.963-0.0489 8.452 7.9112c0.178 0.7741 0.357 1.5525 0.538 2.3351l0.015 0.0638c0.627 2.7137 1.259 5.4634 1.892 8.2175l0.103 0.4487c4e-3 0.0192 8e-3 0.0405 0.012 0.0596z" fill="#F3C14F"/>
<path d="m148.42 39.022c-0.096-0.4062-0.19-0.8124-0.283-1.2144l1.246 1.1655-0.963 0.0489z" fill="#9F9F80"/>
<path d="m150.32 47.243c-0.131-0.5742-0.263-1.1463-0.395-1.7163l2.182-0.1106c0.053 0.5764 0.106 1.1527 0.164 1.7333l-1.951 0.0936z" fill="#9F9F80"/>
<path d="m39.014 33.802 8.6917-2.9093-8.6917 2.9093z" fill="#DBCFCB"/>
<path d="m88.493 129.63 21.192-6.807 9.553-0.445-30.745 7.252zm-21.518-17.702c-3.558-1.336-7.0606-2.961-10.555-4.93l-5.4571-22.947 8.7258-2.7604 7.286 30.637zm-16.371-29.385-1.5057-6.3311 8.7216-2.7859 1.5056 6.329-8.7215 2.788zm-1.8672-7.8559-1.5164-6.378 8.7131-2.8114 1.5163 6.3779-8.713 2.8115zm-1.8821-7.9155-1.5291-6.4247 8.7087-2.8371 1.527 6.4226-8.7066 2.8392zm-1.8992-7.9794-5.9419-24.988 8.6917-2.9093 2.7349 11.505-0.3849 0.1297 1.5907 5.1168 0.0384-0.0128 1.9735 8.2941-8.7024 2.8646z" fill="#E02136"/>
<path d="m63.222 135.59-6.8011-28.593c3.4941 1.969 6.9968 3.594 10.555 4.93l3.4707 14.587 9.8509-2.325 29.389-1.367-21.193 6.807-25.271 5.961z" fill="#C61226"/>
<path d="m51.646 47.645-1.5907-5.1168 0.3849-0.1298 1.2441 5.2338-0.0383 0.0128z" fill="#736D6D"/>
<path d="m45.325 60.346-0.3701-1.5546 8.7023-2.8646 0.3765 1.5822-8.7087 2.837z" fill="#736D6D"/>
<path d="m47.221 68.308-0.3657-1.5376 8.7066-2.8391 0.3722 1.5653-8.7131 2.8114z" fill="#736D6D"/>
<path d="m49.099 76.21-0.3615-1.5248 8.713-2.8115 0.3701 1.5504-8.7216 2.7859z" fill="#736D6D"/>
<path d="m50.964 84.05-0.3594-1.5078 8.7215-2.7881 0.3637 1.5355-8.7258 2.7604z" fill="#736D6D"/>
<path d="m80.297 124.19 30.231-1.405 13.41-3.165 3.222-0.151c-1.548 0.685-3.279 1.359-5.167 2.065l-2.274 0.732-0.48 0.113-38.942 1.811z" fill="#DDA23A"/>
<path d="m123.94 119.62 5.711-1.348c-0.766 0.408-1.598 0.806-2.489 1.197l-3.222 0.151z" fill="#C18123"/>
<path d="m80.297 124.19 13.413-3.164 30.229-1.406-13.411 3.165-30.231 1.405z" fill="#C18123"/>
<path d="m93.71 121.02 42.027-9.913c-0.367 3.15-2.537 5.273-6.088 7.159l-5.71 1.348-30.229 1.406z" fill="#D09A1E"/>
<path d="m45.321 20.878 25.124 105.64 76.254-17.987c10.466-2.999 16.237-5.415 14.326-14.081-4.777-21.66-18.864-83.096-20.268-87.311-1.729-5.1848-2.135-9.4425-17.143-5.7335l-78.294 19.476z" fill="#71C5DA"/>
<path d="m72.437 123.44-12.879-54.156c6.0845 6.9266 13.853 13.047 20.59 17.934 12.146 8.8129 24.697 12.882 39.518 14.786 6.51 0.836 12.99 1.378 19.304 1.378 5.744 0 11.348-0.448 16.707-1.537-2.386 1.903-6.178 3.171-11.056 4.568l-72.184 17.026z" fill="#55B0C7"/>
<path d="m81.237 24.08 1.1803 5.2274 27.736-6.8288-1.208-5.3954-27.709 6.9968z" fill="#056877"/>
<path d="m69.528 42.807 57.542-13.821c-0.128-0.572-0.245-1.1441-0.36-1.7183l-57.586 14.017c0.1361 0.5061 0.2722 1.0165 0.4041 1.5226z" fill="#056877"/>
<path d="m71.522 50.706 57.667-13.681c-0.164-0.5593-0.321-1.1165-0.48-1.6737l-57.565 13.84c0.1254 0.504 0.2509 1.008 0.3785 1.5142z" fill="#056877"/>
<path d="m73.508 58.545 57.756-13.53c-0.117-0.5657-0.245-1.125-0.37-1.6886l-57.754 13.713c0.1255 0.504 0.2446 1.0037 0.3679 1.5056z" fill="#056877"/>
<path d="m75.17 66.396 57.833-13.377c-0.145-0.5508-0.275-1.108-0.402-1.6651l-57.706 13.53c0.0957 0.504 0.1892 1.008 0.2743 1.5121z" fill="#056877"/>
<path d="m111.81 4.3383 7.965-1.9821-7.965 1.9821z" fill="#FDFCFA"/>
<path d="m145.55 26.704-33.732-22.366 7.965-1.9821 1.021-0.2552 22.638 15.706c0.63 2.6243 1.338 5.625 2.108 8.898z" fill="#83D7EC"/>
<path d="m151.8 53.704c-0.072-0.3211-0.147-0.6401-0.219-0.9591 0.072 0.319 0.147 0.638 0.219 0.9591z" fill="#E2C593"/>
<path d="m151.92 54.22c-0.041-0.1701-0.079-0.3424-0.119-0.5147 0.04 0.1723 0.078 0.3446 0.119 0.5147z" fill="#A3B6B2"/>
<path d="m151.92 54.22-26.081-16.399 3.347-0.7954c-0.164-0.5593-0.321-1.1164-0.481-1.6736l-4.912 1.1802-7.78-4.8913 8.828-2.1203 25.07 15.969c0.553 2.3989 1.112 4.8234 1.671 7.2563 0.073 0.319 0.147 0.638 0.219 0.9591 0.041 0.1723 0.079 0.3446 0.119 0.5147zm-37.935-23.855-10.092-6.346 6.257-1.5397-0.604-2.7052 13.254 8.4451-8.815 2.1458z" fill="#83D7EC"/>
<path d="m83.715 11.326 9.0427-2.25-9.0427 2.25z" fill="#FDFCFA"/>
<path d="m97.474 19.98-13.76-8.6534 9.0427-2.248 13.594 8.6599-8.8765 2.2415z" fill="#83D7EC"/>
<path d="m103.9 24.017-6.4224-4.0386 8.8764-2.2415 3.199 2.0352 0.604 2.7051-6.257 1.5398z" fill="#1FA8BB"/>
<path d="m116.02 31.64-2.029-1.276 8.815-2.1458 2.042 1.3015-8.828 2.1203z" fill="#1FA8BB"/>
<path d="m125.84 37.82-2.046-1.2888 4.912-1.1802c0.16 0.5572 0.317 1.1143 0.481 1.6736l-3.347 0.7954z" fill="#1FA8BB"/>
</svg>
