<?xml version="1.0" encoding="UTF-8"?>
<svg fill="none" viewBox="0 0 496 218" xmlns="http://www.w3.org/2000/svg">
<path d="m275 46.544c91.281-53.121 119.46 67.288 220 0" stroke="#EECE9F" stroke-width="2"/>
<path d="m275 126.54c91.281-53.121 119.46 67.288 220 0" stroke="#EECE9F" stroke-width="2"/>
<path d="m275 86.544c91.281-53.121 119.46 67.288 220 0" opacity=".5" stroke="#EECE9F" stroke-width="2"/>
<path d="m274.61 14.811 25.107 138.27c0.369 2.036 0.364 4.063 0.034 5.992-1.168 7.02-6.637 12.881-14.034 14.224l-240.14 43.601c-7.4414 1.353-14.631-2.264-18.179-8.474-0.9599-1.672-1.658-3.529-2.0168-5.531l-25.097-138.22c-1.721-9.4581 4.5424-18.499 13.981-20.211l240.14-43.606c9.42-1.7113 18.451 4.5134 20.206 13.947z" fill="#E1D3BB"/>
<path d="m299.76 159.08c-1.168 7.02-6.637 12.881-14.035 14.224l-240.14 43.601c-7.4414 1.353-14.631-2.264-18.179-8.474l129.69-96.525 142.66 47.174z" fill="#CFB892"/>
<path d="m274.61 14.811-117.44 119.42-155.61-62.475-1.2847-7.073c-1.721-9.4581 4.5424-18.499 13.981-20.211l240.14-43.606c9.42-1.7113 18.451 4.5134 20.206 13.947z" fill="#DECAA8"/>
<path d="m141.58 111.5c1.212-4.451 3.175-7.437 7.349-7.485 6.268-0.068 8.46 3.514 9.502 7.553 1.415 5.458-4.276 7.46-8.426 7.887-5.933 0.606-9.526-3.932-8.425-7.955z" fill="#123C5A"/>
</svg>