<?xml version="1.0" encoding="UTF-8"?>
<svg fill="none" preserveAspectRatio="none" viewBox="0 0 356 231" xmlns="http://www.w3.org/2000/svg">
<g filter="url(#a)">
<path d="m252 16.291c-40.234 0-45.952-4.4814-75.039-15.568-0.371-0.14139-0.805-0.16872-1.192-0.078318-31.224 7.302-22.255 9.7542-97.269 19.854-28.851 3.8846-57.052-1.3932-66.034-3.3585-1.4054-0.3075-2.7151 0.8495-2.5232 2.2753 2.2411 16.645 11.868 100.97-9.4385 188.53-0.27045 1.112 0.37055 2.219 1.4944 2.432 14.836 2.813 109.36 20.154 184.85 20.154 75.908 0 155.52-28.203 167.2-32.493 0.886-0.326 1.352-1.236 1.207-2.169-16.957-109.34-8.634-158.97-2.492-183.46 0.348-1.3863-0.828-2.6768-2.244-2.4807-38.864 5.3839-59.011 6.3555-98.511 6.3555z" fill="#F8F5E8" fill-opacity=".4"/>
</g>
<defs>
<filter id="a" x="-9.5576" y="-9.4067" width="374.83" height="249.94" color-interpolation-filters="sRGB" filterUnits="userSpaceOnUse">
<feFlood flood-opacity="0" result="BackgroundImageFix"/>
<feGaussianBlur in="BackgroundImage" stdDeviation="5"/>
<feComposite in2="SourceAlpha" operator="in" result="effect1_backgroundBlur"/>
<feBlend in="SourceGraphic" in2="effect1_backgroundBlur" result="shape"/>
</filter>
</defs>
</svg>
