<?xml version="1.0" encoding="UTF-8"?>
<svg fill="none" preserveAspectRatio="none" viewBox="0 0 359 242" xmlns="http://www.w3.org/2000/svg">
<path d="m253.29 25.592c-37.358-3.9856-71.712-21.71-77.914-25.049-0.621-0.33427-1.352-0.34148-1.985-0.030081-5.322 2.6194-33.199 14.764-110.11 24.778-31.517 4.1039-53.477 4.7331-60.831 4.8227-1.3469 0.0164-2.3391 1.2743-1.9982 2.5775 3.6755 14.051 19.932 84.551 4.3009 180.22-0.15528 0.95 0.34027 1.875 1.2514 2.186 10.992 3.758 80.516 26.112 178.84 26.112 98.174 0 152.24-22.902 160.77-26.815 0.744-0.342 1.147-1.118 1.079-1.934-8.714-103.77 4.77-163.13 11.302-188.38 0.358-1.3837-0.816-2.6695-2.232-2.4708-39.018 5.4776-62.202 8.2813-102.47 3.9849z" fill="#F8F5E8" opacity=".5"/>
</svg>
