<?xml version="1.0" encoding="UTF-8"?>
<svg fill="none" preserveAspectRatio="none" viewBox="0 0 744 210" xmlns="http://www.w3.org/2000/svg">
<path d="m547.79 33.391c-83.197-1.9053-148.5-21.105-178.35-32.382-0.372-0.1403-0.741-0.16637-1.128-0.077199-32.301 7.4458-109.3 21.282-193.52 30.159-70.059 7.3836-154.71 4.6496-172.26 3.9694-1.5104-0.0585-2.4825 1.5273-1.8414 2.8961 19.846 42.375 23.321 68.956 30.149 129.1 0.0886 0.781 0.5252 1.422 1.2761 1.655 14.238 4.411 161.54 48.403 347.23 40.29 184.2-8.047 325.83-46.564 341.52-50.97 0.883-0.248 1.421-1.048 1.393-1.965-1.57-51.94 14.486-112.68 21.2-138.08l0.032-0.1179c0.365-1.3817-0.784-2.6698-2.199-2.464-41.304 6.0098-111.77 19.852-193.5 17.981z" fill="#F8F5E8" opacity=".5"/>
</svg>
