<svg width="40" height="40" viewBox="0 0 40 40" fill="none" xmlns="http://www.w3.org/2000/svg">
<path fill-rule="evenodd" clip-rule="evenodd" d="M28.2495 3.33032C26.8265 3.33032 25.4173 3.6107 24.1026 4.15545C22.7881 4.70014 21.5934 5.49875 20.5874 6.50513L19.9995 7.09301L19.4114 6.50485C17.3793 4.47281 14.6233 3.33121 11.7495 3.33121C8.8758 3.33121 6.11975 4.47281 4.0877 6.50485C2.05566 8.5369 0.914062 11.2929 0.914062 14.1667C0.914062 17.0404 2.05566 19.7965 4.0877 21.8285L18.821 36.5619C19.4719 37.2127 20.5272 37.2127 21.1781 36.5619L35.9114 21.8285C36.9178 20.8226 37.7161 19.6282 38.2608 18.3136C38.8055 16.9989 39.0859 15.5898 39.0859 14.1667C39.0859 12.7436 38.8055 11.3345 38.2608 10.0198C37.7162 8.70534 36.9174 7.5105 35.9111 6.50458C34.9052 5.49833 33.7109 4.70009 32.3965 4.15545C31.0818 3.6107 29.6726 3.33032 28.2495 3.33032Z" fill="#D12335"/>
</svg>
