<svg width="34" height="32" viewBox="0 0 34 32" fill="none" xmlns="http://www.w3.org/2000/svg">
<path d="M16.2736 0.283203C16.7407 0.101077 17.2593 0.101076 17.7264 0.283203L28.25 4.38578C28.7436 4.57821 29.1407 4.95864 29.3541 5.44355L33.6454 15.1944C33.8714 15.7077 33.8714 16.2923 33.6454 16.8056L29.3541 26.5565C29.1407 27.0414 28.7436 27.4218 28.25 27.6142L17.7264 31.7168C17.2593 31.8989 16.7407 31.8989 16.2736 31.7168L5.75003 27.6142C5.25642 27.4218 4.85932 27.0414 4.64591 26.5564L0.354561 16.8056C0.128643 16.2923 0.128643 15.7077 0.354561 15.1944L4.64591 5.44355C4.85933 4.95864 5.25642 4.57821 5.75003 4.38578L16.2736 0.283203Z" fill="#007DD7"/>
</svg>
