<svg width="34" height="32" viewBox="0 0 34 32" fill="none" xmlns="http://www.w3.org/2000/svg">
<path d="M15.8986 0.7874C16.2442 -0.262467 17.7558 -0.262467 18.1014 0.7874L21.3182 10.5583C21.4728 11.0277 21.9176 11.3457 22.4197 11.3457H32.8401C33.9603 11.3457 34.4274 12.7533 33.5225 13.4021L25.0835 19.4533C24.6795 19.743 24.5105 20.2548 24.6644 20.7224L27.8858 30.5072C28.2311 31.5561 27.0082 32.426 26.102 31.7762L17.6824 25.7389C17.2758 25.4474 16.7242 25.4474 16.3176 25.7389L7.89801 31.7762C6.99175 32.426 5.76887 31.5561 6.11419 30.5072L9.33556 20.7224C9.48948 20.2548 9.32047 19.743 8.91651 19.4533L0.477471 13.4021C-0.42742 12.7533 0.0396539 11.3457 1.15986 11.3457H11.5803C12.0824 11.3457 12.5272 11.0277 12.6818 10.5583L15.8986 0.7874Z" fill="#007DD7"/>
</svg>
