<svg width="200" height="37" viewBox="0 0 200 37" fill="none" xmlns="http://www.w3.org/2000/svg">
<path d="M126.931 34.2053C122.529 30.2431 117.774 26.6895 112.636 23.823C110.067 22.3929 107.473 21.0123 104.724 19.966C102.043 18.7773 99.2571 17.8673 96.4587 17.0129C85.1973 13.7564 73.2299 13.6698 61.7208 15.7437C55.9508 16.7281 50.2675 18.2635 44.6522 20.0403C41.8291 20.9009 39.0617 21.8728 36.2015 22.7767C33.3536 23.662 30.4686 24.4483 27.5464 25.0674C24.618 25.6865 21.6526 26.1694 18.6499 26.3489C15.6597 26.5222 12.6137 26.4666 9.64818 25.8042C6.71982 25.1355 3.76049 23.8044 1.85366 21.3651C0.912622 20.1579 0.324475 18.703 0.0892164 17.2171C-0.108896 15.7189 0.0335698 14.2083 0.411222 12.7844C0.132626 14.2331 0.107886 15.7314 0.405055 17.1615C0.720797 18.5793 1.35226 19.9227 2.29948 21.0061C4.20013 23.1854 7.03559 24.2873 9.8587 24.7702C12.7066 25.2778 15.6411 25.2283 18.5385 24.9497C21.442 24.6526 24.3271 24.1263 27.1749 23.4329C30.0228 22.7334 32.8335 21.8976 35.6257 20.9875C38.3993 20.0527 41.2039 19.0188 44.027 18.1025C49.6856 16.2452 55.4555 14.6726 61.3494 13.6263C67.2432 12.611 73.2548 12.1034 79.2539 12.3572C85.2406 12.6358 91.2334 13.5583 96.9416 15.4156C99.7771 16.3752 102.606 17.3596 105.293 18.6845C108.042 19.8608 110.636 21.3652 113.174 22.9253C118.195 26.1323 122.863 29.8902 126.931 34.2053Z" fill="#CFA970"/>
<path d="M40.8013 17.4026C39.526 15.9044 38.0463 14.8582 36.4118 14.3815C35.607 14.1152 34.7588 14.01 33.9106 13.9729C33.0625 13.9543 32.1834 14.0099 31.3723 14.1771L31.9976 12.5117C32.7962 13.6694 33.7621 14.7033 34.8641 15.632C35.4275 16.0839 36.0094 16.5297 36.6409 16.9259C37.2723 17.3284 37.9349 17.6937 38.6344 18.0589C37.8482 18.0961 37.0495 17.9969 36.2694 17.805C35.4955 17.6069 34.7217 17.3283 34.0035 16.9383C32.561 16.1892 31.2795 15.081 30.2766 13.7624L29.2983 12.4684L30.908 12.0969C31.9543 11.8555 32.9943 11.7936 34.0468 11.8864C35.0931 11.9855 36.1333 12.2765 37.0867 12.7347C38.0401 13.2114 38.8882 13.88 39.5259 14.691C40.1573 15.502 40.6156 16.4306 40.8013 17.4026Z" fill="#CFA970"/>
<path d="M47.6054 15.5086C47.0482 14.6233 46.3611 13.9733 45.6119 13.3418C44.8628 12.7227 44.1446 12.1964 43.3026 11.8311C42.4916 11.4287 41.6125 11.1935 40.721 11.0263C39.8233 10.8715 38.8947 10.791 38.0032 10.8406L38.8824 9.29282C39.5634 10.6858 40.4487 11.9736 41.5135 13.156C42.0583 13.7318 42.6279 14.3014 43.2532 14.8276C43.8785 15.36 44.547 15.8553 45.2528 16.3506C44.3985 16.2453 43.5566 15.9916 42.7517 15.6449C41.9531 15.2982 41.173 14.8586 40.4672 14.32C39.0371 13.2613 37.8484 11.856 36.9878 10.2649L36.2202 8.84095L37.8608 8.71713C38.9814 8.63665 40.071 8.72949 41.1482 8.97094C42.2255 9.2062 43.2531 9.67048 44.1942 10.2524C45.1166 10.8653 45.94 11.6641 46.5158 12.5494C47.0978 13.4099 47.593 14.4562 47.6054 15.5086Z" fill="#CFA970"/>
<path d="M52.9918 14.0842C52.6389 13.0937 52.1127 12.3137 51.5184 11.5336C50.9179 10.7659 50.3297 10.0973 49.5867 9.55864C48.8871 8.98906 48.0824 8.56183 47.2466 8.20895C46.4108 7.86225 45.5193 7.58365 44.6402 7.43507L45.8288 6.11029C46.1879 7.6209 46.7761 9.07574 47.5562 10.4563C47.9586 11.1435 48.3919 11.8245 48.8934 12.4746C49.3825 13.1246 49.9273 13.7561 50.5092 14.3938C49.6982 14.0966 48.9367 13.6694 48.2247 13.1618C47.5189 12.6417 46.8566 12.0412 46.2808 11.3664C45.1169 10.0229 44.2626 8.38851 43.7735 6.65502L43.3276 5.09494L44.9621 5.33012C46.0703 5.49109 47.1166 5.81931 48.1072 6.29602C49.1101 6.76034 50.014 7.43509 50.8064 8.20278C51.5679 9.00142 52.1994 9.96103 52.5709 10.9578C52.9485 11.9236 53.2085 13.0503 52.9918 14.0842Z" fill="#CFA970"/>
<path d="M59.0218 12.8772C58.508 10.797 57.5483 9.03257 56.1492 7.76961C55.4682 7.11955 54.6758 6.60567 53.84 6.16611C53.0042 5.73893 52.1003 5.37992 51.2026 5.15704L52.4841 3.93117C52.738 5.45416 53.2209 6.94622 53.9019 8.38254C54.2548 9.09451 54.6386 9.80028 55.0844 10.4875C55.5301 11.1747 56.0316 11.8434 56.5702 12.5182C55.7778 12.1653 55.0472 11.6886 54.3724 11.1252C53.71 10.5618 53.0909 9.91787 52.5647 9.19971C51.4998 7.77577 50.763 6.0857 50.3915 4.32126L50.0635 2.73009L51.6731 3.08922C52.8123 3.33686 53.8648 3.75782 54.8554 4.33359C55.8459 4.91555 56.7312 5.67702 57.4679 6.56852C58.1799 7.47241 58.7123 8.51877 58.9785 9.61458C59.2386 10.7042 59.2695 11.8247 59.0218 12.8772Z" fill="#CFA970"/>
<path d="M62.3464 11.5525C60.9596 10.3824 59.9133 8.80374 59.2075 7.08264C58.5141 5.34915 58.186 3.46084 58.2108 1.58496L58.2294 8.4877e-05L59.709 0.650142C60.8481 1.15162 61.8883 1.83879 62.7798 2.69935C63.6837 3.54751 64.3894 4.58142 64.9342 5.67103C65.4481 6.77923 65.7762 7.96793 65.8505 9.16279C65.9248 10.3453 65.7948 11.534 65.3862 12.6174C65.1757 10.3329 64.5133 8.26517 63.3679 6.54407C62.8169 5.67113 62.1173 4.92192 61.362 4.2471C60.6005 3.58466 59.7399 3.01516 58.836 2.58798L60.3343 1.65316C60.2477 3.31235 60.359 4.97764 60.6934 6.63064C61.0277 8.28365 61.5973 9.91188 62.3464 11.5525Z" fill="#CFA970"/>
<path d="M21.0396 23.4331C19.9562 22.3744 18.8232 21.6996 17.6284 21.4087C16.4521 21.1115 15.1644 21.1176 13.9695 21.3591L14.5824 19.6875C15.1706 20.5233 15.864 21.2911 16.6626 21.9906C17.4612 22.7088 18.3775 23.3217 19.4176 23.947C16.9907 24.2442 14.4338 22.9749 12.8736 20.9567L11.8955 19.6813L13.4866 19.2851C14.2976 19.087 15.0963 19.0251 15.9135 19.0932C16.7307 19.1613 17.5417 19.378 18.2846 19.7494C19.7704 20.4923 20.8539 21.9225 21.0396 23.4331Z" fill="#CFA970"/>
<path d="M27.1812 21.6499C26.6859 21.006 26.141 20.5788 25.5529 20.1454C24.9585 19.7182 24.4261 19.3653 23.8008 19.13C23.2002 18.8576 22.5564 18.7152 21.9064 18.6038C21.2563 18.5109 20.5753 18.4615 19.9314 18.4986L20.7858 16.9384C21.2935 17.9537 21.9373 18.9072 22.705 19.7987C23.0951 20.2321 23.5099 20.6716 23.9618 21.0864C24.4138 21.5012 24.9029 21.8975 25.4229 22.3123C24.7605 22.2875 24.1042 22.1327 23.4727 21.9098C22.8474 21.6746 22.2345 21.3651 21.6712 20.975C20.5444 20.2073 19.5909 19.1487 18.9099 17.9414L18.1113 16.5298L19.7643 16.3812C20.631 16.3007 21.473 16.3627 22.3026 16.5423C23.1384 16.7156 23.937 17.0809 24.6675 17.5328C25.3795 18.0157 26.0172 18.641 26.4444 19.3344C26.8716 20.0092 27.2307 20.8388 27.1812 21.6499Z" fill="#CFA970"/>
<path d="M33.2237 19.8421C32.7346 19.1734 32.1897 18.7153 31.6015 18.2572C31.0072 17.8114 30.4686 17.4338 29.8371 17.1738C29.2304 16.8828 28.5742 16.7218 27.9117 16.598C27.2493 16.4865 26.5497 16.4185 25.8935 16.4495L26.7788 14.9017C27.2741 15.9542 27.9117 16.9385 28.6856 17.8609C29.0756 18.3129 29.4843 18.771 29.9486 19.1982C30.4005 19.6316 30.8896 20.0465 31.4158 20.4736C30.741 20.4303 30.0787 20.2631 29.441 20.0155C28.8033 19.7616 28.1842 19.4335 27.627 19.0187C26.494 18.2139 25.5529 17.1119 24.8843 15.8675L24.1167 14.4374L25.7697 14.3197C26.655 14.264 27.5093 14.3383 28.3513 14.5426C29.1994 14.7407 30.0044 15.1245 30.7411 15.6012C31.4531 16.1027 32.0907 16.7528 32.5117 17.471C32.9327 18.1644 33.2856 19.0125 33.2237 19.8421Z" fill="#CFA970"/>
<path d="M41.3281 23.433C41.6686 24.3616 41.7429 25.3894 41.6129 26.4171C41.4705 27.4387 41.0866 28.4477 40.5108 29.3392C39.9165 30.2184 39.1736 30.9985 38.3192 31.6176C37.4587 32.2305 36.5301 32.7071 35.5086 33.0352L33.936 33.5305L34.1218 31.9209C34.3137 30.274 34.8523 28.6707 35.7128 27.2839C36.1338 26.5905 36.6539 25.9589 37.2234 25.3893C37.7992 24.8321 38.4307 24.3369 39.1303 23.9654C38.7155 24.6402 38.3255 25.2903 37.9912 25.959C37.6506 26.6276 37.3721 27.3024 37.1182 27.9772C36.6353 29.3331 36.3381 30.7199 36.239 32.119L34.8522 31.0108C35.6385 30.7384 36.4186 30.336 37.1429 29.8903C37.8549 29.4259 38.5297 28.9058 39.0931 28.2682C40.2508 27.0238 40.9938 25.3708 41.3281 23.433Z" fill="#CFA970"/>
<path d="M48.1502 21.6065C48.6764 22.5166 48.7816 23.6619 48.7197 24.7082C48.6702 25.7607 48.3669 26.8689 47.8902 27.8656C47.3764 28.8438 46.7201 29.7663 45.9153 30.5154C45.1104 31.2769 44.2252 31.9084 43.216 32.4037L41.7425 33.1343L41.6806 31.5183C41.6125 29.7167 41.922 27.8966 42.6093 26.256C42.9436 25.4326 43.3893 24.6587 43.9032 23.9529C44.4232 23.2472 45.0176 22.6033 45.6986 22.0709C45.3395 22.8571 45.0175 23.6248 44.7513 24.3987C44.4789 25.1725 44.2746 25.9527 44.1074 26.7266C43.7855 28.2867 43.6803 29.8467 43.8042 31.3945L42.2626 30.5031C43.0488 30.0945 43.8103 29.5496 44.5037 28.9677C45.1847 28.3671 45.8224 27.7109 46.3115 26.9556C46.8501 26.2189 47.203 25.3955 47.5373 24.4792C47.8592 23.5567 48.1193 22.6528 48.1502 21.6065Z" fill="#CFA970"/>
<path d="M53.512 20.0961C54.2239 20.87 54.5768 21.9658 54.744 22.9997C54.9235 24.0398 54.874 25.1852 54.6202 26.2624C54.3292 27.3335 53.8958 28.3735 53.2705 29.2774C52.6576 30.1937 51.9271 31.0048 51.0542 31.7105L49.7664 32.7444L49.3516 31.178C48.8935 29.4321 48.8006 27.5935 49.1225 25.8414C49.2649 24.9685 49.5312 24.1141 49.8779 23.3092C50.2308 22.5106 50.6703 21.7491 51.2213 21.0866C51.0417 21.9286 50.8932 22.752 50.8004 23.5631C50.7075 24.3741 50.6765 25.1789 50.6827 25.9776C50.7075 27.5686 50.9427 29.1165 51.4008 30.5961L49.7045 30.0636C50.3855 29.4879 51.0108 28.7945 51.5556 28.0763C52.088 27.3396 52.5709 26.5657 52.8867 25.7176C53.252 24.8756 53.4129 24.0026 53.5367 23.0368C53.6544 22.0648 53.7101 21.1238 53.512 20.0961Z" fill="#CFA970"/>
<path d="M59.3192 18.0592C60.0683 18.8393 60.6068 19.8236 60.9412 20.8947C61.2693 21.9719 61.3436 23.1421 61.1888 24.2874C61.0093 25.4265 60.6316 26.5347 60.0806 27.5377C59.5172 28.5344 58.8238 29.4383 57.9695 30.2308L56.7622 31.3513L56.2421 29.8159C55.6602 28.1134 55.4374 26.2809 55.6293 24.5102C55.716 23.6249 55.9202 22.7582 56.205 21.9348C56.5022 21.1114 56.886 20.3189 57.3875 19.6193C57.2699 20.4737 57.1771 21.3033 57.1461 22.1205C57.109 22.9377 57.1399 23.7426 57.1956 24.535C57.338 26.1199 57.6847 27.6491 58.2419 29.0916L56.5084 28.683C57.177 28.033 57.7652 27.2652 58.2728 26.4727C58.7681 25.6679 59.1891 24.826 59.443 23.9221C60.0064 22.1205 59.9321 20.1147 59.3192 18.0592Z" fill="#CFA970"/>
<path d="M63.5474 18.3255C63.3245 20.1209 63.2565 21.842 63.4299 23.5198C63.6032 25.1976 63.987 26.8258 64.5627 28.3798L62.854 27.9341C63.597 27.253 64.2408 26.4605 64.7733 25.6C65.2995 24.7332 65.7391 23.8046 66.0115 22.8078C66.5934 20.8267 66.612 18.6536 66.1415 16.4063C66.8472 17.3226 67.3302 18.4185 67.6088 19.5762C67.8874 20.7401 67.9245 21.9659 67.7697 23.1793C67.5654 24.3804 67.2002 25.5814 66.5873 26.6524C65.9929 27.7359 65.2005 28.7017 64.2656 29.5189L63.0459 30.5837L62.5568 29.0731C61.9811 27.2901 61.7335 25.3895 61.8821 23.5321C62.0431 21.6748 62.5754 19.8609 63.5474 18.3255Z" fill="#CFA970"/>
<path d="M21.2509 28.2929C21.8514 29.692 21.6533 31.4751 20.7494 32.868C20.2975 33.5614 19.7093 34.1619 19.0469 34.6387C18.3721 35.1092 17.6539 35.4683 16.8491 35.7036L15.2827 36.1741L15.4809 34.5767C15.7905 32.0446 17.3443 29.6549 19.5916 28.6705C19.0159 29.7415 18.5392 30.7383 18.2173 31.7598C17.883 32.769 17.6787 33.7844 17.592 34.8059L16.2175 33.6729C17.3691 33.2767 18.4773 32.6266 19.3378 31.7723C20.2231 30.9117 20.8547 29.7539 21.2509 28.2929Z" fill="#CFA970"/>
<path d="M27.4415 26.7017C27.8996 27.3765 28.0111 28.2741 27.9863 29.0727C27.9739 29.8838 27.7386 30.7506 27.3734 31.5245C26.9772 32.286 26.4694 33.0041 25.8441 33.5799C25.2188 34.1618 24.5254 34.6385 23.7392 35.0161L22.241 35.7219L22.21 34.1061C22.1853 32.7193 22.4577 31.3201 23.0458 30.0881C23.3244 29.4628 23.6959 28.8871 24.1169 28.3671C24.5503 27.8532 25.0331 27.3888 25.5903 27.0297C25.3551 27.6488 25.1384 28.237 24.9589 28.8251C24.7793 29.4133 24.6431 30.0014 24.5317 30.5772C24.3212 31.7349 24.2531 32.8803 24.3336 34.0132L22.8044 33.1032C23.3739 32.8122 23.9373 32.4221 24.4511 32.0073C24.9526 31.5863 25.4355 31.1345 25.8132 30.5958C26.2342 30.0758 26.5128 29.5 26.8037 28.8314C27.0885 28.1566 27.3424 27.5065 27.4415 26.7017Z" fill="#CFA970"/>
<path d="M33.5647 25.1911C34.0353 25.8721 34.1652 26.7822 34.159 27.5932C34.159 28.4228 33.9423 29.3081 33.5832 30.1006C33.1932 30.8869 32.6979 31.6297 32.0664 32.224C31.4411 32.8308 30.7478 33.3323 29.9553 33.7285L28.4695 34.4714L28.4076 32.8556C28.3518 31.4441 28.5996 30.0139 29.1629 28.7386C29.4353 28.1009 29.8006 27.5065 30.2216 26.9678C30.6426 26.4292 31.1254 25.9464 31.6826 25.5625C31.4536 26.194 31.2369 26.8008 31.0697 27.4075C30.8902 28.008 30.7726 28.6085 30.6611 29.1966C30.4692 30.3853 30.4197 31.5616 30.5311 32.7193L28.9834 31.8403C29.5591 31.5245 30.1286 31.1158 30.6425 30.6825C31.1502 30.2367 31.6331 29.7663 32.0045 29.2029C32.4193 28.6643 32.6918 28.0638 32.9704 27.3766C33.249 26.677 33.4843 26.0083 33.5647 25.1911Z" fill="#CFA970"/>
<path d="M73.063 34.2053C77.1305 29.8902 81.7984 26.1323 86.8256 22.9253C89.3577 21.3652 91.9518 19.8608 94.7006 18.6845C97.3875 17.3596 100.223 16.3752 103.058 15.4156C108.767 13.5583 114.753 12.6358 120.746 12.3572C126.739 12.1034 132.751 12.611 138.644 13.6263C144.538 14.6726 150.315 16.2452 155.967 18.1025C158.79 19.0188 161.594 20.0527 164.368 20.9875C167.16 21.8976 169.977 22.7334 172.825 23.4329C175.667 24.1263 178.552 24.6526 181.455 24.9497C184.353 25.2283 187.293 25.2778 190.141 24.7702C192.964 24.2873 195.794 23.1854 197.701 21.0061C198.642 19.9227 199.273 18.5793 199.589 17.1615C199.886 15.7314 199.861 14.2331 199.589 12.7844C199.966 14.2083 200.109 15.7189 199.911 17.2171C199.669 18.703 199.081 20.1579 198.14 21.3651C196.239 23.8044 193.274 25.1355 190.352 25.8042C187.38 26.4666 184.34 26.5222 181.344 26.3489C178.341 26.1694 175.376 25.6865 172.454 25.0674C169.525 24.4483 166.64 23.662 163.792 22.7767C160.938 21.8728 158.165 20.9009 155.348 20.0403C149.733 18.2635 144.049 16.7281 138.273 15.7437C126.764 13.6698 114.803 13.7564 103.535 17.0129C100.743 17.8673 97.9508 18.7773 95.2701 19.966C92.5275 21.0123 89.9273 22.3929 87.3642 23.823C82.2195 26.6895 77.4648 30.2431 73.063 34.2053Z" fill="#CFA970"/>
<path d="M159.199 17.4026C159.378 16.4306 159.837 15.502 160.474 14.691C161.112 13.88 161.96 13.2114 162.907 12.7347C163.861 12.2765 164.901 11.9855 165.947 11.8864C166.999 11.7936 168.04 11.8555 169.086 12.0969L170.696 12.4684L169.717 13.7624C168.721 15.081 167.439 16.1892 165.99 16.9383C165.272 17.3283 164.505 17.6069 163.731 17.805C162.951 17.9969 162.152 18.0961 161.359 18.0589C162.059 17.6937 162.728 17.3284 163.353 16.9259C163.984 16.5297 164.573 16.0839 165.13 15.632C166.238 14.7033 167.204 13.6694 167.996 12.5117L168.628 14.1771C167.81 14.0099 166.938 13.9543 166.083 13.9729C165.235 14.01 164.387 14.1152 163.582 14.3815C161.948 14.8582 160.474 15.9044 159.199 17.4026Z" fill="#CFA970"/>
<path d="M152.395 15.5086C152.407 14.4562 152.896 13.4099 153.478 12.5494C154.06 11.6641 154.884 10.8653 155.8 10.2524C156.747 9.67048 157.775 9.2062 158.852 8.97094C159.929 8.72949 161.013 8.63665 162.133 8.71713L163.78 8.84095L163.006 10.2649C162.152 11.856 160.957 13.2613 159.527 14.32C158.821 14.8586 158.047 15.2982 157.243 15.6449C156.438 15.9916 155.602 16.2453 154.741 16.3506C155.453 15.8553 156.122 15.36 156.741 14.8276C157.373 14.3014 157.942 13.7318 158.481 13.156C159.552 11.9736 160.437 10.6858 161.118 9.29282L161.991 10.8406C161.1 10.791 160.171 10.8715 159.279 11.0263C158.388 11.1935 157.503 11.4287 156.698 11.8311C155.856 12.1964 155.138 12.7227 154.382 13.3418C153.633 13.9733 152.952 14.6233 152.395 15.5086Z" fill="#CFA970"/>
<path d="M147.009 14.0842C146.792 13.0503 147.046 11.9236 147.424 10.9578C147.795 9.96103 148.427 9.00142 149.194 8.20278C149.987 7.43509 150.891 6.76034 151.887 6.29602C152.884 5.81931 153.924 5.49109 155.039 5.33012L156.667 5.09494L156.227 6.65502C155.738 8.38851 154.878 10.0229 153.714 11.3664C153.144 12.0412 152.482 12.6417 151.776 13.1618C151.064 13.6694 150.296 14.0966 149.485 14.3938C150.067 13.7561 150.612 13.1246 151.107 12.4746C151.603 11.8245 152.036 11.1435 152.438 10.4563C153.225 9.07574 153.807 7.6209 154.166 6.11029L155.361 7.43507C154.481 7.58365 153.59 7.86225 152.754 8.20895C151.918 8.56183 151.113 8.98906 150.408 9.55864C149.665 10.0973 149.083 10.7659 148.482 11.5336C147.888 12.3137 147.362 13.0937 147.009 14.0842Z" fill="#CFA970"/>
<path d="M140.972 12.8772C140.725 11.8247 140.762 10.7042 141.022 9.61458C141.288 8.51877 141.814 7.47241 142.532 6.56852C143.263 5.67702 144.154 4.91555 145.139 4.33359C146.129 3.75782 147.188 3.33686 148.321 3.08922L149.937 2.73009L149.602 4.32126C149.237 6.0857 148.5 7.77577 147.429 9.19971C146.909 9.91787 146.29 10.5618 145.622 11.1252C144.953 11.6886 144.216 12.1653 143.43 12.5182C143.962 11.8434 144.464 11.1747 144.91 10.4875C145.362 9.80028 145.745 9.09451 146.098 8.38254C146.779 6.94622 147.262 5.45416 147.516 3.93117L148.791 5.15704C147.894 5.37992 146.996 5.73893 146.154 6.16611C145.324 6.60567 144.526 7.11955 143.845 7.76961C142.446 9.03257 141.492 10.797 140.972 12.8772Z" fill="#CFA970"/>
<path d="M137.654 11.5525C138.403 9.91188 138.972 8.28365 139.301 6.63064C139.635 4.97764 139.752 3.31235 139.666 1.65316L141.164 2.58798C140.254 3.01516 139.4 3.58466 138.638 4.2471C137.877 4.92192 137.183 5.67113 136.632 6.54407C135.487 8.26517 134.824 10.3329 134.608 12.6174C134.199 11.534 134.069 10.3453 134.143 9.16279C134.224 7.96793 134.552 6.77923 135.06 5.67103C135.611 4.58142 136.316 3.54751 137.214 2.69935C138.106 1.83879 139.152 1.15162 140.285 0.650142L141.764 8.4877e-05L141.783 1.58496C141.808 3.46084 141.48 5.34915 140.786 7.08264C140.081 8.80374 139.04 10.3824 137.654 11.5525Z" fill="#CFA970"/>
<path d="M178.955 23.4331C179.147 21.9225 180.23 20.4923 181.716 19.7494C182.452 19.378 183.27 19.1613 184.081 19.0932C184.898 19.0251 185.703 19.087 186.514 19.2851L188.105 19.6813L187.12 20.9567C185.567 22.9749 183.01 24.2442 180.577 23.947C181.617 23.3217 182.533 22.7088 183.332 21.9906C184.13 21.2911 184.83 20.5233 185.418 19.6875L186.025 21.3591C184.83 21.1176 183.548 21.1115 182.372 21.4087C181.171 21.6996 180.044 22.3744 178.955 23.4331Z" fill="#CFA970"/>
<path d="M172.813 21.6499C172.769 20.8388 173.128 20.0092 173.556 19.3344C173.977 18.641 174.62 18.0157 175.326 17.5328C176.057 17.0809 176.855 16.7156 177.691 16.5423C178.527 16.3627 179.369 16.3007 180.236 16.3812L181.882 16.5298L181.084 17.9414C180.403 19.1487 179.456 20.2073 178.323 20.975C177.765 21.3651 177.153 21.6746 176.521 21.9098C175.89 22.1327 175.24 22.2875 174.577 22.3123C175.091 21.8975 175.58 21.5012 176.032 21.0864C176.49 20.6716 176.899 20.2321 177.289 19.7987C178.063 18.9072 178.707 17.9537 179.208 16.9384L180.062 18.4986C179.425 18.4615 178.744 18.5109 178.094 18.6038C177.437 18.7152 176.794 18.8576 176.199 19.13C175.574 19.3653 175.041 19.7182 174.447 20.1454C173.859 20.5788 173.308 21.006 172.813 21.6499Z" fill="#CFA970"/>
<path d="M166.777 19.8421C166.715 19.0125 167.062 18.1644 167.489 17.471C167.903 16.7528 168.547 16.1027 169.259 15.6012C169.99 15.1245 170.795 14.7407 171.643 14.5426C172.491 14.3383 173.345 14.264 174.231 14.3197L175.884 14.4374L175.116 15.8675C174.447 17.1119 173.506 18.2139 172.367 19.0187C171.81 19.4335 171.191 19.7616 170.559 20.0155C169.922 20.2631 169.259 20.4303 168.585 20.4736C169.105 20.0465 169.6 19.6316 170.052 19.1982C170.51 18.771 170.919 18.3129 171.315 17.8609C172.082 16.9385 172.72 15.9542 173.215 14.9017L174.101 16.4495C173.444 16.4185 172.751 16.4865 172.089 16.598C171.426 16.7218 170.764 16.8828 170.163 17.1738C169.526 17.4338 168.993 17.8114 168.399 18.2572C167.804 18.7153 167.26 19.1734 166.777 19.8421Z" fill="#CFA970"/>
<path d="M158.666 23.433C159.007 25.3708 159.744 27.0238 160.908 28.2682C161.471 28.9058 162.146 29.4259 162.858 29.8903C163.576 30.336 164.356 30.7384 165.148 31.0108L163.755 32.119C163.663 30.7199 163.359 29.3331 162.876 27.9772C162.622 27.3024 162.344 26.6276 162.003 25.959C161.669 25.2903 161.285 24.6402 160.864 23.9654C161.564 24.3369 162.202 24.8321 162.777 25.3893C163.341 25.9589 163.861 26.5905 164.282 27.2839C165.148 28.6707 165.687 30.274 165.873 31.9209L166.059 33.5305L164.486 33.0352C163.464 32.7071 162.536 32.2305 161.675 31.6176C160.827 30.9985 160.078 30.2184 159.49 29.3392C158.914 28.4477 158.524 27.4387 158.388 26.4171C158.252 25.3894 158.332 24.3616 158.666 23.433Z" fill="#CFA970"/>
<path d="M151.844 21.6065C151.875 22.6528 152.135 23.5567 152.463 24.4792C152.791 25.3955 153.144 26.2189 153.682 26.9556C154.178 27.7109 154.815 28.3671 155.496 28.9677C156.184 29.5496 156.945 30.0945 157.738 30.5031L156.196 31.3945C156.32 29.8467 156.208 28.2867 155.893 26.7266C155.719 25.9527 155.521 25.1725 155.249 24.3987C154.983 23.6248 154.654 22.8571 154.302 22.0709C154.983 22.6033 155.577 23.2472 156.091 23.9529C156.605 24.6587 157.05 25.4326 157.385 26.256C158.078 27.8966 158.388 29.7167 158.32 31.5183L158.258 33.1343L156.778 32.4037C155.775 31.9084 154.883 31.2769 154.085 30.5154C153.274 29.7663 152.624 28.8438 152.11 27.8656C151.627 26.8689 151.324 25.7607 151.274 24.7082C151.218 23.6619 151.324 22.5166 151.844 21.6065Z" fill="#CFA970"/>
<path d="M146.488 20.0961C146.284 21.1238 146.346 22.0648 146.457 23.0368C146.581 24.0026 146.748 24.8756 147.113 25.7176C147.429 26.5657 147.906 27.3396 148.445 28.0763C148.989 28.7945 149.615 29.4879 150.296 30.0636L148.599 30.5961C149.051 29.1165 149.286 27.5686 149.317 25.9776C149.317 25.1789 149.293 24.3741 149.194 23.5631C149.107 22.752 148.952 21.9286 148.779 21.0866C149.33 21.7491 149.769 22.5106 150.116 23.3092C150.463 24.1141 150.729 24.9685 150.878 25.8414C151.193 27.5935 151.1 29.4321 150.642 31.178L150.228 32.7444L148.946 31.7105C148.073 31.0048 147.342 30.1937 146.723 29.2774C146.098 28.3735 145.665 27.3335 145.374 26.2624C145.126 25.1852 145.07 24.0398 145.256 22.9997C145.423 21.9658 145.776 20.87 146.488 20.0961Z" fill="#CFA970"/>
<path d="M140.675 18.0592C140.062 20.1147 139.994 22.1205 140.551 23.9221C140.805 24.826 141.232 25.6679 141.721 26.4727C142.229 27.2652 142.823 28.033 143.486 28.683L141.759 29.0916C142.316 27.6491 142.663 26.1199 142.799 24.535C142.861 23.7426 142.892 22.9377 142.848 22.1205C142.817 21.3033 142.724 20.4737 142.607 19.6193C143.108 20.3189 143.498 21.1114 143.789 21.9348C144.074 22.7582 144.285 23.6249 144.365 24.5102C144.563 26.2809 144.34 28.1134 143.758 29.8159L143.232 31.3513L142.025 30.2308C141.171 29.4383 140.477 28.5344 139.92 27.5377C139.363 26.5347 138.985 25.4265 138.812 24.2874C138.651 23.1421 138.731 21.9719 139.059 20.8947C139.387 19.8236 139.932 18.8393 140.675 18.0592Z" fill="#CFA970"/>
<path d="M136.453 18.3255C137.425 19.8609 137.957 21.6748 138.118 23.5321C138.26 25.3895 138.019 27.2901 137.437 29.0731L136.948 30.5837L135.734 29.5189C134.793 28.7017 134.001 27.7359 133.407 26.6524C132.8 25.5814 132.428 24.3804 132.23 23.1793C132.069 21.9659 132.106 20.7401 132.391 19.5762C132.67 18.4185 133.147 17.3226 133.859 16.4063C133.382 18.6536 133.4 20.8267 133.989 22.8078C134.255 23.8046 134.701 24.7332 135.221 25.6C135.753 26.4605 136.403 27.253 137.14 27.9341L135.431 28.3798C136.007 26.8258 136.391 25.1976 136.564 23.5198C136.737 21.842 136.675 20.1209 136.453 18.3255Z" fill="#CFA970"/>
<path d="M178.75 28.2929C179.146 29.7539 179.778 30.9117 180.657 31.7723C181.523 32.6266 182.632 33.2767 183.777 33.6729L182.403 34.8059C182.322 33.7844 182.112 32.769 181.783 31.7598C181.461 30.7383 180.985 29.7415 180.409 28.6705C182.65 29.6549 184.21 32.0446 184.52 34.5767L184.718 36.1741L183.145 35.7036C182.347 35.4683 181.622 35.1092 180.954 34.6387C180.285 34.1619 179.697 33.5614 179.251 32.868C178.347 31.4751 178.143 29.692 178.75 28.2929Z" fill="#CFA970"/>
<path d="M172.553 26.7017C172.658 27.5065 172.905 28.1566 173.19 28.8314C173.487 29.5 173.766 30.0758 174.187 30.5958C174.559 31.1345 175.041 31.5863 175.549 32.0073C176.057 32.4221 176.62 32.8122 177.19 33.1032L175.667 34.0132C175.747 32.8803 175.673 31.7349 175.469 30.5772C175.351 30.0014 175.221 29.4133 175.035 28.8251C174.862 28.237 174.639 27.6488 174.404 27.0297C174.961 27.3888 175.45 27.8532 175.877 28.3671C176.298 28.8871 176.67 29.4628 176.954 30.0881C177.536 31.3201 177.815 32.7193 177.79 34.1061L177.759 35.7219L176.261 35.0161C175.475 34.6385 174.781 34.1618 174.156 33.5799C173.525 33.0041 173.023 32.286 172.621 31.5245C172.255 30.7506 172.026 29.8838 172.014 29.0727C171.989 28.2741 172.101 27.3765 172.553 26.7017Z" fill="#CFA970"/>
<path d="M166.43 25.1911C166.51 26.0083 166.752 26.677 167.024 27.3766C167.309 28.0638 167.575 28.6643 167.996 29.2029C168.368 29.7663 168.85 30.2367 169.358 30.6825C169.872 31.1158 170.435 31.5245 171.017 31.8403L169.47 32.7193C169.575 31.5616 169.525 30.3853 169.333 29.1966C169.228 28.6085 169.104 28.008 168.931 27.4075C168.758 26.8008 168.547 26.194 168.312 25.5625C168.869 25.9464 169.358 26.4292 169.779 26.9678C170.194 27.5065 170.559 28.1009 170.832 28.7386C171.395 30.0139 171.649 31.4441 171.593 32.8556L171.525 34.4714L170.045 33.7285C169.253 33.3323 168.553 32.8308 167.934 32.224C167.303 31.6297 166.807 30.8869 166.411 30.1006C166.058 29.3081 165.835 28.4228 165.842 27.5932C165.829 26.7822 165.959 25.8721 166.43 25.1911Z" fill="#CFA970"/>
</svg>
