<svg xmlns="http://www.w3.org/2000/svg" width="200" height="37" fill="#cfa970"  xmlns:v="https://vecta.io/nano"><path d="M126.931 34.205c-4.402-3.962-9.157-7.516-14.295-10.382-2.569-1.43-5.163-2.811-7.912-3.857-2.681-1.189-5.467-2.099-8.265-2.953-11.261-3.256-23.229-3.343-34.738-1.269-5.77.984-11.453 2.52-17.069 4.297-2.823.861-5.59 1.833-8.451 2.736-2.848.885-5.733 1.672-8.655 2.291-2.928.619-5.894 1.102-8.896 1.282-2.99.173-6.036.118-9.002-.545-2.928-.669-5.888-2-7.795-4.439-.94-1.208-1.529-2.663-1.764-4.149-.198-1.498-.056-3.009.322-4.433-.279 1.449-.303 2.947-.006 4.377.316 1.418.947 2.761 1.894 3.845 1.901 2.179 4.736 3.281 7.559 3.764 2.848.508 5.782.458 8.68.18 2.904-.297 5.789-.823 8.636-1.517 2.848-.7 5.659-1.535 8.451-2.445l8.401-2.885c5.659-1.857 11.429-3.43 17.322-4.476 5.894-1.015 11.905-1.523 17.905-1.269 5.987.279 11.98 1.201 17.688 3.058 2.836.96 5.664 1.944 8.351 3.269 2.749 1.176 5.343 2.681 7.881 4.241 5.021 3.207 9.689 6.965 13.757 11.28zm-86.13-16.802c-1.275-1.498-2.755-2.544-4.389-3.021-.805-.266-1.653-.372-2.501-.409-.848-.019-1.727.037-2.538.204l.625-1.665c.799 1.158 1.764 2.192 2.867 3.12l1.777 1.294a26.53 26.53 0 0 0 1.993 1.133c-.786.037-1.585-.062-2.365-.254-.774-.198-1.548-.477-2.266-.867-1.443-.749-2.724-1.857-3.727-3.176l-.978-1.294 1.61-.372c1.046-.241 2.086-.303 3.139-.21 1.046.099 2.087.39 3.04.848.953.477 1.801 1.145 2.439 1.956.631.811 1.09 1.74 1.275 2.712zm6.804-1.894c-.557-.885-1.244-1.535-1.994-2.167-.749-.619-1.467-1.145-2.309-1.511-.811-.402-1.69-.638-2.582-.805-.898-.155-1.826-.235-2.718-.186l.879-1.548c.681 1.393 1.566 2.681 2.631 3.863l1.74 1.672a26.91 26.91 0 0 0 2 1.523c-.854-.105-1.696-.359-2.501-.706a10.97 10.97 0 0 1-2.285-1.325c-1.43-1.059-2.619-2.464-3.479-4.055l-.768-1.424 1.641-.124c1.121-.08 2.21.012 3.287.254 1.077.235 2.105.7 3.046 1.281.922.613 1.746 1.412 2.322 2.297.582.861 1.077 1.907 1.09 2.959zm5.387-1.425c-.353-.99-.879-1.77-1.473-2.551-.6-.768-1.189-1.436-1.932-1.975-.7-.57-1.504-.997-2.34-1.35a12.23 12.23 0 0 0-2.606-.774l1.189-1.325c.359 1.511.947 2.965 1.727 4.346.402.687.836 1.368 1.337 2.018a26.61 26.61 0 0 0 1.616 1.919c-.811-.297-1.572-.724-2.285-1.232a11.6 11.6 0 0 1-1.944-1.795c-1.164-1.344-2.018-2.978-2.507-4.711l-.446-1.56 1.635.235a10.79 10.79 0 0 1 3.145.966c1.003.464 1.907 1.139 2.699 1.907.762.799 1.393 1.758 1.765 2.755.378.966.638 2.092.421 3.126zm6.03-1.207c-.514-2.08-1.474-3.845-2.873-5.108-.681-.65-1.473-1.164-2.309-1.604-.836-.427-1.74-.786-2.637-1.009l1.282-1.226c.254 1.523.737 3.015 1.418 4.451.353.712.737 1.418 1.183 2.105s.947 1.356 1.486 2.031a9.42 9.42 0 0 1-2.198-1.393c-.662-.563-1.282-1.207-1.808-1.925-1.065-1.424-1.802-3.114-2.173-4.878l-.328-1.591 1.61.359a10.91 10.91 0 0 1 3.182 1.244 9.92 9.92 0 0 1 2.612 2.235c.712.904 1.244 1.95 1.511 3.046.26 1.09.291 2.21.043 3.263zm3.324-1.324c-1.387-1.17-2.433-2.749-3.139-4.47-.693-1.733-1.022-3.622-.997-5.498L58.229 0l1.48.65a10.5 10.5 0 0 1 3.071 2.049c.904.848 1.61 1.882 2.154 2.972.514 1.108.842 2.297.916 3.492.074 1.183-.056 2.371-.464 3.455-.21-2.284-.873-4.352-2.018-6.073-.551-.873-1.251-1.622-2.006-2.297a11.13 11.13 0 0 0-2.526-1.659l1.498-.935c-.087 1.659.025 3.324.359 4.977s.904 3.281 1.653 4.922zM21.04 23.433c-1.083-1.059-2.216-1.733-3.411-2.024-1.176-.297-2.464-.291-3.659-.05l.613-1.672c.588.836 1.282 1.604 2.08 2.303.799.718 1.715 1.331 2.755 1.956-2.427.297-4.984-.972-6.544-2.99l-.978-1.275 1.591-.396a7.48 7.48 0 0 1 2.427-.192 6.53 6.53 0 0 1 2.371.656c1.486.743 2.569 2.173 2.755 3.684zm6.141-1.783c-.495-.644-1.04-1.071-1.628-1.505-.594-.427-1.127-.78-1.752-1.015-.601-.272-1.244-.415-1.894-.526-.65-.093-1.331-.142-1.975-.105l.854-1.56c.508 1.015 1.152 1.969 1.919 2.86l1.257 1.288 1.461 1.226c-.662-.025-1.319-.18-1.95-.402a8.3 8.3 0 0 1-1.802-.935c-1.127-.768-2.08-1.826-2.761-3.034l-.799-1.412 1.653-.149a8.28 8.28 0 0 1 2.538.161c.836.173 1.634.539 2.365.991.712.483 1.35 1.108 1.777 1.802.427.675.786 1.504.737 2.316zm6.043-1.808c-.489-.669-1.034-1.127-1.622-1.585-.594-.446-1.133-.823-1.764-1.083-.607-.291-1.263-.452-1.925-.576-.662-.111-1.362-.179-2.018-.148l.885-1.548c.495 1.053 1.133 2.037 1.907 2.959l1.263 1.337 1.467 1.275c-.675-.043-1.337-.21-1.975-.458-.638-.254-1.257-.582-1.814-.997-1.133-.805-2.074-1.907-2.743-3.151l-.768-1.43 1.653-.118a8.57 8.57 0 0 1 2.582.223c.848.198 1.653.582 2.39 1.059.712.501 1.35 1.152 1.771 1.87.421.693.774 1.541.712 2.371zm8.104 3.591c.34.929.415 1.956.285 2.984-.142 1.022-.526 2.031-1.102 2.922-.594.879-1.337 1.659-2.192 2.278a10.17 10.17 0 0 1-2.811 1.418l-1.573.495.186-1.61c.192-1.647.73-3.25 1.591-4.637.421-.693.941-1.325 1.511-1.895.576-.557 1.207-1.052 1.907-1.424l-1.139 1.994a19.66 19.66 0 0 0-.873 2.018c-.483 1.356-.78 2.743-.879 4.142l-1.387-1.108c.786-.272 1.566-.675 2.291-1.12.712-.464 1.387-.985 1.95-1.622 1.158-1.244 1.901-2.897 2.235-4.835zm6.822-1.826c.526.91.631 2.055.57 3.102-.05 1.052-.353 2.161-.83 3.157-.514.978-1.17 1.901-1.975 2.65-.805.762-1.69 1.393-2.699 1.888l-1.474.731-.062-1.616c-.068-1.802.241-3.622.929-5.262a10.9 10.9 0 0 1 1.294-2.303c.52-.706 1.114-1.35 1.795-1.882l-.947 2.328a19.19 19.19 0 0 0-.644 2.328 16.5 16.5 0 0 0-.303 4.668l-1.542-.891c.786-.409 1.548-.953 2.241-1.535.681-.601 1.319-1.257 1.808-2.012.539-.737.892-1.56 1.226-2.476.322-.922.582-1.826.613-2.873zm5.362-1.511c.712.774 1.065 1.87 1.232 2.904.179 1.04.13 2.185-.124 3.263-.291 1.071-.724 2.111-1.35 3.015a10.87 10.87 0 0 1-2.216 2.433l-1.288 1.034-.415-1.566c-.458-1.746-.551-3.585-.229-5.337.142-.873.409-1.727.755-2.532.353-.799.792-1.56 1.343-2.223l-.421 2.476c-.093.811-.124 1.616-.118 2.415.025 1.591.26 3.139.718 4.619l-1.696-.532c.681-.576 1.306-1.269 1.851-1.987.532-.737 1.015-1.511 1.331-2.359.365-.842.526-1.715.65-2.681.118-.972.173-1.913-.025-2.941zm5.807-2.037c.749.78 1.288 1.764 1.622 2.835.328 1.077.402 2.247.248 3.393a10.01 10.01 0 0 1-1.108 3.25c-.563.997-1.257 1.901-2.111 2.693l-1.207 1.12-.52-1.535a12.39 12.39 0 0 1-.613-5.306c.087-.885.291-1.752.576-2.575.297-.823.681-1.616 1.183-2.315l-.241 2.501c-.037.817-.006 1.622.05 2.415.142 1.585.489 3.114 1.046 4.557l-1.733-.409c.669-.65 1.257-1.418 1.764-2.21.495-.805.916-1.647 1.17-2.551.563-1.802.489-3.807-.124-5.863zm4.228.267c-.223 1.795-.291 3.516-.117 5.194a19.86 19.86 0 0 0 1.133 4.86l-1.709-.446a11.06 11.06 0 0 0 1.919-2.334c.526-.867.966-1.795 1.238-2.792.582-1.981.6-4.154.13-6.401.706.916 1.189 2.012 1.467 3.17.279 1.164.316 2.39.161 3.603-.204 1.201-.57 2.402-1.182 3.473-.594 1.084-1.387 2.049-2.322 2.866l-1.22 1.065-.489-1.511c-.576-1.783-.823-3.684-.675-5.541.161-1.857.693-3.671 1.665-5.207zm-42.296 9.967c.601 1.399.402 3.182-.502 4.575a6.72 6.72 0 0 1-1.703 1.771 7.46 7.46 0 0 1-2.198 1.065l-1.566.471.198-1.597c.31-2.532 1.863-4.922 4.111-5.906-.576 1.071-1.052 2.068-1.374 3.089a13.2 13.2 0 0 0-.625 3.046l-1.374-1.133c1.152-.396 2.26-1.046 3.12-1.901.885-.861 1.517-2.018 1.913-3.479zm6.191-1.591c.458.675.57 1.572.545 2.371-.012.811-.248 1.678-.613 2.452-.396.762-.904 1.48-1.529 2.055a8.39 8.39 0 0 1-2.105 1.436l-1.498.706-.031-1.616c-.025-1.387.248-2.786.836-4.018.279-.625.65-1.201 1.071-1.721.433-.514.916-.978 1.473-1.337l-.631 1.795a17.13 17.13 0 0 0-.427 1.752 13.71 13.71 0 0 0-.198 3.436l-1.529-.91c.569-.291 1.133-.681 1.647-1.096.502-.421.984-.873 1.362-1.412.421-.52.7-1.096.991-1.764.285-.675.539-1.325.638-2.13z"/><path d="M33.565 25.191c.471.681.6 1.591.594 2.402 0 .83-.217 1.715-.576 2.507-.39.786-.885 1.529-1.517 2.123a8.39 8.39 0 0 1-2.111 1.505l-1.486.743-.062-1.616c-.056-1.412.192-2.842.755-4.117a7.99 7.99 0 0 1 1.059-1.771c.421-.539.904-1.021 1.461-1.405l-.613 1.845c-.18.601-.297 1.201-.409 1.789a13.79 13.79 0 0 0-.13 3.523l-1.548-.879c.576-.316 1.145-.724 1.659-1.158.508-.446.991-.916 1.362-1.48.415-.539.687-1.139.966-1.826.279-.7.514-1.368.594-2.186zm39.498 9.014c4.067-4.315 8.735-8.073 13.763-11.28 2.532-1.56 5.126-3.064 7.875-4.241 2.687-1.325 5.522-2.309 8.357-3.269 5.709-1.857 11.695-2.78 17.688-3.058 5.993-.254 12.005.254 17.898 1.269 5.894 1.046 11.671 2.619 17.323 4.476 2.823.916 5.627 1.95 8.401 2.885 2.792.91 5.609 1.746 8.457 2.445 2.842.693 5.727 1.22 8.63 1.517 2.898.279 5.838.328 8.686-.18 2.823-.483 5.653-1.585 7.56-3.764.941-1.083 1.572-2.427 1.888-3.845.297-1.43.272-2.928 0-4.377.377 1.424.52 2.935.322 4.433-.242 1.486-.83 2.941-1.771 4.148-1.901 2.439-4.866 3.77-7.788 4.439-2.972.662-6.012.718-9.008.545-3.003-.18-5.968-.662-8.89-1.282-2.929-.619-5.814-1.405-8.662-2.291l-8.444-2.736c-5.615-1.777-11.299-3.312-17.075-4.297-11.509-2.074-23.47-1.987-34.738 1.269-2.792.854-5.584 1.764-8.265 2.953-2.743 1.046-5.343 2.427-7.906 3.857-5.145 2.866-9.899 6.42-14.301 10.382zm86.136-16.802c.179-.972.638-1.901 1.275-2.712s1.486-1.48 2.433-1.956a9.03 9.03 0 0 1 3.04-.848 9.95 9.95 0 0 1 3.139.21l1.61.372-.979 1.294c-.996 1.319-2.278 2.427-3.727 3.176-.718.39-1.485.669-2.259.867a8.32 8.32 0 0 1-2.372.254l1.994-1.133c.631-.396 1.22-.842 1.777-1.294 1.108-.929 2.074-1.963 2.866-3.12l.632 1.665c-.818-.167-1.69-.223-2.545-.204-.848.037-1.696.142-2.501.409-1.634.477-3.108 1.523-4.383 3.021zm-6.804-1.894c.012-1.052.501-2.099 1.083-2.959.582-.885 1.406-1.684 2.322-2.297.947-.582 1.975-1.046 3.052-1.281 1.077-.241 2.161-.334 3.281-.254l1.647.124-.774 1.424c-.854 1.591-2.049 2.996-3.479 4.055a10.84 10.84 0 0 1-2.284 1.325c-.805.347-1.641.6-2.502.706l2-1.523c.632-.526 1.201-1.096 1.74-1.672 1.071-1.182 1.956-2.47 2.637-3.863l.873 1.548c-.891-.05-1.82.031-2.712.186-.891.167-1.776.402-2.581.805-.842.365-1.56.892-2.316 1.511-.749.632-1.43 1.282-1.987 2.167zm-5.386-1.425c-.217-1.034.037-2.161.415-3.126.371-.997 1.003-1.956 1.77-2.755.793-.768 1.697-1.442 2.693-1.907a10.83 10.83 0 0 1 3.152-.966l1.628-.235-.44 1.56c-.489 1.733-1.349 3.368-2.513 4.711-.57.675-1.232 1.275-1.938 1.795-.712.508-1.48.935-2.291 1.232l1.622-1.919c.496-.65.929-1.331 1.331-2.018a16.44 16.44 0 0 0 1.728-4.346l1.195 1.325c-.88.149-1.771.427-2.607.774-.836.353-1.641.78-2.346 1.35-.743.539-1.325 1.207-1.926 1.975-.594.78-1.12 1.56-1.473 2.551zm-6.037-1.207c-.247-1.053-.21-2.173.05-3.263a7.95 7.95 0 0 1 1.51-3.046c.731-.892 1.622-1.653 2.607-2.235a10.92 10.92 0 0 1 3.182-1.244l1.616-.359-.335 1.591c-.365 1.764-1.102 3.455-2.173 4.878a10.91 10.91 0 0 1-1.807 1.925c-.669.563-1.406 1.04-2.192 1.393l1.48-2.031c.452-.687.835-1.393 1.188-2.105.681-1.436 1.164-2.928 1.418-4.451l1.275 1.226c-.897.223-1.795.582-2.637 1.009-.83.44-1.628.953-2.309 1.604-1.399 1.263-2.353 3.027-2.873 5.108zm-3.318-1.324c.749-1.641 1.318-3.269 1.647-4.922a19.88 19.88 0 0 0 .365-4.977l1.498.935c-.91.427-1.764.997-2.526 1.659-.761.675-1.455 1.424-2.006 2.297-1.145 1.721-1.808 3.789-2.024 6.073-.409-1.083-.539-2.272-.465-3.455.081-1.195.409-2.384.917-3.492.551-1.09 1.256-2.124 2.154-2.972.892-.861 1.938-1.548 3.071-2.049l1.479-.65.019 1.585c.025 1.876-.303 3.764-.997 5.498-.705 1.721-1.746 3.3-3.132 4.47zm41.301 11.88c.192-1.511 1.275-2.941 2.761-3.684.736-.371 1.554-.588 2.365-.656a7.52 7.52 0 0 1 2.433.192l1.591.396-.985 1.275c-1.553 2.018-4.11 3.287-6.543 2.99 1.04-.625 1.956-1.238 2.755-1.956.798-.7 1.498-1.467 2.086-2.303l.607 1.672c-1.195-.242-2.477-.248-3.653.05-1.201.291-2.328.966-3.417 2.024zm-6.142-1.783c-.044-.811.315-1.641.743-2.315.421-.693 1.064-1.319 1.77-1.802.731-.452 1.529-.817 2.365-.991a8.31 8.31 0 0 1 2.545-.161l1.646.149-.798 1.412c-.681 1.207-1.628 2.266-2.761 3.034a8.04 8.04 0 0 1-1.802.935c-.631.223-1.281.378-1.944.402l1.455-1.226a17.44 17.44 0 0 0 1.257-1.288c.774-.892 1.418-1.845 1.919-2.86l.854 1.56c-.637-.037-1.318.012-1.968.105-.657.111-1.3.254-1.895.526-.625.235-1.158.588-1.752 1.015-.588.433-1.139.861-1.634 1.505zm-6.036-1.808c-.062-.83.285-1.678.712-2.371.414-.718 1.058-1.368 1.77-1.87.731-.477 1.536-.86 2.384-1.059.848-.204 1.702-.279 2.588-.223l1.653.118-.768 1.43c-.669 1.244-1.61 2.346-2.749 3.151-.557.415-1.176.743-1.808.997a6.64 6.64 0 0 1-1.974.458l1.467-1.275c.458-.427.867-.885 1.263-1.337.767-.922 1.405-1.907 1.9-2.959l.886 1.548c-.657-.031-1.35.037-2.012.148-.663.124-1.325.285-1.926.576-.637.26-1.17.638-1.764 1.083-.595.458-1.139.916-1.622 1.585zm-8.111 3.591c.341 1.938 1.078 3.591 2.242 4.835.563.638 1.238 1.158 1.95 1.622.718.446 1.498.848 2.29 1.12l-1.393 1.108c-.092-1.399-.396-2.786-.879-4.142l-.873-2.018a24.23 24.23 0 0 0-1.139-1.994c.7.372 1.338.867 1.913 1.424.564.57 1.084 1.201 1.505 1.895.866 1.387 1.405 2.99 1.591 4.637l.186 1.61-1.573-.495a10.17 10.17 0 0 1-2.811-1.418c-.848-.619-1.597-1.399-2.185-2.278a7.19 7.19 0 0 1-1.102-2.922c-.136-1.028-.056-2.056.278-2.984zm-6.822-1.826c.031 1.046.291 1.95.619 2.873.328.916.681 1.74 1.219 2.476.496.755 1.133 1.412 1.814 2.012.688.582 1.449 1.127 2.242 1.535l-1.542.891c.124-1.548.012-3.108-.303-4.668l-.644-2.328c-.266-.774-.595-1.542-.947-2.328.681.532 1.275 1.176 1.789 1.882s.959 1.48 1.294 2.303c.693 1.641 1.003 3.461.935 5.262l-.062 1.616-1.48-.731a10.81 10.81 0 0 1-2.693-1.888c-.811-.749-1.461-1.672-1.975-2.65-.483-.997-.786-2.105-.836-3.157-.056-1.046.05-2.192.57-3.102zm-5.356-1.511c-.204 1.028-.142 1.969-.031 2.941.124.966.291 1.839.656 2.681.316.848.793 1.622 1.332 2.359.544.718 1.17 1.412 1.851 1.987l-1.697.532c.452-1.48.687-3.027.718-4.619 0-.799-.024-1.604-.123-2.415-.087-.811-.242-1.634-.415-2.476.551.662.99 1.424 1.337 2.223a11.18 11.18 0 0 1 .762 2.532c.315 1.752.222 3.591-.236 5.337l-.414 1.566-1.282-1.034a11.06 11.06 0 0 1-2.223-2.433c-.625-.904-1.058-1.944-1.349-3.015-.248-1.077-.304-2.223-.118-3.263.167-1.034.52-2.13 1.232-2.904zm-5.813-2.037c-.613 2.055-.681 4.061-.124 5.863.254.904.681 1.746 1.17 2.551.508.793 1.102 1.56 1.765 2.21l-1.727.409a16.55 16.55 0 0 0 1.04-4.557 18.28 18.28 0 0 0 .049-2.415c-.031-.817-.124-1.647-.241-2.501.501.7.891 1.492 1.182 2.316a10.91 10.91 0 0 1 .576 2.575c.198 1.771-.025 3.603-.607 5.306l-.526 1.535-1.207-1.12c-.854-.792-1.548-1.696-2.105-2.693-.557-1.003-.935-2.111-1.108-3.25-.161-1.145-.081-2.315.247-3.393.328-1.071.873-2.055 1.616-2.835zm-4.222.267c.972 1.535 1.504 3.349 1.665 5.207.142 1.857-.099 3.758-.681 5.541l-.489 1.511-1.214-1.065c-.941-.817-1.733-1.783-2.327-2.866-.607-1.071-.979-2.272-1.177-3.473-.161-1.213-.124-2.439.161-3.603.279-1.158.756-2.254 1.468-3.17-.477 2.247-.459 4.42.13 6.401.266.997.712 1.925 1.232 2.792a11.23 11.23 0 0 0 1.919 2.334l-1.709.446c.576-1.554.96-3.182 1.133-4.86s.111-3.399-.111-5.194zm42.297 9.967c.396 1.461 1.028 2.619 1.907 3.479.866.854 1.975 1.504 3.12 1.901l-1.374 1.133a13.16 13.16 0 0 0-.62-3.046c-.322-1.021-.798-2.018-1.374-3.089 2.241.984 3.801 3.374 4.111 5.906l.198 1.597-1.573-.471a7.42 7.42 0 0 1-2.191-1.065 6.53 6.53 0 0 1-1.703-1.771c-.904-1.393-1.108-3.176-.501-4.575zm-6.197-1.591c.105.805.352 1.455.637 2.13.297.669.576 1.244.997 1.764.372.539.854.991 1.362 1.412.508.415 1.071.805 1.641 1.096l-1.523.91c.08-1.133.006-2.278-.198-3.436l-.434-1.752c-.173-.588-.396-1.176-.631-1.795a6.57 6.57 0 0 1 1.473 1.337 8.02 8.02 0 0 1 1.077 1.721c.582 1.232.861 2.631.836 4.018l-.031 1.616-1.498-.706a8.39 8.39 0 0 1-2.105-1.436c-.631-.576-1.133-1.294-1.535-2.055-.366-.774-.595-1.641-.607-2.452-.025-.799.087-1.696.539-2.371zm-6.123-1.511c.08.817.322 1.486.594 2.186.285.687.551 1.288.972 1.826.372.563.854 1.034 1.362 1.48.514.433 1.077.842 1.659 1.158l-1.547.879a14.07 14.07 0 0 0-.137-3.523l-.402-1.789-.619-1.845c.557.384 1.046.867 1.467 1.405.415.539.78 1.133 1.053 1.771.563 1.275.817 2.705.761 4.117l-.068 1.616-1.48-.743a8.29 8.29 0 0 1-2.111-1.505c-.631-.594-1.127-1.337-1.523-2.123-.353-.793-.576-1.678-.569-2.507-.013-.811.117-1.721.588-2.402z"/></svg>