<svg width="1165" height="735" viewBox="0 0 1165 735" fill="none" xmlns="http://www.w3.org/2000/svg">
<g filter="url(#filter0_d)">
<path d="M1144.98 114.786L1143.76 606.314C1143.75 611 1139.69 614.669 1135.02 614.267C928.567 596.485 768.19 593.923 622.125 601.403C473.233 593.695 340.139 597.965 130.177 614.323C125.661 614.675 121.695 611.219 121.5 606.694L100.313 115.759C100.136 111.64 103.073 108.064 107.159 107.511C302.78 81.0124 555.809 79.1229 611.443 90.1617C616.904 91.2453 626.937 90.5624 632.332 89.1862C686.955 75.2508 943.621 76.1775 1138.31 106.893C1142.19 107.505 1144.99 110.856 1144.98 114.786Z" fill="#DEBD8D"/>
</g>
<path d="M669.097 592.609L669.484 599.236C669.552 600.385 668.638 601.353 667.487 601.353L577.393 601.307C576.289 601.307 575.394 600.412 575.394 599.307L575.394 592.726C575.394 591.621 576.29 590.726 577.394 590.726H667.1C668.16 590.726 669.035 591.552 669.097 592.609Z" fill="#CFA970"/>
<g filter="url(#filter1_d)">
<path d="M1135.24 124.756C1141.35 389.788 1140.46 352.399 1133.99 605.289C1133.96 606.441 1132.95 607.4 1131.8 607.299C922.233 589.003 769.737 586.306 622.125 593.866C471.775 586.082 341.279 590.512 127.757 607.27C126.612 607.36 125.604 606.497 125.577 605.349C125.396 597.738 124.622 565.668 121.781 452.057C118.554 322.974 105.382 145.056 103.904 125.361C103.825 124.308 104.568 123.458 105.614 123.313C314.684 94.3537 589.258 93.9397 619.786 107.572C621.057 108.14 623.001 107.933 624.192 107.213C652.336 90.1947 925.557 89.2049 1133.57 122.775C1134.53 122.928 1135.22 123.793 1135.24 124.756Z" fill="#F5EAD4"/>
</g>
<g filter="url(#filter2_d)">
<path d="M1127.7 117.219C1133.82 382.251 1135.17 344.862 1128.72 597.751C1128.69 598.904 1127.67 599.862 1126.52 599.762C916.992 581.517 769.737 586.306 622.124 593.866C472.115 586.1 334.415 583.039 121.666 599.62C120.111 599.741 118.754 598.042 119.122 596.526C121.46 586.901 126.745 552.624 124.042 444.52C120.812 315.33 111.653 137.224 110.643 117.775C110.589 116.739 111.328 115.924 112.356 115.781C321.355 86.8221 589.615 86.4017 619.792 100.027C621.061 100.6 622.995 100.393 624.182 99.6658C651.927 82.6572 918.095 81.6741 1126.04 115.237C1126.99 115.391 1127.68 116.256 1127.7 117.219Z" fill="#F5EAD4"/>
</g>
<g filter="url(#filter3_d)">
<path d="M1122.43 102.144C1128.54 367.21 1129.89 337.282 1123.44 590.217C1123.41 591.37 1122.4 592.326 1121.25 592.226C911.752 574.032 769.737 586.307 622.125 593.866C472.356 586.113 332.628 575.62 120.428 592.005C118.689 592.139 117.143 589.887 117.739 588.248C121.589 577.664 129.695 542.474 127.058 436.984C123.822 307.556 116.659 122.286 115.895 102.659C115.855 101.632 116.592 100.852 117.61 100.711C326.58 71.7887 589.966 78.348 619.81 92.4629C621.068 93.0579 622.988 92.8533 624.161 92.1041C651.554 74.6082 912.838 66.636 1120.76 100.163C1121.71 100.317 1122.41 101.18 1122.43 102.144Z" fill="#F5EAD4"/>
</g>
<mask id="mask0" mask-type="alpha" maskUnits="userSpaceOnUse" x="115" y="77" width="1013" height="517">
<path d="M1122.43 102.144C1128.54 367.21 1129.89 337.282 1123.44 590.217C1123.41 591.37 1122.4 592.326 1121.25 592.226C911.752 574.032 769.737 586.307 622.125 593.866C472.356 586.113 332.628 575.62 120.428 592.005C118.689 592.139 117.143 589.887 117.739 588.248C121.589 577.664 129.695 542.474 127.058 436.984C123.822 307.556 116.659 122.286 115.895 102.659C115.855 101.632 116.592 100.852 117.61 100.711C326.58 71.7887 589.966 78.348 619.81 92.4629C621.068 93.0579 622.988 92.8533 624.161 92.1041C651.554 74.6082 912.838 66.636 1120.76 100.163C1121.71 100.317 1122.41 101.18 1122.43 102.144Z" fill="#F5EAD4"/>
</mask>
<g mask="url(#mask0)">
<path d="M875.57 549V545.742H869.36L876.056 536.4H877.298V544.284H878.918V545.742H877.298V549H875.57ZM871.88 544.77L871.574 544.284H875.57V538.65L875.876 539.154L871.88 544.77Z" fill="#8E8B87"/>
<rect opacity="0.2" x="576.902" y="81.2159" width="45.2228" height="513.279" fill="url(#paint0_linear)"/>
<rect opacity="0.2" x="667.347" y="594.495" width="45.2228" height="513.279" transform="rotate(-180 667.347 594.495)" fill="url(#paint1_linear)"/>
<rect opacity="0.6" x="621.371" y="93.2759" width="1.50743" height="501.219" fill="#1E170B"/>
</g>
<rect x="141" y="528" width="70" height="46" rx="23" fill="#EECE9F" stroke="#EECE9F" stroke-width="2"/>
<path fill-rule="evenodd" clip-rule="evenodd" d="M179.707 544.293C180.098 544.683 180.098 545.317 179.707 545.707L174.414 551L179.707 556.293C180.098 556.683 180.098 557.317 179.707 557.707C179.317 558.098 178.683 558.098 178.293 557.707L172.293 551.707C171.902 551.317 171.902 550.683 172.293 550.293L178.293 544.293C178.683 543.902 179.317 543.902 179.707 544.293Z" fill="#29200F"/>
<rect x="1034" y="528" width="70" height="46" rx="23" fill="#EECE9F" stroke="#EECE9F" stroke-width="2"/>
<path fill-rule="evenodd" clip-rule="evenodd" d="M1065.29 544.293C1065.68 543.902 1066.32 543.902 1066.71 544.293L1072.71 550.293C1073.1 550.683 1073.1 551.317 1072.71 551.707L1066.71 557.707C1066.32 558.098 1065.68 558.098 1065.29 557.707C1064.9 557.317 1064.9 556.683 1065.29 556.293L1070.59 551L1065.29 545.707C1064.9 545.317 1064.9 544.683 1065.29 544.293Z" fill="#29200F"/>
<rect x="186" y="147" width="365" height="365" rx="20" fill="#123C5A"/>
<path d="M684.92 357V340.2H690.224C691.728 340.2 692.908 340.54 693.764 341.22C694.62 341.892 695.048 342.92 695.048 344.304C695.048 345.24 694.844 346.064 694.436 346.776C694.028 347.488 693.416 347.952 692.6 348.168L692.936 347.784C694.104 347.976 695.008 348.444 695.648 349.188C696.288 349.924 696.608 350.928 696.608 352.2C696.608 353.672 696.132 354.84 695.18 355.704C694.236 356.568 692.928 357 691.256 357H684.92ZM687.2 354.936H691.064C691.992 354.936 692.732 354.704 693.284 354.24C693.836 353.776 694.112 353.072 694.112 352.128C694.112 351.072 693.828 350.328 693.26 349.896C692.7 349.464 691.968 349.248 691.064 349.248H687.2V354.936ZM687.2 347.184H689.936C690.752 347.184 691.416 347.02 691.928 346.692C692.44 346.364 692.696 345.704 692.696 344.712C692.696 343.728 692.44 343.072 691.928 342.744C691.416 342.408 690.752 342.24 689.936 342.24H687.2V347.184ZM704.428 357.24C703.604 357.24 702.804 357.044 702.028 356.652C701.26 356.252 700.724 355.664 700.42 354.888L700.948 354.504L700.54 357H698.62V339H700.78V347.544L700.324 347.208C700.724 346.56 701.296 346.032 702.04 345.624C702.784 345.208 703.58 345 704.428 345C705.524 345 706.468 345.288 707.26 345.864C708.052 346.432 708.66 347.184 709.084 348.12C709.516 349.048 709.732 350.048 709.732 351.12C709.732 352.264 709.496 353.3 709.024 354.228C708.552 355.148 707.916 355.88 707.116 356.424C706.316 356.968 705.42 357.24 704.428 357.24ZM704.164 355.32C704.852 355.32 705.448 355.132 705.952 354.756C706.456 354.372 706.844 353.864 707.116 353.232C707.388 352.592 707.524 351.888 707.524 351.12C707.524 350.32 707.388 349.604 707.116 348.972C706.844 348.34 706.456 347.84 705.952 347.472C705.448 347.104 704.852 346.92 704.164 346.92C703.548 346.92 702.972 347.076 702.436 347.388C701.908 347.692 701.48 348.156 701.152 348.78C700.824 349.396 700.66 350.176 700.66 351.12C700.66 352.104 700.824 352.904 701.152 353.52C701.48 354.136 701.908 354.592 702.436 354.888C702.972 355.176 703.548 355.32 704.164 355.32ZM711.481 357V354.456H714.073V357H711.481ZM725.92 357V342.264H721.024V340.2H733.096V342.264H728.2V357H725.92ZM734.76 357V339H736.944V347.28L736.176 347.232C736.728 346.536 737.32 345.992 737.952 345.6C738.592 345.2 739.408 345 740.4 345C741.416 345 742.264 345.228 742.944 345.684C743.624 346.14 744.132 346.776 744.468 347.592C744.812 348.408 744.984 349.36 744.984 350.448V357H742.824V350.712C742.824 349.416 742.584 348.46 742.104 347.844C741.632 347.228 740.904 346.92 739.92 346.92C739.176 346.92 738.516 347.12 737.94 347.52C737.372 347.92 736.92 348.456 736.584 349.128L736.944 347.808V357H734.76ZM747.792 357V345.24H749.952V357H747.792ZM747.792 342.6V340.2H749.952V342.6H747.792ZM756.214 357.24C755.174 357.24 754.31 357.116 753.622 356.868C752.942 356.62 752.462 356.4 752.182 356.208L752.446 354.12C752.702 354.344 753.154 354.6 753.802 354.888C754.45 355.176 755.222 355.32 756.118 355.32C756.878 355.32 757.458 355.192 757.858 354.936C758.266 354.68 758.47 354.32 758.47 353.856C758.47 353.448 758.338 353.12 758.074 352.872C757.818 352.616 757.506 352.416 757.138 352.272C756.778 352.12 756.438 352 756.118 351.912C755.582 351.768 755.026 351.588 754.45 351.372C753.882 351.148 753.402 350.816 753.01 350.376C752.618 349.936 752.422 349.32 752.422 348.528C752.422 347.928 752.566 347.36 752.854 346.824C753.142 346.28 753.61 345.84 754.258 345.504C754.906 345.168 755.766 345 756.838 345C757.622 345 758.258 345.084 758.746 345.252C759.242 345.412 759.67 345.584 760.03 345.768L759.766 347.736C759.422 347.448 759.022 347.204 758.566 347.004C758.11 346.804 757.55 346.704 756.886 346.704C756.214 346.704 755.666 346.832 755.242 347.088C754.818 347.336 754.606 347.736 754.606 348.288C754.606 348.84 754.83 349.232 755.278 349.464C755.734 349.696 756.422 349.952 757.342 350.232C757.63 350.312 757.962 350.428 758.338 350.58C758.722 350.732 759.094 350.936 759.454 351.192C759.814 351.448 760.11 351.784 760.342 352.2C760.582 352.608 760.702 353.12 760.702 353.736C760.702 354.256 760.578 354.788 760.33 355.332C760.082 355.868 759.634 356.32 758.986 356.688C758.338 357.056 757.414 357.24 756.214 357.24ZM768.206 357V345.24H770.366V357H768.206ZM768.206 342.6V340.2H770.366V342.6H768.206ZM776.628 357.24C775.588 357.24 774.724 357.116 774.036 356.868C773.356 356.62 772.876 356.4 772.596 356.208L772.86 354.12C773.116 354.344 773.568 354.6 774.216 354.888C774.864 355.176 775.636 355.32 776.532 355.32C777.292 355.32 777.872 355.192 778.272 354.936C778.68 354.68 778.884 354.32 778.884 353.856C778.884 353.448 778.752 353.12 778.488 352.872C778.232 352.616 777.92 352.416 777.552 352.272C777.192 352.12 776.852 352 776.532 351.912C775.996 351.768 775.44 351.588 774.864 351.372C774.296 351.148 773.816 350.816 773.424 350.376C773.032 349.936 772.836 349.32 772.836 348.528C772.836 347.928 772.98 347.36 773.268 346.824C773.556 346.28 774.024 345.84 774.672 345.504C775.32 345.168 776.18 345 777.252 345C778.036 345 778.672 345.084 779.16 345.252C779.656 345.412 780.084 345.584 780.444 345.768L780.18 347.736C779.836 347.448 779.436 347.204 778.98 347.004C778.524 346.804 777.964 346.704 777.3 346.704C776.628 346.704 776.08 346.832 775.656 347.088C775.232 347.336 775.02 347.736 775.02 348.288C775.02 348.84 775.244 349.232 775.692 349.464C776.148 349.696 776.836 349.952 777.756 350.232C778.044 350.312 778.376 350.428 778.752 350.58C779.136 350.732 779.508 350.936 779.868 351.192C780.228 351.448 780.524 351.784 780.756 352.2C780.996 352.608 781.116 353.12 781.116 353.736C781.116 354.256 780.992 354.788 780.744 355.332C780.496 355.868 780.048 356.32 779.4 356.688C778.752 357.056 777.828 357.24 776.628 357.24ZM792.676 357.24C791.932 357.24 791.336 357.104 790.888 356.832C790.44 356.56 790.112 356.212 789.904 355.788C789.704 355.356 789.604 354.904 789.604 354.432V346.92H787.588L787.78 345.24H789.604V342.336L791.764 342.12V345.24H794.86V346.92H791.764V353.112C791.764 353.864 791.808 354.408 791.896 354.744C791.984 355.08 792.2 355.292 792.544 355.38C792.896 355.468 793.46 355.512 794.236 355.512H794.788L794.62 357.24H792.676ZM796.682 357V339H798.866V347.28L798.098 347.232C798.65 346.536 799.242 345.992 799.874 345.6C800.514 345.2 801.33 345 802.322 345C803.338 345 804.186 345.228 804.866 345.684C805.546 346.14 806.054 346.776 806.39 347.592C806.734 348.408 806.906 349.36 806.906 350.448V357H804.746V350.712C804.746 349.416 804.506 348.46 804.026 347.844C803.554 347.228 802.826 346.92 801.842 346.92C801.098 346.92 800.438 347.12 799.862 347.52C799.294 347.92 798.842 348.456 798.506 349.128L798.866 347.808V357H796.682ZM815.354 357.24C813.97 357.24 812.806 356.956 811.862 356.388C810.918 355.82 810.202 355.068 809.714 354.132C809.234 353.188 808.994 352.152 808.994 351.024C808.994 349.928 809.218 348.924 809.666 348.012C810.122 347.1 810.778 346.372 811.634 345.828C812.498 345.276 813.538 345 814.754 345C815.73 345 816.598 345.196 817.358 345.588C818.126 345.972 818.726 346.536 819.158 347.28C819.598 348.016 819.818 348.912 819.818 349.968C819.818 350.136 819.81 350.32 819.794 350.52C819.786 350.712 819.762 350.912 819.722 351.12H811.202C811.306 352.208 811.566 353.056 811.982 353.664C812.398 354.272 812.922 354.7 813.554 354.948C814.186 355.196 814.874 355.32 815.618 355.32C816.162 355.32 816.73 355.264 817.322 355.152C817.914 355.04 818.474 354.864 819.002 354.624L819.29 356.328C818.834 356.528 818.278 356.732 817.622 356.94C816.966 357.14 816.21 357.24 815.354 357.24ZM811.394 349.632H817.586C817.586 349.08 817.482 348.6 817.274 348.192C817.066 347.784 816.75 347.472 816.326 347.256C815.902 347.032 815.362 346.92 814.706 346.92C813.746 346.92 813.006 347.16 812.486 347.64C811.974 348.112 811.61 348.776 811.394 349.632ZM830.41 357.24C829.65 357.24 829.046 357.104 828.598 356.832C828.158 356.552 827.842 356.196 827.65 355.764C827.458 355.332 827.362 354.88 827.362 354.408V339H829.522V353.16C829.522 353.832 829.566 354.336 829.654 354.672C829.742 355.008 829.918 355.232 830.182 355.344C830.454 355.456 830.866 355.512 831.418 355.512L831.106 357.24H830.41ZM838.581 357.24C837.197 357.24 836.033 356.956 835.089 356.388C834.145 355.82 833.429 355.068 832.941 354.132C832.461 353.188 832.221 352.152 832.221 351.024C832.221 349.928 832.445 348.924 832.893 348.012C833.349 347.1 834.005 346.372 834.861 345.828C835.725 345.276 836.765 345 837.981 345C838.957 345 839.825 345.196 840.585 345.588C841.353 345.972 841.953 346.536 842.385 347.28C842.825 348.016 843.045 348.912 843.045 349.968C843.045 350.136 843.037 350.32 843.021 350.52C843.013 350.712 842.989 350.912 842.949 351.12H834.429C834.533 352.208 834.793 353.056 835.209 353.664C835.625 354.272 836.149 354.7 836.781 354.948C837.413 355.196 838.101 355.32 838.845 355.32C839.389 355.32 839.957 355.264 840.549 355.152C841.141 355.04 841.701 354.864 842.229 354.624L842.517 356.328C842.061 356.528 841.505 356.732 840.849 356.94C840.193 357.14 839.437 357.24 838.581 357.24ZM834.621 349.632H840.813C840.813 349.08 840.709 348.6 840.501 348.192C840.293 347.784 839.977 347.472 839.553 347.256C839.129 347.032 838.589 346.92 837.933 346.92C836.973 346.92 836.233 347.16 835.713 347.64C835.201 348.112 834.837 348.776 834.621 349.632ZM849.278 357.24C848.534 357.24 847.938 357.104 847.49 356.832C847.042 356.56 846.714 356.212 846.506 355.788C846.306 355.356 846.206 354.904 846.206 354.432V346.92H844.19L844.382 345.24H846.206V342.336L848.366 342.12V345.24H851.462V346.92H848.366V353.112C848.366 353.864 848.41 354.408 848.498 354.744C848.586 355.08 848.802 355.292 849.146 355.38C849.498 355.468 850.062 355.512 850.838 355.512H851.39L851.222 357.24H849.278ZM857.364 357.24C856.62 357.24 856.024 357.104 855.576 356.832C855.128 356.56 854.8 356.212 854.592 355.788C854.392 355.356 854.292 354.904 854.292 354.432V346.92H852.276L852.468 345.24H854.292V342.336L856.452 342.12V345.24H859.548V346.92H856.452V353.112C856.452 353.864 856.496 354.408 856.584 354.744C856.672 355.08 856.888 355.292 857.232 355.38C857.584 355.468 858.148 355.512 858.924 355.512H859.476L859.308 357.24H857.364ZM866.94 357.24C865.556 357.24 864.392 356.956 863.448 356.388C862.504 355.82 861.788 355.068 861.3 354.132C860.82 353.188 860.58 352.152 860.58 351.024C860.58 349.928 860.804 348.924 861.252 348.012C861.708 347.1 862.364 346.372 863.22 345.828C864.084 345.276 865.124 345 866.34 345C867.316 345 868.184 345.196 868.944 345.588C869.712 345.972 870.312 346.536 870.744 347.28C871.184 348.016 871.404 348.912 871.404 349.968C871.404 350.136 871.396 350.32 871.38 350.52C871.372 350.712 871.348 350.912 871.308 351.12H862.788C862.892 352.208 863.152 353.056 863.568 353.664C863.984 354.272 864.508 354.7 865.14 354.948C865.772 355.196 866.46 355.32 867.204 355.32C867.748 355.32 868.316 355.264 868.908 355.152C869.5 355.04 870.06 354.864 870.588 354.624L870.876 356.328C870.42 356.528 869.864 356.732 869.208 356.94C868.552 357.14 867.796 357.24 866.94 357.24ZM862.98 349.632H869.172C869.172 349.08 869.068 348.6 868.86 348.192C868.652 347.784 868.336 347.472 867.912 347.256C867.488 347.032 866.948 346.92 866.292 346.92C865.332 346.92 864.592 347.16 864.072 347.64C863.56 348.112 863.196 348.776 862.98 349.632ZM873.581 357V345.24H875.357L875.621 347.184C876.221 346.44 876.793 345.892 877.337 345.54C877.889 345.18 878.477 345 879.101 345C879.301 345 879.485 345.024 879.653 345.072L879.437 347.448C879.333 347.424 879.221 347.408 879.101 347.4C878.989 347.384 878.861 347.376 878.717 347.376C878.093 347.376 877.517 347.516 876.989 347.796C876.469 348.068 876.101 348.368 875.885 348.696V357H873.581ZM887.022 357V340.2H892.326C893.83 340.2 895.01 340.54 895.866 341.22C896.722 341.892 897.15 342.92 897.15 344.304C897.15 345.24 896.946 346.064 896.538 346.776C896.13 347.488 895.518 347.952 894.702 348.168L895.038 347.784C896.206 347.976 897.11 348.444 897.75 349.188C898.39 349.924 898.71 350.928 898.71 352.2C898.71 353.672 898.234 354.84 897.282 355.704C896.338 356.568 895.03 357 893.358 357H887.022ZM889.302 354.936H893.166C894.094 354.936 894.834 354.704 895.386 354.24C895.938 353.776 896.214 353.072 896.214 352.128C896.214 351.072 895.93 350.328 895.362 349.896C894.802 349.464 894.07 349.248 893.166 349.248H889.302V354.936ZM889.302 347.184H892.038C892.854 347.184 893.518 347.02 894.03 346.692C894.542 346.364 894.798 345.704 894.798 344.712C894.798 343.728 894.542 343.072 894.03 342.744C893.518 342.408 892.854 342.24 892.038 342.24H889.302V347.184ZM900.622 357V354.456H903.214V357H900.622ZM911.725 357V340.2H917.029C918.533 340.2 919.713 340.54 920.569 341.22C921.425 341.892 921.853 342.92 921.853 344.304C921.853 345.24 921.649 346.064 921.241 346.776C920.833 347.488 920.221 347.952 919.405 348.168L919.741 347.784C920.909 347.976 921.813 348.444 922.453 349.188C923.093 349.924 923.413 350.928 923.413 352.2C923.413 353.672 922.937 354.84 921.985 355.704C921.041 356.568 919.733 357 918.061 357H911.725ZM914.005 354.936H917.869C918.797 354.936 919.537 354.704 920.089 354.24C920.641 353.776 920.917 353.072 920.917 352.128C920.917 351.072 920.633 350.328 920.065 349.896C919.505 349.464 918.773 349.248 917.869 349.248H914.005V354.936ZM914.005 347.184H916.741C917.557 347.184 918.221 347.02 918.733 346.692C919.245 346.364 919.501 345.704 919.501 344.712C919.501 343.728 919.245 343.072 918.733 342.744C918.221 342.408 917.557 342.24 916.741 342.24H914.005V347.184ZM925.448 357V345.24H927.608V357H925.448ZM925.448 342.6V340.2H927.608V342.6H925.448ZM935.286 363C934.214 363 933.254 362.868 932.406 362.604C931.566 362.34 930.902 361.948 930.414 361.428C929.934 360.908 929.694 360.264 929.694 359.496C929.694 358.856 929.874 358.304 930.234 357.84C930.602 357.384 931.102 357.016 931.734 356.736C931.358 356.552 931.07 356.336 930.87 356.088C930.678 355.832 930.582 355.552 930.582 355.248C930.582 354.888 930.69 354.564 930.906 354.276C931.13 353.98 931.486 353.736 931.974 353.544C931.318 353.136 930.814 352.588 930.462 351.9C930.11 351.204 929.934 350.432 929.934 349.584C929.934 348.728 930.126 347.956 930.51 347.268C930.894 346.572 931.446 346.02 932.166 345.612C932.894 345.204 933.766 345 934.782 345C935.326 345 935.838 345.08 936.318 345.24C936.806 345.4 937.254 345.624 937.662 345.912C938.022 345.704 938.446 345.532 938.934 345.396C939.43 345.26 939.982 345.192 940.59 345.192C940.63 345.192 940.662 345.192 940.686 345.192C940.718 345.192 940.75 345.192 940.782 345.192L940.518 346.632C940.422 346.632 940.33 346.632 940.242 346.632C940.154 346.632 940.062 346.632 939.966 346.632C939.886 346.632 939.702 346.644 939.414 346.668C939.126 346.692 938.862 346.736 938.622 346.8C938.95 347.184 939.202 347.616 939.378 348.096C939.562 348.568 939.654 349.064 939.654 349.584C939.654 350.48 939.458 351.284 939.066 351.996C938.682 352.7 938.126 353.26 937.398 353.676C936.67 354.084 935.798 354.288 934.782 354.288C934.494 354.288 934.218 354.272 933.954 354.24C933.69 354.2 933.438 354.144 933.198 354.072C932.83 354.192 932.646 354.4 932.646 354.696C932.646 354.872 932.75 355.028 932.958 355.164C933.166 355.292 933.502 355.392 933.966 355.464L937.11 355.968C938.382 356.168 939.362 356.536 940.05 357.072C940.746 357.608 941.094 358.368 941.094 359.352C941.094 360.168 940.854 360.844 940.374 361.38C939.902 361.924 939.23 362.328 938.358 362.592C937.486 362.864 936.462 363 935.286 363ZM935.478 361.08C936.582 361.08 937.43 360.936 938.022 360.648C938.614 360.368 938.91 359.952 938.91 359.4C938.91 358.968 938.722 358.628 938.346 358.38C937.978 358.132 937.446 357.944 936.75 357.816L933.402 357.252C932.962 357.444 932.578 357.7 932.25 358.02C931.922 358.348 931.758 358.728 931.758 359.16C931.758 359.832 932.094 360.32 932.766 360.624C933.446 360.928 934.35 361.08 935.478 361.08ZM934.782 352.56C935.694 352.56 936.39 352.288 936.87 351.744C937.35 351.192 937.59 350.48 937.59 349.608C937.59 348.768 937.35 348.08 936.87 347.544C936.39 347 935.694 346.728 934.782 346.728C933.87 346.728 933.178 347 932.706 347.544C932.234 348.08 931.998 348.768 931.998 349.608C931.998 350.48 932.234 351.192 932.706 351.744C933.178 352.288 933.87 352.56 934.782 352.56ZM948.334 357V340.2H953.638C955.142 340.2 956.322 340.54 957.178 341.22C958.034 341.892 958.462 342.92 958.462 344.304C958.462 345.24 958.258 346.064 957.85 346.776C957.442 347.488 956.83 347.952 956.014 348.168L956.35 347.784C957.518 347.976 958.422 348.444 959.062 349.188C959.702 349.924 960.022 350.928 960.022 352.2C960.022 353.672 959.546 354.84 958.594 355.704C957.65 356.568 956.342 357 954.67 357H948.334ZM950.614 354.936H954.478C955.406 354.936 956.146 354.704 956.698 354.24C957.25 353.776 957.526 353.072 957.526 352.128C957.526 351.072 957.242 350.328 956.674 349.896C956.114 349.464 955.382 349.248 954.478 349.248H950.614V354.936ZM950.614 347.184H953.35C954.166 347.184 954.83 347.02 955.342 346.692C955.854 346.364 956.11 345.704 956.11 344.712C956.11 343.728 955.854 343.072 955.342 342.744C954.83 342.408 954.166 342.24 953.35 342.24H950.614V347.184ZM970.325 357.24C969.597 357.24 968.961 357.092 968.417 356.796C967.873 356.5 967.449 356.096 967.145 355.584C966.849 355.072 966.701 354.488 966.701 353.832C966.701 353.168 966.845 352.6 967.133 352.128C967.429 351.648 967.821 351.252 968.309 350.94C968.805 350.62 969.357 350.368 969.965 350.184C970.573 349.992 971.201 349.856 971.849 349.776C972.505 349.688 973.133 349.64 973.733 349.632C973.733 348.512 973.513 347.78 973.073 347.436C972.633 347.092 971.997 346.92 971.165 346.92C970.725 346.92 970.253 346.988 969.749 347.124C969.253 347.26 968.693 347.544 968.069 347.976L967.757 346.224C968.229 345.864 968.817 345.572 969.521 345.348C970.225 345.116 970.965 345 971.741 345C972.733 345 973.533 345.176 974.141 345.528C974.749 345.872 975.193 346.456 975.473 347.28C975.753 348.104 975.893 349.224 975.893 350.64V353.04C975.893 353.6 975.917 354.064 975.965 354.432C976.021 354.792 976.141 355.064 976.325 355.248C976.517 355.424 976.821 355.512 977.237 355.512H977.453L977.117 357.24H976.949C976.253 357.24 975.713 357.172 975.329 357.036C974.953 356.9 974.665 356.704 974.465 356.448C974.265 356.192 974.085 355.88 973.925 355.512C973.485 356.024 972.965 356.44 972.365 356.76C971.765 357.08 971.085 357.24 970.325 357.24ZM970.733 355.512C971.309 355.512 971.865 355.368 972.401 355.08C972.945 354.792 973.389 354.408 973.733 353.928V351.12C972.589 351.16 971.661 351.272 970.949 351.456C970.245 351.64 969.729 351.916 969.401 352.284C969.073 352.652 968.909 353.128 968.909 353.712C968.909 354.344 969.077 354.804 969.413 355.092C969.757 355.372 970.197 355.512 970.733 355.512ZM979.12 357V345.24H980.8L981.232 347.496L980.392 347.136C981.184 346.256 981.956 345.68 982.708 345.408C983.468 345.136 984.208 345 984.928 345C986.648 345 987.876 345.496 988.612 346.488C989.356 347.48 989.728 348.824 989.728 350.52V357H987.568V350.52C987.568 349.272 987.336 348.36 986.872 347.784C986.408 347.208 985.616 346.92 984.496 346.92C983.704 346.92 982.976 347.096 982.312 347.448C981.656 347.792 981.224 348.344 981.016 349.104L981.28 347.784V357H979.12ZM997.183 357.24C996.183 357.24 995.279 356.968 994.471 356.424C993.663 355.88 993.019 355.148 992.539 354.228C992.067 353.308 991.831 352.28 991.831 351.144C991.831 350.064 992.047 349.056 992.479 348.12C992.919 347.184 993.539 346.432 994.339 345.864C995.139 345.288 996.087 345 997.183 345C997.967 345 998.723 345.172 999.451 345.516C1000.19 345.852 1000.78 346.416 1001.24 347.208L1000.78 347.52V339H1002.94V357H1001.02L1000.61 354.504L1001.17 354.888C1000.82 355.664 1000.28 356.252 999.547 356.652C998.811 357.044 998.023 357.24 997.183 357.24ZM997.567 355.32C998.111 355.32 998.647 355.18 999.175 354.9C999.711 354.62 1000.15 354.176 1000.49 353.568C1000.85 352.952 1001.02 352.144 1001.02 351.144C1001.02 350.216 1000.85 349.44 1000.49 348.816C1000.15 348.184 999.711 347.712 999.175 347.4C998.647 347.08 998.111 346.92 997.567 346.92C996.831 346.92 996.199 347.104 995.671 347.472C995.143 347.84 994.739 348.344 994.459 348.984C994.179 349.616 994.039 350.336 994.039 351.144C994.039 351.904 994.179 352.6 994.459 353.232C994.739 353.864 995.143 354.372 995.671 354.756C996.199 355.132 996.831 355.32 997.567 355.32ZM1014.25 357.24C1013.49 357.24 1012.89 357.104 1012.44 356.832C1012 356.552 1011.69 356.196 1011.49 355.764C1011.3 355.332 1011.21 354.88 1011.21 354.408V339H1013.37V353.16C1013.37 353.832 1013.41 354.336 1013.5 354.672C1013.59 355.008 1013.76 355.232 1014.03 355.344C1014.3 355.456 1014.71 355.512 1015.26 355.512L1014.95 357.24H1014.25ZM1016.9 357V345.24H1019.06V357H1016.9ZM1016.9 342.6V340.2H1019.06V342.6H1016.9ZM1026.04 357.24C1025.3 357.24 1024.7 357.104 1024.26 356.832C1023.81 356.56 1023.48 356.212 1023.27 355.788C1023.07 355.356 1022.97 354.904 1022.97 354.432V346.92H1020.96L1021.15 345.24H1022.97V342.336L1025.13 342.12V345.24H1028.23V346.92H1025.13V353.112C1025.13 353.864 1025.18 354.408 1025.26 354.744C1025.35 355.08 1025.57 355.292 1025.91 355.38C1026.26 355.468 1026.83 355.512 1027.6 355.512H1028.16L1027.99 357.24H1026.04ZM1034.13 357.24C1033.39 357.24 1032.79 357.104 1032.34 356.832C1031.89 356.56 1031.57 356.212 1031.36 355.788C1031.16 355.356 1031.06 354.904 1031.06 354.432V346.92H1029.04L1029.23 345.24H1031.06V342.336L1033.22 342.12V345.24H1036.31V346.92H1033.22V353.112C1033.22 353.864 1033.26 354.408 1033.35 354.744C1033.44 355.08 1033.65 355.292 1034 355.38C1034.35 355.468 1034.91 355.512 1035.69 355.512H1036.24L1036.07 357.24H1034.13ZM1041.18 357.24C1040.42 357.24 1039.82 357.104 1039.37 356.832C1038.93 356.552 1038.62 356.196 1038.42 355.764C1038.23 355.332 1038.14 354.88 1038.14 354.408V339H1040.3V353.16C1040.3 353.832 1040.34 354.336 1040.43 354.672C1040.52 355.008 1040.69 355.232 1040.96 355.344C1041.23 355.456 1041.64 355.512 1042.19 355.512L1041.88 357.24H1041.18ZM1049.35 357.24C1047.97 357.24 1046.81 356.956 1045.86 356.388C1044.92 355.82 1044.2 355.068 1043.71 354.132C1043.23 353.188 1042.99 352.152 1042.99 351.024C1042.99 349.928 1043.22 348.924 1043.67 348.012C1044.12 347.1 1044.78 346.372 1045.63 345.828C1046.5 345.276 1047.54 345 1048.75 345C1049.73 345 1050.6 345.196 1051.36 345.588C1052.13 345.972 1052.73 346.536 1053.16 347.28C1053.6 348.016 1053.82 348.912 1053.82 349.968C1053.82 350.136 1053.81 350.32 1053.79 350.52C1053.79 350.712 1053.76 350.912 1053.72 351.12H1045.2C1045.31 352.208 1045.57 353.056 1045.98 353.664C1046.4 354.272 1046.92 354.7 1047.55 354.948C1048.19 355.196 1048.87 355.32 1049.62 355.32C1050.16 355.32 1050.73 355.264 1051.32 355.152C1051.91 355.04 1052.47 354.864 1053 354.624L1053.29 356.328C1052.83 356.528 1052.28 356.732 1051.62 356.94C1050.97 357.14 1050.21 357.24 1049.35 357.24ZM1045.39 349.632H1051.59C1051.59 349.08 1051.48 348.6 1051.27 348.192C1051.07 347.784 1050.75 347.472 1050.33 347.256C1049.9 347.032 1049.36 346.92 1048.71 346.92C1047.75 346.92 1047.01 347.16 1046.49 347.64C1045.97 348.112 1045.61 348.776 1045.39 349.632ZM690.248 391.24C689.424 391.24 688.624 391.044 687.848 390.652C687.08 390.252 686.544 389.664 686.24 388.888L686.768 388.504L686.36 391H684.44V373H686.6V381.544L686.144 381.208C686.544 380.56 687.116 380.032 687.86 379.624C688.604 379.208 689.4 379 690.248 379C691.344 379 692.288 379.288 693.08 379.864C693.872 380.432 694.48 381.184 694.904 382.12C695.336 383.048 695.552 384.048 695.552 385.12C695.552 386.264 695.316 387.3 694.844 388.228C694.372 389.148 693.736 389.88 692.936 390.424C692.136 390.968 691.24 391.24 690.248 391.24ZM689.984 389.32C690.672 389.32 691.268 389.132 691.772 388.756C692.276 388.372 692.664 387.864 692.936 387.232C693.208 386.592 693.344 385.888 693.344 385.12C693.344 384.32 693.208 383.604 692.936 382.972C692.664 382.34 692.276 381.84 691.772 381.472C691.268 381.104 690.672 380.92 689.984 380.92C689.368 380.92 688.792 381.076 688.256 381.388C687.728 381.692 687.3 382.156 686.972 382.78C686.644 383.396 686.48 384.176 686.48 385.12C686.48 386.104 686.644 386.904 686.972 387.52C687.3 388.136 687.728 388.592 688.256 388.888C688.792 389.176 689.368 389.32 689.984 389.32ZM697.302 391V388.456H699.894V391H697.302Z" fill="#29200F"/>
<path d="M695.96 289.364C697.976 289.604 699.572 290.276 700.748 291.38C701.948 292.484 702.548 293.852 702.548 295.484C702.548 296.732 702.188 297.86 701.468 298.868C700.748 299.876 699.752 300.68 698.48 301.28C697.208 301.856 695.792 302.144 694.232 302.144C693.56 302.144 692.792 302.108 691.928 302.036C691.592 302.012 691.172 301.988 690.668 301.964C690.188 301.94 689.648 301.928 689.048 301.928L686.42 301.964C685.94 301.988 685.292 302 684.476 302C684.404 302 684.368 301.928 684.368 301.784C684.368 301.64 684.404 301.568 684.476 301.568C685.172 301.568 685.7 301.508 686.06 301.388C686.42 301.244 686.672 301.004 686.816 300.668C686.984 300.308 687.068 299.78 687.068 299.084V282.416C687.068 281.408 686.9 280.748 686.564 280.436C686.228 280.1 685.544 279.932 684.512 279.932C684.464 279.932 684.44 279.86 684.44 279.716C684.44 279.572 684.464 279.5 684.512 279.5L686.42 279.536C687.524 279.584 688.4 279.608 689.048 279.608C689.72 279.608 690.416 279.572 691.136 279.5C691.376 279.476 691.736 279.452 692.216 279.428C692.696 279.404 693.116 279.392 693.476 279.392C695.66 279.392 697.352 279.788 698.552 280.58C699.752 281.372 700.352 282.524 700.352 284.036C700.352 285.188 699.968 286.232 699.2 287.168C698.456 288.104 697.376 288.836 695.96 289.364ZM692.936 280.184C692.24 280.184 691.76 280.352 691.496 280.688C691.232 281 691.1 281.6 691.1 282.488V289.328L692.54 289.364C693.788 289.364 694.748 288.896 695.42 287.96C696.092 287.024 696.428 285.824 696.428 284.36C696.428 282.992 696.128 281.96 695.528 281.264C694.928 280.544 694.064 280.184 692.936 280.184ZM693.62 301.244C696.764 301.244 698.336 299.612 698.336 296.348C698.336 294.5 697.892 293.036 697.004 291.956C696.116 290.876 694.772 290.336 692.972 290.336C692.276 290.336 691.652 290.36 691.1 290.408V299.084C691.1 299.876 691.256 300.44 691.568 300.776C691.88 301.088 692.564 301.244 693.62 301.244ZM715.858 287.636C716.938 287.636 717.934 287.888 718.846 288.392C719.758 288.896 720.478 289.652 721.006 290.66C721.558 291.668 721.834 292.892 721.834 294.332C721.834 296.06 721.462 297.536 720.718 298.76C719.998 299.984 719.038 300.908 717.838 301.532C716.662 302.156 715.402 302.468 714.058 302.468C713.146 302.468 712.246 302.324 711.358 302.036C710.494 301.748 709.702 301.328 708.982 300.776L705.706 302.252H705.634C705.538 302.252 705.478 302.204 705.454 302.108C705.43 302.012 705.466 301.952 705.562 301.928C706.138 301.592 706.57 301.136 706.858 300.56C707.17 299.96 707.326 299.204 707.326 298.292V280.796C707.326 279.956 707.242 279.356 707.074 278.996C706.93 278.636 706.654 278.456 706.246 278.456C705.934 278.456 705.49 278.588 704.914 278.852H704.878C704.782 278.852 704.71 278.792 704.662 278.672C704.614 278.528 704.614 278.444 704.662 278.42L709.918 275.936L710.098 275.9C710.218 275.9 710.338 275.96 710.458 276.08C710.602 276.176 710.674 276.272 710.674 276.368V290.048C711.466 289.304 712.27 288.716 713.086 288.284C713.902 287.852 714.826 287.636 715.858 287.636ZM714.922 301.748C715.954 301.748 716.746 301.22 717.298 300.164C717.85 299.108 718.126 297.632 718.126 295.736C718.126 293.648 717.778 292.1 717.082 291.092C716.386 290.06 715.414 289.544 714.166 289.544C713.038 289.544 711.874 289.952 710.674 290.768V296.06C710.674 297.38 710.902 298.472 711.358 299.336C711.814 300.176 712.366 300.788 713.014 301.172C713.662 301.556 714.298 301.748 714.922 301.748Z" fill="#29200F"/>
<path d="M312.68 319.912C328.808 321.832 341.576 327.208 350.984 336.04C360.584 344.872 365.384 355.816 365.384 368.872C365.384 378.856 362.504 387.88 356.744 395.944C350.984 404.008 343.016 410.44 332.84 415.24C322.664 419.848 311.336 422.152 298.856 422.152C293.48 422.152 287.336 421.864 280.424 421.288C277.736 421.096 274.376 420.904 270.344 420.712C266.504 420.52 262.184 420.424 257.384 420.424L236.36 420.712C232.52 420.904 227.336 421 220.808 421C220.232 421 219.944 420.424 219.944 419.272C219.944 418.12 220.232 417.544 220.808 417.544C226.376 417.544 230.6 417.064 233.48 416.104C236.36 414.952 238.376 413.032 239.528 410.344C240.872 407.464 241.544 403.24 241.544 397.672V264.328C241.544 256.264 240.2 250.984 237.512 248.488C234.824 245.8 229.352 244.456 221.096 244.456C220.712 244.456 220.52 243.88 220.52 242.728C220.52 241.576 220.712 241 221.096 241L236.36 241.288C245.192 241.672 252.2 241.864 257.384 241.864C262.76 241.864 268.328 241.576 274.088 241C276.008 240.808 278.888 240.616 282.728 240.424C286.568 240.232 289.928 240.136 292.808 240.136C310.28 240.136 323.816 243.304 333.416 249.64C343.016 255.976 347.816 265.192 347.816 277.288C347.816 286.504 344.744 294.856 338.6 302.344C332.648 309.832 324.008 315.688 312.68 319.912ZM288.488 246.472C282.92 246.472 279.08 247.816 276.968 250.504C274.856 253 273.8 257.8 273.8 264.904V319.624L285.32 319.912C295.304 319.912 302.984 316.168 308.36 308.68C313.736 301.192 316.424 291.592 316.424 279.88C316.424 268.936 314.024 260.68 309.224 255.112C304.424 249.352 297.512 246.472 288.488 246.472ZM293.96 414.952C319.112 414.952 331.688 401.896 331.688 375.784C331.688 361 328.136 349.288 321.032 340.648C313.928 332.008 303.176 327.688 288.776 327.688C283.208 327.688 278.216 327.88 273.8 328.264V397.672C273.8 404.008 275.048 408.52 277.544 411.208C280.04 413.704 285.512 414.952 293.96 414.952ZM471.865 306.088C480.505 306.088 488.473 308.104 495.769 312.136C503.065 316.168 508.825 322.216 513.049 330.28C517.465 338.344 519.673 348.136 519.673 359.656C519.673 373.48 516.697 385.288 510.745 395.08C504.985 404.872 497.305 412.264 487.705 417.256C478.297 422.248 468.217 424.744 457.465 424.744C450.169 424.744 442.969 423.592 435.865 421.288C428.953 418.984 422.617 415.624 416.857 411.208L390.649 423.016H390.073C389.305 423.016 388.825 422.632 388.633 421.864C388.441 421.096 388.729 420.616 389.497 420.424C394.105 417.736 397.561 414.088 399.865 409.48C402.361 404.68 403.609 398.632 403.609 391.336V251.368C403.609 244.648 402.937 239.848 401.593 236.968C400.441 234.088 398.233 232.648 394.969 232.648C392.473 232.648 388.921 233.704 384.313 235.816H384.025C383.257 235.816 382.681 235.336 382.297 234.376C381.913 233.224 381.913 232.552 382.297 232.36L424.345 212.488L425.785 212.2C426.745 212.2 427.705 212.68 428.665 213.64C429.817 214.408 430.393 215.176 430.393 215.944V325.384C436.729 319.432 443.161 314.728 449.689 311.272C456.217 307.816 463.609 306.088 471.865 306.088ZM464.377 418.984C472.633 418.984 478.969 414.76 483.385 406.312C487.801 397.864 490.009 386.056 490.009 370.888C490.009 354.184 487.225 341.8 481.657 333.736C476.089 325.48 468.313 321.352 458.329 321.352C449.305 321.352 439.993 324.616 430.393 331.144V373.48C430.393 384.04 432.217 392.776 435.865 399.688C439.513 406.408 443.929 411.304 449.113 414.376C454.297 417.448 459.385 418.984 464.377 418.984Z" fill="#EFDEC6"/>
<defs>
<filter id="filter0_d" x="0.305664" y="0.548584" width="1244.68" height="733.799" filterUnits="userSpaceOnUse" color-interpolation-filters="sRGB">
<feFlood flood-opacity="0" result="BackgroundImageFix"/>
<feColorMatrix in="SourceAlpha" type="matrix" values="0 0 0 0 0 0 0 0 0 0 0 0 0 0 0 0 0 0 127 0"/>
<feOffset dy="20"/>
<feGaussianBlur stdDeviation="50"/>
<feColorMatrix type="matrix" values="0 0 0 0 0 0 0 0 0 0 0 0 0 0 0 0 0 0 0.25 0"/>
<feBlend mode="normal" in2="BackgroundImageFix" result="effect1_dropShadow"/>
<feBlend mode="normal" in="SourceGraphic" in2="effect1_dropShadow" result="shape"/>
</filter>
<filter id="filter1_d" x="91.8979" y="87.6226" width="1059.47" height="535.684" filterUnits="userSpaceOnUse" color-interpolation-filters="sRGB">
<feFlood flood-opacity="0" result="BackgroundImageFix"/>
<feColorMatrix in="SourceAlpha" type="matrix" values="0 0 0 0 0 0 0 0 0 0 0 0 0 0 0 0 0 0 127 0"/>
<feOffset dy="4"/>
<feGaussianBlur stdDeviation="6"/>
<feColorMatrix type="matrix" values="0 0 0 0 0 0 0 0 0 0 0 0 0 0 0 0 0 0 0.25 0"/>
<feBlend mode="normal" in2="BackgroundImageFix" result="effect1_dropShadow"/>
<feBlend mode="normal" in="SourceGraphic" in2="effect1_dropShadow" result="shape"/>
</filter>
<filter id="filter2_d" x="98.6401" y="80.0853" width="1046.33" height="535.684" filterUnits="userSpaceOnUse" color-interpolation-filters="sRGB">
<feFlood flood-opacity="0" result="BackgroundImageFix"/>
<feColorMatrix in="SourceAlpha" type="matrix" values="0 0 0 0 0 0 0 0 0 0 0 0 0 0 0 0 0 0 127 0"/>
<feOffset dy="4"/>
<feGaussianBlur stdDeviation="6"/>
<feColorMatrix type="matrix" values="0 0 0 0 0 0 0 0 0 0 0 0 0 0 0 0 0 0 0.25 0"/>
<feBlend mode="normal" in2="BackgroundImageFix" result="effect1_dropShadow"/>
<feBlend mode="normal" in="SourceGraphic" in2="effect1_dropShadow" result="shape"/>
</filter>
<filter id="filter3_d" x="107.893" y="71" width="1027.8" height="532.866" filterUnits="userSpaceOnUse" color-interpolation-filters="sRGB">
<feFlood flood-opacity="0" result="BackgroundImageFix"/>
<feColorMatrix in="SourceAlpha" type="matrix" values="0 0 0 0 0 0 0 0 0 0 0 0 0 0 0 0 0 0 127 0"/>
<feOffset dy="2"/>
<feGaussianBlur stdDeviation="4"/>
<feColorMatrix type="matrix" values="0 0 0 0 0 0 0 0 0 0 0 0 0 0 0 0 0 0 0.25 0"/>
<feBlend mode="normal" in2="BackgroundImageFix" result="effect1_dropShadow"/>
<feBlend mode="normal" in="SourceGraphic" in2="effect1_dropShadow" result="shape"/>
</filter>
<linearGradient id="paint0_linear" x1="622.125" y1="293.444" x2="576.902" y2="293.444" gradientUnits="userSpaceOnUse">
<stop/>
<stop offset="1" stop-color="#1E170B" stop-opacity="0"/>
</linearGradient>
<linearGradient id="paint1_linear" x1="712.57" y1="806.723" x2="667.347" y2="806.723" gradientUnits="userSpaceOnUse">
<stop stop-opacity="0.99"/>
<stop offset="1" stop-color="#1E170B" stop-opacity="0"/>
</linearGradient>
</defs>
</svg>
