<?xml version="1.0" encoding="UTF-8" standalone="no"?>
<svg
   xmlns:dc="http://purl.org/dc/elements/1.1/"
   xmlns:cc="http://creativecommons.org/ns#"
   xmlns:rdf="http://www.w3.org/1999/02/22-rdf-syntax-ns#"
   xmlns:svg="http://www.w3.org/2000/svg"
   xmlns="http://www.w3.org/2000/svg"
   xmlns:sodipodi="http://sodipodi.sourceforge.net/DTD/sodipodi-0.dtd"
   xmlns:inkscape="http://www.inkscape.org/namespaces/inkscape"
   width="1165"
   height="735"
   viewBox="0 0 1165 735"
   fill="none"
   version="1.1"
   id="svg121"
   sodipodi:docname="double-pages_src - Copy.svg"
   inkscape:version="0.92.4 (5da689c313, 2019-01-14)">
  <metadata
     id="metadata125">
    <rdf:RDF>
      <cc:Work
         rdf:about="">
        <dc:format>image/svg+xml</dc:format>
        <dc:type
           rdf:resource="http://purl.org/dc/dcmitype/StillImage" />
      </cc:Work>
    </rdf:RDF>
  </metadata>
  <sodipodi:namedview
     pagecolor="#ffffff"
     bordercolor="#666666"
     borderopacity="1"
     objecttolerance="10"
     gridtolerance="10"
     guidetolerance="10"
     inkscape:pageopacity="0"
     inkscape:pageshadow="2"
     inkscape:window-width="1920"
     inkscape:window-height="1017"
     id="namedview123"
     showgrid="false"
     inkscape:zoom="0.68647263"
     inkscape:cx="657.27557"
     inkscape:cy="450.03955"
     inkscape:window-x="-8"
     inkscape:window-y="-8"
     inkscape:window-maximized="1"
     inkscape:current-layer="g31" />
  <g
     filter="url(#filter0_d)"
     id="g4">
    <path
       d="M1144.98 114.786L1143.76 606.314C1143.75 611 1139.69 614.669 1135.02 614.267C928.567 596.485 768.19 593.923 622.125 601.403C473.233 593.695 340.139 597.965 130.177 614.323C125.661 614.675 121.695 611.219 121.5 606.694L100.313 115.759C100.136 111.64 103.073 108.064 107.159 107.511C302.78 81.0124 555.809 79.1229 611.443 90.1617C616.904 91.2453 626.937 90.5624 632.332 89.1862C686.955 75.2508 943.621 76.1775 1138.31 106.893C1142.19 107.505 1144.99 110.856 1144.98 114.786Z"
       fill="#DEBD8D"
       id="path2" />
  </g>
  <path
     d="M669.097 592.609L669.484 599.236C669.552 600.385 668.638 601.353 667.487 601.353L577.393 601.307C576.289 601.307 575.394 600.412 575.394 599.307L575.394 592.726C575.394 591.621 576.29 590.726 577.394 590.726H667.1C668.16 590.726 669.035 591.552 669.097 592.609Z"
     fill="#CFA970"
     id="path6" />
  <g
     filter="url(#filter1_d)"
     id="g10">
    <path
       d="M1135.24 124.756C1141.35 389.788 1140.46 352.399 1133.99 605.289C1133.96 606.441 1132.95 607.4 1131.8 607.299C922.233 589.003 769.737 586.306 622.125 593.866C471.775 586.082 341.279 590.512 127.757 607.27C126.612 607.36 125.604 606.497 125.577 605.349C125.396 597.738 124.622 565.668 121.781 452.057C118.554 322.974 105.382 145.056 103.904 125.361C103.825 124.308 104.568 123.458 105.614 123.313C314.684 94.3537 589.258 93.9397 619.786 107.572C621.057 108.14 623.001 107.933 624.192 107.213C652.336 90.1947 925.557 89.2049 1133.57 122.775C1134.53 122.928 1135.22 123.793 1135.24 124.756Z"
       fill="#F5EAD4"
       id="path8" />
  </g>
  <g
     filter="url(#filter2_d)"
     id="g14">
    <path
       d="M1127.7 117.219C1133.82 382.251 1135.17 344.862 1128.72 597.751C1128.69 598.904 1127.67 599.862 1126.52 599.762C916.992 581.517 769.737 586.306 622.124 593.866C472.115 586.1 334.415 583.039 121.666 599.62C120.111 599.741 118.754 598.042 119.122 596.526C121.46 586.901 126.745 552.624 124.042 444.52C120.812 315.33 111.653 137.224 110.643 117.775C110.589 116.739 111.328 115.924 112.356 115.781C321.355 86.8221 589.615 86.4017 619.792 100.027C621.061 100.6 622.995 100.393 624.182 99.6658C651.927 82.6572 918.095 81.6741 1126.04 115.237C1126.99 115.391 1127.68 116.256 1127.7 117.219Z"
       fill="#F5EAD4"
       id="path12" />
  </g>
  <path
     style="fill:#f5ead4;filter:url(#filter3_d)"
     inkscape:connector-curvature="0"
     id="path16"
     d="m 1122.43,102.144 c 6.11,265.066 7.46,235.138 1.01,488.073 -0.03,1.153 -1.04,2.109 -2.19,2.009 -209.498,-18.194 -351.513,-5.919 -499.125,1.64 -149.769,-7.753 -289.497,-18.246 -501.697,-1.861 -1.739,0.134 -3.285,-2.118 -2.689,-3.757 3.85,-10.584 11.956,-45.774 9.319,-151.264 -3.236,-129.428 -10.399,-314.698 -11.163,-334.325 -0.04,-1.027 0.697,-1.807 1.715,-1.948 208.97,-28.9223 472.356,-22.363 502.2,-8.2481 1.258,0.595 3.178,0.3904 4.351,-0.3588 27.393,-17.4959 288.677,-25.4681 496.599,8.0589 0.95,0.154 1.65,1.017 1.67,1.981 z" />
  <mask
     id="mask0"
     mask-type="alpha"
     maskUnits="userSpaceOnUse"
     x="115"
     y="77"
     width="1013"
     height="517">
    <path
       d="M1122.43 102.144C1128.54 367.21 1129.89 337.282 1123.44 590.217C1123.41 591.37 1122.4 592.326 1121.25 592.226C911.752 574.032 769.737 586.307 622.125 593.866C472.356 586.113 332.628 575.62 120.428 592.005C118.689 592.139 117.143 589.887 117.739 588.248C121.589 577.664 129.695 542.474 127.058 436.984C123.822 307.556 116.659 122.286 115.895 102.659C115.855 101.632 116.592 100.852 117.61 100.711C326.58 71.7887 589.966 78.348 619.81 92.4629C621.068 93.0579 622.988 92.8533 624.161 92.1041C651.554 74.6082 912.838 66.636 1120.76 100.163C1121.71 100.317 1122.41 101.18 1122.43 102.144Z"
       fill="#F5EAD4"
       id="path20" />
  </mask>
  <g
     mask="url(#mask0)"
     id="g31">
    <rect
       x="576.902"
       y="81.2159"
       width="45.2228"
       height="513.279"
       id="rect25"
       fill="url(#paint0_linear)"
       opacity="0.2" />
    <rect
       x="667.347"
       y="594.495"
       width="45.2228"
       height="513.279"
       transform="rotate(-180 667.347 594.495)"
       id="rect27"
       fill="url(#paint1_linear)"
       opacity="0.2" />
    <rect
       x="621.371"
       y="93.2759"
       width="1.50743"
       height="501.219"
       id="rect29"
       fill="#1E170B"
       opacity="0.6" />
  </g>
  <defs
     id="defs119">
    <filter
       id="filter0_d"
       x="0.305664"
       y="0.548584"
       width="1244.68"
       height="733.799"
       filterUnits="userSpaceOnUse"
       color-interpolation-filters="sRGB">
      <feFlood
         flood-opacity="0"
         result="BackgroundImageFix"
         id="feFlood49" />
      <feColorMatrix
         in="SourceAlpha"
         type="matrix"
         values="0 0 0 0 0 0 0 0 0 0 0 0 0 0 0 0 0 0 127 0"
         id="feColorMatrix51" />
      <feOffset
         dy="20"
         id="feOffset53" />
      <feGaussianBlur
         stdDeviation="50"
         id="feGaussianBlur55" />
      <feColorMatrix
         type="matrix"
         values="0 0 0 0 0 0 0 0 0 0 0 0 0 0 0 0 0 0 0.25 0"
         id="feColorMatrix57" />
      <feBlend
         mode="normal"
         in2="BackgroundImageFix"
         result="effect1_dropShadow"
         id="feBlend59" />
      <feBlend
         mode="normal"
         in="SourceGraphic"
         in2="effect1_dropShadow"
         result="shape"
         id="feBlend61" />
    </filter>
    <filter
       id="filter1_d"
       x="91.8979"
       y="87.6226"
       width="1059.47"
       height="535.684"
       filterUnits="userSpaceOnUse"
       color-interpolation-filters="sRGB">
      <feFlood
         flood-opacity="0"
         result="BackgroundImageFix"
         id="feFlood64" />
      <feColorMatrix
         in="SourceAlpha"
         type="matrix"
         values="0 0 0 0 0 0 0 0 0 0 0 0 0 0 0 0 0 0 127 0"
         id="feColorMatrix66" />
      <feOffset
         dy="4"
         id="feOffset68" />
      <feGaussianBlur
         stdDeviation="6"
         id="feGaussianBlur70" />
      <feColorMatrix
         type="matrix"
         values="0 0 0 0 0 0 0 0 0 0 0 0 0 0 0 0 0 0 0.25 0"
         id="feColorMatrix72" />
      <feBlend
         mode="normal"
         in2="BackgroundImageFix"
         result="effect1_dropShadow"
         id="feBlend74" />
      <feBlend
         mode="normal"
         in="SourceGraphic"
         in2="effect1_dropShadow"
         result="shape"
         id="feBlend76" />
    </filter>
    <filter
       id="filter2_d"
       x="98.6401"
       y="80.0853"
       width="1046.33"
       height="535.684"
       filterUnits="userSpaceOnUse"
       color-interpolation-filters="sRGB">
      <feFlood
         flood-opacity="0"
         result="BackgroundImageFix"
         id="feFlood79" />
      <feColorMatrix
         in="SourceAlpha"
         type="matrix"
         values="0 0 0 0 0 0 0 0 0 0 0 0 0 0 0 0 0 0 127 0"
         id="feColorMatrix81" />
      <feOffset
         dy="4"
         id="feOffset83" />
      <feGaussianBlur
         stdDeviation="6"
         id="feGaussianBlur85" />
      <feColorMatrix
         type="matrix"
         values="0 0 0 0 0 0 0 0 0 0 0 0 0 0 0 0 0 0 0.25 0"
         id="feColorMatrix87" />
      <feBlend
         mode="normal"
         in2="BackgroundImageFix"
         result="effect1_dropShadow"
         id="feBlend89" />
      <feBlend
         mode="normal"
         in="SourceGraphic"
         in2="effect1_dropShadow"
         result="shape"
         id="feBlend91" />
    </filter>
    <filter
       id="filter3_d"
       x="107.893"
       y="71"
       width="1027.8"
       height="532.866"
       filterUnits="userSpaceOnUse"
       color-interpolation-filters="sRGB">
      <feFlood
         flood-opacity="0"
         result="BackgroundImageFix"
         id="feFlood94" />
      <feColorMatrix
         in="SourceAlpha"
         type="matrix"
         values="0 0 0 0 0 0 0 0 0 0 0 0 0 0 0 0 0 0 127 0"
         id="feColorMatrix96" />
      <feOffset
         dy="2"
         id="feOffset98" />
      <feGaussianBlur
         stdDeviation="4"
         id="feGaussianBlur100" />
      <feColorMatrix
         type="matrix"
         values="0 0 0 0 0 0 0 0 0 0 0 0 0 0 0 0 0 0 0.25 0"
         id="feColorMatrix102" />
      <feBlend
         mode="normal"
         in2="BackgroundImageFix"
         result="effect1_dropShadow"
         id="feBlend104" />
      <feBlend
         mode="normal"
         in="SourceGraphic"
         in2="effect1_dropShadow"
         result="shape"
         id="feBlend106" />
    </filter>
    <linearGradient
       id="paint0_linear"
       x1="622.125"
       y1="293.444"
       x2="576.902"
       y2="293.444"
       gradientUnits="userSpaceOnUse">
      <stop
         id="stop109" />
      <stop
         offset="1"
         stop-color="#1E170B"
         stop-opacity="0"
         id="stop111" />
    </linearGradient>
    <linearGradient
       id="paint1_linear"
       x1="712.57"
       y1="806.723"
       x2="667.347"
       y2="806.723"
       gradientUnits="userSpaceOnUse">
      <stop
         stop-opacity="0.99"
         id="stop114" />
      <stop
         offset="1"
         stop-color="#1E170B"
         stop-opacity="0"
         id="stop116" />
    </linearGradient>
  </defs>
</svg>
