<svg xmlns="http://www.w3.org/2000/svg" width="1062.21" height="894.753"  fill="none" xmlns:v="https://vecta.io/nano"><path d="M1047.741 18.88c22.89 203.969 11.27 644.85 11.2 866.431 0 1.129-.97 1.977-2.1 1.942-441.649-13.966-581.116-11.11-1016.181.013-1.12.029-2.085-.688-2.091-1.808L32.41 303.163C29.228 204.454 7.74 72.565 4.667 54.109c-.199-1.195.712-2.214 1.924-2.255l1039.1-34.69c1.04-.035 1.93.68 2.05 1.716z" fill="#f5ead4"/><g transform="translate(-95.699 -63.681)" filter="url(#A)"><path d="M1137.38 94.797c15.04 194.356 5.62 626.376 5.56 845.69 0 1.136-.99 1.987-2.12 1.941-440.35-17.608-571.057-13.741-1017.577.005-1.158.035-2.156-.718-2.113-1.875l14.32-585.944c-3.177-98.623-24.621-230.368-27.724-249.01-.202-1.214.741-2.24 1.972-2.252L1135.37 93.015c1.05-.011 1.93.734 2.01 1.782z" fill="#f5ead4"/></g><g transform="translate(-95.699 -63.681)" filter="url(#B)"><path d="M1127.29 82.342c6.12 208.288 7.46 650.91 1.01 850.263-.04 1.104-1 1.903-2.11 1.867-452.852-14.662-570.653-13.383-1005.431-.039-1.152.036-2.148-.714-2.113-1.866l11.195-590.292-11.153-259.353c-.056-1.118.87-2.021 1.989-2.057 469.886-14.845 544.796-14.844 1004.633-.408 1.06.033 1.95.827 1.98 1.884z" fill="#f5ead4"/></g><defs><filter id="A" x="95.699" y="85.015" width="1062.21" height="873.419" filterUnits="userSpaceOnUse" color-interpolation-filters="sRGB"><feFlood flood-opacity="0" result="A"/><feColorMatrix in="SourceAlpha" values="0 0 0 0 0 0 0 0 0 0 0 0 0 0 0 0 0 0 127 0"/><feOffset dy="4"/><feGaussianBlur stdDeviation="6"/><feColorMatrix values="0 0 0 0 0 0 0 0 0 0 0 0 0 0 0 0 0 0 0.25 0"/><feBlend in2="A"/><feBlend in="SourceGraphic"/></filter><filter id="B" x="110.646" y="63.681" width="1029.9" height="880.792" filterUnits="userSpaceOnUse" color-interpolation-filters="sRGB"><feFlood flood-opacity="0" result="A"/><feColorMatrix in="SourceAlpha" values="0 0 0 0 0 0 0 0 0 0 0 0 0 0 0 0 0 0 127 0"/><feOffset dy="2"/><feGaussianBlur stdDeviation="4"/><feColorMatrix values="0 0 0 0 0 0 0 0 0 0 0 0 0 0 0 0 0 0 0.25 0"/><feBlend in2="A"/><feBlend in="SourceGraphic"/></filter></defs></svg>