<svg xmlns="http://www.w3.org/2000/svg" width="73" height="72" fill="none"  xmlns:v="https://vecta.io/nano"><g clip-path="url(#A)"><path d="M14.962 45.824c5.125.025 9.804-4.171 9.804-9.275 0-5.581-4.678-9.439-9.804-9.438h-4.411c-5.187-.002-9.456 3.857-9.456 9.438 0 5.105 4.269 9.3 9.456 9.275h4.411z" fill="#006095"/><path d="M12.519 41.519V31.384c2.042.782 3.491 2.754 3.494 5.067-.003 2.314-1.453 4.285-3.494 5.068zm-7.386-5.068a5.44 5.44 0 0 1 3.492-5.067v10.133c-2.04-.783-3.487-2.753-3.492-5.066zm5.439-8.566c-4.739.002-8.58 3.835-8.581 8.566s3.842 8.563 8.581 8.565 8.582-3.834 8.583-8.565-3.842-8.564-8.583-8.566z" fill="#fff"/><path d="M27.771 31.137c0-.885-.463-.827-.906-.836v-.256l1.164.019 1.706-.019c2.553 0 3.943 1.702 3.943 3.445 0 .974-.571 3.425-4.062 3.425-.503 0-.967-.019-1.43-.019l-1.321.019v-.256c.591-.059.878-.079.906-.748v-4.773zm.966 4.616c0 .758.543.846 1.026.846 2.13 0 2.83-1.604 2.83-3.071 0-1.84-1.183-3.168-3.086-3.168-.405 0-.591.029-.77.039v5.353zm5.286.906h.187c.276 0 .473 0 .473-.325v-2.666c0-.433-.148-.493-.513-.688v-.158l1.055-.354a.35.35 0 0 1 .178-.05c.049 0 .069.059.069.139v3.778c0 .325.217.325.493.325h.167v.256c-.336 0-.681-.02-1.035-.02l-1.075.02v-.256zm1.055-5.757c-.257 0-.483-.236-.483-.492 0-.246.237-.473.483-.473.255 0 .483.207.483.473s-.217.492-.483.492zm1.992 2.824c0-.364-.109-.462-.571-.649v-.187l1.301-.473c.029 0 .058.02.058.098v.64c.563-.403 1.046-.738 1.708-.738.838 0 1.133.61 1.133 1.378v2.538c0 .325.217.325.493.325h.178v.256c-.346 0-.691-.02-1.045-.02l-1.065.02v-.256h.177c.277 0 .473 0 .473-.325v-2.548c0-.562-.344-.837-.907-.837-.315 0-.818.255-1.145.472v2.912c0 .325.218.325.494.325h.177v.256c-.345 0-.691-.02-1.046-.02l-1.065.02v-.256h.178c.276 0 .473 0 .473-.325v-2.608zm5.049.473c-.02.089-.02.236 0 .571.058.935.661 1.702 1.449 1.702.543 0 .968-.295 1.332-.659l.138.138c-.454.6-1.016 1.112-1.824 1.112-1.569 0-1.884-1.516-1.884-2.145 0-1.929 1.301-2.5 1.991-2.5.799 0 1.658.502 1.667 1.545l-.009.178-.09.059h-2.77zm1.746-.315c.246 0 .275-.128.275-.246 0-.502-.305-.905-.858-.905-.601 0-1.015.442-1.133 1.151h1.716zm1.351 2.775h.266c.275 0 .472 0 .472-.325v-2.765c0-.305-.364-.364-.512-.443v-.147l1.204-.562c.058 0 .087.029.087.128v.886h.021c.245-.384.66-1.014 1.262-1.014.247 0 .562.167.562.522 0 .266-.187.503-.463.503-.307 0-.307-.237-.651-.237-.168 0-.72.227-.72.817v2.312c0 .325.197.325.473.325h.552v.256l-1.38-.02-1.173.02v-.256zm3.796-1.112c.129.649.523 1.201 1.243 1.201.581 0 .798-.354.798-.699 0-1.162-2.149-.788-2.149-2.372 0-.552.444-1.26 1.529-1.26.315 0 .739.089 1.123.286l.07 1.003h-.227c-.099-.619-.443-.974-1.075-.974-.395 0-.769.226-.769.649 0 1.152 2.288.797 2.288 2.342 0 .649-.523 1.339-1.696 1.339-.394 0-.858-.138-1.203-.335l-.109-1.132.178-.05zm11.734-3.72H60.5c-.188-1.151-1.006-1.614-2.11-1.614-1.135 0-2.782.758-2.782 3.119 0 1.989 1.421 3.416 2.939 3.416.976 0 1.785-.669 1.983-1.703l.226.059-.226 1.437c-.414.257-1.529.522-2.18.522-2.307 0-3.766-1.486-3.766-3.701 0-2.018 1.804-3.465 3.737-3.465.798 0 1.568.257 2.327.522l.099 1.407zm.356 4.833h.186c.277 0 .474 0 .474-.325v-5.481c0-.64-.148-.66-.523-.768v-.158c.394-.128.808-.305 1.015-.424.108-.058.187-.108.216-.108.06 0 .08.06.08.139v6.8c0 .325.217.325.493.325h.166v.256c-.334 0-.679-.02-1.035-.02l-1.075.02v-.256zm6.331-.286c0 .178.108.187.276.187l.395-.009v.207c-.425.039-1.233.246-1.42.305l-.05-.03v-.797c-.591.482-1.045.827-1.746.827-.532 0-1.084-.344-1.084-1.171v-2.52c0-.256-.039-.502-.591-.551v-.187l1.272-.069c.109 0 .109.069.109.285v2.539c0 .296 0 1.142.857 1.142.335 0 .779-.256 1.192-.599v-2.648c0-.196-.473-.304-.827-.403v-.177l1.538-.138c.08 0 .08.069.08.177v3.631zm1.962-3.247c.394-.335.927-.709 1.469-.709 1.144 0 1.833.995 1.833 2.067 0 1.289-.946 2.579-2.357 2.579-.729 0-1.114-.237-1.37-.344l-.295.226-.206-.108c.087-.581.138-1.152.138-1.752v-4.232c0-.64-.149-.66-.523-.768v-.158c.395-.128.808-.305 1.016-.424.108-.058.187-.108.217-.108.059 0 .079.06.079.139v3.592zm0 2.677c0 .374.355 1.005 1.016 1.005 1.055 0 1.499-1.034 1.499-1.91 0-1.063-.808-1.948-1.577-1.948-.366 0-.671.236-.937.463v2.391zm-42.542 6.835h.076c.193 0 .397-.026.397-.305v-2.805c0-.279-.204-.306-.397-.306h-.076v-.161l.795.021.842-.021v.161h-.075c-.192 0-.397.026-.397.306v2.805c0 .279.204.305.397.305h.075v.161c-.257 0-.58-.021-.847-.021l-.789.021v-.161zm5.323-.894l.011-.011v-2.008c0-.439-.306-.504-.467-.504h-.118v-.161l.751.021.66-.021v.161h-.08c-.226 0-.478.043-.478.68v2.437c0 .187.005.374.032.54h-.204l-2.763-3.074v2.207c0 .466.091.626.504.626h.091v.161c-.23 0-.461-.021-.692-.021l-.729.021v-.161h.075c.37 0 .483-.251.483-.679v-2.256a.48.48 0 0 0-.488-.481h-.07v-.161l.616.021.478-.021 2.388 2.682zm1.64-2.415c-.403 0-.418.096-.499.487h-.161l.064-.455c.022-.15.032-.299.032-.455h.129c.043.161.177.155.323.155h2.768c.145 0 .279-.005.29-.166l.128.022-.059.434-.01.434-.161.059c-.011-.198-.038-.514-.397-.514h-.88v2.849c0 .413.188.46.445.46h.102v.161c-.209 0-.585-.021-.874-.021l-.907.021v-.161h.102c.296 0 .445-.026.445-.449v-2.86h-.88zm3.246 3.309h.075c.193 0 .397-.026.397-.305v-2.805c0-.279-.204-.306-.397-.306h-.075v-.161l1.336.021 1.373-.021c-.009.23-.004.584.012.819l-.162.043c-.026-.348-.09-.626-.654-.626h-.745v1.402h.638c.322 0 .392-.181.424-.471h.16l-.016.627.016.611-.16.032c-.032-.321-.048-.53-.419-.53h-.643v1.247c0 .348.31.348.653.348.644 0 .928-.043 1.089-.653l.15.037-.182.852c-.344 0-.961-.021-1.443-.021l-1.428.021v-.161zm3.777-3.009c0-.391-.215-.407-.381-.407h-.097v-.161l.832.022.864-.022c.676 0 1.277.182 1.277.943 0 .481-.322.776-.746.943l.917 1.37c.151.227.257.29.521.321v.162c-.177 0-.349-.021-.526-.021l-.504.021c-.413-.541-.768-1.119-1.117-1.736h-.353v1.147c0 .413.193.428.439.428h.097v.162c-.306 0-.617-.021-.923-.021l-.778.021v-.162h.097c.199 0 .381-.09.381-.288v-2.721zm.687 1.242h.262c.537 0 .826-.203.826-.835 0-.476-.306-.781-.784-.781-.161 0-.23.016-.305.021v1.595zm6.143.873l.01-.011v-2.008c0-.439-.305-.504-.466-.504h-.118v-.161l.751.021.661-.021v.161h-.081c-.225 0-.477.043-.477.68v2.437c0 .187.005.374.032.54h-.203l-2.763-3.074v2.207c0 .466.091.626.504.626h.091v.161c-.23 0-.461-.021-.692-.021l-.73.021v-.161h.075c.371 0 .483-.251.483-.679v-2.256a.48.48 0 0 0-.488-.481h-.07v-.161l.617.021.477-.021 2.388 2.682zm1.7.29c-.055.182-.119.322-.119.417 0 .161.226.187.402.187h.06v.161l-.65-.021-.579.021v-.161h.033c.209 0 .387-.123.466-.348l.86-2.457c.069-.198.166-.466.199-.665.171-.058.386-.165.488-.23.017-.006.026-.011.043-.011s.026 0 .038.017l.049.134.987 2.801.197.547c.065.15.178.213.355.213h.032v.161l-.74-.021-.805.021v-.161h.059c.123 0 .333-.021.333-.155 0-.069-.048-.214-.108-.386l-.209-.621h-1.218l-.171.557zm.783-2.373h-.011l-.499 1.516h1.003l-.493-1.516zm2.312-.332c-.403 0-.419.096-.499.487h-.161l.065-.455a3.21 3.21 0 0 0 .031-.455h.129c.043.161.177.155.321.155h2.769c.144 0 .278-.005.289-.166l.129.022-.058.434c-.012.145-.012.289-.012.434l-.16.059c-.01-.198-.037-.514-.396-.514h-.88v2.849c0 .413.188.46.445.46h.102v.161c-.209 0-.585-.021-.875-.021l-.907.021v-.161h.102c.296 0 .446-.026.446-.449v-2.86h-.88zm3.272 3.309h.075c.194 0 .397-.026.397-.305v-2.805c0-.279-.203-.306-.397-.306h-.075v-.161l.794.021.843-.021v.161h-.075c-.194 0-.398.026-.398.306v2.805c0 .279.204.305.398.305h.075v.161c-.258 0-.58-.021-.848-.021l-.789.021v-.161zm3.777-3.657c1.144 0 2.056.707 2.056 1.848 0 1.232-.885 2.051-2.028 2.051s-2.007-.771-2.007-1.922a1.95 1.95 0 0 1 1.979-1.976zm.081 3.663c1.041 0 1.222-.916 1.222-1.697s-.423-1.73-1.314-1.73c-.939 0-1.218.836-1.218 1.552 0 .959.44 1.875 1.309 1.875zm5.59-.9l.011-.011v-2.008c0-.439-.307-.504-.468-.504h-.116v-.161l.75.021.661-.021v.161h-.081c-.225 0-.478.043-.478.68v2.437a3.44 3.44 0 0 0 .032.54h-.204l-2.764-3.074v2.207c0 .466.091.626.504.626h.092v.161c-.231 0-.461-.021-.692-.021l-.731.021v-.161h.076c.371 0 .482-.251.482-.679v-2.256a.48.48 0 0 0-.488-.481h-.07v-.161l.617.021.477-.021 2.388 2.682zm1.7.29c-.053.182-.118.322-.118.417 0 .161.226.187.402.187h.06v.161l-.65-.021-.578.021v-.161h.031c.21 0 .388-.123.467-.348l.86-2.457c.069-.198.166-.466.198-.665.172-.058.386-.165.489-.23.015-.006.026-.011.042-.011s.026 0 .037.017l.049.134.987 2.801.199.547c.064.15.178.213.354.213h.033v.161l-.741-.021-.805.021v-.161h.059c.122 0 .333-.021.333-.155 0-.069-.049-.214-.109-.386l-.208-.621h-1.218l-.172.557zm.784-2.373h-.011l-.5 1.516h1.004l-.494-1.516zm3.429 2.613c0 .215.149.278.321.3.22.016.462.016.709-.011.225-.027.418-.155.514-.289.086-.118.134-.268.166-.386h.156l-.199.911c-.471 0-.945-.021-1.416-.021l-1.417.021v-.161h.074c.194 0 .404-.026.404-.358v-2.752c0-.279-.21-.306-.404-.306h-.074v-.161l.847.021.816-.021v.161h-.135c-.203 0-.363.006-.363.289v2.763z" fill="#1a1918"/></g><defs><clipPath id="A"><path fill="#fff" transform="translate(1 27)" d="M0 0h72v18.844H0z"/></clipPath></defs></svg>