<svg xmlns="http://www.w3.org/2000/svg" xmlns:xlink="http://www.w3.org/1999/xlink" width="72" height="72" fill="none" xmlns:v="https://vecta.io/nano"><g fill-rule="evenodd"><path d="M3.135 39.607c-.001.148.03.196.187.194l1.281-.049c.776-.087 1.504-.31 2.072-.878.955-.955 1.306-2.117 1.041-3.432-.267-1.324-1.029-2.257-2.351-2.667-.644-.2-1.313-.187-1.979-.195-.19-.002-.256.035-.253.243l.002 6.784zM1 30.943c-.001-.179.026-.245.229-.242l3.132.018c1.535.048 2.929.495 4.066 1.579.783.746 1.275 1.659 1.469 2.718.386 2.111-.209 3.902-1.817 5.334-.878.782-1.93 1.175-3.092 1.268-1.281.103-2.565.021-3.847.049-.153.003-.136-.08-.136-.176L1 30.943zm62.351 3.158l-.005 1.455c-.005.17.049.203.205.197l.954-.039c.931-.098 1.46-.636 1.529-1.568.056-.751-.328-1.318-1.042-1.553-.47-.154-.954-.137-1.438-.147-.158-.003-.212.031-.208.2l.004 1.455zm2.428 2.97l3.435 4.594h-.462c-.645 0-1.291-.01-1.936.006-.195.005-.294-.068-.395-.22l-2.697-4.015c-.012-.018-.027-.035-.035-.055-.055-.134-.171-.125-.275-.103-.114.024-.06.131-.06.198l.003 3.938c.002.218-.063.261-.266.256l-1.697-.002c-.143.002-.201-.024-.2-.186l.002-10.596c0-.12.013-.184.161-.181l3.653.045c.845.065 1.639.293 2.288.869.779.691.998 1.597.945 2.595-.078 1.468-.878 2.438-2.303 2.799-.048.012-.094.034-.16.059zM53.741 30.92c-.001-.165.033-.218.21-.218l5.656.001c.147 0 .2.028.196.187v1.523c.003.153-.053.173-.186.173-1.167-.005-2.335.003-3.502-.008-.199-.002-.238.056-.235.242v1.98c-.002.165.044.205.206.204l3.372-.008c.178-.002.212.053.208.216v1.457c.003.154-.041.19-.191.189-1.117-.007-2.233.002-3.35-.009-.208-.002-.247.064-.245.254l.001 2.48c-.002.165.032.219.21.217l3.502-.009c.174-.001.213.048.21.214l-.002 1.501c.001.12-.028.161-.155.16-1.915-.004-3.829-.005-5.743.002-.174.001-.16-.084-.16-.198l-.003-10.551zm-38.438 7.579c.288.54.669.979 1.229 1.225.602.265 1.222.357 1.847.077.568-.254.875-.707.899-1.323.024-.611-.302-1.02-.832-1.284-.608-.304-1.266-.484-1.887-.754-.607-.264-1.186-.569-1.605-1.109-.256-.33-.398-.707-.448-1.111-.222-1.799.764-3.087 2.259-3.51 1.561-.442 2.968-.054 4.227.936.093.073.125.125.036.236l-.937 1.224c-.092.126-.132.09-.216.001-.343-.366-.736-.662-1.246-.735-.643-.092-1.252-.01-1.7.524-.4.477-.311 1.077.194 1.436.453.322.98.483 1.491.681.479.185.946.392 1.393.645a2.72 2.72 0 0 1 1.48 2.34c.11 1.796-.834 3.313-2.593 3.765-1.876.482-3.71-.052-4.914-1.829-.05-.073-.055-.116.013-.181l1.309-1.256zm26.959-7.792l2.164-.004c.142-.002.198.049.247.174l2.827 7.126c.132-.146 2.014-4.92 2.902-7.133.035-.088.061-.166.19-.165l2.205.003-4.658 11.068c-.055.13-.115.173-.251.168a11.27 11.27 0 0 0-.826 0c-.123.004-.178-.04-.223-.151l-4.477-10.826-.099-.259zM30.606 33.67c-.404-.387-.792-.711-1.254-.925-1.821-.842-4.012.062-4.714 1.993-.54 1.487-.361 2.901.725 4.109.726.807 1.685 1.102 2.755 1.091.849-.009 1.551-.354 2.172-.902l.269-.247c.077.042.045.108.045.158l.003 2.154c0 .109-.016.175-.134.232-2.199 1.059-4.98.639-6.7-1.121-1.064-1.09-1.589-2.405-1.622-3.928-.056-2.577 1.661-4.823 4.049-5.545 1.465-.443 2.896-.358 4.276.334.074.037.132.069.131.172l-.002 2.423zM13.13 41.426c.001.18-.026.251-.232.245l-1.74-.003c-.141.002-.184-.034-.184-.18V30.893c0-.159.052-.19.198-.189l1.719-.002c.19-.004.242.041.241.237l-.001 10.487z" fill="#231f20"/><path d="M69.617 32.167c-.365 0-.661-.308-.661-.689s.296-.689.661-.689.661.308.661.689-.296.689-.661.689zm0-1.535c-.463 0-.838.379-.838.846s.375.846.838.846.838-.379.838-.846-.375-.846-.838-.846z" fill="#252122"/><path d="M69.471 31.296v.131c0 .015.005.018.019.018l.086-.004a.14.14 0 0 0 .138-.142c.005-.068-.029-.119-.094-.14-.042-.014-.086-.012-.13-.013-.014 0-.019.003-.019.018v.131zm.219.268l.31.415h-.042c-.058 0-.117-.001-.175 0-.017.001-.026-.006-.036-.02l-.243-.362c-.008-.017-.019-.016-.028-.014l-.005.373c0 .02-.006.024-.024.023h-.153c-.013 0-.018-.002-.018-.017v-.957c0-.011.001-.017.014-.016l.33.004c.076.006.148.026.207.079.07.062.09.144.085.234-.007.133-.079.22-.208.253z" fill="#231f20"/></g><use xlink:href="#C" fill="url(#A)"/><use xlink:href="#C" fill="url(#B)"/><defs><linearGradient id="A" x1="34.624" y1="30.923" x2="39.534" y2="41.453" gradientUnits="userSpaceOnUse"><stop stop-color="#e35e25"/><stop offset=".383" stop-color="#e35e25"/><stop offset="1" stop-color="#f9a020"/></linearGradient><linearGradient id="B" x1="31.34" y1="34.36" x2="45.639" y2="40.263" gradientUnits="userSpaceOnUse"><stop stop-color="#e35e25"/><stop offset=".323" stop-color="#e35e25"/><stop offset="1" stop-color="#f9a020"/></linearGradient><path id="C" d="M31.287 36.188c0 3.21 2.593 5.812 5.791 5.812s5.791-2.602 5.791-5.812-2.593-5.812-5.791-5.812-5.791 2.602-5.791 5.812z"/></defs></svg>