<svg xmlns="http://www.w3.org/2000/svg" width="72" height="72" fill="none"  xmlns:v="https://vecta.io/nano"><path d="M13.102 63.746v-3.708c0-1.421-.865-2.349-2.348-2.349-.742 0-1.545.247-2.101 1.051-.433-.68-1.051-1.051-1.978-1.051-.618 0-1.236.185-1.73.865v-.742H3.646v5.933h1.298V60.47c0-1.051.556-1.545 1.421-1.545s1.298.556 1.298 1.545v3.276h1.298V60.47c0-1.051.618-1.545 1.421-1.545.865 0 1.298.556 1.298 1.545v3.276h1.422zm19.221-5.933h-2.101v-1.792h-1.298v1.792h-1.174v1.174h1.174v2.719c0 1.36.556 2.163 2.04 2.163a3.46 3.46 0 0 0 1.607-.433l-.371-1.113c-.371.247-.803.309-1.112.309-.618 0-.865-.371-.865-.989v-2.657h2.101v-1.174zm11.001-.124a1.74 1.74 0 0 0-1.545.865v-.742h-1.298v5.933h1.298v-3.337c0-.989.433-1.545 1.236-1.545.247 0 .556.062.803.124l.371-1.236c-.247-.062-.618-.062-.865-.062zm-16.625.618c-.618-.433-1.483-.618-2.41-.618-1.483 0-2.472.742-2.472 1.916 0 .989.742 1.545 2.04 1.73l.618.062c.68.124 1.051.309 1.051.618 0 .433-.494.742-1.36.742s-1.545-.309-1.978-.618l-.618.989c.68.494 1.607.742 2.534.742 1.73 0 2.719-.803 2.719-1.916 0-1.051-.803-1.607-2.039-1.792l-.618-.062c-.556-.062-.989-.185-.989-.556 0-.433.433-.68 1.112-.68.742 0 1.483.309 1.854.494l.556-1.051zm34.486-.618a1.74 1.74 0 0 0-1.545.865v-.742h-1.298v5.933h1.298v-3.337c0-.989.433-1.545 1.236-1.545.247 0 .556.062.803.124l.371-1.236c-.247-.062-.618-.062-.865-.062zm-16.563 3.09c0 1.792 1.236 3.09 3.152 3.09.865 0 1.483-.185 2.101-.68l-.618-1.051c-.495.371-.989.556-1.545.556-1.051 0-1.792-.742-1.792-1.916 0-1.113.742-1.854 1.792-1.916.556 0 1.051.185 1.545.556l.618-1.051c-.618-.494-1.236-.68-2.101-.68-1.916 0-3.152 1.298-3.152 3.09zm11.99 0v-2.967h-1.298v.742c-.433-.556-1.051-.865-1.854-.865-1.669 0-2.967 1.298-2.967 3.09s1.298 3.09 2.967 3.09c.865 0 1.483-.309 1.854-.865v.742h1.298v-2.966zm-4.759 0c0-1.051.68-1.916 1.792-1.916 1.051 0 1.792.803 1.792 1.916 0 1.051-.742 1.916-1.792 1.916-1.112-.062-1.792-.865-1.792-1.916zm-15.513-3.09c-1.73 0-2.967 1.236-2.967 3.09s1.236 3.09 3.028 3.09c.865 0 1.73-.247 2.41-.803l-.618-.927c-.494.371-1.112.618-1.73.618-.803 0-1.607-.371-1.792-1.422h4.388v-.494c.062-1.916-1.051-3.152-2.719-3.152zm0 1.112c.803 0 1.36.494 1.483 1.422h-3.09c.124-.803.68-1.422 1.607-1.422zm32.199 1.978v-5.315h-1.298v3.09c-.433-.556-1.051-.865-1.854-.865-1.669 0-2.967 1.298-2.967 3.09s1.298 3.09 2.967 3.09c.865 0 1.483-.309 1.854-.865v.742h1.298v-2.966zm-4.759 0c0-1.051.68-1.916 1.792-1.916 1.051 0 1.792.803 1.792 1.916 0 1.051-.742 1.916-1.792 1.916-1.112-.062-1.792-.865-1.792-1.916zm-43.385 0v-2.967h-1.298v.742c-.433-.556-1.051-.865-1.854-.865-1.669 0-2.966 1.298-2.966 3.09s1.298 3.09 2.966 3.09c.865 0 1.483-.309 1.854-.865v.742h1.298v-2.966zm-4.821 0c0-1.051.68-1.916 1.792-1.916 1.051 0 1.792.803 1.792 1.916 0 1.051-.742 1.916-1.792 1.916-1.112-.062-1.792-.865-1.792-1.916z" fill="#000"/><path d="M45.734 12.759H26.266v34.98h19.468v-34.98z" fill="#ff5f00"/><path d="M27.502 30.249c0-7.107 3.337-13.411 8.467-17.49C32.199 9.792 27.44 8 22.249 8 9.95 8 0 17.95 0 30.249s9.95 22.249 22.249 22.249c5.191 0 9.95-1.792 13.72-4.759-5.13-4.017-8.467-10.383-8.467-17.49z" fill="#eb001b"/><path d="M72 30.249c0 12.299-9.95 22.249-22.249 22.249-5.191 0-9.95-1.792-13.72-4.759a22.12 22.12 0 0 0 8.467-17.49c0-7.107-3.337-13.411-8.467-17.49C39.801 9.792 44.56 8 49.751 8 62.05 8 72 18.012 72 30.249z" fill="#f79e1b"/></svg>