<svg xmlns="http://www.w3.org/2000/svg" width="482" height="454" fill="none"  xmlns:v="https://vecta.io/nano"><path fill="#123c5a" d="M0 0h482v454H0z"/><path d="M245.4 290.4c0-.533.533-.8 1.6-.8.8 0 1.467.267 2 .8.8.267 1.2.533 1.2.8-2.667 20.8-4 39.733-4 56.8 0 2.133-.4 3.733-1.2 4.8-.8.8-2.4 1.2-4.8 1.2H63.4c-.8 0-1.2-.8-1.2-2.4s.4-2.4 1.2-2.4c8.533 0 14.667-.667 18.4-2 4-1.333 6.667-3.867 8-7.6 1.333-4 2-10 2-18V136.4c0-8-.667-13.867-2-17.6s-4-6.267-8-7.6c-4-1.6-10.133-2.4-18.4-2.4-.8 0-1.2-.8-1.2-2.4s.4-2.4 1.2-2.4H233c2.667 0 4 1.2 4 3.6l.8 53.2c0 .533-.8.933-2.4 1.2-1.333.267-2.133 0-2.4-.8-4.267-15.467-11.467-26.933-21.6-34.4s-23.467-11.2-40-11.2h-12c-8 0-13.867 1.733-17.6 5.2s-5.6 8.8-5.6 16v81.6h33.2c15.467 0 27.333-2.667 35.6-8s12.4-12.8 12.4-22.4c0-.8.667-1.2 2-1.2 1.6 0 2.4.4 2.4 1.2l-.4 36 .4 19.2c.533 9.067.8 16.267.8 21.6 0 .533-.8.8-2.4.8s-2.4-.267-2.4-.8c0-10.933-4.267-19.467-12.8-25.6-8.267-6.4-20.267-9.6-36-9.6h-32.8V320c0 7.733 1.467 13.467 4.4 17.2s7.6 5.6 14 5.6h13.2c20.8 0 37.467-4.267 50-12.8s21.733-21.733 27.6-39.6zm177.503 37.2c.533 0 1.067.533 1.6 1.6.8 1.067.933 1.867.4 2.4-9.867 9.6-19.867 16.533-30 20.8s-21.2 6.4-33.2 6.4c-16.8 0-31.333-3.467-43.6-10.4-12.267-7.2-21.6-16.667-28-28.4-6.4-12-9.6-24.8-9.6-38.4 0-15.467 4-29.733 12-42.8 8-13.333 18.933-23.733 32.8-31.2 13.867-7.733 29.333-11.6 46.4-11.6 16.533 0 29.2 3.6 38 10.8 8.8 6.933 13.2 16.533 13.2 28.8 0 7.733-1.467 11.6-4.4 11.6h-24.4l-72 .8c-.8 5.067-1.2 10.667-1.2 16.8 0 22.933 5.333 41.067 16 54.4 10.933 13.333 25.867 20 44.8 20 6.667 0 13.6-.933 20.8-2.8s13.733-4.667 19.6-8.4l.8-.4zm-66-123.6c-8 0-14.933 3.2-20.8 9.6s-10.133 15.2-12.8 26.4l56.8-1.2c-.8-23.2-8.533-34.8-23.2-34.8z" fill="#efdec6"/></svg>