<svg xmlns="http://www.w3.org/2000/svg" width="482" height="454" fill="none"  xmlns:v="https://vecta.io/nano"><path fill="#123c5a" d="M0 0h482v454H0z"/><path d="M174.24 317.32c-26.4 0-49.44-5.04-69.12-15.12s-34.68-23.76-45-41.04c-10.32-17.52-15.48-36.96-15.48-58.32 0-23.04 5.88-43.56 17.64-61.56 12-18.24 28.32-32.28 48.96-42.12 20.88-10.08 44.16-15.12 69.84-15.12 11.28 0 22.68.96 34.2 2.88 11.52 1.68 20.76 3.96 27.72 6.84 2.16.72 3.48 1.68 3.96 2.88.72.96 1.2 2.76 1.44 5.4l4.68 50.04c0 .72-.6 1.2-1.8 1.44s-2.04-.12-2.52-1.08c-8.4-18.48-20.04-32.88-34.92-43.2-14.64-10.32-31.44-15.48-50.4-15.48-24.48 0-43.2 8.52-56.16 25.56-12.72 17.04-19.08 40.32-19.08 69.84 0 23.76 4.08 45 12.24 63.72 8.16 18.48 19.44 32.88 33.84 43.2 14.64 10.08 30.96 15.12 48.96 15.12 9.84 0 17.4-1.08 22.68-3.24s9.12-6.36 11.52-12.6 3.6-15.48 3.6-27.72c0-12.48-.72-21.12-2.16-25.92-1.44-5.04-4.56-8.4-9.36-10.08-4.56-1.68-12.6-2.52-24.12-2.52-1.44 0-2.16-.96-2.16-2.88 0-.72.12-1.32.36-1.8.48-.72.96-1.08 1.44-1.08 20.4 1.2 36.84 1.8 49.32 1.8 12.24 0 24.96-.36 38.16-1.08.48 0 .84.36 1.08 1.08.48.48.72.96.72 1.44 0 1.68-.6 2.52-1.8 2.52-4.32-.24-7.32.6-9 2.52-1.68 1.68-2.76 5.28-3.24 10.8-.48 5.28-.72 14.88-.72 28.8 0 10.8.36 18.48 1.08 23.04.96 4.56 1.44 7.44 1.44 8.64 0 1.44-.36 2.4-1.08 2.88-.48.48-1.56.96-3.24 1.44-30.96 6.72-58.8 10.08-83.52 10.08zm256.95-147.6c.24-.24.6-.36 1.08-.36s.96.24 1.44.72c.72.24 1.08.6 1.08 1.08V338.2c0 22.56-6.72 40.8-20.16 54.72-13.44 14.16-32.28 21.24-56.52 21.24-15.84 0-28.8-2.4-38.88-7.2-10.08-4.56-15.12-11.28-15.12-20.16 0-6.24 1.8-10.92 5.4-14.04 3.6-2.88 7.92-4.32 12.96-4.32 6.72 0 11.64 1.56 14.76 4.68 3.36 3.12 6.6 7.8 9.72 14.04 3.12 6.48 6.36 11.28 9.72 14.4 3.6 3.36 9.12 5.04 16.56 5.04 8.4 0 15.12-4.32 20.16-12.96s7.56-24.24 7.56-46.8v-52.56c-7.92 7.2-15.84 12.96-23.76 17.28-7.68 4.08-16.32 6.12-25.92 6.12-9.84 0-18.96-2.4-27.36-7.2-8.16-5.04-14.64-12.36-19.44-21.96s-7.2-21.12-7.2-34.56c0-17.04 3.96-31.92 11.88-44.64 7.92-12.96 18.36-22.8 31.32-29.52s26.88-10.08 41.76-10.08c12.96 0 24.6 3.12 34.92 9.36 5.52-2.4 10.2-5.52 14.04-9.36zM369.63 298.6c9.6 0 20.04-3.84 31.32-11.52v-77.76c0-9.36-2.64-17.04-7.92-23.04-5.04-6-11.76-9-20.16-9-12 0-21.48 6-28.44 18-6.72 12-10.08 27.48-10.08 46.44 0 18 3 32.04 9 42.12 6.24 9.84 15 14.76 26.28 14.76z" fill="#efdec6"/></svg>