<svg xmlns="http://www.w3.org/2000/svg" width="482" height="454" fill="none"  xmlns:v="https://vecta.io/nano"><path fill="#123c5a" d="M0 0h482v454H0z"/><path d="M273.88 330.92c.68 0 1.02.68 1.02 2.04s-.34 2.04-1.02 2.04c-7.933 0-14.28-.113-19.04-.34l-26.18-.34-30.6.34c-4.08.227-9.633.34-16.66.34-.68 0-1.02-.68-1.02-2.04s.34-2.04 1.02-2.04c8.387 0 14.507-.567 18.36-1.7s6.46-3.287 7.82-6.46 2.04-8.273 2.04-15.3v-78.2H99.8v78.2c0 6.8.68 11.9 2.04 15.3 1.36 3.173 3.967 5.327 7.82 6.46s9.973 1.7 18.36 1.7c.453 0 .68.68.68 2.04s-.227 2.04-.68 2.04c-7.933 0-14.28-.113-19.04-.34l-29.58-.34-25.5.34c-4.533.227-10.767.34-18.7.34-.453 0-.68-.68-.68-2.04s.227-2.04.68-2.04c7.933 0 13.713-.567 17.34-1.7s6.12-3.287 7.48-6.46c1.36-3.4 2.04-8.5 2.04-15.3V150.04c0-6.8-.68-11.787-2.04-14.96s-3.853-5.327-7.48-6.46c-3.4-1.36-8.953-2.04-16.66-2.04-.68 0-1.02-.68-1.02-2.04s.34-2.04 1.02-2.04l18.36.34c10.427.453 18.813.68 25.16.68 8.613 0 18.587-.227 29.92-.68l18.7-.34c.453 0 .68.68.68 2.04s-.227 2.04-.68 2.04c-8.16 0-14.167.68-18.02 2.04s-6.573 3.74-8.16 7.14c-1.36 3.173-2.04 8.16-2.04 14.96v69.02h109.82v-69.02c0-6.8-.68-11.787-2.04-14.96-1.36-3.4-3.967-5.78-7.82-7.14s-9.973-2.04-18.36-2.04c-.68 0-1.02-.68-1.02-2.04s.34-2.04 1.02-2.04l16.66.34c11.333.453 21.533.68 30.6.68 6.12 0 14.847-.227 26.18-.68l19.04-.34c.68 0 1.02.68 1.02 2.04s-.34 2.04-1.02 2.04c-7.707 0-13.487.68-17.34 2.04-3.627 1.133-6.12 3.287-7.48 6.46-1.133 3.173-1.7 8.16-1.7 14.96v157.42c0 6.8.567 11.9 1.7 15.3 1.36 3.173 3.853 5.327 7.48 6.46s9.407 1.7 17.34 1.7zm177.708 0c.907 0 1.36.68 1.36 2.04s-.453 2.04-1.36 2.04c-5.893 0-10.653-.113-14.28-.34l-19.72-.34-20.4.34c-3.4.227-8.046.34-13.94.34-.453 0-.68-.68-.68-2.04s.227-2.04.68-2.04c7.027 0 11.787-1.587 14.28-4.76 2.72-3.4 4.08-9.633 4.08-18.7V258.5c0-12.24-2.266-21.307-6.8-27.2s-11.56-8.84-21.08-8.84c-5.44 0-11.106 1.133-17 3.4-5.666 2.267-10.653 5.327-14.96 9.18v72.42c0 9.067 1.247 15.3 3.74 18.7 2.72 3.173 7.594 4.76 14.62 4.76.907 0 1.36.68 1.36 2.04s-.453 2.04-1.36 2.04c-5.893 0-10.653-.113-14.28-.34l-19.72-.34-20.4.34c-3.4.227-8.046.34-13.94.34-.453 0-.68-.68-.68-2.04s.227-2.04.68-2.04c7.027 0 11.787-1.587 14.28-4.76 2.72-3.4 4.08-9.633 4.08-18.7V134.74c0-7.933-.793-13.6-2.38-17-1.36-3.4-3.853-5.1-7.48-5.1-3.173 0-7.48 1.247-12.92 3.74h-.34c-.68 0-1.36-.567-2.04-1.7-.453-1.36-.453-2.153 0-2.38l49.64-23.46 1.7-.34c1.134 0 2.267.567 3.4 1.7 1.36.907 2.04 1.813 2.04 2.72v134.64c16.094-18.587 33.32-27.88 51.68-27.88 12.24 0 21.874 3.967 28.9 11.9 7.254 7.707 10.88 17.907 10.88 30.6v65.28c0 9.067 1.247 15.3 3.74 18.7 2.72 3.173 7.594 4.76 14.62 4.76z" fill="#efdec6"/></svg>