<svg xmlns="http://www.w3.org/2000/svg" width="482" height="454" fill="none"  xmlns:v="https://vecta.io/nano"><path fill="#123c5a" d="M0 0h482v454H0z"/><path d="M210.8 321.6c0 8.267.667 14.267 2 18s3.867 6.267 7.6 7.6c4 1.333 10.267 2 18.8 2 .8 0 1.2.8 1.2 2.4s-.4 2.4-1.2 2.4c-8.8 0-15.733-.133-20.8-.4l-30.4-.4-29.6.4c-5.333.267-12.533.4-21.6.4-.533 0-.8-.8-.8-2.4s.267-2.4.8-2.4c8.533 0 14.8-.667 18.8-2s6.667-3.867 8-7.6c1.6-4 2.4-10 2.4-18V136.4c0-8-.8-13.867-2.4-17.6-1.333-3.733-4-6.267-8-7.6-4-1.6-10.267-2.4-18.8-2.4-.533 0-.8-.8-.8-2.4s.267-2.4.8-2.4l21.6.4c12.267.533 22.133.8 29.6.8 8.267 0 18.533-.267 30.8-.8l20.4-.4c.8 0 1.2.8 1.2 2.4s-.4 2.4-1.2 2.4c-8.267 0-14.4.8-18.4 2.4s-6.667 4.4-8 8.4c-1.333 3.733-2 9.6-2 17.6v184.4zM310.719 156c-7.734 0-13.734-2.133-18-6.4s-6.4-10.267-6.4-18c0-6.933 2.133-12.4 6.4-16.4 4.533-4.267 10.533-6.4 18-6.4s13.2 2 17.2 6 6 9.6 6 16.8c0 7.733-2 13.733-6 18s-9.734 6.4-17.2 6.4zm-38.4 198c-.8 0-1.2-.8-1.2-2.4s.4-2.4 1.2-2.4c8.266 0 13.866-1.867 16.8-5.6 2.933-4 4.4-11.333 4.4-22V250c0-9.067-.934-15.6-2.8-19.6s-4.934-6-9.2-6c-3.467 0-8.4 1.467-14.8 4.4h-.4c-1.067 0-1.867-.667-2.4-2-.534-1.6-.4-2.533.4-2.8l60.4-28 1.2-.4c1.333 0 2.666.667 4 2s2 2.533 2 3.6v8.8c-.534 10.667-.8 23.733-.8 39.2v72.4c0 10.667 1.466 18 4.4 22 3.2 3.733 8.933 5.6 17.2 5.6.8 0 1.2.8 1.2 2.4s-.4 2.4-1.2 2.4c-6.934 0-12.4-.133-16.4-.4l-24-.4-23.6.4c-4 .267-9.467.4-16.4.4z" fill="#efdec6"/></svg>