<svg xmlns="http://www.w3.org/2000/svg" width="482" height="454" fill="none"  xmlns:v="https://vecta.io/nano"><path fill="#123c5a" d="M0 0h482v454H0z"/><path d="M239.3 75.25c.7 0 1.05.7 1.05 2.1s-.35 2.1-1.05 2.1c-6.067 0-10.617.7-13.65 2.1-2.8 1.4-4.667 3.85-5.6 7.35-.933 3.267-1.4 8.4-1.4 15.4v191.1c0 26.133-6.533 46.55-19.6 61.25-12.833 14.7-30.8 22.05-53.9 22.05-8.867 0-16.1-1.867-21.7-5.6s-8.4-8.867-8.4-15.4c0-4.667 1.517-8.867 4.55-12.6 3.033-3.5 7.583-5.25 13.65-5.25 5.833 0 10.267 1.75 13.3 5.25 3.267 3.5 6.183 8.4 8.75 14.7 1.4 3.733 2.8 6.533 4.2 8.4 1.4 2.1 3.15 3.15 5.25 3.15 4.9 0 8.517-3.967 10.85-11.9s3.5-21.117 3.5-39.55V103.6c0-7-.817-12.133-2.45-15.4-1.4-3.267-4.083-5.483-8.05-6.65-3.967-1.4-10.267-2.1-18.9-2.1-.467 0-.7-.7-.7-2.1s.233-2.1.7-2.1l21.7.35c11.2.467 20.183.7 26.95.7 6.533 0 14.7-.233 24.5-.7l16.45-.35zm60.854 45.5c-6.767 0-12.017-1.867-15.75-5.6s-5.6-8.983-5.6-15.75c0-6.067 1.866-10.85 5.6-14.35 3.966-3.733 9.216-5.6 15.75-5.6s11.55 1.75 15.05 5.25 5.25 8.4 5.25 14.7c0 6.767-1.75 12.017-5.25 15.75s-8.517 5.6-15.05 5.6zm19.25 47.25c-.467 9.333-.7 20.767-.7 34.3v108.5c0 15.867-1.984 28.817-5.95 38.85-3.734 10.267-10.15 18.783-19.25 25.55-8.867 6.767-21.234 12.6-37.1 17.5-.467.233-1.05-.35-1.75-1.75-.467-1.167-.35-1.867.35-2.1 11.2-4.9 19.133-12.717 23.8-23.45s7-26.25 7-46.55V203c0-7.933-.817-13.65-2.45-17.15-1.4-3.5-3.967-5.25-7.7-5.25-3.034 0-7.35 1.283-12.95 3.85h-.35c-.934 0-1.75-.583-2.45-1.75-.467-1.4-.35-2.217.35-2.45l52.85-24.5 1.05-.35c1.166 0 2.333.583 3.5 1.75s1.75 2.217 1.75 3.15v7.7z" fill="#efdec6"/></svg>