<svg xmlns="http://www.w3.org/2000/svg" width="482" height="454" fill="none"  xmlns:v="https://vecta.io/nano"><path fill="#123c5a" d="M0 0h482v454H0z"/><path d="M244.58 305.88c.347 0 .52.52.52 1.56s-.173 1.56-.52 1.56c-5.893 0-10.573-.087-14.04-.26l-19.24-.26-19.5.26c-3.293.173-7.8.26-13.52.26-.52 0-.78-.52-.78-1.56s.26-1.56.78-1.56c7.28 0 12.22-.867 14.82-2.6s3.9-5.373 3.9-10.92l-.26-4.42-5.46-106.34-53.56 125.58c-.347.693-1.04 1.04-2.08 1.04s-1.733-.347-2.08-1.04L67.78 182.12l-2.08 93.86c-.173 9.36 1.647 16.727 5.46 22.1 3.987 5.2 9.533 7.8 16.64 7.8.52 0 .78.52.78 1.56s-.26 1.56-.78 1.56c-4.68 0-8.32-.087-10.92-.26l-14.3-.26-16.38.26c-2.773.173-6.5.26-11.18.26-.52 0-.78-.52-.78-1.56s.26-1.56.78-1.56c7.107 0 12.74-2.687 16.9-8.06s6.327-12.653 6.5-21.84l2.34-107.64-.26-.26c-3.467-6.413-7.107-11.093-10.92-14.04-3.64-2.947-7.887-4.42-12.74-4.42-.52 0-.78-.52-.78-1.56s.26-1.56.78-1.56l12.22.26c2.427.173 5.547.26 9.36.26l13.78-.26c1.56-.173 3.553-.26 5.98-.26 2.253 0 3.987.78 5.2 2.34s3.467 5.287 6.76 11.18l56.68 106.34L196.22 153c1.04-2.427 2.08-4.073 3.12-4.94 1.213-1.04 2.773-1.56 4.68-1.56 1.56 0 3.293.087 5.2.26 2.08.173 4.42.26 7.02.26l15.34-.26c2.427-.173 5.893-.26 10.4-.26.52 0 .78.52.78 1.56s-.26 1.56-.78 1.56c-8.147 0-14.04 1.647-17.68 4.94s-5.287 8.407-4.94 15.34l6.24 118.04c.347 5.373.953 9.273 1.82 11.7 1.04 2.427 2.773 4.073 5.2 4.94 2.6.867 6.587 1.3 11.96 1.3zm203.69 0c.693 0 1.04.52 1.04 1.56s-.347 1.56-1.04 1.56c-4.507 0-8.06-.087-10.66-.26l-15.6-.26-15.08.26c-2.774.173-6.414.26-10.92.26-.52 0-.78-.52-.78-1.56s.26-1.56.78-1.56c5.373 0 9.013-1.213 10.92-3.64 2.08-2.6 3.12-7.367 3.12-14.3V250.5c0-9.36-1.647-16.293-4.94-20.8-3.12-4.507-7.974-6.76-14.56-6.76-4.507 0-8.927.953-13.26 2.86s-8.06 4.507-11.18 7.8v54.34c0 6.933.953 11.7 2.86 14.3 2.08 2.427 5.806 3.64 11.18 3.64.693 0 1.04.52 1.04 1.56s-.347 1.56-1.04 1.56c-4.507 0-8.06-.087-10.66-.26l-15.6-.26-15.08.26c-2.774.173-6.414.26-10.92.26-.52 0-.78-.52-.78-1.56s.26-1.56.78-1.56c5.373 0 9.013-1.213 10.92-3.64 2.08-2.6 3.12-7.367 3.12-14.3V250.5c0-9.36-1.647-16.293-4.94-20.8-3.12-4.507-7.974-6.76-14.56-6.76-4.16 0-8.32.867-12.48 2.6-3.987 1.56-7.54 3.813-10.66 6.76v55.64c0 6.933.953 11.7 2.86 14.3 2.08 2.427 5.806 3.64 11.18 3.64.52 0 .78.52.78 1.56s-.26 1.56-.78 1.56c-4.507 0-8.06-.087-10.66-.26l-15.6-.26-15.34.26c-2.6.173-6.154.26-10.66.26-.52 0-.78-.52-.78-1.56s.26-1.56.78-1.56c5.373 0 9.013-1.213 10.92-3.64 1.906-2.6 2.86-7.367 2.86-14.3v-48.88c0-5.373-.694-9.273-2.08-11.7-1.214-2.6-3.207-3.9-5.98-3.9-2.947 0-7.107 1.213-12.48 3.64h-.52c-.52 0-.954-.433-1.3-1.3-.174-.867-.087-1.387.26-1.56l36.14-17.68c1.04-.347 1.646-.52 1.82-.52 1.906 0 3.726 1.907 5.46 5.72 1.733 3.64 2.773 8.58 3.12 14.82 11.786-14.04 24.44-21.06 37.96-21.06 8.146 0 14.646 1.993 19.5 5.98s7.8 9.707 8.84 17.16c11.96-15.427 25.22-23.14 39.78-23.14 9.36 0 16.466 2.687 21.32 8.06 5.026 5.373 7.54 13.52 7.54 24.44v49.92c0 6.933.953 11.7 2.86 14.3 2.08 2.427 5.806 3.64 11.18 3.64z" fill="#efdec6"/></svg>