<svg xmlns="http://www.w3.org/2000/svg" width="482" height="454" fill="none"  xmlns:v="https://vecta.io/nano"><path fill="#123c5a" d="M0 0h482v454H0z"/><path d="M273.05 119.25c.467 0 .7.7.7 2.1s-.233 2.1-.7 2.1c-9.333 0-16.683 3.733-22.05 11.2-5.367 7.233-8.05 17.033-8.05 29.4v179.2c0 .7-.583 1.167-1.75 1.4-.933.233-1.633.117-2.1-.35L74.95 157.4v136.15c0 12.367 2.567 22.167 7.7 29.4S94.9 333.8 104 333.8c.467 0 .7.7.7 2.1s-.233 2.1-.7 2.1c-6.533 0-11.55-.117-15.05-.35l-18.9-.35-21.7.35c-3.967.233-9.683.35-17.15.35-.7 0-1.05-.7-1.05-2.1s.35-2.1 1.05-2.1c10.267 0 18.317-3.617 24.15-10.85 6.067-7.233 9.1-17.033 9.1-29.4V145.5c-7.7-8.4-14.35-14.117-19.95-17.15-5.367-3.267-10.967-4.9-16.8-4.9-.467 0-.7-.7-.7-2.1s.233-2.1.7-2.1l14.7.35c3.033.233 7.467.35 13.3.35l26.6-.35c3.267-.233 7.233-.35 11.9-.35 1.867 0 3.267.467 4.2 1.4s2.567 2.917 4.9 5.95c3.967 5.367 6.767 8.983 8.4 10.85L232.8 277.1V164.05c0-12.6-2.567-22.517-7.7-29.75s-12.25-10.85-21.35-10.85c-.467 0-.7-.7-.7-2.1s.233-2.1.7-2.1l15.05.35c7.467.467 13.767.7 18.9.7 4.667 0 11.2-.233 19.6-.7l15.75-.35zM455.523 333.8c.7 0 1.05.7 1.05 2.1s-.35 2.1-1.05 2.1c-6.067 0-10.85-.117-14.35-.35l-21-.35-20.3.35c-3.733.233-8.633.35-14.7.35-.7 0-1.05-.7-1.05-2.1s.35-2.1 1.05-2.1c7.233 0 12.133-1.633 14.7-4.9 2.567-3.5 3.85-9.917 3.85-19.25v-50.4c0-12.6-2.333-21.933-7-28-4.433-6.067-11.55-9.1-21.35-9.1-5.6 0-11.433 1.167-17.5 3.5-5.833 2.333-10.967 5.483-15.4 9.45v74.55c0 9.333 1.283 15.75 3.85 19.25 2.8 3.267 7.817 4.9 15.05 4.9.7 0 1.05.7 1.05 2.1s-.35 2.1-1.05 2.1c-6.067 0-10.85-.117-14.35-.35l-21-.35-20.65.35c-3.5.233-8.283.35-14.35.35-.7 0-1.05-.7-1.05-2.1s.35-2.1 1.05-2.1c7.233 0 12.133-1.633 14.7-4.9 2.567-3.5 3.85-9.917 3.85-19.25v-65.8c0-7.233-.933-12.483-2.8-15.75-1.633-3.5-4.317-5.25-8.05-5.25-3.967 0-9.567 1.633-16.8 4.9h-.7c-.7 0-1.283-.583-1.75-1.75-.233-1.167-.117-1.867.35-2.1l48.65-23.8c1.4-.467 2.217-.7 2.45-.7 2.567 0 5.017 2.567 7.35 7.7 2.333 4.9 3.733 11.667 4.2 20.3 16.1-19.133 33.833-28.7 53.2-28.7 12.6 0 22.517 4.083 29.75 12.25 7.467 7.933 11.2 18.433 11.2 31.5v67.2c0 9.333 1.283 15.75 3.85 19.25 2.8 3.267 7.817 4.9 15.05 4.9z" fill="#efdec6"/></svg>