<svg xmlns="http://www.w3.org/2000/svg" width="482" height="454" fill="none"  xmlns:v="https://vecta.io/nano"><path fill="#123c5a" d="M0 0h482v454H0z"/><path d="M152.44 333.08c-21.08 0-39.893-4.873-56.44-14.62-16.32-9.973-29.013-23.347-38.08-40.12-8.84-17-13.26-35.473-13.26-55.42 0-23.347 5.893-43.293 17.68-59.84 11.787-16.773 26.86-29.353 45.22-37.74 18.587-8.387 37.513-12.58 56.78-12.58 21.533 0 40.46 5.1 56.78 15.3 16.32 9.973 28.787 23.233 37.4 39.78 8.84 16.547 13.26 34.113 13.26 52.7 0 20.627-5.44 39.553-16.32 56.78s-25.5 30.827-43.86 40.8c-18.133 9.973-37.853 14.96-59.16 14.96zm11.22-8.5c12.693 0 24.027-3.627 34-10.88 10.2-7.48 18.133-18.247 23.8-32.3 5.667-14.28 8.5-31.28 8.5-51 0-20.853-3.173-39.44-9.52-55.76-6.347-16.547-15.527-29.467-27.54-38.76s-26.067-13.94-42.16-13.94c-20.627 0-36.493 7.82-47.6 23.46-11.107 15.413-16.66 37.06-16.66 64.94 0 21.987 3.287 41.707 9.86 59.16 6.8 17.227 15.98 30.713 27.54 40.46 11.787 9.747 25.047 14.62 39.78 14.62zm203.24 8.84c-14.053 0-26.406-3.173-37.06-9.52-10.426-6.573-18.473-15.3-24.14-26.18-5.666-11.107-8.5-23.12-8.5-36.04 0-14.733 3.74-27.2 11.22-37.4 7.48-10.427 17-18.133 28.56-23.12 11.56-5.213 23.46-7.82 35.7-7.82 14.054 0 26.294 3.287 36.72 9.86s18.36 15.3 23.8 26.18c5.667 10.653 8.5 22.1 8.5 34.34 0 13.6-3.4 25.727-10.2 36.38-6.8 10.427-15.98 18.587-27.54 24.48-11.333 5.893-23.686 8.84-37.06 8.84zm10.2-7.14c8.84 0 15.527-4.307 20.06-12.92 4.76-8.84 7.14-21.42 7.14-37.74 0-15.867-2.04-29.467-6.12-40.8s-9.406-19.833-15.98-25.5c-6.573-5.893-13.6-8.84-21.08-8.84-18.133 0-27.2 16.207-27.2 48.62 0 15.187 1.927 28.673 5.78 40.46 3.854 11.56 9.067 20.627 15.64 27.2 6.574 6.347 13.827 9.52 21.76 9.52z" fill="#efdec6"/></svg>