<svg xmlns="http://www.w3.org/2000/svg" width="482" height="454" fill="none"  xmlns:v="https://vecta.io/nano"><path fill="#123c5a" d="M0 0h482v454H0z"/><path d="M277.85 362.07c.66-.22 1.1.22 1.32 1.32.44 1.1.44 1.76 0 1.98-9.02 2.64-17.93 3.96-26.73 3.96-16.94 0-34.43-5.5-52.47-16.5s-33.55-26.29-46.53-45.87h-.66c-20.46 0-38.72-4.73-54.78-14.19-15.84-9.68-28.16-22.66-36.96-38.94-8.58-16.5-12.87-34.43-12.87-53.79 0-22.66 5.72-42.02 17.16-58.08 11.44-16.28 26.07-28.49 43.89-36.63 18.04-8.14 36.41-12.21 55.11-12.21 20.9 0 39.27 4.95 55.11 14.85 15.84 9.68 27.94 22.55 36.3 38.61 8.58 16.06 12.87 33.11 12.87 51.15 0 23.1-6.93 43.89-20.79 62.37-13.64 18.48-31.46 31.68-53.46 39.6 8.58 18.48 19.58 33.55 33 45.21 13.64 11.88 26.62 17.82 38.94 17.82 3.74 0 7.59-.22 11.55-.66zM88.76 187.83c0 21.34 3.19 40.48 9.57 57.42 6.6 16.72 15.51 29.81 26.73 39.27 11.44 9.46 24.31 14.19 38.61 14.19 12.32 0 23.32-3.52 33-10.56 9.9-7.26 17.6-17.71 23.1-31.35 5.5-13.86 8.25-30.36 8.25-49.5 0-20.24-3.08-38.28-9.24-54.12-6.16-16.06-15.07-28.6-26.73-37.62s-25.3-13.53-40.92-13.53c-20.02 0-35.42 7.59-46.2 22.77-10.78 14.96-16.17 35.97-16.17 63.03zm355.993 201.96c.66 0 .99.66.99 1.98s-.33 1.98-.99 1.98c-5.72 0-10.34-.11-13.86-.33l-19.8-.33-23.43.33c-4.18.22-10.12.33-17.82.33-.44 0-.66-.66-.66-1.98s.22-1.98.66-1.98c7.48 0 12.98-.66 16.5-1.98 3.52-1.1 5.94-3.19 7.26-6.27s1.98-7.92 1.98-14.52v-82.5c-7.26 7.04-14.63 12.65-22.11 16.83-7.48 3.96-15.95 5.94-25.41 5.94-9.9 0-19.03-2.31-27.39-6.93s-15.07-11.55-20.13-20.79c-4.84-9.24-7.26-20.46-7.26-33.66 0-15.84 3.52-29.37 10.56-40.59s16.17-19.69 27.39-25.41c11.44-5.72 23.43-8.58 35.97-8.58 18.48 0 34.21 4.4 47.19 13.2l26.73-9.57.66-.33c.66 0 1.1.55 1.32 1.65s0 1.76-.66 1.98c-5.5 2.86-9.57 6.49-12.21 10.89s-3.96 9.9-3.96 16.5v161.37c0 6.6.44 11.44 1.32 14.52 1.1 3.08 2.86 5.17 5.28 6.27 2.64 1.32 6.6 1.98 11.88 1.98zm-81.51-99.99c10.78 0 21.56-3.85 32.34-11.55v-62.04c0-8.58-1.87-15.73-5.61-21.45s-8.36-9.9-13.86-12.54-10.78-3.96-15.84-3.96c-11 0-19.25 4.73-24.75 14.19-5.5 9.24-8.25 22.77-8.25 40.59 0 19.14 3.19 33.44 9.57 42.9 6.38 9.24 15.18 13.86 26.4 13.86z" fill="#efdec6"/></svg>