<svg xmlns="http://www.w3.org/2000/svg" width="482" height="454" fill="none"  xmlns:v="https://vecta.io/nano"><path fill="#123c5a" d="M0 0h482v454H0z"/><path d="M303.8 333.8c.467 0 .7.7.7 2.1s-.233 2.1-.7 2.1h-62.3c-5.133 0-14.7-9.567-28.7-28.7-14-19.367-30.917-46.317-50.75-80.85-1.867.233-4.55.35-8.05.35-9.1 0-15.517-.117-19.25-.35v81.2c0 7.233.583 12.483 1.75 15.75s3.383 5.483 6.65 6.65c3.5 1.167 8.983 1.75 16.45 1.75.467 0 .7.7.7 2.1s-.233 2.1-.7 2.1c-7.7 0-13.767-.117-18.2-.35l-26.6-.35-25.55.35c-4.667.233-10.967.35-18.9.35-.7 0-1.05-.7-1.05-2.1s.35-2.1 1.05-2.1c7.467 0 12.833-.583 16.1-1.75 3.5-1.167 5.833-3.383 7-6.65 1.4-3.5 2.1-8.75 2.1-15.75V147.6c0-7-.583-12.133-1.75-15.4s-3.5-5.483-7-6.65c-3.5-1.4-8.867-2.1-16.1-2.1-.467 0-.7-.7-.7-2.1s.233-2.1.7-2.1l18.55.35c10.733.467 19.25.7 25.55.7 6.767 0 14.233-.35 22.4-1.05 2.567-.233 5.833-.467 9.8-.7 4.2-.233 9.1-.35 14.7-.35 21.467 0 38.033 3.967 49.7 11.9 11.9 7.7 17.85 18.55 17.85 32.55 0 10.733-3.267 21-9.8 30.8s-15.05 17.733-25.55 23.8c18.667 29.4 34.3 52.383 46.9 68.95 12.833 16.567 24.15 28.7 33.95 36.4 10.033 7.467 19.717 11.2 29.05 11.2zM134.75 218.3c5.6.933 12.367 1.4 20.3 1.4 8.4 0 15.05-1.283 19.95-3.85s8.4-7 10.5-13.3c2.333-6.3 3.5-15.167 3.5-26.6 0-19.133-2.8-32.317-8.4-39.55s-13.65-10.85-24.15-10.85c-7.933 0-13.533 1.75-16.8 5.25s-4.9 9.333-4.9 17.5v70zm262.082-18.9c5.366 0 10.5 1.983 15.4 5.95 5.133 3.733 7.7 8.283 7.7 13.65 0 4.9-1.517 8.983-4.55 12.25-3.034 3.033-7 4.55-11.9 4.55-3.5 0-6.417-.7-8.75-2.1-2.1-1.4-4.317-3.5-6.65-6.3-2.1-2.333-3.967-3.967-5.6-4.9-1.4-1.167-3.15-1.75-5.25-1.75-2.334 0-4.9.933-7.7 2.8-2.567 1.633-6.65 5.25-12.25 10.85v75.25c0 9.333 2.216 15.75 6.65 19.25 4.433 3.267 12.6 4.9 24.5 4.9.933 0 1.4.7 1.4 2.1s-.467 2.1-1.4 2.1c-8.167 0-14.584-.117-19.25-.35l-28.35-.35-20.65.35c-3.5.233-8.284.35-14.35.35-.7 0-1.05-.7-1.05-2.1s.35-2.1 1.05-2.1c7.233 0 12.133-1.633 14.7-4.9 2.566-3.5 3.85-9.917 3.85-19.25v-65.8c0-7.233-.934-12.483-2.8-15.75-1.634-3.5-4.317-5.25-8.05-5.25-3.967 0-9.567 1.633-16.8 4.9h-.7c-.7 0-1.284-.583-1.75-1.75-.234-1.167-.117-1.867.35-2.1l48.65-23.8c1.4-.467 2.216-.7 2.45-.7 2.566 0 4.9 2.45 7 7.35 2.333 4.667 3.733 11.083 4.2 19.25 9.566-9.8 17.383-16.683 23.45-20.65 6.3-3.967 11.783-5.95 16.45-5.95z" fill="#efdec6"/></svg>