<svg xmlns="http://www.w3.org/2000/svg" width="482" height="454" fill="none"  xmlns:v="https://vecta.io/nano"><path fill="#123c5a" d="M0 0h482v454H0z"/><path d="M139.6 144.4c0 9.6 2.4 18.133 7.2 25.6 5.067 7.467 11.2 14 18.4 19.6s16.933 12.4 29.2 20.4c13.333 8.533 24 16 32 22.4s14.8 14.267 20.4 23.6c5.6 9.067 8.4 19.6 8.4 31.6 0 13.867-3.733 26.267-11.2 37.2-7.467 10.667-17.867 19.067-31.2 25.2-13.067 5.867-27.733 8.8-44 8.8-12 0-24.533-1.6-37.6-4.8-13.067-3.467-21.867-7.2-26.4-11.2-1.333-1.067-2.4-2-3.2-2.8-.533-1.067-.8-2.667-.8-4.8l-1.2-64c0-1.067.667-1.6 2-1.6 1.333-.267 2.133.133 2.4 1.2 8 16.267 14.933 29.467 20.8 39.6 6.133 10.133 13.733 19.067 22.8 26.8 9.333 7.733 19.867 11.6 31.6 11.6 10.667 0 19.467-2.8 26.4-8.4 6.933-5.867 10.4-15.733 10.4-29.6 0-11.733-2.667-22-8-30.8-5.067-8.8-11.333-16.267-18.8-22.4s-17.733-13.467-30.8-22c-12.8-8.267-22.8-15.333-30-21.2-6.933-5.867-12.933-12.933-18-21.2s-7.6-18-7.6-29.2c0-14.133 4-26 12-35.6 8.267-9.867 18.8-17.067 31.6-21.6 12.8-4.8 26.267-7.2 40.4-7.2 9.333 0 18.8.933 28.4 2.8 9.6 1.6 17.333 3.6 23.2 6 2.4 1.067 4 2.267 4.8 3.6.8 1.067 1.2 2.533 1.2 4.4v58.8c0 .8-.667 1.467-2 2-1.333.267-2.133 0-2.4-.8l-3.2-7.6c-6.667-16.8-14.533-31.067-23.6-42.8-8.8-11.733-21.2-17.6-37.2-17.6-10.667 0-19.467 3.067-26.4 9.2-6.667 6.133-10 15.067-10 26.8zm183.459 74.4c0 7.733 2.667 14.4 8 20 5.6 5.6 13.6 11.467 24 17.6 10.134 5.867 17.6 10.533 22.4 14 5.067 3.2 9.6 7.867 13.6 14 4 5.867 6 13.067 6 21.6 0 9.067-2.266 17.6-6.8 25.6s-11.333 14.533-20.4 19.6c-9.066 4.8-19.866 7.2-32.4 7.2-14.666 0-28.533-3.6-41.6-10.8-1.6-1.6-2.4-3.2-2.4-4.8l-.8-39.6c0-.8.667-1.2 2-1.2 1.6-.267 2.534-.133 2.8.4 4.267 13.333 11.334 24.667 21.2 34s19.867 14 30 14c5.6 0 10-1.733 13.2-5.2 3.467-3.467 5.2-8.533 5.2-15.2 0-9.867-2.8-17.6-8.4-23.2-5.6-5.867-13.866-11.867-24.8-18-9.333-5.067-16.4-9.2-21.2-12.4s-9.066-7.733-12.8-13.6-5.6-13.067-5.6-21.6c0-15.733 5.6-27.2 16.8-34.4 11.2-7.467 24.934-11.2 41.2-11.2 6.134 0 11.6.4 16.4 1.2 5.067.8 10.667 2.4 16.8 4.8 2.4.8 3.6 2.267 3.6 4.4 0 6.667-.133 11.867-.4 15.6l-.4 20c0 .8-.8 1.2-2.4 1.2s-2.4-.4-2.4-1.2c0-5.067-2.133-10.533-6.4-16.4-4.266-6.133-9.866-11.333-16.8-15.6-6.666-4.267-13.6-6.4-20.8-6.4-10.933 0-16.4 5.2-16.4 15.6z" fill="#efdec6"/></svg>