<svg xmlns="http://www.w3.org/2000/svg" width="482" height="454" fill="none"  xmlns:v="https://vecta.io/nano"><path fill="#123c5a" d="M0 0h482v454H0z"/><path d="M149.8 113.2c-31.733 0-54.533 20.667-68.4 62-.267.8-1.067 1.2-2.4 1.2-1.333-.267-2-.8-2-1.6l3.6-41.2c1.333-17.067 2-29.867 2-38.4 0-1.333.667-2 2-2 1.6 0 2.4.667 2.4 2 0 5.867 7.6 8.8 22.8 8.8 22.933.8 49.733 1.2 80.4 1.2 15.733 0 32.4-.267 50-.8l27.2-.4c10.133 0 17.467-.667 22-2 4.8-1.333 7.867-4 9.2-8 .267-1.067 1.067-1.6 2.4-1.6 1.6 0 2.4.533 2.4 1.6-.8 8-1.733 20.8-2.8 38.4-.8 17.6-1.2 31.733-1.2 42.4 0 .8-.667 1.2-2 1.2s-2.133-.4-2.4-1.2c-4-20.533-11.467-35.867-22.4-46-10.933-10.4-24.4-15.6-40.4-15.6-7.733 0-12.933 1.733-15.6 5.2-2.4 3.2-3.6 9.467-3.6 18.8v184.4c0 8.267.8 14.267 2.4 18s4.667 6.267 9.2 7.6 11.733 2 21.6 2c.8 0 1.2.8 1.2 2.4s-.4 2.4-1.2 2.4c-9.6 0-17.2-.133-22.8-.4l-33.2-.4-32.4.4c-5.6.267-13.333.4-23.2.4-.8 0-1.2-.8-1.2-2.4s.4-2.4 1.2-2.4c9.6 0 16.667-.667 21.2-2 4.8-1.333 8-3.867 9.6-7.6 1.867-4 2.8-10 2.8-18V136.4c0-9.067-1.2-15.2-3.6-18.4s-7.333-4.8-14.8-4.8zM414.819 326c1.066 0 1.866.533 2.4 1.6.8 1.067.8 1.867 0 2.4-9.867 9.867-19.467 17.2-28.8 22-9.334 4.533-19.2 6.8-29.6 6.8-11.734 0-21.734-2.8-30-8.4s-12.4-15.067-12.4-28.4v-88.8c0-8.267-1.467-14-4.4-17.2s-8.267-4.8-16-4.8c-.267 0-.667-.4-1.2-1.2a7.54 7.54 0 0 1-.4-2.4c0-1.067.133-1.867.4-2.4.266-.8.666-1.2 1.2-1.2 13.6-.533 24.533-3.467 32.8-8.8 8.533-5.333 15.066-13.467 19.6-24.4.533-1.067 1.6-1.6 3.2-1.6 1.866 0 2.8.533 2.8 1.6v32c15.466-.267 32.8-1.467 52-3.6.533 0 1.066 1.067 1.6 3.2.8 1.867 1.2 4 1.2 6.4 0 2.667-.534 5.333-1.6 8-.8 2.4-1.734 3.467-2.8 3.2-17.334-3.733-34.134-5.733-50.4-6v94.8c0 10.133 2.533 17.6 7.6 22.4 5.333 4.8 12.266 7.2 20.8 7.2 10.666 0 21.066-4 31.2-12l.8-.4z" fill="#efdec6"/></svg>