<svg xmlns="http://www.w3.org/2000/svg" width="482" height="454" fill="none"  xmlns:v="https://vecta.io/nano"><path fill="#123c5a" d="M0 0h482v454H0z"/><path d="M278.72 343.44c.76 0 1.14.76 1.14 2.28s-.38 2.28-1.14 2.28c-7.347 0-13.047-.127-17.1-.38l-22.8-.38-31.16.38c-4.813.253-11.527.38-20.14.38-.76 0-1.14-.76-1.14-2.28s.38-2.28 1.14-2.28c8.36 0 12.54-2.153 12.54-6.46 0-2.28-1.14-5.067-3.42-8.36l-52.06-80.56-32.68 46.74c-9.88 13.933-14.82 25.207-14.82 33.82 0 9.88 6.587 14.82 19.76 14.82.507 0 .76.76.76 2.28s-.253 2.28-.76 2.28c-8.36 0-14.693-.127-19-.38l-28.12-.38-17.86.38c-3.293.253-8.613.38-15.96.38-.76 0-1.14-.76-1.14-2.28s.38-2.28 1.14-2.28c7.853 0 17.48-4.18 28.88-12.54s23.307-21.153 35.72-38.38l38.76-52.44-60.8-94.62c-6.84-10.893-13.427-18.62-19.76-23.18-6.333-4.813-13.047-7.22-20.14-7.22-.76 0-1.14-.76-1.14-2.28s.38-2.28 1.14-2.28l16.34.38c7.093.507 12.413.76 15.96.76 8.867 0 19.887-.253 33.06-.76l21.66-.38c.507 0 .76.76.76 2.28s-.253 2.28-.76 2.28c-8.613 0-12.92 2.153-12.92 6.46 0 2.027 1.14 4.94 3.42 8.74l50.16 77.14 30.4-43.32c9.88-14.187 14.82-25.587 14.82-34.2 0-9.88-6.587-14.82-19.76-14.82-.507 0-.76-.76-.76-2.28s.253-2.28.76-2.28l19 .38c10.133.507 19.507.76 28.12.76 5.32 0 11.273-.253 17.86-.76l15.96-.38c.76 0 1.14.76 1.14 2.28s-.38 2.28-1.14 2.28c-8.107 0-17.86 4.307-29.26 12.92-11.147 8.36-23.053 21.153-35.72 38.38l-36.1 49.4 64.98 100.7c6.333 9.373 12.793 16.213 19.38 20.52s14.187 6.46 22.8 6.46zm166.995 0c.76 0 1.14.76 1.14 2.28s-.38 2.28-1.14 2.28l-13.68-.38c-3.293-.253-7.98-.38-14.06-.38l-26.98.38c-4.053.253-9.627.38-16.72.38-.76 0-1.14-.76-1.14-2.28s.38-2.28 1.14-2.28c5.573 0 8.36-1.773 8.36-5.32 0-2.787-1.267-5.953-3.8-9.5l-24.7-37.24-13.3 19.38c-5.827 8.36-8.74 15.453-8.74 21.28 0 7.6 5.573 11.4 16.72 11.4.76 0 1.14.76 1.14 2.28s-.38 2.28-1.14 2.28c-6.84 0-11.907-.127-15.2-.38l-22.8-.38-15.58.38c-2.787.253-7.347.38-13.68.38-.76 0-1.14-.76-1.14-2.28s.38-2.28 1.14-2.28c7.853 0 16.213-3.167 25.08-9.5s17.227-14.947 25.08-25.84l17.48-23.94-34.2-51.3c-11.907-17.987-21.787-26.98-29.64-26.98-.507 0-.76-.76-.76-2.28s.253-2.28.76-2.28c5.32 0 9.247.127 11.78.38l11.78.38 26.6-.38c4.053-.253 9.753-.38 17.1-.38.507 0 .76.76.76 2.28s-.253 2.28-.76 2.28c-5.573 0-8.36 1.9-8.36 5.7 0 2.533 1.267 5.573 3.8 9.12l22.04 33.44 10.64-15.58c6.08-8.867 9.12-15.96 9.12-21.28 0-7.6-5.7-11.4-17.1-11.4-.507 0-.76-.76-.76-2.28s.253-2.28.76-2.28c6.84 0 12.033.127 15.58.38l22.8.38 15.58-.38c2.787-.253 7.347-.38 13.68-.38.76 0 1.14.76 1.14 2.28s-.38 2.28-1.14 2.28c-7.853 0-16.213 3.167-25.08 9.5s-17.227 14.947-25.08 25.84l-15.2 20.14 36.48 55.1c6.08 9.12 12.033 15.96 17.86 20.52 6.08 4.307 11.527 6.46 16.34 6.46z" fill="#efdec6"/></svg>