<svg xmlns="http://www.w3.org/2000/svg" width="72" height="72" fill="none"  fill-rule="evenodd" xmlns:v="https://vecta.io/nano"><path d="M0 0h72v72H0V0z" fill="#016fd0"/><path d="M13.977 50.172V38.868h11.969l1.284 1.674 1.327-1.674H72v10.524s-1.136.768-2.45.78H45.494l-1.448-1.782v1.782h-4.744V47.13s-.648.424-2.049.424h-1.615v2.617h-7.183l-1.282-1.71-1.302 1.71H13.977zM0 30.348l2.699-6.292h4.667l1.532 3.525v-3.525H14.7l.912 2.548.884-2.548h26.046v1.281s1.369-1.281 3.62-1.281l8.451.03 1.505 3.478v-3.508h4.856l1.336 1.998v-1.998h4.9V35.36h-4.9l-1.281-2.005v2.005h-7.134l-.718-1.782h-1.918l-.706 1.782h-4.838c-1.936 0-3.174-1.255-3.174-1.255v1.255h-7.294L33.8 33.578v1.782H6.675l-.717-1.782H4.046l-.712 1.782H0v-5.012z" fill="#fff"/><path d="M3.654 25.449l-3.64 8.464h2.37l.672-1.695H6.96l.668 1.695h2.422l-3.637-8.464h-2.76zm1.347 1.97l1.19 2.962H3.807l1.194-2.962zm5.301 6.493v-8.464l3.368.012 1.959 5.457 1.912-5.47h3.341v8.464h-2.116v-6.237l-2.243 6.237h-1.856l-2.249-6.237v6.237h-2.116zm12.028 0v-8.464h6.905v1.893h-4.767v1.448h4.655v1.782h-4.655v1.504h4.767v1.837H22.33zm8.129-8.463v8.464h2.116v-3.007h.891l2.537 3.007h2.586l-2.784-3.118c1.142-.096 2.321-1.077 2.321-2.6 0-1.781-1.398-2.746-2.958-2.746h-4.709zm2.116 1.893h2.419c.58 0 1.002.454 1.002.891 0 .562-.547.891-.971.891h-2.45v-1.782zm8.576 6.57H38.99v-8.464h2.161v8.464zm5.123 0h-.466c-2.257 0-3.627-1.778-3.627-4.197 0-2.479 1.355-4.266 4.204-4.266h2.338v2.004H46.3c-1.157 0-1.975.903-1.975 2.283 0 1.639.935 2.328 2.283 2.328h.557l-.891 1.848zm4.604-8.463l-3.64 8.464h2.37l.672-1.695h3.905l.668 1.695h2.422l-3.637-8.464h-2.76zm1.347 1.97l1.19 2.962h-2.384l1.194-2.962zm5.297 6.493v-8.464h2.69l3.435 5.318v-5.318h2.116v8.464H63.16l-3.522-5.457v5.457h-2.116zM15.424 48.724V40.26h6.905v1.893h-4.767v1.448h4.655v1.782h-4.655v1.504h4.767v1.838h-6.905zm33.834 0V40.26h6.905v1.893h-4.766v1.448h4.633v1.782h-4.633v1.504h4.766v1.838h-6.905zm-26.661 0l3.362-4.18-3.442-4.284h2.666l2.05 2.648 2.057-2.648h2.562l-3.397 4.232 3.368 4.232h-2.666l-1.99-2.607-1.942 2.607h-2.628zm9.478-8.463v8.464h2.172v-2.673h2.227c1.885 0 3.313-1 3.313-2.944 0-1.611-1.12-2.847-3.038-2.847h-4.674zm2.172 1.914h2.346c.609 0 1.044.373 1.044.974 0 .565-.433.974-1.051.974h-2.339v-1.949zm6.458-1.915v8.464h2.116v-3.007h.891l2.537 3.007h2.586l-2.784-3.118a2.58 2.58 0 0 0 2.322-2.6c0-1.781-1.398-2.746-2.958-2.746h-4.709zm2.116 1.893h2.419c.58 0 1.002.454 1.002.891 0 .562-.547.891-.971.891h-2.45v-1.782zm14.322 6.571v-1.838h4.235c.627 0 .898-.339.898-.71 0-.356-.27-.716-.898-.716h-1.913c-1.663 0-2.59-1.014-2.59-2.535 0-1.357.848-2.666 3.32-2.666h4.121l-.891 1.904h-3.564c-.681 0-.891.358-.891.699 0 .351.259.738.779.738h2.005c1.854 0 2.659 1.052 2.659 2.43 0 1.481-.896 2.694-2.76 2.694h-4.51zm7.767 0v-1.838h4.056c.627 0 .898-.339.898-.71 0-.356-.27-.716-.898-.716h-1.734c-1.664 0-2.59-1.014-2.59-2.535 0-1.357.848-2.666 3.32-2.666H72l-.891 1.904h-3.482c-.682 0-.891.358-.891.699 0 .351.259.738.78.738h1.825c1.854 0 2.659 1.052 2.659 2.43 0 1.481-.897 2.694-2.76 2.694h-4.33z" fill="#016fd0"/></svg>