<svg xmlns="http://www.w3.org/2000/svg" xmlns:xlink="http://www.w3.org/1999/xlink" width="72" height="72" fill="none"  xmlns:v="https://vecta.io/nano"><path d="M52.196 40.919h4.621c.132 0 .44-.044.572-.044.88-.176 1.628-.968 1.628-2.068 0-1.056-.748-1.848-1.628-2.068-.132-.044-.396-.044-.572-.044h-4.621v4.225z" fill="url(#A)"/><path d="M56.289 11.741c-4.401 0-8.01 3.565-8.01 8.01v8.318h11.31c.264 0 .572 0 .792.044 2.553.132 4.445 1.452 4.445 3.741 0 1.804-1.276 3.345-3.653 3.653v.088c2.597.176 4.577 1.628 4.577 3.873 0 2.42-2.2 4.005-5.105 4.005H48.235v16.284h11.751c4.401 0 8.01-3.565 8.01-8.01V11.741H56.289z" fill="url(#B)"/><path d="M58.445 32.381a1.87 1.87 0 0 0-1.628-1.893c-.088 0-.308-.044-.44-.044h-4.181v3.873h4.181c.132 0 .396 0 .44-.044a1.87 1.87 0 0 0 1.628-1.892z" fill="url(#C)"/><path d="M12.015 11.741c-4.401 0-8.01 3.565-8.01 8.01v19.76c2.245 1.1 4.577 1.804 6.91 1.804 2.773 0 4.269-1.672 4.269-3.961v-9.33h6.866v9.286c0 3.609-2.244 6.557-9.858 6.557-4.621 0-8.23-1.012-8.23-1.012v16.856h11.751c4.401 0 8.01-3.565 8.01-8.01V11.741H12.015z" fill="url(#D)"/><path d="M34.152 11.741c-4.401 0-8.01 3.565-8.01 8.01v10.474c2.024-1.716 5.545-2.817 11.223-2.552 3.037.132 6.293.968 6.293.968v3.389c-1.628-.836-3.565-1.584-6.073-1.76-4.313-.308-6.91 1.804-6.91 5.501 0 3.741 2.596 5.853 6.91 5.501 2.508-.176 4.445-.968 6.073-1.76V42.9s-3.213.836-6.293.968c-5.677.264-9.198-.836-11.222-2.553v18.484h11.751c4.401 0 8.01-3.565 8.01-8.01V11.741H34.152z" fill="url(#E)"/><defs><linearGradient id="A" x1="48.271" y1="38.812" x2="68.048" y2="38.812" xlink:href="#F"><stop stop-color="#007940"/><stop offset=".229" stop-color="#00873f"/><stop offset=".743" stop-color="#40a737"/><stop offset="1" stop-color="#5cb531"/></linearGradient><linearGradient id="B" x1="48.271" y1="35.729" x2="68.049" y2="35.729" xlink:href="#F"><stop stop-color="#007940"/><stop offset=".229" stop-color="#00873f"/><stop offset=".743" stop-color="#40a737"/><stop offset="1" stop-color="#5cb531"/></linearGradient><linearGradient id="C" x1="48.271" y1="32.376" x2="68.049" y2="32.376" xlink:href="#F"><stop stop-color="#007940"/><stop offset=".229" stop-color="#00873f"/><stop offset=".743" stop-color="#40a737"/><stop offset="1" stop-color="#5cb531"/></linearGradient><linearGradient id="D" x1="3.996" y1="35.729" x2="24.079" y2="35.729" xlink:href="#F"><stop stop-color="#1f286f"/><stop offset=".475" stop-color="#004e94"/><stop offset=".826" stop-color="#0066b1"/><stop offset="1" stop-color="#006fbc"/></linearGradient><linearGradient id="E" x1="26.028" y1="35.729" x2="45.533" y2="35.729" xlink:href="#F"><stop stop-color="#6c2c2f"/><stop offset=".174" stop-color="#882730"/><stop offset=".573" stop-color="#be1833"/><stop offset=".859" stop-color="#dc0436"/><stop offset="1" stop-color="#e60039"/></linearGradient><linearGradient id="F" gradientUnits="userSpaceOnUse"/></defs></svg>