<svg width="40" height="40" viewBox="0 0 40 40" fill="none" xmlns="http://www.w3.org/2000/svg">
<path fill-rule="evenodd" clip-rule="evenodd" d="M24.1026 4.15545C25.4173 3.6107 26.8265 3.33032 28.2495 3.33032C29.6726 3.33032 31.0818 3.6107 32.3965 4.15545C33.7109 4.70009 34.9052 5.49833 35.9111 6.50458C36.9174 7.5105 37.7162 8.70534 38.2608 10.0198C38.8055 11.3345 39.0859 12.7436 39.0859 14.1667C39.0859 15.5898 38.8055 16.9989 38.2608 18.3136C37.7161 19.6282 36.9178 20.8226 35.9114 21.8285C35.9113 21.8286 35.9115 21.8284 35.9114 21.8285L21.1781 36.5619C20.5272 37.2127 19.4719 37.2127 18.821 36.5619L4.0877 21.8285C2.05566 19.7965 0.914062 17.0404 0.914062 14.1667C0.914062 11.2929 2.05566 8.5369 4.0877 6.50485C6.11975 4.47281 8.8758 3.33121 11.7495 3.33121C14.6233 3.33121 17.3793 4.47281 19.4114 6.50485L19.9995 7.09301L20.5874 6.50513C20.5875 6.50504 20.5873 6.50522 20.5874 6.50513C21.5934 5.49875 22.7881 4.70014 24.1026 4.15545ZM28.2495 6.66366C27.2643 6.66366 26.2888 6.85777 25.3786 7.2349C24.4684 7.61203 23.6415 8.16479 22.945 8.8616L21.1781 10.6285C20.5272 11.2794 19.4719 11.2794 18.821 10.6285L17.0544 8.86188C15.6474 7.45495 13.7392 6.66455 11.7495 6.66455C9.75985 6.66455 7.85165 7.45495 6.44473 8.86188C5.0378 10.2688 4.2474 12.177 4.2474 14.1667C4.2474 16.1564 5.0378 18.0646 6.44473 19.4715L19.9995 33.0263L33.5544 19.4715C34.2512 18.775 34.8042 17.9478 35.1814 17.0376C35.5585 16.1275 35.7526 15.1519 35.7526 14.1667C35.7526 13.1815 35.5585 12.2059 35.1814 11.2958C34.8042 10.3856 34.2515 9.55864 33.5546 8.86215C32.8582 8.16534 32.0307 7.61203 31.1205 7.2349C30.2103 6.85776 29.2348 6.66366 28.2495 6.66366Z" fill="#D12335"/>
</svg>
