<svg width="400" height="400" viewBox="0 0 400 400" fill="none" xmlns="http://www.w3.org/2000/svg">
<path d="M399 199.939C399 230.8 391.976 260.018 379.439 286.083C377.272 290.589 371.687 292.176 367.296 289.641L315.153 259.536C310.987 257.131 309.447 251.836 311.371 247.319C317.57 232.766 321 216.752 321 199.939C321 138.085 274.59 87.0727 214.692 79.8218C209.819 79.2319 206 75.2509 206 70.4425V10.2484C206 5.17711 210.172 1.13176 215.161 1.50759C317.982 9.25304 399 95.135 399 199.939Z" fill="#F9DCDE" stroke="#D12335" stroke-width="2"/>
<path d="M184.764 0.510418C81.4248 8.29486 0 94.6079 0 199.939C0 230.991 7.0769 260.391 19.7059 286.613C22.1421 291.672 28.3857 293.407 33.248 290.599L85.387 260.497C90.0363 257.813 91.6933 251.951 89.5855 247.014C83.4151 232.56 80 216.648 80 199.939C80 138.597 126.026 88.0054 185.428 80.8145C190.753 80.17 195 75.806 195 70.4425V10.2484C195 4.62948 190.367 0.0883459 184.764 0.510418Z" fill="#007DD7"/>
<path d="M34.9895 312.983C71.0339 365.496 131.495 399.939 200 399.939C268.549 399.939 329.043 365.452 365.079 312.883C368.256 308.248 366.649 301.962 361.786 299.145L309.694 268.974C305.052 266.285 299.149 267.769 295.921 272.055C274.023 301.135 239.207 319.939 200 319.939C160.858 319.939 126.093 301.198 104.188 272.2C100.962 267.929 95.0745 266.451 90.439 269.127L38.2906 299.235C33.4173 302.048 31.805 308.344 34.9895 312.983Z" fill="#1B9D51"/>
</svg>
