<svg width="400" height="400" viewBox="0 0 400 400" fill="none" xmlns="http://www.w3.org/2000/svg">
<path d="M399 199.939C399 230.8 391.976 260.018 379.439 286.083C377.272 290.589 371.687 292.176 367.296 289.641L315.153 259.536C310.987 257.131 309.447 251.836 311.371 247.319C317.57 232.766 321 216.752 321 199.939C321 138.085 274.59 87.0727 214.692 79.8218C209.819 79.2319 206 75.2509 206 70.4425V10.2484C206 5.17711 210.172 1.13176 215.161 1.50759C317.982 9.25304 399 95.135 399 199.939Z" stroke="#DEBD8D" stroke-width="2"/>
<path d="M1 199.939C1 95.135 82.0176 9.25304 184.839 1.50759C189.828 1.13176 194 5.17711 194 10.2484V70.4425C194 75.2509 190.181 79.2319 185.308 79.8218C125.41 87.0727 79 138.085 79 199.939C79 216.785 82.4434 232.83 88.6658 247.406C90.5948 251.925 89.0557 257.224 84.887 259.631L32.748 289.733C28.3592 292.267 22.7757 290.683 20.6068 286.179C8.04164 260.09 1 230.838 1 199.939Z" stroke="#DEBD8D" stroke-width="2"/>
<path d="M200 398.939C131.838 398.939 71.6798 364.67 35.814 312.418C32.9787 308.287 34.3921 302.64 38.7906 300.101L90.939 269.993C95.0955 267.593 100.438 268.895 103.39 272.803C125.476 302.04 160.531 320.939 200 320.939C239.535 320.939 274.641 301.977 296.72 272.656C299.673 268.735 305.031 267.428 309.193 269.839L361.285 300.011C365.674 302.553 367.083 308.191 364.254 312.318C328.396 364.627 268.205 398.939 200 398.939Z" stroke="#DEBD8D" stroke-width="2"/>
</svg>
