<svg xmlns="http://www.w3.org/2000/svg" width="139" height="130" fill="none"  xmlns:v="https://vecta.io/nano"><path d="M129.577 110.758C110.047 136.361 11.921 145.64.901 79.024s82.054-98.308 114.037-66.706c29.509 29.157 28.66 80.06 14.639 98.441z" fill="#f5ead4"/><path d="M50.791 44.352c1.536.064 2.864.448 3.984 1.152s1.968 1.6 2.544 2.688c.576 1.056.864 2.192.864 3.408 0 2.688-.88 4.864-2.64 6.528-1.728 1.632-4 2.448-6.816 2.448-3.072 0-5.712-1.2-7.92-3.6l-.048-.096c0-.128.064-.224.192-.288.16-.096.272-.096.336 0 .672.64 1.504 1.136 2.496 1.488s1.936.528 2.832.528c2.176 0 3.744-.608 4.704-1.824.992-1.216 1.488-2.8 1.488-4.752 0-4.768-2.48-7.152-7.44-7.152-.128 0-.208-.08-.24-.24-.032-.192.048-.288.24-.288 2.4 0 4.08-.56 5.04-1.68.992-1.12 1.488-2.72 1.488-4.8 0-3.936-1.52-5.904-4.56-5.904-1.216 0-2.4.32-3.552.96-1.12.608-1.936 1.504-2.448 2.688 0 .032-.048.048-.144.048s-.208-.032-.336-.096c-.096-.064-.128-.112-.096-.144.672-1.824 1.792-3.264 3.36-4.32 1.568-1.088 3.376-1.632 5.424-1.632 2.208 0 4.016.624 5.424 1.872 1.44 1.248 2.16 2.864 2.16 4.848 0 1.76-.576 3.392-1.728 4.896-1.12 1.504-2.656 2.592-4.608 3.264z" fill="#21c063"/><path d="M92.999 58.896c-.128.416-.272.704-.432.864-.128.16-.352.24-.672.24h-4.128c-.256 0-.448-.064-.576-.192-.128-.16-.144-.352-.048-.576l10.944-24.096c.128-.224.064-.336-.192-.336l-9.648.192c-1.696.128-2.752.384-3.168.768-.416.352-.8 1.12-1.152 2.304-.064.064-.144.096-.24.096s-.192-.016-.288-.048c-.064-.064-.08-.128-.048-.192l2.112-9.168c.032-.096.144-.128.336-.096.192 0 .272.048.24.144a2.02 2.02 0 0 0-.048.48c0 .288.144.48.432.576.32.096.944.144 1.872.144h12.72c.128 0 .24.08.336.24s.112.288.048.384l-8.4 28.272z" fill="#f17c10"/><path d="M47.187 91.76c2.976 0 5.312.8 7.008 2.4s2.544 3.872 2.544 6.816c0 3.04-.928 5.408-2.784 7.104-1.824 1.664-4.176 2.496-7.056 2.496-1.504 0-2.848-.288-4.032-.864-1.184-.608-2.288-1.52-3.312-2.736l-.048-.096c0-.128.064-.224.192-.288.128-.096.224-.096.288 0 .608.672 1.376 1.184 2.304 1.536.928.32 1.888.48 2.88.48 2.08 0 3.632-.64 4.656-1.92 1.024-1.312 1.536-3.04 1.536-5.184 0-2.432-.56-4.384-1.68-5.856-1.12-1.504-2.736-2.256-4.848-2.256-.928 0-1.76.096-2.496.288l-1.296.336c-.16 0-.288-.048-.384-.144a.52.52 0 0 1-.096-.432l1.536-12.864c.032-.224.08-.368.144-.432.064-.096.224-.144.48-.144l8.688-.048c1.44-.064 2.384-.176 2.832-.336s.8-.496 1.056-1.008c.032-.064.128-.08.288-.048.16 0 .224.064.192.192l-.816 5.328c-.064.384-.176.64-.336.768-.128.128-.384.192-.768.192l-10.128-.24c-.416 0-.672.224-.768.672l-.912 7.152c1.792-.576 3.504-.864 5.136-.864z" fill="#de3c4b"/><path d="M90.577 96.416c-2.24 0-4.048-.768-5.424-2.304-1.376-1.568-2.064-3.584-2.064-6.048 0-1.664.416-3.152 1.248-4.464s1.984-2.32 3.456-3.024c1.472-.736 3.136-1.104 4.992-1.104 3.008 0 5.36 1.04 7.056 3.12 1.728 2.048 2.593 4.88 2.593 8.496 0 3.104-.656 6.128-1.968 9.072a19.26 19.26 0 0 1-5.665 7.296c-2.464 1.92-5.344 2.976-8.64 3.168-.128 0-.208-.08-.24-.24-.032-.128 0-.224.096-.288a12.63 12.63 0 0 0 6-3.84c1.664-1.856 2.896-4.064 3.696-6.624.832-2.592 1.248-5.328 1.248-8.208 0-3.232-.464-5.856-1.392-7.872s-2.16-3.024-3.696-3.024c-1.184 0-2.032.592-2.544 1.776-.512 1.152-.768 2.816-.768 4.992 0 2.496.32 4.368.96 5.616.672 1.216 1.68 1.824 3.024 1.824.992 0 1.792-.192 2.4-.576h.096c.096 0 .176.064.24.192.096.096.112.192.048.288-1.184 1.184-2.768 1.776-4.752 1.776z" fill="#007dd7"/></svg>