<?xml version="1.0" encoding="UTF-8" standalone="no"?>
<svg
   xmlns:dc="http://purl.org/dc/elements/1.1/"
   xmlns:cc="http://creativecommons.org/ns#"
   xmlns:rdf="http://www.w3.org/1999/02/22-rdf-syntax-ns#"
   xmlns:svg="http://www.w3.org/2000/svg"
   xmlns="http://www.w3.org/2000/svg"
   xmlns:sodipodi="http://sodipodi.sourceforge.net/DTD/sodipodi-0.dtd"
   xmlns:inkscape="http://www.inkscape.org/namespaces/inkscape"
   width="18"
   height="18"
   fill="none"
   version="1.1"
   id="svg12"
   sodipodi:docname="antenna.svg"
   inkscape:version="0.92.4 (5da689c313, 2019-01-14)">
  <metadata
     id="metadata18">
    <rdf:RDF>
      <cc:Work
         rdf:about="">
        <dc:format>image/svg+xml</dc:format>
        <dc:type
           rdf:resource="http://purl.org/dc/dcmitype/StillImage" />
      </cc:Work>
    </rdf:RDF>
  </metadata>
  <defs
     id="defs16" />
  <sodipodi:namedview
     pagecolor="#ffffff"
     bordercolor="#666666"
     borderopacity="1"
     objecttolerance="10"
     gridtolerance="10"
     guidetolerance="10"
     inkscape:pageopacity="0"
     inkscape:pageshadow="2"
     inkscape:window-width="1920"
     inkscape:window-height="1017"
     id="namedview14"
     showgrid="false"
     inkscape:zoom="25.097567"
     inkscape:cx="10.029661"
     inkscape:cy="6.2923729"
     inkscape:window-x="-8"
     inkscape:window-y="-8"
     inkscape:window-maximized="1"
     inkscape:current-layer="svg12" />
  <path
     style="fill:#ffcc00"
     d="M 2 1 A 2 2 0 0 0 0 3 A 2 2 0 0 0 2 5 A 2 2 0 0 0 2.0429688 4.9980469 L 4.2949219 13.029297 C 1.7321896 14.310615 0 16.511759 0 18 L 17 18 C 17 16.683706 15.642051 14.810738 13.556641 13.507812 L 16.351562 9.9902344 A 1.5 1.5 0 0 0 16.5 10 A 1.5 1.5 0 0 0 18 8.5 A 1.5 1.5 0 0 0 16.5 7 A 1.5 1.5 0 0 0 15 8.5 A 1.5 1.5 0 0 0 15.427734 9.546875 L 12.675781 13.013672 C 11.441492 12.401573 10.019279 12 8.5 12 C 7.3368366 12 6.2284607 12.233378 5.21875 12.617188 L 3.0039062 4.7285156 A 2 2 0 0 0 4 3 A 2 2 0 0 0 2 1 z "
     id="path2" />
</svg>
