<svg xmlns="http://www.w3.org/2000/svg" width="225" height="71" fill="#cfa970"  xmlns:v="https://vecta.io/nano"><path d="M22.58 52.567c1.578 2.5 2.506 5.54 2.064 8.572-.453 3.041-2.399 5.753-4.976 7.411-2.571 1.675-5.706 2.535-8.843 2.189-3.2-.293-6.047-2.402-7.758-5.008C1.314 63.107.405 60.049.098 56.964c-.311-3.067.107-6.356 1.396-9.21 2.372-5.859 7.902-10.221 13.976-11.692 3.032-.798 6.176-1.019 9.262-.833 3.085.133 6.233.886 9.101 2.101 2.86 1.232 5.458 2.757 8.035 4.237l7.696 4.432c5.14 2.89 10.394 5.602 15.677 8.253 5.272 2.642 10.606 5.053 16.141 6.87 2.751.94 5.562 1.729 8.424 2.509 2.844.771 5.683 1.498 8.536 2.074 5.692 1.144 11.51 1.72 17.111.851 2.784-.452 5.507-1.25 8.003-2.509 2.514-1.223 4.752-2.925 6.826-4.911 4.065-3.909 7.333-8.9 7.785-14.413.442-5.469-1.939-11.16-5.708-15.3-1.902-2.065-4.258-3.732-6.892-4.556-2.631-.842-5.487-.647-8.157.31-2.662.913-5.151 2.5-6.895 4.707a10.57 10.57 0 0 0-2.185 7.943c.726 5.744 5.763 10.531 11.617 11.515-2.934-.372-5.831-1.551-8.091-3.581-2.254-1.994-3.914-4.751-4.442-7.792a11.68 11.68 0 0 1 2.042-8.864c1.834-2.553 4.477-4.397 7.362-5.54 2.867-1.152 6.228-1.48 9.303-.585 3.074.869 5.768 2.695 7.935 4.92 2.179 2.234 3.899 4.884 5.101 7.765 1.203 2.863 1.881 6.045 1.692 9.245-.172 3.191-1.165 6.294-2.668 9.051-1.514 2.757-3.493 5.194-5.704 7.348-2.188 2.145-4.71 4.095-7.527 5.505-2.791 1.445-5.827 2.349-8.886 2.881-6.155 1.011-12.348.416-18.266-.718-2.97-.567-5.889-1.285-8.778-2.048-2.864-.762-5.784-1.525-8.653-2.5-5.727-1.941-11.216-4.485-16.525-7.207-5.296-2.712-10.565-5.496-15.744-8.465l-7.69-4.521c-2.548-1.498-5.073-2.996-7.66-4.14-2.585-1.126-5.288-1.764-8.13-1.977-2.823-.248-5.675-.115-8.404.523-5.467 1.197-10.346 4.84-12.611 9.999-1.227 2.544-1.649 5.319-1.456 8.164.193 2.81.98 5.62 2.446 8.004 1.436 2.376 3.735 4.246 6.511 4.627 2.753.434 5.718-.213 8.169-1.667 2.465-1.436 4.379-3.865 4.95-6.719.594-2.846-.115-5.904-1.547-8.483z"/><path d="M201.962 52.567c-1.432 2.58-2.141 5.638-1.547 8.483.57 2.854 2.484 5.283 4.949 6.719 2.451 1.454 5.416 2.101 8.171 1.667 2.774-.381 5.074-2.252 6.511-4.627 1.464-2.384 2.251-5.194 2.444-8.004.194-2.846-.228-5.62-1.454-8.164-2.267-5.159-7.145-8.802-12.613-9.999-2.728-.638-5.58-.771-8.403-.523-2.842.213-5.545.851-8.129 1.977-2.588 1.143-5.113 2.642-7.66 4.14l-7.691 4.521c-5.178 2.97-10.447 5.753-15.743 8.465-5.309 2.721-10.799 5.266-16.525 7.207-2.868.975-5.788 1.737-8.653 2.5-2.889.762-5.808 1.48-8.778 2.048-5.917 1.135-12.111 1.729-18.266.718-3.059-.532-6.094-1.436-8.884-2.881-2.817-1.409-5.339-3.36-7.529-5.505-2.21-2.154-4.188-4.592-5.704-7.348-1.502-2.757-2.494-5.859-2.667-9.051-.189-3.2.488-6.382 1.693-9.245 1.201-2.881 2.922-5.531 5.1-7.765 2.167-2.225 4.861-4.051 7.935-4.92 3.076-.895 6.435-.567 9.303.585 2.885 1.143 5.529 2.987 7.362 5.54 1.847 2.526 2.601 5.824 2.042 8.864-.528 3.041-2.189 5.797-4.443 7.792-2.259 2.03-5.157 3.209-8.091 3.581 5.856-.984 10.892-5.77 11.617-11.515.386-2.837-.432-5.735-2.185-7.943-1.742-2.207-4.231-3.794-6.894-4.707-2.67-.957-5.526-1.152-8.157-.31-2.634.824-4.99 2.491-6.891 4.556-3.769 4.14-6.151 9.83-5.709 15.3.452 5.514 3.72 10.504 7.786 14.413 2.073 1.986 4.312 3.688 6.825 4.911 2.497 1.259 5.219 2.057 8.004 2.509 5.6.869 11.419.293 17.111-.851 2.854-.576 5.693-1.303 8.537-2.074 2.862-.78 5.673-1.569 8.424-2.509 5.534-1.817 10.867-4.228 16.141-6.87 5.283-2.65 10.536-5.363 15.676-8.253l7.696-4.432c2.578-1.48 5.176-3.005 8.035-4.237 2.868-1.214 6.016-1.968 9.102-2.101 3.087-.186 6.23.036 9.262.833 6.075 1.471 11.604 5.833 13.977 11.692 1.289 2.854 1.706 6.143 1.395 9.21-.306 3.085-1.216 6.143-2.968 8.767-1.71 2.606-4.558 4.716-7.758 5.008-3.137.346-6.273-.514-8.843-2.189-2.578-1.658-4.522-4.37-4.976-7.411-.443-3.032.486-6.072 2.064-8.572zM35.433 24.476c3.497.984 6.9 2.278 10.247 3.714a101.75 101.75 0 0 1 9.771 4.92c3.17 1.808 6.242 3.794 9.22 5.921 2.945 2.163 5.854 4.397 8.569 6.843l-2.858 1.347c-.057-3.289.28-6.604 1.208-9.769.89-3.165 2.247-6.205 4.084-8.909 3.619-5.443 8.884-9.644 14.767-11.931-2.621 1.755-5.031 3.732-7.141 5.975-2.14 2.198-3.921 4.689-5.397 7.313-2.912 5.274-4.289 11.267-4.077 17.223l.138 3.883-2.995-2.535c-2.72-2.305-5.436-4.61-8.297-6.737a169.71 169.71 0 0 0-8.71-6.223c-2.97-1.995-6.004-3.9-9.098-5.726-3.083-1.844-6.25-3.564-9.432-5.31zm153.676 0l-9.434 5.31c-3.093 1.826-6.128 3.732-9.097 5.726a169.91 169.91 0 0 0-8.709 6.223c-2.863 2.127-5.578 4.432-8.297 6.737l-2.997 2.535.14-3.883c.211-5.957-1.166-11.949-4.077-17.223-1.476-2.624-3.257-5.115-5.397-7.313-2.109-2.243-4.521-4.219-7.141-5.975 5.882 2.287 11.148 6.489 14.766 11.931 1.837 2.704 3.194 5.744 4.084 8.909.928 3.165 1.265 6.48 1.208 9.769l-2.857-1.347c2.716-2.447 5.624-4.68 8.57-6.843a107.26 107.26 0 0 1 9.219-5.921c3.17-1.817 6.432-3.457 9.771-4.92 3.348-1.436 6.751-2.73 10.248-3.714zm-72.908-11.789c0 2.172-1.76 3.927-3.93 3.927s-3.929-1.755-3.929-3.927 1.759-3.936 3.929-3.936 3.93 1.764 3.93 3.936zm-1.747 45.403a2.184 2.184 0 1 1-4.367 0 2.184 2.184 0 1 1 4.367 0zm0-55.881a2.184 2.184 0 1 1-4.367 0A2.19 2.19 0 0 1 112.271.02a2.19 2.19 0 0 1 2.183 2.189z"/></svg>