<svg width="186" height="141" viewBox="0 0 186 141" fill="none" xmlns="http://www.w3.org/2000/svg">
<g clip-path="url(#clip0)">
<g filter="url(#filter0_d)">
<path d="M16.0001 9C16.0001 9 64.1487 9.39052 95.0001 9C120.207 8.68092 156.294 7.5481 168.654 7.14429C170.998 7.06771 172.897 8.99331 172.784 11.3358C172.266 22.0056 171 50.0104 171 68.5C171 86.8226 172.244 113.246 172.77 123.601C172.89 125.964 170.959 127.912 168.595 127.817C156.18 127.322 120.167 126.022 95.0001 126.5C64.1487 127.086 16.0001 127 16.0001 127V9Z" fill="#F5EAD4"/>
</g>
<g filter="url(#filter1_d)">
<path d="M8.00008 9L164.727 7.05309C167.04 7.02435 168.897 8.93845 168.783 11.2488C168.264 21.6759 167 49.0573 167 68C167 86.866 168.254 114.103 168.776 124.624C168.893 126.98 166.979 128.918 164.621 128.827C152.017 128.341 114.899 127 89.0001 127C57.3676 127 8.00008 127 8.00008 127V9Z" fill="#F5EAD4"/>
</g>
<mask id="mask0" mask-type="alpha" maskUnits="userSpaceOnUse" x="8" y="9" width="158" height="118">
<path d="M8.00008 11C8.00008 9.89543 8.89551 9 10.0001 9H162C164.209 9 166 10.7909 166 13V125C166 126.105 165.105 127 164 127H10.0001C8.89551 127 8.00008 126.105 8.00008 125V11Z" fill="#1B9D51"/>
</mask>
<g mask="url(#mask0)">
</g>
</g>
<defs>
<filter id="filter0_d" x="4.00008" y="-0.85791" width="180.789" height="144.679" filterUnits="userSpaceOnUse" color-interpolation-filters="sRGB">
<feFlood flood-opacity="0" result="BackgroundImageFix"/>
<feColorMatrix in="SourceAlpha" type="matrix" values="0 0 0 0 0 0 0 0 0 0 0 0 0 0 0 0 0 0 127 0"/>
<feOffset dy="4"/>
<feGaussianBlur stdDeviation="6"/>
<feColorMatrix type="matrix" values="0 0 0 0 0 0 0 0 0 0 0 0 0 0 0 0 0 0 0.25 0"/>
<feBlend mode="normal" in2="BackgroundImageFix" result="effect1_dropShadow"/>
<feBlend mode="normal" in="SourceGraphic" in2="effect1_dropShadow" result="shape"/>
</filter>
<filter id="filter1_d" x="7.62939e-05" y="-0.947205" width="176.787" height="137.777" filterUnits="userSpaceOnUse" color-interpolation-filters="sRGB">
<feFlood flood-opacity="0" result="BackgroundImageFix"/>
<feColorMatrix in="SourceAlpha" type="matrix" values="0 0 0 0 0 0 0 0 0 0 0 0 0 0 0 0 0 0 127 0"/>
<feOffset/>
<feGaussianBlur stdDeviation="4"/>
<feColorMatrix type="matrix" values="0 0 0 0 0 0 0 0 0 0 0 0 0 0 0 0 0 0 0.25 0"/>
<feBlend mode="normal" in2="BackgroundImageFix" result="effect1_dropShadow"/>
<feBlend mode="normal" in="SourceGraphic" in2="effect1_dropShadow" result="shape"/>
</filter>
<clipPath id="clip0">
<rect width="186" height="141" fill="white"/>
</clipPath>
</defs>
</svg>
