<svg xmlns="http://www.w3.org/2000/svg" width="834" height="1071" fill="none" preserveAspectRatio="none"  xmlns:v="https://vecta.io/nano"><style><![CDATA[.B{fill:#f5ead4}.C{color-interpolation-filters:sRGB}.D{flood-opacity:0}]]></style><g filter="url(#A)" class="B"><path d="M804.44 81.899c22.886 203.977 11.274 644.839 11.203 866.411 0 1.13-1.012 1.977-2.141 1.941-440.807-13.963-332.886-11.108-767.107.014-1.12.029-2.12-.687-2.127-1.807l-6.159-582.295c-3.183-98.748-24.686-230.703-27.747-249.076-.198-1.187.7-2.203 1.903-2.256l790.109-34.647c1.049-.046 1.949.671 2.066 1.715z"/></g><g filter="url(#B)" class="B"><path d="M805.378 94.122c15.044 194.358 5.62 626.372 5.562 845.684 0 1.136-1.024 1.986-2.159 1.94-439.52-17.606-329.82-13.74-775.503.005-1.157.036-2.191-.716-2.148-1.873l14.32-585.945c-3.178-98.635-24.626-230.399-27.725-249.016-.202-1.212.737-2.237 1.965-2.253L803.364 92.34c1.053-.014 1.933.731 2.014 1.782z"/></g><g filter="url(#C)" class="B"><path d="M802.292 81.661c6.114 208.288 7.46 650.911 1.008 850.264-.035 1.103-1.033 1.901-2.137 1.865-452.104-14.661-336.42-13.382-770.369-.039-1.152.036-2.182-.712-2.148-1.864l11.195-590.292L28.689 82.242c-.056-1.118.901-2.022 2.02-2.058 469.144-14.844 310.435-14.843 769.571-.408 1.057.033 1.98.828 2.012 1.885z"/></g><defs><filter id="A" x="-89.665" y=".182" width="1008.32" height="1070.08" filterUnits="userSpaceOnUse" class="C"><feFlood result="A" class="D"/><feColorMatrix in="SourceAlpha" values="0 0 0 0 0 0 0 0 0 0 0 0 0 0 0 0 0 0 127 0"/><feOffset dy="20"/><feGaussianBlur stdDeviation="50"/><feColorMatrix values="0 0 0 0 0 0 0 0 0 0 0 0 0 0 0 0 0 0 0.25 0"/><feBlend in2="A"/><feBlend in="SourceGraphic"/></filter><filter id="B" x="5.698" y="84.34" width="820.21" height="873.412" filterUnits="userSpaceOnUse" class="C"><feFlood result="A" class="D"/><feColorMatrix in="SourceAlpha" values="0 0 0 0 0 0 0 0 0 0 0 0 0 0 0 0 0 0 127 0"/><feOffset dy="4"/><feGaussianBlur stdDeviation="6"/><feColorMatrix values="0 0 0 0 0 0 0 0 0 0 0 0 0 0 0 0 0 0 0.25 0"/><feBlend in2="A"/><feBlend in="SourceGraphic"/></filter><filter id="C" x="20.646" y="63" width="794.904" height="880.791" filterUnits="userSpaceOnUse" class="C"><feFlood result="A" class="D"/><feColorMatrix in="SourceAlpha" values="0 0 0 0 0 0 0 0 0 0 0 0 0 0 0 0 0 0 127 0"/><feOffset dy="2"/><feGaussianBlur stdDeviation="4"/><feColorMatrix values="0 0 0 0 0 0 0 0 0 0 0 0 0 0 0 0 0 0 0.25 0"/><feBlend in2="A"/><feBlend in="SourceGraphic"/></filter></defs></svg>