<svg xmlns="http://www.w3.org/2000/svg" xmlns:xlink="http://www.w3.org/1999/xlink" width="375" height="563" fill="none" preserveAspectRatio="none" xmlns:v="https://vecta.io/nano"><g filter="url(#A)"><use xlink:href="#C" fill="#f5ead4"/></g><g filter="url(#B)"><use xlink:href="#C" x="4" y="-4" fill="#f5ead4"/></g><defs><filter id="A" x="-7.967" y="2" width="382.967" height="560.883" filterUnits="userSpaceOnUse" color-interpolation-filters="sRGB"><feFlood flood-opacity="0" result="A"/><feColorMatrix in="SourceAlpha" values="0 0 0 0 0 0 0 0 0 0 0 0 0 0 0 0 0 0 127 0"/><feOffset dy="4"/><feGaussianBlur stdDeviation="6"/><feColorMatrix values="0 0 0 0 0 0 0 0 0 0 0 0 0 0 0 0 0 0 0.25 0"/><feBlend in2="A"/><feBlend in="SourceGraphic"/></filter><filter id="B" x=".033" y="0" width="374.967" height="552.883" filterUnits="userSpaceOnUse" color-interpolation-filters="sRGB"><feFlood flood-opacity="0" result="A"/><feColorMatrix in="SourceAlpha" values="0 0 0 0 0 0 0 0 0 0 0 0 0 0 0 0 0 0 127 0"/><feOffset dy="2"/><feGaussianBlur stdDeviation="4"/><feColorMatrix values="0 0 0 0 0 0 0 0 0 0 0 0 0 0 0 0 0 0 0.25 0"/><feBlend in2="A"/><feBlend in="SourceGraphic"/></filter><path id="C" d="M361.15 18.537c2.15 129.323 2.624 402.497.361 526.449-.021 1.134-1.021 1.958-2.153 1.894-158.697-8.993-200.84-8.212-353.172-.021-1.159.062-2.172-.667-2.153-1.827l3.951-365.775-3.93-160.383c-.031-1.083.853-1.939 1.935-1.998 164.836-9.125 191.912-9.125 353.228-.251 1.048.058 1.914.863 1.932 1.912z"/></defs></svg>